<svg width="44" height="44" viewBox="0 0 44 44" fill="none" xmlns="http://www.w3.org/2000/svg">
<path d="M43.8895 22.0405C43.8895 22.356 43.8841 22.6742 43.8679 22.9843C40.7855 23.0113 38.5661 23.1138 36.9723 23.2378C34.9875 23.3915 33.9736 23.5857 33.472 23.7178C31.0314 24.2113 28.839 25.4033 27.1158 27.0672C27.0969 27.0887 27.0753 27.1076 27.0537 27.1292C25.3871 28.8524 24.2033 31.0422 23.7071 33.4827C23.5722 33.9843 23.3808 34.9983 23.2271 36.9831C23.1003 38.5769 23.0005 40.8017 22.9736 43.8948C22.658 43.9083 22.3344 43.9164 22.0135 43.9164C21.6926 43.9164 21.369 43.9083 21.0535 43.8948C21.0265 40.8017 20.924 38.5796 20.8 36.9831C20.6463 34.9983 20.4521 33.9843 20.32 33.4827C19.8238 31.0422 18.6372 28.8524 16.9733 27.1292C16.9517 27.1076 16.9302 27.0887 16.9113 27.0672C15.1881 25.4006 12.9956 24.2113 10.5551 23.7178C10.0535 23.583 9.03951 23.3888 7.05471 23.2378C5.46363 23.1111 3.24422 23.0113 0.159147 22.9843C0.142967 22.6742 0.137573 22.356 0.137573 22.0405C0.137573 21.7249 0.142967 21.4067 0.159147 21.0939C3.24152 21.0669 5.46094 20.9645 7.05471 20.8404C9.03951 20.6867 10.0535 20.4925 10.5551 20.3604C12.9956 19.8669 15.1881 18.6749 16.9113 17.011C16.9302 16.9895 16.9517 16.9706 16.9733 16.949C18.6399 15.2258 19.8238 13.036 20.32 10.5955C20.4548 10.0939 20.6463 9.07992 20.8 7.09512C20.9267 5.50135 21.0265 3.27654 21.0535 0.183378C21.369 0.169894 21.6926 0.161804 22.0135 0.161804C22.3344 0.161804 22.658 0.169894 22.9736 0.183378C23.0005 3.27654 23.103 5.49865 23.2271 7.09512C23.3808 9.07992 23.5749 10.0939 23.7071 10.5955C24.2033 13.036 25.3898 15.2258 27.0537 16.949C27.0753 16.9706 27.0969 16.9895 27.1158 17.011C28.839 18.6776 31.0314 19.8669 33.472 20.3604C33.9736 20.4952 34.9875 20.6867 36.9723 20.8404C38.5634 20.9671 40.7828 21.0669 43.8679 21.0939C43.8841 21.4067 43.8895 21.7249 43.8895 22.0405Z" fill="white"/>
</svg>
