<svg width="32" height="20" viewBox="0 0 32 20" fill="none" xmlns="http://www.w3.org/2000/svg">
<path d="M24.5724 10.4886C28.1699 7.62465 29.7879 3.62539 30.2464 0.885498H24.9284C24.4106 2.77322 22.9436 6.1792 18.9308 7.85118C18.5911 7.9941 18.2324 8.12355 17.8548 8.23951V0.885498H12.6744V14.3314C11.4339 13.8191 10.3552 13.0748 9.42215 12.0958C6.22381 8.73031 5.59547 3.42852 5.4876 0.885498H0.299072C0.409639 4.07574 1.19169 10.9389 5.64131 15.6394C5.77076 15.7769 5.9002 15.909 6.03504 16.0385C8.632 18.5896 12.1782 19.9353 15.8188 19.9353H17.8521V18.9456H17.8575V12.9372C18.227 13.0559 18.583 13.1853 18.9228 13.3229H18.9255C23.1297 15.0137 25.2412 18.088 26.1797 19.9353H31.7727C31.5273 19.1397 29.8041 14.0618 24.5724 10.4886Z" fill="white"/>
</svg>
