<svg width="371" height="96" viewBox="0 0 371 96" fill="none" xmlns="http://www.w3.org/2000/svg">
<path d="M192.087 26.5338C180.205 26.5338 170.664 29.6346 163.463 35.8363C159.941 38.8169 157.145 42.5201 155.277 46.6781C153.409 50.8361 152.516 55.3453 152.661 59.8796V62.0879C152.661 71.9518 156.262 79.98 163.463 86.1726C170.664 92.3651 181.029 95.4384 194.56 95.3924C202.095 95.6055 209.585 94.1913 216.49 91.2517C222.535 88.4913 226.832 85.2294 229.38 81.466L221.165 75.1171C218.367 79.4509 214.56 83.0864 210.051 85.7309C205.376 88.601 199.949 90.1054 194.418 90.0648C184.204 90.0648 176.737 87.447 172.019 82.2114C167.3 76.9758 164.932 70.3461 164.913 62.3225V61.8533H229.622V58.6789C229.849 48.7966 226.713 40.9754 220.213 35.2153C213.713 29.4552 204.338 26.5614 192.087 26.5338ZM165.083 56.8983C165.337 50.5806 167.701 44.5148 171.82 39.6181C176.32 34.3549 182.564 31.728 190.552 31.7372C201.325 31.7372 208.431 34.3641 211.871 39.6181C215.09 44.821 216.831 50.76 216.916 56.8293L165.083 56.8983Z" fill="white"/>
<path d="M12.4945 73.789V75.8399C12.3665 77.8814 12.8162 79.918 13.7952 81.73C14.7741 83.542 16.2451 85.0607 18.0495 86.1221C21.8381 88.4163 27.4548 89.5633 34.8994 89.5633C42.0125 89.5633 47.4775 88.508 51.2945 86.3974C53.0181 85.6056 54.4704 84.3502 55.478 82.7809C56.4856 81.2116 57.0061 79.3947 56.9774 77.5467C57.0504 75.7996 56.5927 74.0701 55.6608 72.5726C54.7289 71.0752 53.3638 69.8757 51.735 69.1227C48.221 67.3333 41.3826 65.7091 31.2197 64.25C20.3085 62.6625 12.7881 60.3225 8.65856 57.23C6.72683 55.9005 5.15493 54.1388 4.0765 52.0947C2.99806 50.0505 2.44499 47.7843 2.46422 45.4887C2.46422 39.8176 5.35299 35.2294 11.1306 31.724C16.9082 28.2186 24.7317 26.4888 34.601 26.5346C44.5366 26.5346 52.4406 28.4296 58.3129 32.2195C64.1852 36.0094 67.1262 40.8592 67.1357 46.7688V47.4708H54.6759V45.819C54.7191 43.9017 54.2705 42.0039 53.3705 40.2958C52.4704 38.5878 51.1469 37.1229 49.5186 36.0323C46.0805 33.5639 40.9232 32.3112 34.0469 32.2745C27.1706 32.2378 22.0418 33.206 18.6605 35.1789C17.1078 35.9378 15.8086 37.1072 14.9135 38.5517C14.0184 39.9963 13.5639 41.6569 13.6027 43.3414C13.5375 44.9717 13.9499 46.5864 14.7921 47.9992C15.6343 49.4119 16.8721 50.565 18.3621 51.3249C21.5256 53.0868 28.4209 54.6606 39.0479 56.0462C49.2676 57.4319 56.7075 59.6985 61.3675 62.846C63.5458 64.1957 65.3315 66.0626 66.5549 68.2695C67.7784 70.4764 68.3989 72.9497 68.3575 75.4545C68.3575 81.4467 65.4686 86.2644 59.691 89.9074C53.9134 93.5505 45.3228 95.3858 33.9191 95.4133C22.6575 95.4133 14.1947 93.5414 8.53075 89.7974C5.8478 88.1487 3.65202 85.8539 2.15795 83.1374C0.663872 80.4208 -0.0774191 77.3754 0.00639486 74.2983V73.8165L12.4945 73.789Z" fill="white"/>
<path d="M74.3315 1.84091H87.3772V39.492C87.3772 38.9092 89.5253 37.3271 89.9692 36.9107C90.9811 35.9855 92.0408 35.0603 93.1482 34.1351C95.2548 32.5288 97.5243 31.1338 99.9217 29.9717C110.962 24.6009 127.13 25.2116 137.254 32.331C142.696 36.1521 145.393 42.5129 145.345 51.4133V93.4638H132.242V51.8296C132.242 44.9924 130.333 40.1582 126.514 37.3271C118.638 31.526 107.339 32.0396 98.9336 36.5638C94.4046 39.0991 90.4962 42.5554 87.4775 46.6947V93.3944H74.3602L74.3315 1.84091Z" fill="white"/>
<path d="M237.185 27.3307H249.971V93.4634H237.185V27.3307Z" fill="white"/>
<path d="M259.5 28.2079H271.824L272.067 38.3437H272.311C274.779 34.9557 277.992 32.1308 281.723 30.0695C285.963 27.6638 290.816 26.4414 295.739 26.5392C297.019 26.5494 298.298 26.6277 299.569 26.7736C300.606 26.8736 301.633 27.0534 302.64 27.3115V34.2066C301.492 33.9998 300.287 33.8619 299.01 33.7516C297.733 33.6413 296.413 33.6137 295.065 33.6137C290.239 33.5034 285.49 34.7911 281.436 37.3095C277.781 39.5657 274.757 42.648 272.627 46.287V93.4639H259.5V28.2079Z" fill="white"/>
<path d="M370.929 77.191V48.6548C370.929 41.1982 367.986 35.6679 362.1 32.064C356.214 28.4601 348.042 26.6167 337.583 26.5338C326.699 26.5338 318.271 28.3173 312.3 31.8843C306.329 35.4513 303.343 40.0138 303.343 45.5717V47.3967H315.63V45.5717C315.59 43.6291 316.045 41.7071 316.955 39.979C317.866 38.2509 319.203 36.7709 320.846 35.6725C324.323 33.2023 329.925 31.9626 337.654 31.9534C344.919 31.9534 350.21 33.4558 353.526 36.4606C355.201 38.0334 356.51 39.9382 357.365 42.0465C358.221 44.1549 358.603 46.4178 358.486 48.6825V55.5953H336.123C324.171 55.5953 314.832 57.3558 308.105 60.8768C301.378 64.3977 298.01 69.209 298.001 75.3108C297.923 78.1974 298.643 81.0513 300.084 83.5737C301.525 86.096 303.635 88.194 306.192 89.648C311.643 93.0675 318.682 94.7727 327.308 94.7635C335.537 94.7635 342.321 93.3809 347.659 90.6158C351.727 88.7194 355.372 86.0603 358.387 82.7904V93.3947H371V79.569C370.943 78.7809 370.929 77.9929 370.929 77.191ZM358.43 69.4763V71.8267C358.061 76.1864 355.26 80.2096 350.026 83.8964C344.767 87.7464 338.375 89.8364 331.801 89.8553C325.31 89.8553 320.113 88.7354 316.211 86.4957C312.309 84.2559 310.377 80.4308 310.415 75.0204C310.415 70.4579 312.824 67.0015 317.643 64.6511C322.461 62.3008 329.103 61.1256 337.569 61.1256H358.415L358.43 69.4763Z" fill="white"/>
<path d="M286.712 34.9808L299.985 31.0819L286.712 34.9808Z" fill="white"/>
</svg>
