<svg width="17" height="16" viewBox="0 0 17 16" fill="none" xmlns="http://www.w3.org/2000/svg">
<g id="icon_16/discussion">
<path id="Union" fill-rule="evenodd" clip-rule="evenodd" d="M1.32031 5.79573C1.32031 3.42328 3.24359 1.5 5.61604 1.5C7.98849 1.5 9.91174 3.42328 9.9118 5.79573C9.9118 5.88692 9.90833 5.97729 9.90272 6.06706C9.50399 6.13364 9.11489 6.24638 8.73933 6.40522C8.29641 6.59258 7.88598 6.83786 7.51334 7.13667V6.97504H3.71874V7.88805L6.75001 7.88807C6.42812 8.27709 6.16593 8.70877 5.96807 9.17651C5.84248 9.47335 5.74592 9.7787 5.67789 10.0905C5.6712 10.0906 5.66451 10.0907 5.65783 10.0909C5.64392 10.0912 5.63003 10.0915 5.61604 10.0915C4.67801 10.0915 3.81037 9.7906 3.10392 9.28042L1.36229 9.74707L1.8615 7.88397C1.51691 7.26576 1.32031 6.55373 1.32031 5.79573ZM3.71874 5.3392V6.25223H7.51334V5.3392H3.71874ZM3.71874 3.70339V4.61642H7.51334V3.70339H3.71874ZM10.7567 6.90625C13.1291 6.90625 15.0524 8.82953 15.0524 11.202C15.0524 11.96 14.8558 12.672 14.5112 13.2902L15.0104 15.1533L13.2688 14.6867C12.5623 15.1969 11.6946 15.4977 10.7566 15.4977C8.38419 15.4977 6.46094 13.5744 6.46094 11.202C6.46094 8.82955 8.38424 6.90625 10.7567 6.90625ZM8.85934 12.3813V13.2943H12.6539V12.3813H8.85934ZM8.85934 11.6585H12.6539V10.7455H8.85934V11.6585ZM8.85934 10.0227H12.6539V9.10964H8.85934V10.0227Z" fill="white"/>
</g>
</svg>
