<svg width="17" height="16" viewBox="0 0 17 16" fill="none" xmlns="http://www.w3.org/2000/svg">
<g id="icon_16/sos">
<path id="Union" fill-rule="evenodd" clip-rule="evenodd" d="M4.23893 9.71325C4.23893 9.2723 3.7557 9.04781 3.19351 8.78664C2.4117 8.42344 1.47718 7.98929 1.47718 6.8034C1.47718 5.49652 2.61848 5 3.70749 5C4.16921 5 5.44118 5.08709 5.44118 5.76668C5.44118 6.00187 5.28437 6.48107 4.90103 6.48107C4.77604 6.48107 4.67456 6.42849 4.5525 6.36524C4.36827 6.26978 4.13714 6.15002 3.70749 6.15002C3.08886 6.15002 2.83624 6.40269 2.83624 6.67279C2.83624 7.00949 3.24875 7.19134 3.75492 7.41447C4.55844 7.76869 5.59799 8.22696 5.59799 9.57392C5.59799 10.8285 4.68321 11.508 3.41996 11.508C2.27861 11.508 1.32031 10.9505 1.32031 10.3755C1.32031 10.0792 1.5817 9.64364 1.91275 9.64364C2.0829 9.64364 2.22747 9.75494 2.39646 9.88506C2.63418 10.0681 2.92022 10.2883 3.39376 10.2883C3.79458 10.2883 4.23893 10.1314 4.23893 9.71325ZM6.20312 9.41555V7.10686C6.20312 5.60836 7.13533 5.05078 8.33758 5.05078C9.53983 5.05078 10.4807 5.60836 10.4807 7.10686V9.41555C10.4807 10.914 9.53983 11.4716 8.33758 11.4716C7.13533 11.4716 6.20312 10.914 6.20312 9.41555ZM9.12168 7.10686C9.12168 6.5057 8.82544 6.23566 8.33758 6.23566C7.84972 6.23566 7.56219 6.5057 7.56219 7.10686V9.41555C7.56219 10.0167 7.84972 10.2867 8.33758 10.2867C8.82544 10.2867 9.12168 10.0167 9.12168 9.41555V7.10686ZM12.9123 8.78664C13.4744 9.04781 13.9577 9.2723 13.9577 9.71325C13.9577 10.1314 13.5133 10.2883 13.1125 10.2883C12.639 10.2883 12.3529 10.0681 12.1152 9.88506C11.9462 9.75494 11.8016 9.64364 11.6315 9.64364C11.3004 9.64364 11.0391 10.0792 11.0391 10.3755C11.0391 10.9505 11.9974 11.508 13.1387 11.508C14.402 11.508 15.3167 10.8285 15.3167 9.57392C15.3167 8.22696 14.2772 7.76869 13.4737 7.41447C12.9675 7.19134 12.555 7.00949 12.555 6.67279C12.555 6.40269 12.8076 6.15002 13.4262 6.15002C13.8559 6.15002 14.087 6.26978 14.2712 6.36524C14.3933 6.42849 14.4948 6.48107 14.6198 6.48107C15.0031 6.48107 15.1599 6.00187 15.1599 5.76668C15.1599 5.08709 13.888 5 13.4262 5C12.3372 5 11.1959 5.49652 11.1959 6.8034C11.1959 7.98929 12.1304 8.42344 12.9123 8.78664Z" fill="white"/>
</g>
</svg>
