<svg width="10" height="10" viewBox="0 0 10 10" fill="none" xmlns="http://www.w3.org/2000/svg">
<g clip-path="url(#clip0_10071_46662)">
<path d="M4.99789 0.520508C5.43508 0.520508 5.77946 0.85073 5.99932 1.29631L6.7335 2.77682C6.75576 2.82264 6.80854 2.88717 6.88787 2.94619C6.96713 3.00515 7.04474 3.03768 7.0958 3.04626L8.42482 3.26889C8.90488 3.34956 9.30725 3.58488 9.43787 3.99463C9.56839 4.40405 9.37716 4.82951 9.03195 5.17536L9.03161 5.1757L7.99914 6.2167C7.95822 6.25796 7.91238 6.33568 7.88364 6.43694C7.85508 6.53752 7.85255 6.62912 7.8655 6.68832L7.86568 6.68914L8.16107 7.97692C8.28358 8.5129 8.24298 9.04439 7.86496 9.32225C7.48564 9.60106 6.9673 9.47748 6.4964 9.19702L5.25058 8.45343C5.19826 8.42217 5.10841 8.39685 4.99997 8.39685C4.89232 8.39685 4.80058 8.42184 4.74486 8.45425L4.74407 8.45471L3.50071 9.19684C3.03037 9.47828 2.51265 9.59968 2.13331 9.3206C1.75555 9.04268 1.7129 8.51219 1.83581 7.97664L2.13114 6.68914L2.13132 6.68832C2.14427 6.62912 2.14173 6.53752 2.11318 6.43694C2.08443 6.33568 2.03859 6.25796 1.99767 6.2167L0.964449 5.17494C0.621448 4.8291 0.430848 4.40401 0.560323 3.9952C0.690176 3.58519 1.09177 3.34959 1.57215 3.26887L2.90006 3.04642L2.90048 3.04635C2.94917 3.0379 3.02564 3.00574 3.10471 2.94663C3.18393 2.8874 3.23684 2.82274 3.25915 2.77682L3.26027 2.77454L3.99352 1.29591L3.99381 1.29533C4.21575 0.850123 4.56119 0.520508 4.99789 0.520508Z" fill="#6B5AE7"/>
</g>
<defs>
<clipPath id="clip0_10071_46662">
<rect width="10" height="10" fill="white"/>
</clipPath>
</defs>
</svg>
