<svg width="61" height="68" viewBox="0 0 61 68" fill="none" xmlns="http://www.w3.org/2000/svg">
<g id="Frame" clip-path="url(#clip0_169_10504)">
<g id="Group">
<g id="Group_2">
<g id="Group_3">
<path id="Vector" d="M14.2228 56.2964C14.2228 56.2964 9.79116 52.5398 12.4118 46.4118C15.0325 40.2838 22.6943 39.3765 30.0688 39.3765C41.3178 39.3721 54.7607 43.2733 45.7929 56.2964C45.7929 56.2964 34.6311 63.7306 14.2228 56.2964Z" fill="#FF9A40"/>
</g>
</g>
<g id="Group_4">
<g id="Group_5">
<path id="Vector_2" d="M25.3191 48.9542C25.1754 48.9542 25.0448 48.8621 24.9969 48.7175C24.1742 46.1532 21.9061 44.5401 21.8843 44.5269C21.732 44.4217 21.6928 44.207 21.8016 44.0535C21.9061 43.9001 22.1151 43.8607 22.2718 43.9703C22.3719 44.0404 24.7488 45.7236 25.6412 48.5115C25.6978 48.6912 25.602 48.8797 25.4236 48.9366C25.3887 48.9498 25.3539 48.9542 25.3191 48.9542Z" fill="#E96D17"/>
</g>
</g>
<g id="Group_6">
<g id="Group_7">
<path id="Vector_3" d="M30.0908 53.5128C29.982 53.5128 29.8732 53.4559 29.8079 53.355C26.8737 48.7525 18.141 47.4199 18.054 47.4068C17.8711 47.3805 17.7449 47.2095 17.771 47.021C17.7971 46.8369 17.9669 46.7098 18.1541 46.7361C18.5241 46.7887 27.2743 48.1256 30.3782 52.9868C30.4783 53.1446 30.4347 53.355 30.278 53.4559C30.2171 53.4953 30.1561 53.5128 30.0908 53.5128Z" fill="#E96D17"/>
</g>
</g>
<g id="Group_8">
<g id="Group_9">
<path id="Vector_4" d="M60.3635 68.0001H0.63623C0.63623 68.0001 1.23699 60.4957 4.84152 59.0448C6.29987 58.4574 9.63885 56.783 13.1041 54.9989C17.945 52.5048 23.0296 49.7871 23.5476 49.5109C23.5781 49.4934 23.5912 49.489 23.5912 49.489L24.0483 49.5942C24.6186 49.7213 25.1932 49.8353 25.7678 49.923C26.3381 50.015 26.9084 50.0895 27.4787 50.1465C30.6305 50.4577 33.8214 50.2386 36.9166 49.4934C36.921 49.4934 36.9253 49.489 36.9297 49.489C36.9297 49.489 40.8346 51.5141 45.1923 53.7234C45.7495 54.0039 46.3154 54.2932 46.8813 54.5781C50.7297 56.52 54.5867 58.4136 56.1582 59.0492C59.7627 60.5001 60.3635 68.0001 60.3635 68.0001Z" fill="#FF9A40"/>
</g>
</g>
<g id="Group_10">
<g id="Group_11">
<g id="Group_12">
<g id="Group_13">
<g id="Group_14">
<g id="Group_15">
<path id="Vector_5" d="M33.2731 58.453C29.9864 58.453 27.2612 57.5807 25.324 56.6865C22.2593 55.2706 20.5136 53.5348 20.444 53.4603C20.3221 53.3376 20.3221 53.1359 20.444 53.0132C20.5659 52.8905 20.7661 52.8905 20.888 53.0132C20.9054 53.0307 22.6424 54.7534 25.6113 56.121C28.3408 57.3791 32.7029 58.5889 37.9921 57.1993C38.1619 57.1555 38.3317 57.2563 38.3752 57.4273C38.4187 57.5982 38.3186 57.7692 38.1488 57.813C36.4206 58.2645 34.7881 58.453 33.2731 58.453Z" fill="#E96D17"/>
</g>
</g>
</g>
</g>
</g>
<g id="Group_16">
<g id="Group_17">
<g id="Group_18">
<g id="Group_19">
<g id="Group_20">
<path id="Vector_6" d="M31.7232 61.4995C30.6653 61.4995 29.4987 61.3943 28.2449 61.1269C28.0751 61.0919 27.9663 60.9253 28.0011 60.7544C28.0359 60.5834 28.2057 60.4738 28.3711 60.5089C34.579 61.8151 38.4621 59.0711 38.5013 59.0448C38.6406 58.944 38.8408 58.9747 38.941 59.1194C39.0411 59.2596 39.0106 59.4613 38.867 59.5621C38.732 59.6585 36.12 61.4995 31.7232 61.4995Z" fill="#E96D17"/>
</g>
</g>
</g>
</g>
</g>
</g>
<g id="Group_21">
<g id="Group_22">
<g id="Group_23">
<g id="Group_24">
<g id="Group_25">
<g id="Group_26">
<g id="Group_27">
<path id="Vector_7" d="M37.2346 51.0188C37.2346 51.0188 36.0636 54.7272 30.6829 54.7272C24.4054 54.7272 22.9253 51.3564 22.9253 51.3564C23.4695 49.9011 23.8438 48.551 24.0963 47.3455C24.5621 45.1363 24.6274 43.4049 24.597 42.3397L35.6282 41.9014C35.7283 42.8438 35.8981 43.9484 36.0853 45.0618C36.5816 48.0206 37.2346 51.0188 37.2346 51.0188Z" fill="#FFB8A1"/>
</g>
</g>
</g>
</g>
</g>
<g id="Group_28">
<g id="Group_29">
<g id="Group_30">
<g id="Group_31">
<g id="Group_32">
<path id="Vector_8" d="M36.0857 45.0618C34.3749 46.2585 30.6397 48.0381 24.1011 47.3455C24.5669 45.1363 24.6322 43.4049 24.6017 42.3397L35.633 41.9014C35.7331 42.8394 35.8985 43.9484 36.0857 45.0618Z" fill="#3F2037"/>
</g>
</g>
</g>
</g>
</g>
</g>
<g id="Group_33">
<g id="Group_34">
<g id="Group_35">
<g id="Group_36">
<g id="Group_37">
<g id="Group_38">
<g id="Group_39">
<path id="Vector_9" d="M20.3914 27.8568C20.3914 27.8568 16.9784 23.1797 14.3229 25.9456C11.6674 28.7159 16.7869 38.355 21.4319 36.2553L20.3914 27.8568Z" fill="#FFB8A1"/>
</g>
</g>
</g>
</g>
</g>
<g id="Group_40">
<g id="Group_41">
<g id="Group_42">
<g id="Group_43">
<g id="Group_44">
<path id="Vector_10" d="M18.7639 33.3843C18.6463 33.3843 18.5462 33.2966 18.5288 33.1783C18.0804 29.9258 15.5163 27.9313 15.4902 27.9138C15.3857 27.8349 15.3683 27.6859 15.4466 27.5807C15.525 27.4755 15.673 27.4579 15.7775 27.5368C15.8907 27.6201 18.5244 29.6715 18.9989 33.1125C19.0164 33.244 18.9249 33.3624 18.7987 33.3799C18.7856 33.3843 18.7726 33.3843 18.7639 33.3843Z" fill="#FF8A8A"/>
</g>
</g>
</g>
</g>
</g>
<g id="Group_45">
<g id="Group_46">
<g id="Group_47">
<g id="Group_48">
<g id="Group_49">
<path id="Vector_11" d="M18.0497 31.0522C17.9757 31.0522 17.9017 31.0171 17.8538 30.947C17.5099 30.4385 16.4869 30.3859 16.1212 30.4078C15.9906 30.4166 15.8774 30.3157 15.8731 30.1842C15.8644 30.0527 15.9645 29.9388 16.0951 29.9344C16.1604 29.93 17.6841 29.8467 18.2456 30.6839C18.3196 30.7935 18.2892 30.9382 18.1803 31.0127C18.1412 31.039 18.0933 31.0522 18.0497 31.0522Z" fill="#FF8A8A"/>
</g>
</g>
</g>
</g>
</g>
</g>
</g>
<g id="Group_50">
<g id="Group_51">
<g id="Group_52">
<g id="Group_53">
<g id="Group_54">
<g id="Group_55">
<g id="Group_56">
<path id="Vector_12" d="M41.183 27.8568C41.183 27.8568 44.596 23.1797 47.2515 25.9456C49.907 28.7159 44.7875 38.355 40.1426 36.2553L41.183 27.8568Z" fill="#FFB8A1"/>
</g>
</g>
</g>
</g>
</g>
<g id="Group_57">
<g id="Group_58">
<g id="Group_59">
<g id="Group_60">
<g id="Group_61">
<path id="Vector_13" d="M42.8113 33.3842C42.8026 33.3842 42.7895 33.3842 42.7764 33.3798C42.6458 33.3623 42.5588 33.2439 42.5762 33.1124C43.0507 29.6714 45.6844 27.62 45.7976 27.5367C45.9021 27.4578 46.0501 27.4797 46.1285 27.5806C46.2068 27.6858 46.1851 27.8348 46.0849 27.9137C46.0588 27.9312 43.4904 29.9344 43.0463 33.1782C43.0289 33.3009 42.9288 33.3842 42.8113 33.3842Z" fill="#FF8A8A"/>
</g>
</g>
</g>
</g>
</g>
<g id="Group_62">
<g id="Group_63">
<g id="Group_64">
<g id="Group_65">
<g id="Group_66">
<path id="Vector_14" d="M43.5257 31.0523C43.4822 31.0523 43.4343 31.0392 43.3951 31.0129C43.2863 30.9383 43.2602 30.7937 43.3342 30.6841C43.8958 29.8469 45.4194 29.9345 45.4847 29.9389C45.6153 29.9477 45.7111 30.0617 45.7067 30.1888C45.698 30.3203 45.5848 30.4211 45.4586 30.4123C45.0929 30.3904 44.0699 30.443 43.726 30.9515C43.6781 31.0172 43.6041 31.0523 43.5257 31.0523Z" fill="#FF8A8A"/>
</g>
</g>
</g>
</g>
</g>
</g>
</g>
<g id="Group_67">
<g id="Group_68">
<g id="Group_69">
<g id="Group_70">
<g id="Group_71">
<path id="Vector_15" d="M33.6644 14.22C24.1176 11.8749 15.4763 20.5672 17.6268 30.2194C19.1461 37.0356 22.4808 45.627 30.678 45.8243C39.2192 46.0259 42.6453 36.663 43.8642 29.5575C44.9786 23.0569 41.2174 16.6528 34.9878 14.597C34.5568 14.4611 34.1171 14.334 33.6644 14.22Z" fill="#FFB8A1"/>
</g>
</g>
</g>
</g>
</g>
<g id="Group_72">
<g id="Group_73">
<path id="Vector_16" d="M31.3618 36.102C30.957 36.102 30.5129 35.9968 30.021 35.782C29.8817 35.7206 29.8033 35.576 29.8208 35.427L30.5042 30.1493C30.5303 29.9652 30.6958 29.8337 30.883 29.8557C31.0658 29.882 31.1964 30.0485 31.1746 30.237L30.526 35.256C31.1964 35.5015 31.7144 35.4796 32.1411 35.1903C32.2934 35.0851 32.5024 35.1245 32.6069 35.2823C32.7114 35.4357 32.6722 35.6461 32.5155 35.7513C32.1672 35.9836 31.7841 36.102 31.3618 36.102Z" fill="#FF8A8A"/>
</g>
</g>
<g id="Group_74">
<g id="Group_75">
<path id="Vector_17" d="M30.7352 39.5826C28.8067 39.5826 27.344 38.7804 27.3222 38.7672C27.1611 38.6752 27.1002 38.4692 27.1916 38.307C27.283 38.1448 27.4876 38.0834 27.6487 38.1755C27.8098 38.2675 31.5362 40.2883 34.762 37.2857C34.8969 37.1585 35.1103 37.1673 35.2365 37.3032C35.3627 37.4391 35.354 37.6539 35.2191 37.781C33.7259 39.1749 32.1108 39.5826 30.7352 39.5826Z" fill="#FF8A8A"/>
</g>
</g>
<g id="Group_76">
<g id="Group_77">
<path id="Vector_18" d="M31.2839 41.5198C30.522 41.5198 29.9126 41.3313 29.869 41.3181C29.6906 41.2612 29.5948 41.0727 29.647 40.893C29.7036 40.7132 29.8908 40.6168 30.0693 40.6694C30.0824 40.6738 31.5755 41.1297 32.6247 40.5291C32.7858 40.4371 32.9904 40.4941 33.0818 40.6563C33.1732 40.8184 33.1166 41.0245 32.9555 41.1165C32.4201 41.4277 31.815 41.5198 31.2839 41.5198Z" fill="#FF8A8A"/>
</g>
</g>
<g id="Group_78">
<g id="Group_79">
<path id="Vector_19" d="M24.179 26.4629C24.9017 26.0728 25.9595 25.5862 26.9912 25.4372C27.5441 25.3539 27.8924 24.7972 27.7008 24.2668L27.6617 24.1616C27.5267 23.7803 27.148 23.5392 26.7475 23.583C25.8289 23.6794 24.2051 24.0038 23.1429 25.069C22.9122 25.3013 22.8338 25.6432 22.9296 25.9544C23.095 26.476 23.6958 26.7259 24.179 26.4629Z" fill="#3F2037"/>
</g>
</g>
<g id="Group_80">
<g id="Group_81">
<path id="Vector_20" d="M38.101 26.4629C37.3783 26.0728 36.3205 25.5862 35.2887 25.4372C34.7359 25.3539 34.3876 24.7972 34.5791 24.2668L34.6183 24.1616C34.7533 23.7803 35.132 23.5392 35.5325 23.583C36.4511 23.6794 38.0748 24.0038 39.1371 25.069C39.3678 25.3013 39.4461 25.6432 39.3504 25.9544C39.1849 26.476 38.5842 26.7259 38.101 26.4629Z" fill="#3F2037"/>
</g>
</g>
<g id="Group_82" opacity="0.5">
<g id="Group_83">
<path id="Vector_21" d="M26.6435 32.5558C26.6435 33.3886 25.1199 34.0593 23.2392 34.0593C21.3586 34.0593 19.835 33.3842 19.835 32.5558C19.835 31.7229 21.3586 31.0522 23.2392 31.0522C25.1199 31.0522 26.6435 31.7273 26.6435 32.5558Z" fill="#FF8A8A"/>
</g>
</g>
<g id="Group_84" opacity="0.5">
<g id="Group_85">
<path id="Vector_22" d="M42.6543 32.5558C42.6543 33.3886 41.1306 34.0593 39.25 34.0593C37.3694 34.0593 35.8457 33.3842 35.8457 32.5558C35.8457 31.7229 37.3694 31.0522 39.25 31.0522C41.1306 31.0522 42.6543 31.7273 42.6543 32.5558Z" fill="#FF8A8A"/>
</g>
</g>
<g id="Group_86">
<g id="Group_87">
<g id="Group_88">
<g id="Group_89">
<g id="Group_90">
<path id="Vector_23" d="M17.9845 31.7055C17.9845 31.7055 16.1909 21.7552 16.7438 19.4802C17.2966 17.2052 18.4546 17.6216 18.4546 17.6216C18.4546 17.6216 8.78595 9.64385 13.5963 5.1158C17.079 1.8414 21.084 8.85045 21.084 8.85045C21.084 8.85045 19.0989 1.95976 21.9199 1.01294C25.433 -0.166191 27.0263 8.09212 27.0263 8.09212C27.0263 8.09212 26.7346 1.93346 29.5904 2.05181C33.5519 2.21838 31.3186 6.82532 35.6153 8.62252C39.912 10.4197 46.3985 11.3315 44.0607 18.5772C44.0607 18.5772 47.2125 18.4369 43.2902 31.368C42.2802 29.9521 41.7709 28.2294 41.8536 26.4892C41.9189 25.1523 41.9102 23.6006 41.6403 22.6494C41.6403 22.6494 39.185 20.9223 39.2982 18.3931C39.2982 18.3931 30.6526 23.5611 22.673 18.9542C22.673 18.9542 23.1736 21.9305 20.6661 22.382C20.6661 22.382 19.8477 24.3195 19.5734 27.0722C19.4167 28.6678 18.9117 30.2107 18.0628 31.5696L17.9845 31.7055Z" fill="#3F2037"/>
</g>
</g>
</g>
</g>
</g>
<g id="Group_91">
<g id="Group_92">
<g id="Group_93">
<g id="Group_94">
<g id="Group_95">
<path id="Vector_24" d="M43.2599 14.0361C43.2599 14.0361 44.6268 9.34149 46.8339 10.5425C48.4098 11.4017 44.74 14.9742 44.74 14.9742C44.74 14.9742 47.8265 13.2953 49.3501 14.4788C50.8738 15.6623 46.8296 17.0606 44.5005 16.6618C42.1715 16.2585 43.2599 14.0361 43.2599 14.0361Z" fill="#3F2037"/>
</g>
</g>
</g>
</g>
</g>
<g id="Group_96">
<g id="Group_97">
<g id="Group_98">
<g id="Group_99">
<g id="Group_100">
<g id="Group_101">
<g id="Group_102">
<path id="Vector_25" d="M26.878 29.0535C26.8954 29.9696 26.5558 30.7236 26.1292 30.728C25.6982 30.7367 25.3369 29.9959 25.3195 29.0798C25.3021 28.1637 25.6416 27.4097 26.0683 27.4054C26.5036 27.3966 26.8649 28.133 26.878 29.0535Z" fill="#3F2037"/>
</g>
</g>
</g>
</g>
</g>
</g>
<g id="Group_103">
<g id="Group_104">
<g id="Group_105">
<g id="Group_106">
<g id="Group_107">
<g id="Group_108">
<path id="Vector_26" d="M35.0275 29.0535C35.0101 29.9696 35.3496 30.7236 35.7763 30.728C36.2072 30.7367 36.5686 29.9959 36.586 29.0798C36.6034 28.1637 36.2638 27.4097 35.8372 27.4054C35.4062 27.3966 35.0449 28.133 35.0275 29.0535Z" fill="#3F2037"/>
</g>
</g>
</g>
</g>
</g>
</g>
</g>
</g>
<g id="Group_109">
<g id="Group_110">
<path id="Vector_27" d="M21.7719 58.567V68.0001H21.0972V58.567C21.0972 58.4925 21.1233 58.4224 21.1625 58.3654C21.2234 58.2821 21.3235 58.2295 21.4324 58.2295C21.5934 58.2295 21.7327 58.3478 21.7632 58.5013C21.7676 58.5232 21.7719 58.5451 21.7719 58.567Z" fill="white"/>
</g>
</g>
<g id="Group_111">
<g id="Group_112">
<path id="Vector_28" d="M40.4775 58.567V68.0001H39.8027V58.567C39.8027 58.3785 39.9551 58.2295 40.1379 58.2295C40.2859 58.2295 40.4122 58.3259 40.4557 58.4618C40.4731 58.4925 40.4775 58.5319 40.4775 58.567Z" fill="white"/>
</g>
</g>
</g>
</g>
<defs>
<clipPath id="clip0_169_10504">
<rect width="59.7273" height="67.101" fill="white" transform="translate(0.63623 0.898926)"/>
</clipPath>
</defs>
</svg>
