<svg width="73" height="73" viewBox="0 0 73 73" fill="none" xmlns="http://www.w3.org/2000/svg">
<g id="Frame 427321105">
<g clip-path="url(#clip0_169_10645)">
<circle id="Ellipse 1989" cx="36.5" cy="36.5" r="36.5" fill="#DFC2AB"/>
<g id="Group">
<g id="Group_2">
<g id="Group_3">
<path id="Vector" d="M68 73.895H3.81909C3.81909 73.895 4.46464 65.8911 8.33794 64.338C9.90504 63.7112 13.493 61.9289 17.2166 60.0203C18.5966 59.3139 20 58.5889 21.3191 57.9012C21.4595 57.831 21.5998 57.7562 21.7355 57.686C22.8207 57.12 23.8405 56.5867 24.748 56.1096C26.7408 55.0617 28.1676 54.3039 28.4389 54.1589C28.4716 54.1449 28.4857 54.1355 28.4857 54.1355L28.9769 54.2478C29.5897 54.3834 30.2072 54.5051 30.8246 54.5986C31.4374 54.6968 32.0502 54.7764 32.6631 54.8372C36.0499 55.1693 39.4788 54.9401 42.8048 54.1402C42.8094 54.1402 42.8141 54.1402 42.8235 54.1355C42.8235 54.1355 44.3298 54.912 46.5471 56.0394C47.4686 56.5072 48.5118 57.0405 49.6205 57.6018C49.7608 57.672 49.9011 57.7422 50.0415 57.817C50.5841 58.0883 51.1408 58.369 51.7021 58.6544C52.3009 58.9537 52.909 59.2625 53.5172 59.5665C57.6571 61.6389 61.7971 63.6644 63.4858 64.338C67.3544 65.8864 68 73.895 68 73.895Z" fill="#FF4F4E"/>
</g>
</g>
<g id="Group_4">
<g id="Group_5">
<path id="Vector_2" d="M50.037 57.817C49.8171 58.4579 49.5645 59.1174 49.2745 59.7677C48.1237 62.3546 46.6174 64.4175 44.793 65.8957C42.5055 67.7529 39.7175 68.6931 36.5038 68.6931C29.791 68.6931 25.651 64.759 23.3589 61.4611C22.5028 60.2261 21.8339 58.9911 21.324 57.8965C21.4643 57.8263 21.6046 57.7515 21.7403 57.6813C22.2408 58.7619 22.9051 59.9875 23.7518 61.2085C26.9936 65.8677 31.2879 68.2253 36.5085 68.2253C42.1453 68.2253 46.2993 65.3157 48.8488 59.5759C49.1435 58.9116 49.4008 58.2474 49.6206 57.6018C49.7563 57.672 49.8966 57.7468 50.037 57.817Z" fill="#C42C31"/>
</g>
</g>
<g id="Group_6">
<path id="Vector_3" d="M46.542 56.0392C45.7327 59.5149 42.6733 64.8056 35.9091 64.8056C28.4852 64.8056 25.6972 58.7992 24.7429 56.1047C26.7357 55.0568 28.1625 54.299 28.4338 54.154C28.4665 54.14 28.4806 54.1306 28.4806 54.1306L28.9717 54.2429C29.5845 54.3785 30.202 54.5002 30.8195 54.5937C31.4323 54.692 32.0451 54.7715 32.6579 54.8323C36.0447 55.1644 39.4736 54.9352 42.7996 54.1353C42.8043 54.1353 42.809 54.1353 42.8183 54.1306C42.8183 54.1353 44.3246 54.9118 46.542 56.0392Z" fill="#FFF7F1"/>
</g>
<g id="Group_7">
<g id="Group_8">
<g id="Group_9">
<g id="Group_10">
<g id="Group_11">
<g id="Group_12">
<g id="Group_13">
<path id="Vector_4" d="M43.146 55.7679C43.146 55.7679 41.8877 59.7254 36.1058 59.7254C29.3603 59.7254 27.7698 56.1281 27.7698 56.1281C28.3545 54.575 28.7568 53.1342 29.0328 51.8478C29.5333 49.4901 29.6035 47.6424 29.5708 46.5056L41.4246 46.0378C41.5322 47.0436 41.7146 48.2224 41.9158 49.4106C42.4444 52.5682 43.146 55.7679 43.146 55.7679Z" fill="#FFB8A1"/>
</g>
</g>
</g>
</g>
</g>
<g id="Group_14">
<g id="Group_15">
<g id="Group_16">
<g id="Group_17">
<g id="Group_18">
<path id="Vector_5" d="M41.9107 49.4153C40.0723 50.6923 36.0587 52.5916 29.0325 51.8524C29.533 49.4948 29.6032 47.647 29.5704 46.5103L41.4242 46.0425C41.5318 47.0436 41.7096 48.2271 41.9107 49.4153Z" fill="#3F2037"/>
</g>
</g>
</g>
</g>
</g>
</g>
<g id="Group_19">
<g id="Group_20">
<g id="Group_21">
<g id="Group_22">
<g id="Group_23">
<g id="Group_24">
<g id="Group_25">
<path id="Vector_6" d="M25.0471 31.0547C25.0471 31.0547 21.3797 26.0634 18.5261 29.0151C15.6726 31.9715 21.1738 42.2583 26.1652 40.0175L25.0471 31.0547Z" fill="#FFB8A1"/>
</g>
</g>
</g>
</g>
</g>
<g id="Group_26">
<g id="Group_27">
<g id="Group_28">
<g id="Group_29">
<g id="Group_30">
<path id="Vector_7" d="M23.2978 36.9535C23.1715 36.9535 23.0639 36.86 23.0452 36.7337C22.5634 33.2627 19.8081 31.1342 19.78 31.1155C19.6677 31.0313 19.649 30.8723 19.7332 30.76C19.8174 30.6477 19.9765 30.629 20.0888 30.7132C20.2104 30.8021 23.0405 32.9914 23.5504 36.6635C23.5691 36.8039 23.4709 36.9302 23.3352 36.9489C23.3212 36.9535 23.3072 36.9535 23.2978 36.9535Z" fill="#FF8A8A"/>
</g>
</g>
</g>
</g>
</g>
<g id="Group_31">
<g id="Group_32">
<g id="Group_33">
<g id="Group_34">
<g id="Group_35">
<path id="Vector_8" d="M22.5256 34.4601C22.446 34.4601 22.3665 34.4227 22.3151 34.3478C21.9455 33.8052 20.8462 33.749 20.4532 33.7724C20.3129 33.7818 20.1913 33.6742 20.1866 33.5339C20.1772 33.3935 20.2848 33.2719 20.4252 33.2672C20.4953 33.2625 22.1326 33.1737 22.7361 34.0625C22.8156 34.1794 22.7828 34.3338 22.6659 34.4133C22.6238 34.446 22.577 34.4601 22.5256 34.4601Z" fill="#FF8A8A"/>
</g>
</g>
</g>
</g>
</g>
</g>
</g>
<g id="Group_36">
<g id="Group_37">
<g id="Group_38">
<g id="Group_39">
<g id="Group_40">
<g id="Group_41">
<g id="Group_42">
<path id="Vector_9" d="M47.389 31.0547C47.389 31.0547 51.0565 26.0634 53.91 29.0151C56.7635 31.9715 51.2623 42.2583 46.271 40.0175L47.389 31.0547Z" fill="#FFB8A1"/>
</g>
</g>
</g>
</g>
</g>
<g id="Group_43">
<g id="Group_44">
<g id="Group_45">
<g id="Group_46">
<g id="Group_47">
<path id="Vector_10" d="M49.1388 36.9536C49.1294 36.9536 49.1154 36.9536 49.1013 36.9489C48.961 36.9302 48.8675 36.8039 48.8862 36.6636C49.3961 32.9914 52.2262 30.8022 52.3478 30.7133C52.4601 30.6291 52.6191 30.6525 52.7033 30.7601C52.7875 30.8723 52.7642 31.0314 52.6566 31.1156C52.6285 31.1343 49.8685 33.2721 49.3914 36.7337C49.3727 36.86 49.2651 36.9536 49.1388 36.9536Z" fill="#FF8A8A"/>
</g>
</g>
</g>
</g>
</g>
<g id="Group_48">
<g id="Group_49">
<g id="Group_50">
<g id="Group_51">
<g id="Group_52">
<path id="Vector_11" d="M49.9061 34.4602C49.8593 34.4602 49.8079 34.4462 49.7658 34.4181C49.6488 34.3386 49.6207 34.1842 49.6956 34.0672C50.299 33.1738 51.9363 33.2673 52.0065 33.272C52.1468 33.2814 52.2497 33.403 52.245 33.5386C52.2357 33.679 52.1141 33.7866 51.9784 33.7772C51.5855 33.7538 50.4861 33.81 50.1166 34.3526C50.0698 34.4228 49.9903 34.4602 49.9061 34.4602Z" fill="#FF8A8A"/>
</g>
</g>
</g>
</g>
</g>
</g>
</g>
<g id="Group_53">
<g id="Group_54">
<g id="Group_55">
<g id="Group_56">
<g id="Group_57">
<path id="Vector_12" d="M38.5614 15.5708C28.1063 15.5661 21.618 20.9831 22.7828 33.417C23.4798 40.8362 27.297 50.0189 36.1008 50.2294C45.2789 50.4446 48.9604 40.4526 50.2702 32.8697C51.4677 25.9324 47.9406 18.2419 41.2512 16.048C40.7834 15.8936 39.1461 15.5755 38.5614 15.5708Z" fill="#FFB8A1"/>
</g>
<g id="Group_58">
<path id="Vector_13" d="M22.6615 31.1482C22.6615 31.1482 21.4452 19.3598 21.4078 16.7496C21.3236 10.397 27.7323 6.83707 37.1396 6.85579C44.7272 6.86982 45.6581 10.1911 46.2709 12.8809C46.2709 12.8809 51.8797 13.0259 52.7357 16.9367C53.5918 20.8474 50.0319 32.6544 50.0319 32.6544C50.0319 32.6544 48.839 29.9366 47.983 26.0258C47.1269 22.1151 46.0136 19.72 43.5717 19.6732C41.1299 19.6265 38.0705 19.7481 34.7726 21.7035C31.4747 23.6588 28.1721 23.9021 25.8518 22.19C25.8471 22.19 25.225 28.0935 22.6615 31.1482Z" fill="#3F2037"/>
</g>
</g>
</g>
</g>
</g>
<g id="Group_59" opacity="0.5">
<g id="Group_60">
<path id="Vector_14" d="M31.7647 36.0694C31.7647 36.9582 30.1275 37.6739 28.1066 37.6739C26.0858 37.6739 24.4485 36.9535 24.4485 36.0694C24.4485 35.1806 26.0858 34.4649 28.1066 34.4649C30.1275 34.4602 31.7647 35.1806 31.7647 36.0694Z" fill="#FF8A8A"/>
</g>
</g>
<g id="Group_61" opacity="0.5">
<g id="Group_62">
<path id="Vector_15" d="M48.9696 36.0694C48.9696 36.9582 47.3323 37.6739 45.3114 37.6739C43.2906 37.6739 41.6533 36.9535 41.6533 36.0694C41.6533 35.1806 43.2906 34.4649 45.3114 34.4649C47.3323 34.4602 48.9696 35.1806 48.9696 36.0694Z" fill="#FF8A8A"/>
</g>
</g>
<g id="Group_63">
<path id="Vector_16" d="M50.3408 31.1482C50.3408 31.1482 50.2613 36.888 48.5538 44.106C45.8126 55.6745 36.41 54.1355 36.41 54.1355C36.41 54.1355 27.1898 55.6792 24.4486 44.106C22.7411 36.888 22.6616 31.1482 22.6616 31.1482L24.1632 28.6409C24.1632 28.6409 25.2158 38.6095 29.0329 40.3356C29.0329 40.3356 30.731 37.7581 36.4147 40.1672C42.0983 37.7581 43.9788 40.3356 43.9788 40.3356C47.796 38.6095 48.8485 28.6409 48.8485 28.6409L50.3408 31.1482Z" fill="#3F2037"/>
</g>
<g id="Group_64">
<g id="Group_65">
<path id="Vector_17" d="M36.8358 39.1896C36.4008 39.1896 35.9236 39.0773 35.395 38.8481C35.2453 38.7826 35.1611 38.6282 35.1798 38.4692L35.9143 32.837C35.9423 32.6405 36.1201 32.5002 36.3212 32.5235C36.5177 32.5516 36.658 32.7294 36.6347 32.9305L35.9376 38.2867C36.658 38.5487 37.2147 38.5253 37.6732 38.2166C37.8369 38.1043 38.0614 38.1464 38.1737 38.3148C38.286 38.4785 38.2439 38.7031 38.0755 38.8153C37.7012 39.0633 37.2896 39.1896 36.8358 39.1896Z" fill="#FF8A8A"/>
</g>
</g>
<g id="Group_66">
<g id="Group_67">
<path id="Vector_18" d="M36.162 43.5633C34.0897 43.5633 32.5179 42.7072 32.4945 42.6932C32.3215 42.5949 32.256 42.3751 32.3542 42.202C32.4524 42.0289 32.6723 41.9634 32.8454 42.0616C33.0185 42.1599 37.0228 44.3164 40.4891 41.112C40.6341 40.9764 40.8633 40.9857 40.999 41.1307C41.1346 41.2758 41.1253 41.505 40.9803 41.6406C39.3711 43.1282 37.6402 43.5633 36.162 43.5633Z" fill="#734669"/>
</g>
</g>
<g id="Group_68">
<g id="Group_69">
<path id="Vector_19" d="M36.7512 45.6311C35.9326 45.6311 35.2777 45.4299 35.2309 45.4159C35.0391 45.3551 34.9362 45.1539 34.9923 44.9621C35.0531 44.7703 35.2543 44.6674 35.4461 44.7235C35.4601 44.7282 37.0646 45.2147 38.192 44.5738C38.3651 44.4756 38.585 44.5364 38.6832 44.7095C38.7814 44.8826 38.7206 45.1024 38.5475 45.2007C37.9721 45.5328 37.3219 45.6311 36.7512 45.6311Z" fill="#734669"/>
</g>
</g>
<g id="Group_70">
<g id="Group_71">
<path id="Vector_20" d="M29.1123 29.5671C29.8888 29.1508 31.0256 28.6316 32.1342 28.4725C32.7283 28.3836 33.1026 27.7895 32.8967 27.2235L32.8546 27.1112C32.7096 26.7043 32.3027 26.447 31.8723 26.4938C30.8852 26.5967 29.1404 26.9428 27.999 28.0796C27.751 28.3275 27.6668 28.6924 27.7698 29.0245C27.9522 29.5812 28.5977 29.8431 29.1123 29.5671Z" fill="#3F2037"/>
</g>
</g>
<g id="Group_72">
<g id="Group_73">
<path id="Vector_21" d="M44.077 29.5671C43.3005 29.1508 42.1637 28.6316 41.0551 28.4725C40.461 28.3836 40.0867 27.7895 40.2926 27.2235L40.3347 27.1112C40.4797 26.7043 40.8867 26.447 41.317 26.4938C42.3041 26.5967 44.0489 26.9428 45.1903 28.0796C45.4383 28.3275 45.5225 28.6924 45.4196 29.0245C45.2418 29.5812 44.5962 29.8431 44.077 29.5671Z" fill="#3F2037"/>
</g>
</g>
<g id="Group_74">
<g id="Group_75">
<g id="Group_76">
<g id="Group_77">
<g id="Group_78">
<g id="Group_79">
<g id="Group_80">
<path id="Vector_22" d="M32.0169 32.3271C32.0356 33.3048 31.6708 34.1094 31.2123 34.1141C30.7492 34.1234 30.361 33.3328 30.3422 32.3552C30.3235 31.3775 30.6884 30.5729 31.1468 30.5682C31.6146 30.5588 32.0029 31.3494 32.0169 32.3271Z" fill="#3F2037"/>
</g>
</g>
</g>
</g>
</g>
</g>
<g id="Group_81">
<g id="Group_82">
<g id="Group_83">
<g id="Group_84">
<g id="Group_85">
<g id="Group_86">
<path id="Vector_23" d="M40.7741 32.3271C40.7554 33.3048 41.1203 34.1094 41.5787 34.1141C42.0418 34.1234 42.4301 33.3328 42.4488 32.3552C42.4675 31.3775 42.1027 30.5729 41.6442 30.5682C41.1811 30.5588 40.7928 31.3494 40.7741 32.3271Z" fill="#3F2037"/>
</g>
</g>
</g>
</g>
</g>
</g>
</g>
</g>
</g>
</g>
</g>
<defs>
<clipPath id="clip0_169_10645">
<rect width="73" height="73" rx="36.5" fill="white"/>
</clipPath>
</defs>
</svg>
