<svg width="65" height="70" viewBox="0 0 65 70" fill="none" xmlns="http://www.w3.org/2000/svg">
<g id="Frame" clip-path="url(#clip0_169_11017)">
<g id="Group">
<g id="Group_2">
<g id="Group_3">
<path id="Vector" d="M65 73H0C0 73 0.0568513 72.3157 0.227405 71.3105C0.31742 70.8056 0.431122 70.2204 0.587464 69.6022C0.810131 68.7056 1.11808 67.7287 1.52551 66.8179C1.75292 66.313 2.00875 65.8222 2.30248 65.3739C2.89942 64.4678 3.64322 63.7316 4.57653 63.3588C5.38666 63.0332 6.73688 62.4055 8.36662 61.608C8.59402 61.4995 8.82617 61.3862 9.05831 61.2682C9.05831 61.2682 9.06305 61.2682 9.06305 61.2635C9.51312 61.0417 9.97267 60.8105 10.4512 60.5745C10.996 60.3008 11.5598 60.0177 12.1283 59.7298C14.8429 58.3565 17.7566 56.8464 20.1254 55.61C20.4996 55.4165 20.8597 55.2278 21.2008 55.0484C21.4282 54.9305 21.6461 54.8172 21.8546 54.7087H21.8593C23.7354 53.7224 24.9767 53.0664 24.9767 53.0664L25.4741 53.1749C30.0933 54.2037 34.8925 54.1707 39.4927 53.0664C39.4927 53.0664 40.7766 53.7224 42.7143 54.7134C42.9938 54.855 43.2875 55.006 43.5907 55.157C43.7187 55.223 43.8513 55.2891 43.984 55.3552C45.3294 56.0395 46.8786 56.8181 48.48 57.6251C49.9012 58.3377 51.3699 59.0691 52.777 59.7628C53.3739 60.0554 53.9566 60.3433 54.5251 60.6217C57.0929 61.8723 59.2912 62.9105 60.414 63.3588C61.3378 63.7269 62.0769 64.4536 62.6738 65.355C62.9723 65.808 63.2376 66.3035 63.465 66.8226C63.8725 67.7381 64.1757 68.715 64.4031 69.6116C64.5547 70.2204 64.6684 70.7961 64.7584 71.2916C64.9432 72.311 65 73 65 73Z" fill="#3F2037"/>
</g>
<g id="Group_4">
<g id="Group_5">
<g id="Group_6">
<path id="Vector_2" d="M23.2288 55.8649C23.2288 56.5114 22.7029 57.0352 22.0538 57.0352C21.4048 57.0352 20.8789 56.5114 20.8789 55.8649C20.8789 55.5487 21.0068 55.2608 21.2105 55.0532C21.4379 54.9352 21.6559 54.8219 21.8643 54.7134H21.8691C21.9307 54.704 21.9922 54.6993 22.0586 54.6993C22.7029 54.6945 23.2288 55.2183 23.2288 55.8649Z" fill="#734669"/>
</g>
<g id="Group_7">
<path id="Vector_3" d="M28.4495 55.8649C28.4495 56.5114 27.9236 57.0353 27.2745 57.0353C26.6255 57.0353 26.0996 56.5114 26.0996 55.8649C26.0996 55.2184 26.6255 54.6946 27.2745 54.6946C27.9236 54.6946 28.4495 55.2184 28.4495 55.8649Z" fill="#734669"/>
</g>
<g id="Group_8">
<path id="Vector_4" d="M33.6658 55.8649C33.6658 56.5114 33.1399 57.0353 32.4908 57.0353C31.8418 57.0353 31.3159 56.5114 31.3159 55.8649C31.3159 55.2184 31.8418 54.6946 32.4908 54.6946C33.1399 54.6946 33.6658 55.2184 33.6658 55.8649Z" fill="#734669"/>
</g>
<g id="Group_9">
<path id="Vector_5" d="M38.8865 55.8649C38.8865 56.5114 38.3606 57.0353 37.7115 57.0353C37.0625 57.0353 36.5366 56.5114 36.5366 55.8649C36.5366 55.2184 37.0625 54.6946 37.7115 54.6946C38.3606 54.6946 38.8865 55.2184 38.8865 55.8649Z" fill="#734669"/>
</g>
<g id="Group_10">
<path id="Vector_6" d="M44.1074 55.8648C44.1074 56.5114 43.5815 57.0352 42.9325 57.0352C42.2834 57.0352 41.7576 56.5114 41.7576 55.8648C41.7576 55.2891 42.1745 54.8125 42.724 54.7134C43.0036 54.855 43.2973 55.006 43.6005 55.157C43.7284 55.223 43.8611 55.2891 43.9937 55.3552C44.0648 55.5109 44.1074 55.6808 44.1074 55.8648Z" fill="#734669"/>
</g>
</g>
<g id="Group_11">
<g id="Group_12">
<path id="Vector_7" d="M12.7917 60.7821C12.7917 61.4286 12.2659 61.9524 11.6168 61.9524C10.9678 61.9524 10.4419 61.4286 10.4419 60.7821C10.4419 60.7113 10.4466 60.6452 10.4608 60.5745C11.0057 60.3007 11.5694 60.0176 12.138 59.7297C12.5217 59.9232 12.7917 60.3196 12.7917 60.7821Z" fill="#734669"/>
</g>
<g id="Group_13">
<path id="Vector_8" d="M18.0081 60.7822C18.0081 61.4287 17.4822 61.9525 16.8331 61.9525C16.1841 61.9525 15.6582 61.4287 15.6582 60.7822C15.6582 60.1356 16.1841 59.6118 16.8331 59.6118C17.4822 59.6118 18.0081 60.1356 18.0081 60.7822Z" fill="#734669"/>
</g>
<g id="Group_14">
<path id="Vector_9" d="M23.2288 60.7822C23.2288 61.4287 22.7029 61.9525 22.0538 61.9525C21.4048 61.9525 20.8789 61.4287 20.8789 60.7822C20.8789 60.1356 21.4048 59.6118 22.0538 59.6118C22.7029 59.6118 23.2288 60.1356 23.2288 60.7822Z" fill="#734669"/>
</g>
<g id="Group_15">
<path id="Vector_10" d="M28.4495 60.7822C28.4495 61.4287 27.9236 61.9525 27.2745 61.9525C26.6255 61.9525 26.0996 61.4287 26.0996 60.7822C26.0996 60.1356 26.6255 59.6118 27.2745 59.6118C27.9236 59.6118 28.4495 60.1356 28.4495 60.7822Z" fill="#734669"/>
</g>
<g id="Group_16">
<path id="Vector_11" d="M33.6658 60.7822C33.6658 61.4287 33.1399 61.9525 32.4908 61.9525C31.8418 61.9525 31.3159 61.4287 31.3159 60.7822C31.3159 60.1356 31.8418 59.6118 32.4908 59.6118C33.1399 59.6118 33.6658 60.1356 33.6658 60.7822Z" fill="#734669"/>
</g>
<g id="Group_17">
<path id="Vector_12" d="M38.8865 60.7822C38.8865 61.4287 38.3606 61.9525 37.7115 61.9525C37.0625 61.9525 36.5366 61.4287 36.5366 60.7822C36.5366 60.1356 37.0625 59.6118 37.7115 59.6118C38.3606 59.6118 38.8865 60.1356 38.8865 60.7822Z" fill="#734669"/>
</g>
<g id="Group_18">
<path id="Vector_13" d="M44.1074 60.7822C44.1074 61.4287 43.5815 61.9525 42.9325 61.9525C42.2834 61.9525 41.7576 61.4287 41.7576 60.7822C41.7576 60.1356 42.2834 59.6118 42.9325 59.6118C43.5815 59.6118 44.1074 60.1356 44.1074 60.7822Z" fill="#734669"/>
</g>
<g id="Group_19">
<path id="Vector_14" d="M49.3235 60.7822C49.3235 61.4287 48.7976 61.9525 48.1486 61.9525C47.4995 61.9525 46.9736 61.4287 46.9736 60.7822C46.9736 60.1356 47.4995 59.6118 48.1486 59.6118C48.7976 59.6118 49.3235 60.1356 49.3235 60.7822Z" fill="#734669"/>
</g>
<g id="Group_20">
<path id="Vector_15" d="M54.5442 60.7822C54.5442 61.4287 54.0183 61.9525 53.3693 61.9525C52.7202 61.9525 52.1943 61.4287 52.1943 60.7822C52.1943 60.348 52.4312 59.9705 52.7865 59.7676C53.3835 60.0602 53.9662 60.348 54.5347 60.6265C54.5395 60.6736 54.5442 60.7256 54.5442 60.7822Z" fill="#734669"/>
</g>
</g>
<g id="Group_21">
<g id="Group_22">
<path id="Vector_16" d="M2.35022 65.6996C2.35022 66.2235 2.00438 66.6671 1.52588 66.8181C1.75328 66.3131 2.00912 65.8223 2.30285 65.374C2.33601 65.4778 2.35022 65.5864 2.35022 65.6996Z" fill="#734669"/>
</g>
<g id="Group_23">
<path id="Vector_17" d="M7.57105 65.6996C7.57105 66.3462 7.04517 66.87 6.39612 66.87C5.74707 66.87 5.22119 66.3462 5.22119 65.6996C5.22119 65.0531 5.74707 64.5293 6.39612 64.5293C7.04517 64.5293 7.57105 65.0531 7.57105 65.6996Z" fill="#734669"/>
</g>
<g id="Group_24">
<path id="Vector_18" d="M12.7874 65.6996C12.7874 66.3462 12.2615 66.87 11.6124 66.87C10.9634 66.87 10.4375 66.3462 10.4375 65.6996C10.4375 65.0531 10.9634 64.5293 11.6124 64.5293C12.2615 64.5293 12.7874 65.0531 12.7874 65.6996Z" fill="#734669"/>
</g>
<g id="Group_25">
<path id="Vector_19" d="M18.0081 65.6996C18.0081 66.3462 17.4822 66.87 16.8331 66.87C16.1841 66.87 15.6582 66.3462 15.6582 65.6996C15.6582 65.0531 16.1841 64.5293 16.8331 64.5293C17.4822 64.5293 18.0081 65.0531 18.0081 65.6996Z" fill="#734669"/>
</g>
<g id="Group_26">
<path id="Vector_20" d="M23.2288 65.6996C23.2288 66.3462 22.7029 66.87 22.0538 66.87C21.4048 66.87 20.8789 66.3462 20.8789 65.6996C20.8789 65.0531 21.4048 64.5293 22.0538 64.5293C22.7029 64.5293 23.2288 65.0531 23.2288 65.6996Z" fill="#734669"/>
</g>
<g id="Group_27">
<path id="Vector_21" d="M28.45 65.6996C28.45 66.3462 27.9241 66.87 27.275 66.87C26.626 66.87 26.1001 66.3462 26.1001 65.6996C26.1001 65.0531 26.626 64.5293 27.275 64.5293C27.9241 64.5293 28.45 65.0531 28.45 65.6996Z" fill="#734669"/>
</g>
<g id="Group_28">
<path id="Vector_22" d="M33.6658 65.6996C33.6658 66.3462 33.1399 66.87 32.4908 66.87C31.8418 66.87 31.3159 66.3462 31.3159 65.6996C31.3159 65.0531 31.8418 64.5293 32.4908 64.5293C33.1399 64.5293 33.6658 65.0531 33.6658 65.6996Z" fill="#734669"/>
</g>
<g id="Group_29">
<path id="Vector_23" d="M38.8867 65.6996C38.8867 66.3462 38.3608 66.87 37.7118 66.87C37.0627 66.87 36.5369 66.3462 36.5369 65.6996C36.5369 65.0531 37.0627 64.5293 37.7118 64.5293C38.3608 64.5293 38.8867 65.0531 38.8867 65.6996Z" fill="#734669"/>
</g>
<g id="Group_30">
<path id="Vector_24" d="M44.1074 65.6996C44.1074 66.3462 43.5815 66.87 42.9325 66.87C42.2834 66.87 41.7576 66.3462 41.7576 65.6996C41.7576 65.0531 42.2834 64.5293 42.9325 64.5293C43.5815 64.5293 44.1074 65.0531 44.1074 65.6996Z" fill="#734669"/>
</g>
<g id="Group_31">
<path id="Vector_25" d="M49.3237 65.6996C49.3237 66.3462 48.7979 66.87 48.1488 66.87C47.4997 66.87 46.9739 66.3462 46.9739 65.6996C46.9739 65.0531 47.4997 64.5293 48.1488 64.5293C48.7979 64.5293 49.3237 65.0531 49.3237 65.6996Z" fill="#734669"/>
</g>
<g id="Group_32">
<path id="Vector_26" d="M54.5444 65.6996C54.5444 66.3462 54.0186 66.87 53.3695 66.87C52.7205 66.87 52.1946 66.3462 52.1946 65.6996C52.1946 65.0531 52.7205 64.5293 53.3695 64.5293C54.0186 64.5293 54.5444 65.0531 54.5444 65.6996Z" fill="#734669"/>
</g>
<g id="Group_33">
<path id="Vector_27" d="M59.7654 65.6996C59.7654 66.3462 59.2395 66.87 58.5905 66.87C57.9414 66.87 57.4155 66.3462 57.4155 65.6996C57.4155 65.0531 57.9414 64.5293 58.5905 64.5293C59.2395 64.5293 59.7654 65.0531 59.7654 65.6996Z" fill="#734669"/>
</g>
<g id="Group_34">
<path id="Vector_28" d="M63.4749 66.8229C62.9869 66.6813 62.6316 66.233 62.6316 65.6997C62.6316 65.577 62.6505 65.4638 62.6837 65.3552C62.9822 65.8083 63.2475 66.3038 63.4749 66.8229Z" fill="#734669"/>
</g>
</g>
<g id="Group_35">
<g id="Group_36">
<path id="Vector_29" d="M2.34999 70.6169C2.34999 71.2634 1.82411 71.7872 1.17506 71.7872C0.786577 71.7872 0.445469 71.5984 0.227539 71.3106C0.317554 70.8056 0.431256 70.2205 0.587597 69.6023C0.758151 69.5032 0.961869 69.4465 1.17506 69.4465C1.82411 69.4465 2.34999 69.9704 2.34999 70.6169Z" fill="#734669"/>
</g>
<g id="Group_37">
<path id="Vector_30" d="M7.57105 70.6169C7.57105 71.2634 7.04517 71.7872 6.39612 71.7872C5.74707 71.7872 5.22119 71.2634 5.22119 70.6169C5.22119 69.9704 5.74707 69.4465 6.39612 69.4465C7.04517 69.4465 7.57105 69.9704 7.57105 70.6169Z" fill="#734669"/>
</g>
<g id="Group_38">
<path id="Vector_31" d="M12.7869 70.6169C12.7869 71.2634 12.261 71.7872 11.6119 71.7872C10.9629 71.7872 10.437 71.2634 10.437 70.6169C10.437 69.9704 10.9629 69.4465 11.6119 69.4465C12.261 69.4465 12.7869 69.9704 12.7869 70.6169Z" fill="#734669"/>
</g>
<g id="Group_39">
<path id="Vector_32" d="M18.0076 70.6169C18.0076 71.2634 17.4817 71.7872 16.8326 71.7872C16.1836 71.7872 15.6577 71.2634 15.6577 70.6169C15.6577 69.9704 16.1836 69.4465 16.8326 69.4465C17.4817 69.4465 18.0076 69.9704 18.0076 70.6169Z" fill="#734669"/>
</g>
<g id="Group_40">
<path id="Vector_33" d="M23.2288 70.6169C23.2288 71.2634 22.7029 71.7872 22.0538 71.7872C21.4048 71.7872 20.8789 71.2634 20.8789 70.6169C20.8789 69.9704 21.4048 69.4465 22.0538 69.4465C22.7029 69.4465 23.2288 69.9704 23.2288 70.6169Z" fill="#734669"/>
</g>
<g id="Group_41">
<path id="Vector_34" d="M28.4495 70.6169C28.4495 71.2634 27.9236 71.7872 27.2745 71.7872C26.6255 71.7872 26.0996 71.2634 26.0996 70.6169C26.0996 69.9704 26.6255 69.4465 27.2745 69.4465C27.9236 69.4465 28.4495 69.9704 28.4495 70.6169Z" fill="#734669"/>
</g>
<g id="Group_42">
<path id="Vector_35" d="M33.6658 70.6169C33.6658 71.2634 33.1399 71.7872 32.4908 71.7872C31.8418 71.7872 31.3159 71.2634 31.3159 70.6169C31.3159 69.9704 31.8418 69.4465 32.4908 69.4465C33.1399 69.4465 33.6658 69.9704 33.6658 70.6169Z" fill="#734669"/>
</g>
<g id="Group_43">
<path id="Vector_36" d="M38.8865 70.6169C38.8865 71.2634 38.3606 71.7872 37.7115 71.7872C37.0625 71.7872 36.5366 71.2634 36.5366 70.6169C36.5366 69.9704 37.0625 69.4465 37.7115 69.4465C38.3606 69.4465 38.8865 69.9704 38.8865 70.6169Z" fill="#734669"/>
</g>
<g id="Group_44">
<path id="Vector_37" d="M44.1072 70.6169C44.1072 71.2634 43.5813 71.7872 42.9323 71.7872C42.2832 71.7872 41.7573 71.2634 41.7573 70.6169C41.7573 69.9704 42.2832 69.4465 42.9323 69.4465C43.5813 69.4465 44.1072 69.9704 44.1072 70.6169Z" fill="#734669"/>
</g>
<g id="Group_45">
<path id="Vector_38" d="M49.3235 70.6169C49.3235 71.2634 48.7976 71.7872 48.1486 71.7872C47.4995 71.7872 46.9736 71.2634 46.9736 70.6169C46.9736 69.9704 47.4995 69.4465 48.1486 69.4465C48.7976 69.4465 49.3235 69.9704 49.3235 70.6169Z" fill="#734669"/>
</g>
<g id="Group_46">
<path id="Vector_39" d="M54.5442 70.6169C54.5442 71.2634 54.0183 71.7872 53.3693 71.7872C52.7202 71.7872 52.1943 71.2634 52.1943 70.6169C52.1943 69.9704 52.7202 69.4465 53.3693 69.4465C54.0183 69.4465 54.5442 69.9704 54.5442 70.6169Z" fill="#734669"/>
</g>
<g id="Group_47">
<path id="Vector_40" d="M59.7651 70.6169C59.7651 71.2634 59.2393 71.7872 58.5902 71.7872C57.9412 71.7872 57.4153 71.2634 57.4153 70.6169C57.4153 69.9704 57.9412 69.4465 58.5902 69.4465C59.2393 69.4465 59.7651 69.9704 59.7651 70.6169Z" fill="#734669"/>
</g>
<g id="Group_48">
<path id="Vector_41" d="M64.768 71.2917C64.5548 71.589 64.2042 71.7872 63.8063 71.7872C63.1572 71.7872 62.6313 71.2634 62.6313 70.6169C62.6313 69.9704 63.1572 69.4465 63.8063 69.4465C64.0289 69.4465 64.2327 69.5079 64.4127 69.6117C64.5643 70.2205 64.6827 70.7962 64.768 71.2917Z" fill="#734669"/>
</g>
</g>
</g>
<g id="Group_49">
<path id="Vector_42" d="M42.5627 54.6332C41.3925 57.3089 40.2176 59.9846 39.0379 62.6604C37.5219 66.11 36.0011 69.5597 34.4709 73H31.8462C29.8422 69.5644 27.7956 66.1572 25.7774 62.7312C24.9625 61.3485 24.1476 59.9563 23.347 58.5642C22.6648 57.375 22.0062 56.1763 21.3809 54.9588C23.527 53.8356 24.9767 53.0664 24.9767 53.0664L25.4742 53.1749C30.0933 54.2037 34.8925 54.1707 39.4927 53.0664C39.4975 53.0664 40.7103 53.6893 42.5627 54.6332Z" fill="#FFB8A1"/>
</g>
<g id="Group_50">
<path id="Vector_43" d="M39.0428 62.6604C37.5268 66.1101 36.006 69.5597 34.4757 73H31.8511C29.8471 69.5645 27.8004 66.1573 25.7822 62.7312C28.8332 63.5806 33.5993 64.246 39.0428 62.6604Z" fill="#FFF7F1"/>
</g>
</g>
<g id="Group_51">
<g id="Group_52">
<g id="Group_53">
<g id="Group_54">
<g id="Group_55">
<g id="Group_56">
<path id="Vector_44" d="M39.8289 54.7183C39.8289 54.7183 38.5545 58.7107 32.6988 58.7107C25.8671 58.7107 24.2563 55.0817 24.2563 55.0817C24.8485 53.515 25.256 52.0615 25.5308 50.7637C26.0377 48.3853 26.1088 46.5212 26.0756 45.3745L38.0807 44.9026C38.1897 45.9172 38.3744 47.1064 38.5781 48.3051C39.123 51.4905 39.8289 54.7183 39.8289 54.7183Z" fill="#FFB8A1"/>
</g>
<g id="Group_57">
<path id="Vector_45" d="M32.7747 60.5512C29.1931 60.5512 26.848 58.7202 25.512 57.1865C24.0717 55.5301 23.4843 53.8973 23.4559 53.8265C23.4132 53.7038 23.4748 53.5669 23.598 53.5245C23.7212 53.482 23.8586 53.5433 23.9012 53.666C23.9059 53.6802 24.4934 55.2941 25.8768 56.8845C27.7244 58.9986 30.0411 60.0746 32.77 60.0746C39.27 60.0746 40.8334 53.7557 40.8476 53.6896C40.876 53.5622 41.004 53.482 41.1319 53.515C41.2598 53.5433 41.3403 53.6707 41.3072 53.7982C41.293 53.8689 40.895 55.5065 39.649 57.1676C38.5025 58.7155 36.3706 60.5512 32.7747 60.5512Z" fill="#FFF7F1"/>
</g>
</g>
</g>
</g>
<g id="Group_58">
<g id="Group_59">
<g id="Group_60">
<g id="Group_61">
<path id="Vector_46" d="M38.5783 48.3051C36.7164 49.5934 32.6515 51.5093 25.5356 50.7637C26.0426 48.3853 26.1136 46.5212 26.0805 45.3745L38.0856 44.9026C38.1945 45.9125 38.3746 47.1064 38.5783 48.3051Z" fill="#3F2037"/>
</g>
</g>
</g>
</g>
</g>
<g id="Group_62">
<g id="Group_63">
<g id="Group_64">
<g id="Group_65">
<g id="Group_66">
<g id="Group_67">
<path id="Vector_47" d="M21.4992 29.7825C21.4992 29.7825 17.785 24.7472 14.895 27.725C12.0051 30.7075 17.5765 41.0848 22.6315 38.8244L21.4992 29.7825Z" fill="#FFB8A1"/>
</g>
</g>
</g>
</g>
<g id="Group_68">
<path id="Vector_48" d="M18.3678 37.2245C18.9382 37.2245 19.4006 36.7639 19.4006 36.1958C19.4006 35.6276 18.9382 35.167 18.3678 35.167C17.7974 35.167 17.335 35.6276 17.335 36.1958C17.335 36.7639 17.7974 37.2245 18.3678 37.2245Z" fill="#FFF7F1"/>
</g>
<g id="Group_69">
<g id="Group_70">
<g id="Group_71">
<g id="Group_72">
<path id="Vector_49" d="M19.9546 35.7333C19.8266 35.7333 19.7177 35.639 19.6987 35.5115C19.2108 32.01 16.4203 29.8628 16.3919 29.8439C16.2782 29.7589 16.2592 29.5985 16.3445 29.4852C16.4298 29.372 16.5909 29.3531 16.7046 29.438C16.8277 29.5277 19.694 31.7363 20.2104 35.4408C20.2293 35.5823 20.1299 35.7097 19.9925 35.7286C19.9782 35.7333 19.9688 35.7333 19.9546 35.7333Z" fill="#FF8A8A"/>
</g>
</g>
</g>
</g>
<g id="Group_73">
<g id="Group_74">
<g id="Group_75">
<g id="Group_76">
<path id="Vector_50" d="M19.178 33.2228C19.0974 33.2228 19.0169 33.185 18.9648 33.1095C18.5905 32.5621 17.4772 32.5055 17.0792 32.5291C16.9371 32.5385 16.8139 32.43 16.8092 32.2884C16.7997 32.1468 16.9087 32.0241 17.0508 32.0194C17.1219 32.0147 18.78 31.925 19.3912 32.8264C19.4717 32.9444 19.4385 33.1001 19.3201 33.1803C19.2775 33.2086 19.2253 33.2228 19.178 33.2228Z" fill="#FF8A8A"/>
</g>
</g>
</g>
</g>
</g>
</g>
<g id="Group_77">
<g id="Group_78">
<g id="Group_79">
<g id="Group_80">
<g id="Group_81">
<g id="Group_82">
<path id="Vector_51" d="M44.1262 29.7825C44.1262 29.7825 47.8405 24.7472 50.7304 27.725C53.6204 30.7075 48.0489 41.0848 42.9939 38.8244L44.1262 29.7825Z" fill="#FFB8A1"/>
</g>
</g>
</g>
</g>
<g id="Group_83">
<path id="Vector_52" d="M46.9735 37.2245C47.5439 37.2245 48.0063 36.7639 48.0063 36.1958C48.0063 35.6276 47.5439 35.167 46.9735 35.167C46.4031 35.167 45.9407 35.6276 45.9407 36.1958C45.9407 36.7639 46.4031 37.2245 46.9735 37.2245Z" fill="#FFF7F1"/>
</g>
<g id="Group_84">
<g id="Group_85">
<g id="Group_86">
<g id="Group_87">
<path id="Vector_53" d="M45.6232 35.7334C45.6138 35.7334 45.5995 35.7334 45.5853 35.7287C45.4432 35.7098 45.3484 35.5824 45.3674 35.4408C45.8838 31.7363 48.7501 29.5278 48.8732 29.4381C48.9869 29.3531 49.148 29.3767 49.2333 29.4853C49.3186 29.5985 49.2949 29.759 49.1859 29.8439C49.1575 29.8628 46.3623 32.0194 45.8791 35.5116C45.8601 35.6437 45.7464 35.7334 45.6232 35.7334Z" fill="#FF8A8A"/>
</g>
</g>
</g>
</g>
<g id="Group_88">
<g id="Group_89">
<g id="Group_90">
<g id="Group_91">
<path id="Vector_54" d="M46.4003 33.2227C46.353 33.2227 46.3009 33.2085 46.2582 33.1802C46.1398 33.1 46.1114 32.9442 46.1919 32.8262C46.803 31.9249 48.4612 32.0193 48.5323 32.024C48.6744 32.0334 48.7786 32.1561 48.7739 32.293C48.7644 32.4346 48.6412 32.5431 48.5038 32.5337C48.1059 32.5101 46.9925 32.5667 46.6183 33.1141C46.5614 33.1802 46.4809 33.2227 46.4003 33.2227Z" fill="#FF8A8A"/>
</g>
</g>
</g>
</g>
</g>
</g>
<g id="Group_92">
<g id="Group_93">
<g id="Group_94">
<g id="Group_95">
<path id="Vector_55" d="M34.4852 14.6861C23.5082 14.3652 18.3679 20.2169 19.2064 32.2931C19.7276 39.7965 23.7782 48.9186 32.6944 49.1262C41.9896 49.3433 46.2203 38.8432 46.4193 31.0803C46.6324 22.921 44.6853 17.4657 37.9105 15.2524C37.4415 15.1014 34.9874 14.7003 34.4852 14.6861Z" fill="#FFB8A1"/>
</g>
</g>
</g>
</g>
<g id="Group_96">
<g id="Group_97">
<g id="Group_98">
<path id="Vector_56" d="M41.4446 10.7597C41.383 10.9107 41.3119 11.0665 41.2409 11.2222C40.5586 12.6521 39.4027 14.1433 37.664 15.644H29.0936C29.0936 15.644 26.0189 13.9546 24.4129 11.208C24.3276 11.0617 24.2471 10.9154 24.1713 10.7644C23.0532 8.54173 22.9774 5.70555 26.09 2.55789C32.2536 -3.67606 44.8604 2.42104 41.4446 10.7597Z" fill="#FF4F4E"/>
</g>
</g>
<g id="Group_99">
<path id="Vector_57" d="M41.2411 11.2223C40.5589 12.6522 39.4029 14.1434 37.6642 15.6441H29.0938C29.0938 15.6441 26.0191 13.9547 24.4131 11.2081C25.4175 10.5994 29.0086 9.37712 32.576 10.2313C32.5807 10.2313 37.2615 9.05622 41.2411 11.2223Z" fill="#C42C31"/>
</g>
</g>
<g id="Group_100">
<path id="Vector_58" d="M21.1059 26.4178C21.1059 26.4178 32.7746 23.4117 32.7746 17.3429C32.7746 17.3429 35.4561 25.7194 44.4907 26.4178L46.4331 27.876C46.4331 27.876 47.4707 27.0407 48.2666 26.8189C48.2666 26.8189 50.6022 8.38606 32.7462 10.8494C32.7462 10.8494 27.1984 9.61303 22.6314 12.7607C16.0177 17.3193 18.6565 27.3286 18.6565 27.3286L21.1059 26.4178Z" fill="#FF4F4E"/>
</g>
<g id="Group_101">
<g id="Group_102">
<path id="Vector_59" d="M24.8106 34.6384C24.8106 34.8131 24.6685 34.9546 24.4932 34.9546C24.3179 34.9546 24.1758 34.8131 24.1758 34.6384C24.1758 34.4638 24.3179 34.3223 24.4932 34.3223C24.6685 34.3223 24.8106 34.4591 24.8106 34.6384Z" fill="#FF8A8A"/>
</g>
<g id="Group_103">
<path id="Vector_60" d="M26.3741 35.4076C26.3741 35.5822 26.232 35.7238 26.0567 35.7238C25.8814 35.7238 25.7393 35.5822 25.7393 35.4076C25.7393 35.233 25.8814 35.0914 26.0567 35.0914C26.232 35.0867 26.3741 35.2283 26.3741 35.4076Z" fill="#FF8A8A"/>
</g>
<g id="Group_104">
<path id="Vector_61" d="M24.8106 36.512C24.8106 36.6866 24.6685 36.8282 24.4932 36.8282C24.3179 36.8282 24.1758 36.6866 24.1758 36.512C24.1758 36.3374 24.3179 36.1958 24.4932 36.1958C24.6685 36.1958 24.8106 36.3374 24.8106 36.512Z" fill="#FF8A8A"/>
</g>
<g id="Group_105">
<path id="Vector_62" d="M27.2647 36.8328C27.2647 37.0074 27.1226 37.149 26.9473 37.149C26.772 37.149 26.6299 37.0074 26.6299 36.8328C26.6299 36.6582 26.772 36.5166 26.9473 36.5166C27.1226 36.5166 27.2647 36.6535 27.2647 36.8328Z" fill="#FF8A8A"/>
</g>
<g id="Group_106">
<path id="Vector_63" d="M28.9039 36.512C28.9039 36.6866 28.7618 36.8282 28.5865 36.8282C28.4112 36.8282 28.269 36.6866 28.269 36.512C28.269 36.3374 28.4112 36.1958 28.5865 36.1958C28.7618 36.1958 28.9039 36.3374 28.9039 36.512Z" fill="#FF8A8A"/>
</g>
<g id="Group_107">
<path id="Vector_64" d="M28.1602 34.9546C28.1602 35.1292 28.0181 35.2708 27.8428 35.2708C27.6675 35.2708 27.5254 35.1292 27.5254 34.9546C27.5254 34.78 27.6675 34.6384 27.8428 34.6384C28.0134 34.6384 28.1602 34.78 28.1602 34.9546Z" fill="#FF8A8A"/>
</g>
</g>
<g id="Group_108">
<g id="Group_109">
<path id="Vector_65" d="M41.0845 34.6386C41.0845 34.8132 41.2266 34.9547 41.4019 34.9547C41.5772 34.9547 41.7193 34.8132 41.7193 34.6386C41.7193 34.464 41.5772 34.3224 41.4019 34.3224C41.2266 34.3177 41.0845 34.4592 41.0845 34.6386Z" fill="#FF8A8A"/>
</g>
<g id="Group_110">
<path id="Vector_66" d="M39.5256 35.4077C39.5256 35.5823 39.6678 35.7239 39.8431 35.7239C40.0183 35.7239 40.1605 35.5823 40.1605 35.4077C40.1605 35.2331 40.0183 35.0916 39.8431 35.0916C39.6678 35.0916 39.5256 35.2284 39.5256 35.4077Z" fill="#FF8A8A"/>
</g>
<g id="Group_111">
<path id="Vector_67" d="M41.0845 36.512C41.0845 36.6866 41.2266 36.8282 41.4019 36.8282C41.5772 36.8282 41.7193 36.6866 41.7193 36.512C41.7193 36.3374 41.5772 36.1958 41.4019 36.1958C41.2266 36.1958 41.0845 36.3374 41.0845 36.512Z" fill="#FF8A8A"/>
</g>
<g id="Group_112">
<path id="Vector_68" d="M38.6304 36.8329C38.6304 37.0075 38.7725 37.1491 38.9478 37.1491C39.1231 37.1491 39.2652 37.0075 39.2652 36.8329C39.2652 36.6583 39.1231 36.5167 38.9478 36.5167C38.7725 36.512 38.6304 36.6536 38.6304 36.8329Z" fill="#FF8A8A"/>
</g>
<g id="Group_113">
<path id="Vector_69" d="M36.9958 36.512C36.9958 36.6866 37.138 36.8282 37.3133 36.8282C37.4886 36.8282 37.6307 36.6866 37.6307 36.512C37.6307 36.3374 37.4886 36.1958 37.3133 36.1958C37.138 36.1958 36.9958 36.3374 36.9958 36.512Z" fill="#FF8A8A"/>
</g>
<g id="Group_114">
<path id="Vector_70" d="M37.7397 34.9549C37.7397 35.1295 37.8819 35.271 38.0572 35.271C38.2325 35.271 38.3746 35.1295 38.3746 34.9549C38.3746 34.7802 38.2325 34.6387 38.0572 34.6387C37.8819 34.6387 37.7397 34.7802 37.7397 34.9549Z" fill="#FF8A8A"/>
</g>
</g>
<g id="Group_115">
<g id="Group_116">
<path id="Vector_71" d="M19.642 34.4403C19.642 34.4403 21.8402 29.8203 21.1059 26.4179L18.2207 24.5916C18.2207 24.5916 18.6708 31.5853 19.642 34.4403Z" fill="#FF4F4E"/>
</g>
<g id="Group_117">
<path id="Vector_72" d="M45.9595 34.4404C45.9595 34.4404 43.7613 29.8204 44.4956 26.4179L46.8976 25.7195C46.8928 25.7195 47.2576 31.5617 45.9595 34.4404Z" fill="#FF4F4E"/>
</g>
</g>
<g id="Group_118">
<path id="Vector_73" d="M23.6973 28.9283C23.6973 28.9283 24.2895 27.4654 26.3077 26.2148C28.8518 24.6339 30.6852 27.3521 30.6852 27.3521C30.6852 27.3521 28.6907 26.6584 27.1557 27.1445C25.6539 27.6211 23.6973 28.9283 23.6973 28.9283Z" fill="#FF4F4E"/>
</g>
<g id="Group_119">
<path id="Vector_74" d="M42.4489 28.9283C42.4489 28.9283 41.8567 27.4654 39.8385 26.2148C37.2944 24.6339 35.4609 27.3521 35.4609 27.3521C35.4609 27.3521 37.4555 26.6584 38.9905 27.1445C40.4875 27.6211 42.4489 28.9283 42.4489 28.9283Z" fill="#FF4F4E"/>
</g>
<g id="Group_120">
<path id="Vector_75" d="M33.4378 38.645C32.9972 38.645 32.514 38.5317 31.9834 38.3005C31.8365 38.2391 31.7512 38.0881 31.7702 37.9324L32.514 32.2505C32.5377 32.0571 32.7177 31.9202 32.912 31.9438C33.1062 31.9674 33.2436 32.1467 33.2199 32.3402L32.514 37.753C33.2483 38.022 33.8168 37.9984 34.2859 37.687C34.4469 37.5784 34.6696 37.6209 34.7786 37.7814C34.8875 37.9418 34.8449 38.1636 34.6838 38.2721C34.3096 38.5223 33.8974 38.645 33.4378 38.645Z" fill="#FF8A8A"/>
</g>
<g id="Group_121">
<path id="Vector_76" d="M32.732 42.4014C32.4193 42.4014 32.1256 42.3825 31.8555 42.3495C30.2305 42.1655 29.0983 41.5378 29.0461 41.5142C28.8756 41.4198 28.814 41.2028 28.9087 41.0329C29.0035 40.863 29.2214 40.8016 29.392 40.896C29.5625 40.9904 33.6274 43.1754 37.1474 39.9333C37.2896 39.8012 37.517 39.8106 37.6496 39.9522C37.7823 40.0938 37.7728 40.3203 37.6307 40.4524C35.9536 42.0003 34.158 42.4014 32.732 42.4014Z" fill="#FF8A8A"/>
</g>
<g id="Group_122">
<path id="Vector_77" d="M33.3527 44.4778C32.5236 44.4778 31.8651 44.2749 31.8177 44.2607C31.6282 44.2041 31.524 44.0059 31.5856 43.8171C31.6424 43.6284 31.8414 43.5245 32.0309 43.5859C32.0546 43.5953 33.6796 44.0767 34.8214 43.4349C34.9919 43.3405 35.2099 43.3971 35.3046 43.567C35.3994 43.7369 35.3425 43.954 35.172 44.0484C34.5845 44.3787 33.9307 44.4778 33.3527 44.4778Z" fill="#FF8A8A"/>
</g>
<g id="Group_123">
<g id="Group_124">
<g id="Group_125">
<g id="Group_126">
<g id="Group_127">
<g id="Group_128">
<path id="Vector_78" d="M28.5581 31.0662C28.577 32.0525 28.2075 32.8641 27.7432 32.8689C27.2742 32.8783 26.881 32.0808 26.862 31.0945C26.8431 30.1082 27.2126 29.2965 27.6769 29.2918C28.1507 29.287 28.5439 30.0799 28.5581 31.0662Z" fill="#3F2037"/>
</g>
</g>
</g>
</g>
</g>
<g id="Group_129">
<g id="Group_130">
<g id="Group_131">
<g id="Group_132">
<g id="Group_133">
<path id="Vector_79" d="M37.427 31.0662C37.408 32.0525 37.7776 32.8641 38.2418 32.8689C38.7109 32.8783 39.1041 32.0808 39.123 31.0945C39.142 30.1082 38.7724 29.2965 38.3082 29.2918C37.8391 29.287 37.4459 30.0799 37.427 31.0662Z" fill="#3F2037"/>
</g>
</g>
</g>
</g>
</g>
</g>
</g>
<g id="Group_134">
<g id="Group_135">
<path id="Vector_80" d="M26.8004 37.9985C23.7826 37.9985 21.3237 35.5493 21.3237 32.5432C21.3237 29.5371 23.7826 27.0879 26.8004 27.0879C29.8183 27.0879 32.2771 29.5371 32.2771 32.5432C32.2771 35.554 29.823 37.9985 26.8004 37.9985ZM26.8004 27.5598C24.0431 27.5598 21.7975 29.7967 21.7975 32.5432C21.7975 35.2897 24.0431 37.5266 26.8004 37.5266C29.5577 37.5266 31.8033 35.2897 31.8033 32.5432C31.8033 29.7967 29.5577 27.5598 26.8004 27.5598Z" fill="white"/>
</g>
<g id="Group_136">
<path id="Vector_81" d="M39.1232 37.9985C36.1053 37.9985 33.6465 35.5493 33.6465 32.5432C33.6465 29.5371 36.1053 27.0879 39.1232 27.0879C42.141 27.0879 44.5998 29.5371 44.5998 32.5432C44.5998 35.554 42.1458 37.9985 39.1232 37.9985ZM39.1232 27.5598C36.3659 27.5598 34.1202 29.7967 34.1202 32.5432C34.1202 35.2897 36.3659 37.5266 39.1232 37.5266C41.8805 37.5266 44.1261 35.2897 44.1261 32.5432C44.1261 29.7967 41.8852 27.5598 39.1232 27.5598Z" fill="white"/>
</g>
<g id="Group_137">
<path id="Vector_82" d="M22.1814 30.3157C22.1008 30.3157 22.025 30.2779 21.9776 30.2024C21.9634 30.1788 20.4474 27.7485 18.1402 26.8754C18.017 26.8283 17.9554 26.6914 18.0028 26.5734C18.0502 26.4507 18.1876 26.3894 18.306 26.4366C20.7696 27.3662 22.3188 29.8532 22.3803 29.957C22.4467 30.0703 22.4135 30.2119 22.2998 30.2826C22.2666 30.3062 22.224 30.3157 22.1814 30.3157Z" fill="white"/>
</g>
<g id="Group_138">
<path id="Vector_83" d="M44.1638 30.3157C44.1211 30.3157 44.0738 30.3015 44.0359 30.2779C43.9269 30.2071 43.8937 30.0608 43.9648 29.9523C44.0359 29.8437 45.7509 27.2529 48.2097 26.3233C48.3329 26.2761 48.4703 26.3374 48.5129 26.4601C48.5603 26.5828 48.4987 26.7197 48.3755 26.7622C46.0636 27.6352 44.377 30.1835 44.358 30.2071C44.3154 30.2779 44.2396 30.3157 44.1638 30.3157Z" fill="white"/>
</g>
<g id="Group_139">
<path id="Vector_84" d="M33.8832 32.0382C33.7647 32.0382 33.6605 31.9486 33.6463 31.8259C33.6368 31.7551 33.5468 31.1274 32.9167 31.1274C32.2913 31.1274 32.2298 31.7456 32.225 31.8164C32.2155 31.9438 32.1018 32.0477 31.9739 32.0335C31.846 32.0241 31.7465 31.9155 31.756 31.7834C31.7797 31.3917 32.0592 30.6555 32.9214 30.6555C33.779 30.6555 34.0822 31.387 34.1248 31.7787C34.139 31.9061 34.0443 32.0241 33.9116 32.0382C33.9021 32.0382 33.8927 32.0382 33.8832 32.0382Z" fill="white"/>
</g>
</g>
</g>
</g>
<defs>
<clipPath id="clip0_169_11017">
<rect width="65" height="73" fill="white"/>
</clipPath>
</defs>
</svg>
