<svg width="73" height="73" viewBox="0 0 73 73" fill="none" xmlns="http://www.w3.org/2000/svg">
<g id="Frame 427321106">
<g clip-path="url(#clip0_169_10759)">
<circle id="Ellipse 1989" cx="36.5" cy="36.5" r="36.5" fill="#DFC2AB"/>
<g id="Group">
<g id="Group_2">
<path id="Vector" d="M23.4825 36.9712C23.4825 36.9712 21.4522 42.0933 22.5915 43.8266C23.7308 45.5599 25.9267 42.1127 25.9267 42.1127C25.9267 42.1127 24.169 48.3839 26.6181 49.012C29.0623 49.6401 31.6769 44.2502 31.6769 44.2502C31.6769 44.2502 26.9978 34.712 23.4825 36.9712Z" fill="#3F2037"/>
</g>
<g id="Group_3">
<path id="Vector_2" d="M49.8619 36.9712C49.8619 36.9712 51.8922 42.0933 50.7529 43.8266C49.6136 45.5599 47.4177 42.1127 47.4177 42.1127C47.4177 42.1127 49.1754 48.3839 46.7263 49.012C44.2821 49.6401 41.6675 44.2502 41.6675 44.2502C41.6675 44.2502 46.3514 34.712 49.8619 36.9712Z" fill="#3F2037"/>
</g>
<g id="Group_4">
<g id="Group_5">
<path id="Vector_3" d="M69.9998 73.2446H3.19824C3.19824 73.2446 3.25667 72.4899 3.45143 71.3944C3.51959 71.0243 3.59749 70.6105 3.69974 70.1771C3.88476 69.364 4.13307 68.4682 4.46903 67.5917C4.62484 67.1779 4.80012 66.7689 4.99974 66.3745C5.52072 65.3326 6.18289 64.4026 7.02521 63.7891C7.29787 63.5895 7.59001 63.424 7.90649 63.2974C8.32521 63.1269 8.88514 62.8786 9.55218 62.5719C10.9447 61.9243 12.8046 61.0041 14.8204 59.9865C15.5799 59.6019 16.3589 59.2026 17.1477 58.8034C17.172 58.7936 17.1915 58.779 17.2159 58.7693C18.9151 57.8977 20.6338 57.0067 22.2162 56.1839C22.7323 55.9112 23.2387 55.6483 23.7207 55.4C24.0031 55.2539 24.2807 55.1078 24.5484 54.9666C24.5923 54.9423 24.6312 54.9228 24.675 54.9033C26.8368 53.7689 28.429 52.9266 28.8039 52.7269H28.8088C28.8185 52.7221 28.8331 52.7172 28.838 52.7123C28.872 52.6929 28.8867 52.688 28.8867 52.688L29.3979 52.8048C30.0357 52.946 30.6784 53.0726 31.3211 53.17C31.9589 53.2723 32.5968 53.355 33.2346 53.4183C36.7597 53.764 40.3286 53.5206 43.7904 52.6929C43.7953 52.6929 43.8002 52.688 43.805 52.688C43.805 52.688 45.3923 53.506 47.7245 54.694C47.9046 54.7865 48.0848 54.879 48.2747 54.9764C49.0196 55.3562 49.8279 55.7651 50.6751 56.1936C51.4395 56.5831 52.238 56.9824 53.0511 57.3914C53.6743 57.703 54.3073 58.0243 54.9402 58.3408C55.2324 58.4869 55.5245 58.6329 55.8166 58.779C56.6492 59.1929 57.4721 59.6019 58.2706 59.9962C60.3399 61.0138 62.2387 61.9341 63.6556 62.5816C64.3324 62.8932 64.8972 63.1416 65.3159 63.3071C65.6275 63.4337 65.9245 63.5992 66.1972 63.7989C67.0395 64.4123 67.7017 65.3423 68.2226 66.3843C68.4174 66.7786 68.5976 67.1876 68.7534 67.6015C69.0844 68.4779 69.3376 69.3738 69.5227 70.1869C69.62 70.6202 69.7028 71.0341 69.771 71.4041C69.9414 72.4899 69.9998 73.2446 69.9998 73.2446Z" fill="#0075CF"/>
</g>
</g>
<g id="Group_6">
<g id="Group_7">
<path id="Vector_4" d="M50.6554 56.184H22.2063C23.0291 55.7556 23.813 55.3466 24.5336 54.9668H48.255C49 55.3417 49.8082 55.7507 50.6554 56.184Z" fill="#0056A8"/>
</g>
<g id="Group_8">
<path id="Vector_5" d="M58.2508 59.9865H14.8152C15.5747 59.6019 16.3538 59.2026 17.1425 58.8034C17.1669 58.7936 17.1863 58.779 17.2107 58.7693H55.7969C56.6246 59.1831 57.4523 59.5921 58.2508 59.9865Z" fill="#0056A8"/>
</g>
<g id="Group_9">
<path id="Vector_6" d="M66.1774 63.7893H7.02002C7.29268 63.5896 7.58481 63.4241 7.90129 63.2975C8.32002 63.1271 8.87995 62.8788 9.54699 62.572H63.6358C64.3126 62.8836 64.8774 63.1319 65.2961 63.2975C65.6077 63.4192 65.9047 63.5848 66.1774 63.7893Z" fill="#0056A8"/>
</g>
<g id="Group_10">
<path id="Vector_7" d="M68.7285 67.592H4.46851C4.62431 67.1781 4.79959 66.7691 4.99922 66.3748H68.2026C68.3974 66.7691 68.5727 67.1781 68.7285 67.592Z" fill="#0056A8"/>
</g>
<g id="Group_11">
<path id="Vector_8" d="M69.7466 71.3945H3.45142C3.51958 71.0244 3.59748 70.6106 3.69973 70.1772H69.4983C69.5957 70.6106 69.6784 71.0244 69.7466 71.3945Z" fill="#0056A8"/>
</g>
</g>
<g id="Group_12">
<path id="Vector_9" d="M47.7052 54.6843C46.9408 57.3817 43.6299 61.6225 36.5992 61.6225C29.325 61.6225 25.2936 57.6933 23.7112 55.4001C23.9936 55.254 24.2711 55.1079 24.5389 54.9667C24.5827 54.9424 24.6217 54.9229 24.6655 54.9034C26.8273 53.769 28.4194 52.9267 28.7943 52.727H28.7992C28.8089 52.7222 28.8235 52.7173 28.8284 52.7124C28.8625 52.6929 28.8771 52.6881 28.8771 52.6881L29.3883 52.8049C30.0262 52.9461 30.6689 53.0727 31.3116 53.1701C31.9494 53.2723 32.5872 53.3551 33.225 53.4184C36.7501 53.7641 40.3191 53.5207 43.7809 52.6929C43.7857 52.6929 43.7906 52.6881 43.7955 52.6881C43.7906 52.6783 45.3779 53.4963 47.7052 54.6843Z" fill="#0056A8"/>
</g>
<g id="Group_13">
<g id="Group_14">
<g id="Group_15">
<g id="Group_16">
<g id="Group_17">
<g id="Group_18">
<g id="Group_19">
<path id="Vector_10" d="M44.1316 54.3776C44.1316 54.3776 42.8218 58.4967 36.8039 58.4967C29.7829 58.4967 28.1274 54.7525 28.1274 54.7525C28.7361 53.136 29.1548 51.6364 29.4372 50.2974C29.9582 47.8435 30.0312 45.9203 29.9971 44.7371L42.3349 44.2502C42.4469 45.2971 42.6368 46.524 42.8462 47.7607C43.4012 51.0473 44.1316 54.3776 44.1316 54.3776Z" fill="#FFB8A1"/>
</g>
</g>
</g>
</g>
</g>
<g id="Group_20">
<g id="Group_21">
<g id="Group_22">
<g id="Group_23">
<g id="Group_24">
<path id="Vector_11" d="M42.846 47.7656C40.9325 49.0948 36.755 51.0716 29.4419 50.3023C29.9629 47.8484 30.0359 45.9252 30.0018 44.742L42.3397 44.2551C42.4516 45.2971 42.6367 46.5289 42.846 47.7656Z" fill="#3F2037"/>
</g>
</g>
</g>
</g>
</g>
</g>
<g id="Group_25">
<g id="Group_26">
<g id="Group_27">
<g id="Group_28">
<g id="Group_29">
<g id="Group_30">
<g id="Group_31">
<path id="Vector_12" d="M25.2934 28.6551C25.2934 28.6551 21.4761 23.4599 18.5061 26.5322C15.5361 29.6094 21.2619 40.3161 26.457 37.9839L25.2934 28.6551Z" fill="#FFB8A1"/>
</g>
</g>
</g>
</g>
</g>
<g id="Group_32">
<g id="Group_33">
<g id="Group_34">
<g id="Group_35">
<g id="Group_36">
<path id="Vector_13" d="M23.4728 34.7947C23.3414 34.7947 23.2294 34.6973 23.2099 34.5659C22.7084 30.9531 19.8406 28.7378 19.8114 28.7183C19.6946 28.6307 19.6751 28.4651 19.7627 28.3483C19.8504 28.2314 20.0159 28.2119 20.1328 28.2996C20.2593 28.3921 23.205 30.6707 23.7358 34.4928C23.7552 34.6389 23.653 34.7704 23.5118 34.7899C23.4972 34.7947 23.4826 34.7947 23.4728 34.7947Z" fill="#FF8A8A"/>
</g>
</g>
</g>
</g>
</g>
<g id="Group_37">
<g id="Group_38">
<g id="Group_39">
<g id="Group_40">
<g id="Group_41">
<path id="Vector_14" d="M22.6741 32.1996C22.5913 32.1996 22.5085 32.1607 22.455 32.0828C22.0703 31.518 20.9261 31.4596 20.5171 31.4839C20.3711 31.4937 20.2445 31.3817 20.2396 31.2356C20.2299 31.0895 20.3419 30.9629 20.4879 30.9581C20.561 30.9532 22.2651 30.8607 22.8932 31.7858C22.9759 31.9075 22.9419 32.0682 22.8201 32.151C22.7763 32.185 22.7228 32.1996 22.6741 32.1996Z" fill="#FF8A8A"/>
</g>
</g>
</g>
</g>
</g>
</g>
</g>
<g id="Group_42">
<g id="Group_43">
<g id="Group_44">
<g id="Group_45">
<g id="Group_46">
<g id="Group_47">
<g id="Group_48">
<path id="Vector_15" d="M48.9032 28.6551C48.9032 28.6551 52.7204 23.4599 55.6904 26.5322C58.6605 29.6094 52.9346 40.3161 47.7395 37.9839L48.9032 28.6551Z" fill="#FFB8A1"/>
</g>
</g>
</g>
</g>
</g>
<g id="Group_49">
<g id="Group_50">
<g id="Group_51">
<g id="Group_52">
<g id="Group_53">
<path id="Vector_16" d="M50.7241 34.7947C50.7144 34.7947 50.6998 34.7947 50.6852 34.7899C50.5391 34.7704 50.4417 34.6389 50.4612 34.4928C50.9919 30.6707 53.9376 28.3921 54.0642 28.2996C54.1811 28.2119 54.3466 28.2363 54.4343 28.3483C54.5219 28.4651 54.4975 28.6307 54.3856 28.7183C54.3563 28.7378 51.4837 30.9629 50.9871 34.5659C50.9676 34.6973 50.8556 34.7947 50.7241 34.7947Z" fill="#FF8A8A"/>
</g>
</g>
</g>
</g>
</g>
<g id="Group_54">
<g id="Group_55">
<g id="Group_56">
<g id="Group_57">
<g id="Group_58">
<path id="Vector_17" d="M51.5226 32.1996C51.4739 32.1996 51.4203 32.185 51.3765 32.1558C51.2548 32.073 51.2256 31.9123 51.3035 31.7906C51.9316 30.8606 53.6357 30.958 53.7087 30.9629C53.8548 30.9726 53.9619 31.0992 53.957 31.2404C53.9473 31.3865 53.8207 31.4985 53.6795 31.4887C53.2705 31.4644 52.1263 31.5228 51.7417 32.0876C51.693 32.1606 51.6102 32.1996 51.5226 32.1996Z" fill="#FF8A8A"/>
</g>
</g>
</g>
</g>
</g>
</g>
</g>
<g id="Group_59">
<g id="Group_60">
<g id="Group_61">
<g id="Group_62">
<g id="Group_63">
<path id="Vector_18" d="M40.1387 13.5078C29.4612 10.9029 22.075 18.7808 23.0634 30.958C23.6915 38.6898 27.6353 48.3985 36.7986 48.6127C46.3515 48.8367 51.3372 39.6685 51.3372 28.9617C51.3372 20.7674 48.5863 16.2149 41.6189 13.9314C41.1368 13.7707 40.6451 13.6295 40.1387 13.5078Z" fill="#FFB8A1"/>
</g>
</g>
</g>
</g>
</g>
<g id="Group_64">
<path id="Vector_19" d="M21.5886 19.8277C21.5886 19.8277 19.4755 24.7113 20.2399 25.5877C20.8875 26.3375 21.8856 25.8214 21.8856 25.8214C21.8856 25.8214 21.4766 31.1577 23.7407 31.3671C26.0047 31.5764 25.7223 21.5708 25.7223 21.5708C25.7223 21.5708 29.4665 21.6731 28.7654 18.5716C28.7654 18.5716 38.4643 20.4169 45.9527 18.445C45.9527 18.445 45.6411 21.4393 48.168 21.8337C48.168 21.8337 46.7025 30.9143 49.3804 31.5813C52.0583 32.2483 51.922 26.0064 51.922 26.0064C51.922 26.0064 53.1002 26.021 53.5628 25.5633C54.6632 24.4824 52.8665 18.6154 49.9257 14.7689C46.6927 10.5573 30.5961 2.55768 21.5886 19.8277Z" fill="#3F2037"/>
</g>
<g id="Group_65">
<g id="Group_66">
<path id="Vector_20" d="M53.3969 18.6884C53.3969 18.6884 52.6861 18.5326 51.4007 18.3232C51.2741 18.3038 51.1426 18.2794 51.0063 18.2599C49.6965 18.0554 47.895 17.812 45.7138 17.6221C45.5872 17.6124 45.4606 17.5978 45.3291 17.588C43.7711 17.4614 42.0329 17.3592 40.1486 17.3154C40.022 17.3105 39.8954 17.3105 39.7688 17.3056C38.1475 17.2764 36.4239 17.291 34.6224 17.3641C34.4958 17.3689 34.3692 17.3738 34.2426 17.3787C32.5677 17.4566 30.8246 17.5929 29.0377 17.7974C28.9111 17.812 28.7797 17.8266 28.6531 17.8412C26.91 18.0506 25.1231 18.3232 23.3167 18.6787C23.1853 18.703 23.0538 18.7322 22.9224 18.7566C22.2407 18.8929 21.5542 19.0438 20.8677 19.2094C20.8677 19.2094 21.671 13.4787 26.2917 9.56405C26.5448 9.34982 26.8029 9.14532 27.0804 8.9457C28.3366 8.02547 29.8362 7.24157 31.6329 6.71573C31.7838 6.67191 31.9347 6.62809 32.0905 6.58914C33.0741 6.33109 34.1452 6.14607 35.3089 6.05843C35.4355 6.04869 35.5621 6.03895 35.6935 6.03408C36.1074 6.00974 36.5359 6 36.9741 6C37.5729 6 38.1475 6.01948 38.7025 6.0633C38.834 6.07303 38.9606 6.08277 39.0872 6.09738C40.2606 6.20449 41.3415 6.40412 42.3347 6.67678C42.4905 6.71573 42.6415 6.76442 42.7924 6.80824C44.6134 7.35843 46.1228 8.15206 47.3838 9.07716C47.6565 9.27678 47.9145 9.48128 48.1628 9.69064C52.5935 13.4348 53.3969 18.6884 53.3969 18.6884Z" fill="#FF4F4E"/>
</g>
<g id="Group_67">
<g id="Group_68">
<g id="Group_69">
<path id="Vector_21" d="M27.086 8.95068C25.5669 11.5409 23.892 15.0514 23.3224 18.6885C23.2152 19.3604 23.1471 20.0372 23.1276 20.714L22.7527 20.7043C22.7722 20.0567 22.8355 19.4091 22.9328 18.7664C23.4343 15.3923 24.8804 12.1252 26.3021 9.56904C26.5504 9.3548 26.8085 9.15031 27.086 8.95068Z" fill="#C42C31"/>
</g>
</g>
<g id="Group_70">
<g id="Group_71">
<path id="Vector_22" d="M32.0909 6.58936C31.1317 8.93617 29.6029 13.216 29.0381 17.7976C28.9213 18.7568 28.8434 19.7354 28.8239 20.7044L28.449 20.6946C28.4685 19.7403 28.5415 18.7811 28.6535 17.8414C29.1939 13.3523 30.6546 9.15041 31.6284 6.71595C31.7842 6.677 31.9351 6.63318 32.0909 6.58936Z" fill="#C42C31"/>
</g>
</g>
<g id="Group_72">
<g id="Group_73">
<path id="Vector_23" d="M35.6987 6.03418C35.3969 8.17163 34.8418 12.5731 34.6276 17.369C34.5789 18.4694 34.5448 19.5892 34.5399 20.7091L34.165 20.7042C34.1748 19.5892 34.204 18.4791 34.2527 17.3836C34.4669 12.6218 35.0122 8.2398 35.319 6.06339C35.4407 6.04879 35.5673 6.04392 35.6987 6.03418Z" fill="#C42C31"/>
</g>
</g>
<g id="Group_74">
<g id="Group_75">
<path id="Vector_24" d="M40.2412 20.7043H39.8614C39.8517 19.565 39.8225 18.4256 39.7689 17.3058C39.5498 12.5537 39.0045 8.19605 38.7026 6.05859C38.8341 6.06833 38.9607 6.07807 39.0873 6.09268C39.3892 8.26908 39.9296 12.6024 40.1438 17.3155C40.1974 18.4305 40.2315 19.565 40.2412 20.7043Z" fill="#C42C31"/>
</g>
</g>
<g id="Group_76">
<g id="Group_77">
<path id="Vector_25" d="M45.9431 20.6995L45.5682 20.7092C45.5487 19.6624 45.4611 18.6204 45.3296 17.5882C44.7551 13.1332 43.2847 8.99459 42.3401 6.67212C42.4959 6.71107 42.6468 6.75976 42.7978 6.80358C43.7569 9.20396 45.1592 13.2695 45.7142 17.6223C45.8408 18.6351 45.9236 19.6673 45.9431 20.6995Z" fill="#C42C31"/>
</g>
</g>
<g id="Group_78">
<g id="Group_79">
<path id="Vector_26" d="M51.6497 20.6995L51.2748 20.7092C51.2505 19.8912 51.1531 19.0684 51.007 18.2553C50.3887 14.8276 48.8257 11.5411 47.3894 9.07251C47.6621 9.27214 47.9201 9.47663 48.1684 9.68599C49.5025 12.1107 50.8512 15.1587 51.4014 18.3186C51.5377 19.1074 51.6254 19.9059 51.6497 20.6995Z" fill="#C42C31"/>
</g>
</g>
</g>
<g id="Group_80">
<path id="Vector_27" d="M20.0692 19.2143C20.0692 19.2143 19.1782 21.1132 20.2347 23.8982C20.2347 23.8982 30.8879 17.5248 53.9082 23.4844C53.9082 23.4844 55.3494 21.8533 53.9082 18.9076C53.9082 18.9076 36.1415 11.1125 20.0692 19.2143Z" fill="#C42C31"/>
</g>
</g>
<g id="Group_81">
<g id="Group_82">
<path id="Vector_28" d="M37.5634 37.8085C37.1106 37.8085 36.614 37.6917 36.0638 37.4531C35.908 37.3849 35.8204 37.2243 35.8398 37.0587L36.6043 31.1965C36.6335 30.9921 36.8185 30.846 37.0279 30.8703C37.2324 30.8995 37.3784 31.0846 37.3541 31.2939L36.6237 36.8688C37.3736 37.1415 37.953 37.1171 38.4301 36.7958C38.6005 36.6789 38.8342 36.7228 38.9511 36.898C39.0679 37.0685 39.0192 37.3022 38.8488 37.419C38.4642 37.6819 38.0357 37.8085 37.5634 37.8085Z" fill="#FF8A8A"/>
</g>
</g>
<g id="Group_83">
<g id="Group_84">
<path id="Vector_29" d="M36.8621 41.6746C34.7052 41.6746 33.0692 40.7836 33.04 40.769C32.8598 40.6667 32.7917 40.4379 32.8939 40.2577C32.9962 40.0776 33.225 40.0094 33.4052 40.1117C33.5853 40.2139 37.7531 42.4585 41.361 39.1233C41.5119 38.9821 41.7505 38.9918 41.8917 39.1428C42.0329 39.2937 42.0231 39.5323 41.8722 39.6735C40.207 41.2218 38.4007 41.6746 36.8621 41.6746Z" fill="#FF8A8A"/>
</g>
</g>
<g id="Group_85">
<g id="Group_86">
<path id="Vector_30" d="M37.4755 43.8265C36.6235 43.8265 35.9418 43.6172 35.8931 43.6026C35.6935 43.5393 35.5864 43.3299 35.6448 43.1303C35.7081 42.9306 35.9175 42.8235 36.1171 42.882C36.1317 42.8868 37.8017 43.3932 38.9751 42.7262C39.1553 42.6239 39.3841 42.6872 39.4864 42.8674C39.5886 43.0475 39.5253 43.2763 39.3452 43.3786C38.7463 43.7243 38.0695 43.8265 37.4755 43.8265Z" fill="#FF8A8A"/>
</g>
</g>
<g id="Group_87">
<g id="Group_88">
<path id="Vector_31" d="M29.5297 27.1067C30.338 26.6733 31.5211 26.1329 32.6751 25.9673C33.2934 25.8748 33.6829 25.2565 33.4687 24.6673L33.4249 24.5505C33.2739 24.1269 32.8503 23.8591 32.4024 23.9078C31.3751 24.0149 29.5589 24.3752 28.3709 25.5584C28.1129 25.8164 28.0252 26.1962 28.1324 26.5419C28.3174 27.1213 28.9893 27.3939 29.5297 27.1067Z" fill="#3F2037"/>
</g>
</g>
<g id="Group_89">
<g id="Group_90">
<path id="Vector_32" d="M45.1003 27.1067C44.2921 26.6733 43.1089 26.1329 41.955 25.9673C41.3366 25.8748 40.9471 25.2565 41.1614 24.6673L41.2052 24.5505C41.3561 24.1269 41.7797 23.8591 42.2276 23.9078C43.255 24.0149 45.0711 24.3752 46.2591 25.5584C46.5172 25.8164 46.6048 26.1962 46.4977 26.5419C46.3127 27.1213 45.6408 27.3939 45.1003 27.1067Z" fill="#3F2037"/>
</g>
</g>
<g id="Group_91" opacity="0.5">
<g id="Group_92">
<path id="Vector_33" d="M32.2852 33.8747C32.2852 34.7997 30.581 35.5447 28.4777 35.5447C26.3743 35.5447 24.6702 34.7949 24.6702 33.8747C24.6702 32.9496 26.3743 32.2046 28.4777 32.2046C30.581 32.1997 32.2852 32.9496 32.2852 33.8747Z" fill="#FF8A8A"/>
</g>
</g>
<g id="Group_93" opacity="0.5">
<g id="Group_94">
<path id="Vector_34" d="M50.1934 33.8747C50.1934 34.7997 48.4892 35.5447 46.3859 35.5447C44.2825 35.5447 42.5784 34.7949 42.5784 33.8747C42.5784 32.9496 44.2825 32.2046 46.3859 32.2046C48.4892 32.1997 50.1934 32.9496 50.1934 33.8747Z" fill="#FF8A8A"/>
</g>
</g>
<g id="Group_95">
<g id="Group_96">
<g id="Group_97">
<g id="Group_98">
<g id="Group_99">
<g id="Group_100">
<g id="Group_101">
<path id="Vector_35" d="M32.5482 29.9795C32.5677 30.9971 32.1879 31.8345 31.7108 31.8394C31.2288 31.8491 30.8246 31.0263 30.8052 30.0087C30.7857 28.9911 31.1655 28.1536 31.6426 28.1488C32.1295 28.139 32.5336 28.9619 32.5482 29.9795Z" fill="#3F2037"/>
</g>
</g>
</g>
</g>
</g>
</g>
<g id="Group_102">
<g id="Group_103">
<g id="Group_104">
<g id="Group_105">
<g id="Group_106">
<g id="Group_107">
<path id="Vector_36" d="M41.6628 29.9795C41.6434 30.9971 42.0231 31.8345 42.5003 31.8394C42.9823 31.8491 43.3864 31.0263 43.4059 30.0087C43.4254 28.9911 43.0456 28.1536 42.5684 28.1488C42.0864 28.139 41.6823 28.9619 41.6628 29.9795Z" fill="#3F2037"/>
</g>
</g>
</g>
</g>
</g>
</g>
</g>
</g>
</g>
</g>
</g>
<defs>
<clipPath id="clip0_169_10759">
<rect width="73" height="73" rx="36.5" fill="white"/>
</clipPath>
</defs>
</svg>
