<svg width="65" height="65" viewBox="0 0 65 65" fill="none" xmlns="http://www.w3.org/2000/svg">
<g id="Frame" clip-path="url(#clip0_169_10906)">
<g id="Group">
<g id="Group_2">
<path id="Vector" d="M18.3947 56.6843C18.3947 56.6843 7.66946 58.8118 7.21754 49.9044C7.02067 46.0466 6.49269 46.6513 3.0787 43.4027C-0.339764 40.1496 -0.339764 38.8254 0.394042 35.8151C1.12785 32.8047 4.20625 31.7719 2.68495 28.9867C0.680405 25.3231 1.29788 19.0597 5.65149 16.6187C9.86193 14.2573 10.3317 14.2882 10.3317 11.8693C10.3317 8.70892 13.6607 3.61521 20.5245 4.14488C26.4218 4.59952 25.5045 1.76576 29.6881 0.503364C37.4826 -1.84928 41.259 4.81139 43.9436 5.04974C46.6283 5.29251 51.2772 5.33665 53.6352 8.85458C56.5615 13.22 53.9753 16.7821 57.6399 17.144C61.2999 17.5059 64.9645 20.6354 64.8392 23.8885C64.7184 27.1416 62.7631 29.9092 64.1054 31.3525C65.4477 32.7959 65.9668 41.3546 60.5482 42.9922C53.1431 45.23 60.5482 56.0443 46.9326 55.8412C34.695 55.6691 18.3947 56.6843 18.3947 56.6843Z" fill="#3F2037"/>
</g>
<g id="Group_3">
<g id="Group_4">
<path id="Vector_2" d="M62.4363 65.0001H1.04712C1.04712 65.0001 1.66459 57.4434 5.36942 55.9823C6.13454 55.6778 7.40975 55.0907 8.95343 54.3448C9.1682 54.2432 9.38745 54.1373 9.6067 54.027C9.6067 54.027 9.61117 54.027 9.61117 54.0225C10.0049 53.8283 10.4121 53.6297 10.8282 53.4222C13.8127 51.9436 17.3251 50.1471 20.059 48.7346C20.3766 48.5713 20.6854 48.4124 20.9807 48.2579C23.1463 47.1323 24.6363 46.3511 24.6363 46.3511L25.1061 46.4526C29.4687 47.4148 34.0013 47.3839 38.3459 46.3511C38.3459 46.3511 39.8896 47.1368 42.1313 48.2623C42.1582 48.2756 42.1895 48.2888 42.2163 48.3065C43.5676 48.9862 45.1694 49.7895 46.8384 50.615C51.3173 52.8396 56.2571 55.2452 58.1095 55.9779C61.8188 57.4434 62.4363 65.0001 62.4363 65.0001Z" fill="#0075CF"/>
</g>
</g>
<g id="Group_5">
<path id="Vector_3" d="M32.3457 60.9658C30.8244 60.9658 29.5 60.7495 28.4395 60.4759C25.7996 59.8005 24.2246 58.6794 24.1575 58.6308C24.0098 58.5249 23.9741 58.3174 24.0859 58.1674C24.1933 58.0217 24.4036 57.9864 24.5557 58.0967C24.5781 58.1144 26.1173 59.2047 28.6364 59.8403C30.9586 60.4317 34.6187 60.7451 38.8649 58.9045C39.035 58.8295 39.2318 58.9089 39.3079 59.0722C39.384 59.24 39.3034 59.4342 39.1379 59.5092C36.6367 60.6039 34.3234 60.9658 32.3457 60.9658Z" fill="#0056A8"/>
</g>
<g id="Group_6">
<path id="Vector_4" d="M42.1358 48.2667C41.4109 51.3741 39.0753 57.1741 31.7417 57.1741C23.9294 57.1741 21.6206 50.9857 20.9807 48.2623C23.1463 47.1367 24.6363 46.3555 24.6363 46.3555L25.1061 46.457C29.4687 47.4192 34.0013 47.3883 38.346 46.3555C38.3504 46.3555 39.8941 47.1412 42.1358 48.2667Z" fill="#FFB8A1"/>
</g>
<g id="Group_7">
<path id="Vector_5" d="M13.3876 65.0002H1.04712C1.04712 65.0002 1.66459 57.4435 5.36942 55.9825C6.13454 55.6779 7.40975 55.0908 8.95343 54.3449C9.1682 54.2434 9.38745 54.1374 9.6067 54.0271C9.6067 54.0271 9.61117 54.0271 9.61117 54.0227C10.0049 53.8284 10.4121 53.6298 10.8282 53.4224C11.7499 55.9648 13.2802 60.7716 13.3876 65.0002Z" fill="#FFB8A1"/>
</g>
<g id="Group_8">
<path id="Vector_6" d="M50.0957 65.0002H62.4362C62.4362 65.0002 61.8187 57.4435 58.1139 55.9825C57.3488 55.6779 56.0735 55.0908 54.5343 54.3449C54.3196 54.2434 54.1003 54.1374 53.8811 54.0271C53.8811 54.0271 53.8766 54.0271 53.8766 54.0227C53.4828 53.8284 53.0757 53.6298 52.6596 53.4224C51.7333 55.9648 50.2031 60.7716 50.0957 65.0002Z" fill="#FFB8A1"/>
</g>
<g id="Group_9">
<g id="Group_10">
<g id="Group_11">
<g id="Group_12">
<g id="Group_13">
<g id="Group_14">
<path id="Vector_7" d="M38.6591 47.9005C38.6591 47.9005 37.4555 51.6347 31.9251 51.6347C25.473 51.6347 23.9517 48.2404 23.9517 48.2404C24.511 46.775 24.8958 45.4155 25.1553 44.2016C25.634 41.977 25.7012 40.2335 25.6698 39.1609L37.008 38.7195C37.111 39.6685 37.2855 40.7808 37.4779 41.9019C37.9924 44.8814 38.6591 47.9005 38.6591 47.9005Z" fill="#FFB8A1"/>
</g>
</g>
</g>
</g>
<g id="Group_15">
<g id="Group_16">
<g id="Group_17">
<g id="Group_18">
<path id="Vector_8" d="M37.4824 41.9019C35.724 43.107 31.8849 44.899 25.1643 44.2016C25.6431 41.977 25.7102 40.2335 25.6789 39.1609L37.0171 38.7195C37.12 39.6641 37.29 40.7808 37.4824 41.9019Z" fill="#3F2037"/>
</g>
</g>
</g>
</g>
</g>
<g id="Group_19">
<g id="Group_20">
<g id="Group_21">
<g id="Group_22">
<g id="Group_23">
<g id="Group_24">
<path id="Vector_9" d="M43.5407 25.2127C43.5407 25.2127 46.1985 21.6462 48.2612 23.7561C50.3284 25.866 46.3417 33.2152 42.7263 31.6174L43.5407 25.2127Z" fill="#FFB8A1"/>
</g>
</g>
</g>
</g>
<g id="Group_25">
<g id="Group_26">
<path id="Vector_10" d="M42.4445 31.5467C40.7487 32.3588 39.5809 34.0714 39.5809 36.0533C39.5809 38.8165 41.8583 41.0632 44.6549 41.0632C47.4559 41.0632 49.7289 38.8165 49.7289 36.0533C49.7289 33.5727 47.8943 31.5113 45.4916 31.1185C45.2634 31.0788 45.0307 31.0567 44.7936 31.0523C44.8115 30.8581 44.8517 30.6683 44.9144 30.4873C45.3081 30.505 45.6885 30.5623 46.0554 30.655C48.4984 31.273 50.3061 33.4579 50.3061 36.0577C50.3061 39.1343 47.7691 41.6326 44.6549 41.6326C41.5362 41.6326 39.0037 39.1298 39.0037 36.0577C39.0037 33.7272 40.4623 31.7232 42.5295 30.8934L42.4445 31.5467Z" fill="#FFF7F1"/>
</g>
</g>
<g id="Group_27">
<g id="Group_28">
<g id="Group_29">
<g id="Group_30">
<path id="Vector_11" d="M44.6101 29.4281C44.6012 29.4281 44.5922 29.4281 44.5833 29.4281C44.4848 29.4149 44.4132 29.3222 44.4267 29.2251C44.798 26.5988 46.8473 25.0406 46.9323 24.9744C47.0129 24.9126 47.1292 24.9303 47.1874 25.0097C47.25 25.0892 47.2321 25.2039 47.1516 25.2613C47.1292 25.2746 45.1336 26.8018 44.7846 29.2736C44.7801 29.3619 44.6996 29.4281 44.6101 29.4281Z" fill="#FF8A8A"/>
</g>
</g>
</g>
</g>
<g id="Group_31">
<g id="Group_32">
<g id="Group_33">
<g id="Group_34">
<path id="Vector_12" d="M45.165 27.6493C45.1292 27.6493 45.0934 27.6405 45.0621 27.6184C44.9771 27.561 44.9547 27.4507 45.0129 27.3668C45.4514 26.7268 46.6371 26.793 46.6863 26.7974C46.7892 26.8018 46.8653 26.8901 46.8563 26.9872C46.8519 27.0887 46.7624 27.1638 46.6639 27.1549C46.3776 27.1373 45.5811 27.177 45.3171 27.5654C45.2858 27.6184 45.2276 27.6493 45.165 27.6493Z" fill="#FF8A8A"/>
</g>
</g>
</g>
</g>
</g>
</g>
<g id="Group_35">
<g id="Group_36">
<g id="Group_37">
<g id="Group_38">
<g id="Group_39">
<g id="Group_40">
<path id="Vector_13" d="M20.5109 25.2127C20.5109 25.2127 17.8531 21.6462 15.7904 23.7561C13.7232 25.866 17.7099 33.2152 21.3252 31.6174L20.5109 25.2127Z" fill="#FFB8A1"/>
</g>
</g>
</g>
</g>
<g id="Group_41">
<g id="Group_42">
<path id="Vector_14" d="M21.2267 30.8846C23.2939 31.7144 24.7526 33.7184 24.7526 36.0489C24.7526 39.1255 22.2156 41.6238 19.1014 41.6238C15.9872 41.6238 13.4502 39.1211 13.4502 36.0489C13.4502 33.4535 15.2579 31.2642 17.7009 30.6462C18.0678 30.5536 18.4481 30.4962 18.8419 30.4785C18.9045 30.6595 18.9448 30.8493 18.9627 31.0435C18.7255 31.0523 18.4929 31.07 18.2647 31.1097C15.8619 31.5026 14.0274 33.5683 14.0274 36.0445C14.0274 38.8077 16.3049 41.0544 19.1014 41.0544C21.8979 41.0544 24.1754 38.8077 24.1754 36.0445C24.1754 34.0671 23.0031 32.35 21.3073 31.5379L21.2267 30.8846Z" fill="#FFF7F1"/>
</g>
</g>
<g id="Group_43">
<g id="Group_44">
<path id="Vector_15" d="M21.2267 30.8846C23.2939 31.7144 24.7526 33.7184 24.7526 36.0489C24.7526 39.1255 22.2156 41.6238 19.1014 41.6238C15.9872 41.6238 13.4502 39.1211 13.4502 36.0489C13.4502 33.4535 15.2579 31.2642 17.7009 30.6462C18.0678 30.5536 18.4481 30.4962 18.8419 30.4785C18.9045 30.6595 18.9448 30.8493 18.9627 31.0435C18.7255 31.0523 18.4929 31.07 18.2647 31.1097C15.8619 31.5026 14.0274 33.5683 14.0274 36.0445C14.0274 38.8077 16.3049 41.0544 19.1014 41.0544C21.8979 41.0544 24.1754 38.8077 24.1754 36.0445C24.1754 34.0671 23.0031 32.35 21.3073 31.5379L21.2267 30.8846Z" fill="#FFF7F1"/>
</g>
</g>
<g id="Group_45">
<g id="Group_46">
<g id="Group_47">
<g id="Group_48">
<path id="Vector_16" d="M19.4414 29.4281C19.4503 29.4281 19.4593 29.4281 19.4682 29.4281C19.5666 29.4149 19.6382 29.3222 19.6248 29.2251C19.2534 26.5988 17.2041 25.0406 17.1191 24.9744C17.0386 24.9126 16.9223 24.9303 16.8641 25.0097C16.8014 25.0892 16.8193 25.2039 16.8999 25.2613C16.9223 25.2746 18.9178 26.8018 19.2669 29.2736C19.2713 29.3619 19.3519 29.4281 19.4414 29.4281Z" fill="#FF8A8A"/>
</g>
</g>
</g>
</g>
<g id="Group_49">
<g id="Group_50">
<g id="Group_51">
<g id="Group_52">
<path id="Vector_17" d="M18.8866 27.6493C18.9224 27.6493 18.9582 27.6405 18.9895 27.6184C19.0746 27.561 19.0969 27.4507 19.0388 27.3668C18.6003 26.7268 17.4145 26.793 17.3653 26.7974C17.2624 26.8018 17.1863 26.8901 17.1953 26.9872C17.1998 27.0887 17.2893 27.1638 17.3877 27.1549C17.6741 27.1373 18.4705 27.177 18.7345 27.5654C18.7658 27.6184 18.824 27.6493 18.8866 27.6493Z" fill="#FF8A8A"/>
</g>
</g>
</g>
</g>
</g>
</g>
<g id="Group_53">
<g id="Group_54">
<g id="Group_55">
<g id="Group_56">
<path id="Vector_18" d="M44.8875 25.7954C44.6951 33.0519 40.6994 42.8774 31.9251 42.6699C24.1575 42.489 20.3005 35.2192 19.3609 28.585C19.2803 28.0244 19.2222 27.4683 19.1864 26.9253C18.4392 16.2303 22.748 10.757 32.0101 10.4568C32.5291 10.4392 33.0661 10.4392 33.6164 10.4568C34.0952 10.4701 36.4129 10.8453 36.8559 10.9909C43.2543 13.0567 45.0888 18.1636 44.8875 25.7954Z" fill="#FFB8A1"/>
</g>
</g>
</g>
</g>
<g id="Group_57" opacity="0.5">
<g id="Group_58">
<path id="Vector_19" d="M27.5446 30.1431C27.5446 30.9818 25.9786 31.6571 24.0456 31.6571C22.1127 31.6571 20.5466 30.9774 20.5466 30.1431C20.5466 29.3045 22.1127 28.6292 24.0456 28.6292C25.9786 28.6292 27.5446 29.3089 27.5446 30.1431Z" fill="#FF8A8A"/>
</g>
</g>
<g id="Group_59" opacity="0.5">
<g id="Group_60">
<path id="Vector_20" d="M44.0017 30.1431C44.0017 30.9818 42.4356 31.6571 40.5027 31.6571C38.5697 31.6571 37.0037 30.9774 37.0037 30.1431C37.0037 29.3045 38.5697 28.6292 40.5027 28.6292C42.4356 28.6292 44.0017 29.3089 44.0017 30.1431Z" fill="#FF8A8A"/>
</g>
</g>
<g id="Group_61">
<g id="Group_62">
<path id="Vector_21" d="M26.8869 16.9944C24.6094 17.1665 25.294 19.7663 23.0567 21.0375C20.5958 22.4324 20.9001 23.271 21.4952 25.2264C22.3811 28.1352 19.4727 28.8238 19.4727 28.8238C19.4369 28.7487 19.4011 28.6693 19.3653 28.5898C19.2848 28.0293 19.2266 27.4731 19.1908 26.9302C18.4436 16.2352 21.9068 10.0026 32.0145 10.4617C33.2584 15.1405 29.9295 16.7648 26.8869 16.9944Z" fill="#3F2037"/>
</g>
<g id="Group_63">
<path id="Vector_22" d="M36.9365 16.2259C39.9612 16.1773 38.9052 19.2671 40.6905 20.6884C42.9009 22.4452 43.6258 21.6992 42.6548 24.5771C41.6525 27.5565 44.5341 28.8189 44.5341 28.8189C44.5699 28.7439 44.6056 28.6644 44.6414 28.585C44.722 28.0244 44.7802 27.4683 44.8159 26.9253C45.5632 16.2303 41.8986 10.0287 31.9967 10.4568C30.7439 15.1401 33.8805 16.27 36.9365 16.2259Z" fill="#3F2037"/>
</g>
</g>
<g id="Group_64">
<path id="Vector_23" d="M28.9898 20.6928C27.8041 20.7193 25.2134 21.0327 24.05 23.1603C24.05 23.1603 26.7258 21.9067 28.963 22.0391C29.3925 22.0656 29.737 21.6992 29.6834 21.2799C29.6386 20.94 29.3388 20.684 28.9898 20.6928Z" fill="#3F2037"/>
</g>
<g id="Group_65">
<path id="Vector_24" d="M35.5628 20.6928C36.7486 20.7193 39.3393 21.0327 40.5026 23.1603C40.5026 23.1603 37.8269 21.9067 35.5897 22.0391C35.1601 22.0656 34.8156 21.6992 34.8693 21.2799C34.914 20.94 35.2138 20.684 35.5628 20.6928Z" fill="#3F2037"/>
</g>
<g id="Group_66">
<path id="Vector_25" d="M32.6231 32.8665C32.207 32.8665 31.7506 32.7606 31.2495 32.5443C31.1108 32.4869 31.0302 32.3456 31.0481 32.2L31.7506 26.8856C31.773 26.7046 31.943 26.5766 32.1265 26.5987C32.3099 26.6207 32.4397 26.7885 32.4173 26.9694L31.7506 32.0323C32.4441 32.2838 32.9811 32.2618 33.424 31.9705C33.5762 31.8689 33.7865 31.9087 33.8894 32.0587C33.9923 32.2088 33.952 32.4163 33.7999 32.5178C33.4509 32.7517 33.0571 32.8665 32.6231 32.8665Z" fill="#FF8A8A"/>
</g>
<g id="Group_67">
<path id="Vector_26" d="M31.9609 36.3801C31.6656 36.3801 31.3882 36.3624 31.1331 36.3315C29.5984 36.1594 28.529 35.5723 28.4843 35.5502C28.3232 35.462 28.265 35.2589 28.3545 35.1C28.444 34.9411 28.6498 34.8837 28.8109 34.972C28.972 35.0603 32.811 37.104 36.1355 34.0716C36.2698 33.948 36.4845 33.9568 36.6098 34.0892C36.7351 34.2216 36.7262 34.4335 36.5919 34.5571C35.0035 36.0049 33.3032 36.3801 31.9609 36.3801Z" fill="#FF8A8A"/>
</g>
<g id="Group_68">
<path id="Vector_27" d="M32.547 38.3222C31.764 38.3222 31.142 38.1324 31.0973 38.1192C30.9183 38.0662 30.8199 37.8808 30.8781 37.7043C30.9317 37.5277 31.1197 37.4306 31.2986 37.488C31.3165 37.4924 32.8513 37.9514 33.9341 37.3467C34.0952 37.2584 34.301 37.3114 34.3905 37.4703C34.48 37.6292 34.4263 37.8323 34.2652 37.9205C33.7104 38.2339 33.0884 38.3222 32.547 38.3222Z" fill="#FF8A8A"/>
</g>
<g id="Group_69">
<g id="Group_70">
<g id="Group_71">
<g id="Group_72">
<g id="Group_73">
<g id="Group_74">
<path id="Vector_28" d="M28.019 25.7776C28.0369 26.7001 27.6879 27.4593 27.2494 27.4637C26.8064 27.4726 26.4351 26.7266 26.4172 25.8041C26.3993 24.8816 26.7483 24.1224 27.1868 24.1179C27.6297 24.1135 28.0056 24.8551 28.019 25.7776Z" fill="#3F2037"/>
</g>
</g>
</g>
</g>
</g>
<g id="Group_75">
<g id="Group_76">
<g id="Group_77">
<g id="Group_78">
<g id="Group_79">
<path id="Vector_29" d="M36.3952 25.7776C36.3773 26.7001 36.7263 27.4593 37.1648 27.4637C37.6078 27.4726 37.9791 26.7266 37.997 25.8041C38.0149 24.8816 37.6659 24.1224 37.2274 24.1179C36.7845 24.1135 36.4086 24.8551 36.3952 25.7776Z" fill="#3F2037"/>
</g>
</g>
</g>
</g>
</g>
</g>
</g>
</g>
</g>
<defs>
<clipPath id="clip0_169_10906">
<rect width="65" height="65" fill="white"/>
</clipPath>
</defs>
</svg>
