<svg width="43" height="53" viewBox="0 0 43 53" fill="none" xmlns="http://www.w3.org/2000/svg">
<g filter="url(#filter0_d_8188_23058)">
<path d="M40 20.0968C40 33.5396 28.2543 38.4005 22.5396 47.215C22.0848 47.9165 20.969 47.8887 20.5393 47.1716C15.274 38.3845 3 33.5175 3 20.0968C3 9.54992 11.2827 1 21.5 1C31.7173 1 40 9.54992 40 20.0968Z" fill="url(#paint0_linear_8188_23058)"/>
</g>
<path d="M35.6452 20.3226C35.6452 30.2192 26.8831 33.9141 22.3762 40.2995C21.9008 40.973 20.7954 40.9455 20.3415 40.2574C16.1459 33.8978 7 30.1975 7 20.3226C7 12.4124 13.4124 6 21.3226 6C29.2327 6 35.6452 12.4124 35.6452 20.3226Z" fill="white"/>
<path d="M33.3203 20C33.3203 28.43 24.9856 31.5959 21.8754 37.7155C21.6625 38.1343 20.9781 38.1343 20.7652 37.7155C17.655 31.5959 9.32031 28.43 9.32031 20C9.32031 13.3726 14.6929 8 21.3203 8C27.9477 8 33.3203 13.3726 33.3203 20Z" fill="#EF4424"/>
<path fill-rule="evenodd" clip-rule="evenodd" d="M17.2389 21.7132C17.2389 21.2723 16.7557 21.0478 16.1935 20.7866C15.4117 20.4234 14.4772 19.9893 14.4772 18.8034C14.4772 17.4965 15.6185 17 16.7075 17C17.1692 17 18.4412 17.0871 18.4412 17.7667C18.4412 18.0019 18.2844 18.4811 17.901 18.4811C17.776 18.4811 17.6746 18.4285 17.5525 18.3652C17.3683 18.2698 17.1371 18.15 16.7075 18.15C16.0889 18.15 15.8362 18.4027 15.8362 18.6728C15.8362 19.0095 16.2487 19.1913 16.7549 19.4145C17.5584 19.7687 18.598 20.227 18.598 21.5739C18.598 22.8285 17.6832 23.508 16.42 23.508C15.2786 23.508 14.3203 22.9505 14.3203 22.3755C14.3203 22.0792 14.5817 21.6436 14.9127 21.6436C15.0829 21.6436 15.2275 21.7549 15.3965 21.8851C15.6342 22.0681 15.9202 22.2883 16.3938 22.2883C16.7946 22.2883 17.2389 22.1314 17.2389 21.7132ZM19.2031 21.4155V19.1069C19.2031 17.6084 20.1353 17.0508 21.3376 17.0508C22.5398 17.0508 23.4807 17.6084 23.4807 19.1069V21.4155C23.4807 22.914 22.5398 23.4716 21.3376 23.4716C20.1353 23.4716 19.2031 22.914 19.2031 21.4155ZM22.1217 19.1069C22.1217 18.5057 21.8254 18.2357 21.3376 18.2357C20.8497 18.2357 20.5622 18.5057 20.5622 19.1069V21.4155C20.5622 22.0167 20.8497 22.2867 21.3376 22.2867C21.8254 22.2867 22.1217 22.0167 22.1217 21.4155V19.1069ZM25.9123 20.7866C26.4744 21.0478 26.9577 21.2723 26.9577 21.7132C26.9577 22.1314 26.5133 22.2883 26.1125 22.2883C25.639 22.2883 25.3529 22.0681 25.1152 21.8851C24.9462 21.7549 24.8016 21.6436 24.6315 21.6436C24.3004 21.6436 24.0391 22.0792 24.0391 22.3755C24.0391 22.9505 24.9974 23.508 26.1387 23.508C27.402 23.508 28.3167 22.8285 28.3167 21.5739C28.3167 20.227 27.2772 19.7687 26.4737 19.4145C25.9675 19.1913 25.555 19.0095 25.555 18.6728C25.555 18.4027 25.8076 18.15 26.4262 18.15C26.8559 18.15 27.087 18.2698 27.2712 18.3652C27.3933 18.4285 27.4948 18.4811 27.6198 18.4811C28.0031 18.4811 28.1599 18.0019 28.1599 17.7667C28.1599 17.0871 26.888 17 26.4262 17C25.3372 17 24.1959 17.4965 24.1959 18.8034C24.1959 19.9893 25.1304 20.4234 25.9123 20.7866Z" fill="white"/>
<defs>
<filter id="filter0_d_8188_23058" x="0" y="0" width="43" height="52.7256" filterUnits="userSpaceOnUse" color-interpolation-filters="sRGB">
<feFlood flood-opacity="0" result="BackgroundImageFix"/>
<feColorMatrix in="SourceAlpha" type="matrix" values="0 0 0 0 0 0 0 0 0 0 0 0 0 0 0 0 0 0 127 0" result="hardAlpha"/>
<feOffset dy="2"/>
<feGaussianBlur stdDeviation="1.5"/>
<feComposite in2="hardAlpha" operator="out"/>
<feColorMatrix type="matrix" values="0 0 0 0 0 0 0 0 0 0 0 0 0 0 0 0 0 0 0.2 0"/>
<feBlend mode="normal" in2="BackgroundImageFix" result="effect1_dropShadow_8188_23058"/>
<feBlend mode="normal" in="SourceGraphic" in2="effect1_dropShadow_8188_23058" result="shape"/>
</filter>
<linearGradient id="paint0_linear_8188_23058" x1="3" y1="1" x2="46.2169" y2="7.46929" gradientUnits="userSpaceOnUse">
<stop stop-color="#F56B59"/>
<stop offset="1" stop-color="#FA4E80"/>
</linearGradient>
</defs>
</svg>
