<svg width="43" height="53" viewBox="0 0 43 53" fill="none" xmlns="http://www.w3.org/2000/svg">
<g filter="url(#filter0_d_8188_23056)">
<path d="M40 20.0968C40 33.5396 28.2543 38.4005 22.5396 47.215C22.0848 47.9165 20.969 47.8887 20.5393 47.1716C15.274 38.3845 3 33.5175 3 20.0968C3 9.54992 11.2827 1 21.5 1C31.7173 1 40 9.54992 40 20.0968Z" fill="url(#paint0_linear_8188_23056)"/>
</g>
<path d="M35.6452 20.3226C35.6452 30.2192 26.8831 33.9141 22.3762 40.2995C21.9008 40.973 20.7954 40.9455 20.3415 40.2574C16.1459 33.8978 7 30.1975 7 20.3226C7 12.4124 13.4124 6 21.3226 6C29.2327 6 35.6452 12.4124 35.6452 20.3226Z" fill="white"/>
<path d="M33.3203 20C33.3203 28.43 24.9856 31.5959 21.8754 37.7155C21.6625 38.1343 20.9781 38.1343 20.7652 37.7155C17.655 31.5959 9.32031 28.43 9.32031 20C9.32031 13.3726 14.6929 8 21.3203 8C27.9477 8 33.3203 13.3726 33.3203 20Z" fill="#1075EE"/>
<path fill-rule="evenodd" clip-rule="evenodd" d="M14.3203 17.7957C14.3203 15.4233 16.2436 13.5 18.616 13.5C20.9885 13.5 22.9117 15.4233 22.9118 17.7957C22.9118 17.8869 22.9083 17.9773 22.9027 18.0671C22.504 18.1336 22.1149 18.2464 21.7393 18.4052C21.2964 18.5926 20.886 18.8379 20.5133 19.1367V18.975H16.7187V19.888L19.75 19.8881C19.4281 20.2771 19.1659 20.7088 18.9681 21.1765C18.8425 21.4734 18.7459 21.7787 18.6779 22.0905C18.6712 22.0906 18.6645 22.0907 18.6578 22.0909C18.6439 22.0912 18.63 22.0915 18.616 22.0915C17.678 22.0915 16.8104 21.7906 16.1039 21.2804L14.3623 21.7471L14.8615 19.884C14.5169 19.2658 14.3203 18.5537 14.3203 17.7957ZM16.7187 17.3392V18.2522H20.5133V17.3392H16.7187ZM16.7187 15.7034V16.6164H20.5133V15.7034H16.7187ZM23.7567 18.9062C26.1291 18.9062 28.0524 20.8295 28.0524 23.202C28.0524 23.96 27.8558 24.672 27.5112 25.2902L28.0104 27.1533L26.2688 26.6867C25.5623 27.1969 24.6946 27.4977 23.7566 27.4977C21.3842 27.4977 19.4609 25.5744 19.4609 23.202C19.4609 20.8296 21.3842 18.9062 23.7567 18.9062ZM21.8593 24.3813V25.2943H25.6539V24.3813H21.8593ZM21.8593 23.6585H25.6539V22.7455H21.8593V23.6585ZM21.8593 22.0227H25.6539V21.1096H21.8593V22.0227Z" fill="white"/>
<defs>
<filter id="filter0_d_8188_23056" x="0" y="0" width="43" height="52.7256" filterUnits="userSpaceOnUse" color-interpolation-filters="sRGB">
<feFlood flood-opacity="0" result="BackgroundImageFix"/>
<feColorMatrix in="SourceAlpha" type="matrix" values="0 0 0 0 0 0 0 0 0 0 0 0 0 0 0 0 0 0 127 0" result="hardAlpha"/>
<feOffset dy="2"/>
<feGaussianBlur stdDeviation="1.5"/>
<feComposite in2="hardAlpha" operator="out"/>
<feColorMatrix type="matrix" values="0 0 0 0 0 0 0 0 0 0 0 0 0 0 0 0 0 0 0.2 0"/>
<feBlend mode="normal" in2="BackgroundImageFix" result="effect1_dropShadow_8188_23056"/>
<feBlend mode="normal" in="SourceGraphic" in2="effect1_dropShadow_8188_23056" result="shape"/>
</filter>
<linearGradient id="paint0_linear_8188_23056" x1="3" y1="1" x2="46.2169" y2="7.46929" gradientUnits="userSpaceOnUse">
<stop stop-color="#F56B59"/>
<stop offset="1" stop-color="#FA4E80"/>
</linearGradient>
</defs>
</svg>
