<svg width="43" height="53" viewBox="0 0 43 53" fill="none" xmlns="http://www.w3.org/2000/svg">
<g filter="url(#filter0_d_8188_22994)">
<path d="M40 20.0968C40 33.5396 28.2543 38.4005 22.5396 47.215C22.0848 47.9165 20.969 47.8887 20.5393 47.1716C15.274 38.3845 3 33.5175 3 20.0968C3 9.54992 11.2827 1 21.5 1C31.7173 1 40 9.54992 40 20.0968Z" fill="white"/>
<path d="M40 20.0968C40 33.5396 28.2543 38.4005 22.5396 47.215C22.0848 47.9165 20.969 47.8887 20.5393 47.1716C15.274 38.3845 3 33.5175 3 20.0968C3 9.54992 11.2827 1 21.5 1C31.7173 1 40 9.54992 40 20.0968Z" fill="url(#paint0_linear_8188_22994)"/>
</g>
<path d="M35.6452 20.3226C35.6452 30.2192 26.8831 33.9141 22.3762 40.2995C21.9008 40.973 20.7954 40.9455 20.3415 40.2574C16.1459 33.8978 7 30.1975 7 20.3226C7 12.4124 13.4124 6 21.3226 6C29.2327 6 35.6452 12.4124 35.6452 20.3226Z" fill="white"/>
<path d="M33.3203 20C33.3203 28.43 24.9856 31.5959 21.8754 37.7155C21.6625 38.1343 20.9781 38.1343 20.7652 37.7155C17.655 31.5959 9.32031 28.43 9.32031 20C9.32031 13.3726 14.6929 8 21.3203 8C27.9477 8 33.3203 13.3726 33.3203 20Z" fill="#6B5AE7"/>
<g clip-path="url(#clip0_8188_22994)">
<path fill-rule="evenodd" clip-rule="evenodd" d="M25.5597 12.1674C25.7822 11.9442 26.1449 11.9442 26.3674 12.1674L27.8912 13.6912C28.0028 13.8029 28.0586 13.949 28.0586 14.0952C28.0586 14.2612 27.9877 14.4111 27.8744 14.5156L26.3674 16.0227C26.1449 16.2459 25.7822 16.2459 25.5597 16.0227C25.3365 15.8002 25.3365 15.4375 25.5597 15.215L26.1075 14.6669H21.3919C21.0765 14.6669 20.8205 14.4109 20.8205 14.0955C20.8205 13.7801 21.0765 13.5241 21.3919 13.5241H26.1084L25.5597 12.975C25.3365 12.7526 25.3365 12.3899 25.5597 12.1674ZM17.3196 14.4676C17.5428 14.69 17.5428 15.0527 17.3196 15.2752L16.7709 15.8242H21.4872C21.8026 15.8242 22.0586 16.0802 22.0586 16.3956C22.0586 16.7111 21.8026 16.9671 21.4872 16.9671H16.7718L17.3196 17.5152C17.5428 17.7377 17.5428 18.1003 17.3196 18.3228C17.0971 18.546 16.7344 18.546 16.5119 18.3228L15.007 16.8179C14.8924 16.7133 14.8205 16.5628 14.8205 16.3956C14.8205 16.3052 14.8416 16.2196 14.8791 16.1435C14.906 16.0886 14.9424 16.0371 14.9881 15.9914L16.5119 14.4676C16.7344 14.2443 17.0971 14.2443 17.3196 14.4676ZM14.4716 20.4151C14.4007 20.3435 14.3039 20.3039 14.2026 20.3039H13.7013C13.491 20.3039 13.3203 20.4746 13.3203 20.6848V25.8178C13.3203 25.9184 13.3607 26.0151 13.4316 26.0867C13.5032 26.1584 13.5999 26.1987 13.7013 26.1987H14.2026C14.3039 26.1987 14.4007 26.1584 14.4716 26.0867C14.5432 26.0151 14.5836 25.9184 14.5836 25.8178V20.6848C14.5836 20.5835 14.5432 20.4867 14.4716 20.4151ZM18.6384 21.4216C18.8007 21.0186 19.1016 20.6909 19.4818 20.4944C18.9493 20.1561 18.291 20.073 17.6876 20.2742L15.4255 21.0285V25.7774H16.3855C16.9378 25.7774 17.4788 25.9328 17.9474 26.2254L19.6197 27.2707C20.0997 27.5702 20.7199 27.5146 21.139 27.1344L22.7199 25.6967C23.1428 25.3119 23.3714 24.7572 23.3409 24.1866C23.3325 24.0288 23.2578 23.8506 23.1679 23.6738C23.0514 23.4445 22.9036 23.2212 22.7756 23.0452L20.7816 23.7584C19.9794 24.0456 19.0895 23.6883 18.7077 22.9264L18.6971 22.905C18.4662 22.4418 18.4441 21.9016 18.6384 21.4216ZM27.2152 25.1816V21.0429L24.0837 20.1538C23.6647 20.0349 23.219 20.0486 22.8076 20.1942L19.9916 21.1892C19.731 21.2806 19.5222 21.4803 19.4194 21.7363C19.3157 21.993 19.3272 22.281 19.4506 22.5279L19.4613 22.5492C19.6517 22.9302 20.0975 23.1092 20.4982 22.966L23.4437 21.9115C23.6624 21.833 23.9039 21.9473 23.9816 22.166C24.0601 22.3846 23.9466 22.6262 23.7272 22.7046L23.5931 22.7526C23.8666 23.1694 24.1599 23.7172 24.182 24.1416C24.2255 24.966 23.8963 25.7652 23.286 26.3199L23.2342 26.3671L24.2171 26.6483C24.9523 26.8586 25.7439 26.6536 26.2841 26.1126L27.2152 25.1816ZM28.1691 26.0867C28.2399 26.1584 28.3367 26.1987 28.438 26.1987H28.9394C29.1496 26.1987 29.3203 26.0281 29.3203 25.8178V20.6848C29.3203 20.5835 29.2799 20.4867 29.2091 20.4151C29.1375 20.3435 29.0407 20.3039 28.9394 20.3039H28.438C28.2277 20.3039 28.0571 20.4746 28.0571 20.6848V25.8178C28.0571 25.9184 28.0975 26.0151 28.1691 26.0867Z" fill="white"/>
</g>
<defs>
<filter id="filter0_d_8188_22994" x="0" y="0" width="43" height="52.7256" filterUnits="userSpaceOnUse" color-interpolation-filters="sRGB">
<feFlood flood-opacity="0" result="BackgroundImageFix"/>
<feColorMatrix in="SourceAlpha" type="matrix" values="0 0 0 0 0 0 0 0 0 0 0 0 0 0 0 0 0 0 127 0" result="hardAlpha"/>
<feOffset dy="2"/>
<feGaussianBlur stdDeviation="1.5"/>
<feComposite in2="hardAlpha" operator="out"/>
<feColorMatrix type="matrix" values="0 0 0 0 0 0 0 0 0 0 0 0 0 0 0 0 0 0 0.2 0"/>
<feBlend mode="normal" in2="BackgroundImageFix" result="effect1_dropShadow_8188_22994"/>
<feBlend mode="normal" in="SourceGraphic" in2="effect1_dropShadow_8188_22994" result="shape"/>
</filter>
<linearGradient id="paint0_linear_8188_22994" x1="3" y1="25" x2="40" y2="25" gradientUnits="userSpaceOnUse">
<stop stop-color="#F56B58"/>
<stop offset="1" stop-color="#FA4D81"/>
</linearGradient>
<clipPath id="clip0_8188_22994">
<rect width="16" height="16" fill="white" transform="translate(13.3203 12)"/>
</clipPath>
</defs>
</svg>
