<svg width="35" height="41" viewBox="0 0 35 41" fill="none" xmlns="http://www.w3.org/2000/svg">
<g filter="url(#filter0_d_5281_146949)">
<path d="M31.6452 15.3226C31.6452 25.2192 22.8831 28.9141 18.3762 35.2995C17.9008 35.973 16.7954 35.9455 16.3415 35.2574C12.1459 28.8978 3 25.1975 3 15.3226C3 7.41244 9.41244 1 17.3226 1C25.2327 1 31.6452 7.41244 31.6452 15.3226Z" fill="white"/>
</g>
<path d="M29.3203 15C29.3203 23.43 20.9856 26.5959 17.8754 32.7155C17.6625 33.1343 16.9781 33.1343 16.7652 32.7155C13.655 26.5959 5.32031 23.43 5.32031 15C5.32031 8.37258 10.6929 3 17.3203 3C23.9477 3 29.3203 8.37258 29.3203 15Z" fill="#6B5AE7"/>
<g clip-path="url(#clip0_5281_146949)">
<path fill-rule="evenodd" clip-rule="evenodd" d="M21.2394 7.16743C21.4619 6.94419 21.8246 6.94419 22.047 7.16743L23.5709 8.69124C23.6825 8.80289 23.7383 8.94904 23.7383 9.09517C23.7383 9.26122 23.6673 9.41114 23.5541 9.51558L22.047 11.0227C21.8246 11.2459 21.4619 11.2459 21.2394 11.0227C21.0162 10.8002 21.0162 10.4375 21.2394 10.215L21.7872 9.66695H17.0716C16.7562 9.66695 16.5002 9.41095 16.5002 9.09552C16.5002 8.78009 16.7562 8.52409 17.0716 8.52409H21.7881L21.2394 7.97505C21.0162 7.75257 21.0162 7.3899 21.2394 7.16743ZM12.9992 9.46756C13.2225 9.69003 13.2225 10.0527 12.9992 10.2752L12.4506 10.8242H17.1669C17.4823 10.8242 17.7383 11.0802 17.7383 11.3956C17.7383 11.7111 17.4823 11.9671 17.1669 11.9671H12.4515L12.9992 12.5152C13.2225 12.7377 13.2225 13.1003 12.9992 13.3228C12.7768 13.546 12.4141 13.546 12.1916 13.3228L10.6867 11.8179C10.5721 11.7133 10.5002 11.5628 10.5002 11.3956C10.5002 11.3052 10.5212 11.2196 10.5587 11.1435C10.5857 11.0886 10.6221 11.0371 10.6678 10.9914L12.1916 9.46756C12.4141 9.24432 12.7768 9.24432 12.9992 9.46756ZM10.1512 15.4151C10.0804 15.3435 9.98362 15.3039 9.88229 15.3039H9.38095C9.17067 15.3039 9 15.4746 9 15.6848V20.8178C9 20.9184 9.04038 21.0151 9.11124 21.0867C9.18286 21.1584 9.27962 21.1987 9.38095 21.1987H9.88229C9.98362 21.1987 10.0804 21.1584 10.1512 21.0867C10.2229 21.0151 10.2632 20.9184 10.2632 20.8178V15.6848C10.2632 15.5835 10.2229 15.4867 10.1512 15.4151ZM14.3181 16.4216C14.4804 16.0186 14.7813 15.6909 15.1615 15.4944C14.629 15.1561 13.9707 15.073 13.3672 15.2742L11.1051 16.0285V20.7774H12.0651C12.6175 20.7774 13.1585 20.9328 13.627 21.2254L15.2994 22.2707C15.7794 22.5702 16.3996 22.5146 16.8187 22.1344L18.3996 20.6967C18.8225 20.3119 19.051 19.7572 19.0206 19.1866C19.0122 19.0288 18.9375 18.8506 18.8476 18.6738C18.731 18.4445 18.5832 18.2212 18.4552 18.0452L16.4613 18.7584C15.659 19.0456 14.7691 18.6883 14.3874 17.9264L14.3768 17.905C14.1459 17.4418 14.1238 16.9016 14.3181 16.4216ZM22.8949 20.1816V16.0429L19.7634 15.1538C19.3444 15.0349 18.8987 15.0486 18.4872 15.1942L15.6712 16.1892C15.4107 16.2806 15.2019 16.4803 15.099 16.7363C14.9954 16.993 15.0069 17.281 15.1303 17.5279L15.141 17.5492C15.3314 17.9302 15.7771 18.1092 16.1779 17.966L19.1234 16.9115C19.3421 16.833 19.5836 16.9473 19.6613 17.166C19.7398 17.3846 19.6263 17.6262 19.4069 17.7046L19.2728 17.7526C19.5463 18.1694 19.8396 18.7172 19.8617 19.1416C19.9051 19.966 19.576 20.7652 18.9657 21.3199L18.9139 21.3671L19.8968 21.6483C20.632 21.8586 21.4236 21.6536 21.9638 21.1126L22.8949 20.1816ZM23.8488 21.0867C23.9196 21.1584 24.0164 21.1987 24.1177 21.1987H24.619C24.8293 21.1987 25 21.0281 25 20.8178V15.6848C25 15.5835 24.9596 15.4867 24.8888 15.4151C24.8171 15.3435 24.7204 15.3039 24.619 15.3039H24.1177C23.9074 15.3039 23.7368 15.4746 23.7368 15.6848V20.8178C23.7368 20.9184 23.7771 21.0151 23.8488 21.0867Z" fill="white"/>
</g>
<defs>
<filter id="filter0_d_5281_146949" x="0" y="0" width="34.6445" height="40.7891" filterUnits="userSpaceOnUse" color-interpolation-filters="sRGB">
<feFlood flood-opacity="0" result="BackgroundImageFix"/>
<feColorMatrix in="SourceAlpha" type="matrix" values="0 0 0 0 0 0 0 0 0 0 0 0 0 0 0 0 0 0 127 0" result="hardAlpha"/>
<feOffset dy="2"/>
<feGaussianBlur stdDeviation="1.5"/>
<feComposite in2="hardAlpha" operator="out"/>
<feColorMatrix type="matrix" values="0 0 0 0 0 0 0 0 0 0 0 0 0 0 0 0 0 0 0.2 0"/>
<feBlend mode="normal" in2="BackgroundImageFix" result="effect1_dropShadow_5281_146949"/>
<feBlend mode="normal" in="SourceGraphic" in2="effect1_dropShadow_5281_146949" result="shape"/>
</filter>
<clipPath id="clip0_5281_146949">
<rect width="16" height="16" fill="white" transform="translate(9 7)"/>
</clipPath>
</defs>
</svg>
