<svg width="43" height="53" viewBox="0 0 43 53" fill="none" xmlns="http://www.w3.org/2000/svg">
<g filter="url(#filter0_d_8976_75647)">
<path d="M40 20.0968C40 33.5396 28.2543 38.4005 22.5396 47.215C22.0848 47.9165 20.969 47.8887 20.5393 47.1716C15.274 38.3845 3 33.5175 3 20.0968C3 9.54992 11.2827 1 21.5 1C31.7173 1 40 9.54992 40 20.0968Z" fill="url(#paint0_linear_8976_75647)"/>
</g>
<path d="M35.6452 20.3226C35.6452 30.2192 26.8831 33.9141 22.3762 40.2995C21.9008 40.973 20.7954 40.9455 20.3415 40.2574C16.1459 33.8978 7 30.1975 7 20.3226C7 12.4124 13.4124 6 21.3226 6C29.2327 6 35.6452 12.4124 35.6452 20.3226Z" fill="white"/>
<path d="M33.3203 20C33.3203 28.43 24.9856 31.5959 21.8754 37.7155C21.6625 38.1343 20.9781 38.1343 20.7652 37.7155C17.655 31.5959 9.32031 28.43 9.32031 20C9.32031 13.3726 14.6929 8 21.3203 8C27.9477 8 33.3203 13.3726 33.3203 20Z" fill="#EF8B16"/>
<g clip-path="url(#clip0_8976_75647)">
<path d="M28.3168 25.156C28.2399 25.2655 28.1419 25.3586 28.0283 25.4301C27.9148 25.5015 27.7881 25.5498 27.6556 25.5721L19.5987 26.9828C19.5402 26.9934 19.4809 26.9991 19.4215 26.9997C19.2114 26.9993 19.0066 26.9343 18.8353 26.8136C18.7251 26.738 18.6313 26.6413 18.5593 26.5292C18.4873 26.4171 18.4386 26.2918 18.4161 26.1608L18.2695 25.3353H23.8214C24.2734 25.3353 24.7068 25.1571 25.0264 24.8399C25.346 24.5227 25.5255 24.0925 25.5255 23.6439V16.3302L25.9992 16.2456C26.2658 16.1994 26.54 16.2599 26.7617 16.414C26.9834 16.5681 27.1345 16.8032 27.1819 17.0677L28.4838 24.3983C28.5079 24.5293 28.5056 24.6637 28.4769 24.7938C28.4482 24.9239 28.3938 25.047 28.3168 25.156Z" fill="white"/>
<path d="M20.4228 14.4359H19.7497C19.7484 14.2459 19.677 14.0641 19.5511 13.9298C19.4252 13.7955 19.2547 13.7194 19.0766 13.7179C18.8983 13.7185 18.7274 13.7943 18.6013 13.9289C18.4752 14.0634 18.4041 14.2457 18.4035 14.4359V14.7949C18.4035 14.8901 18.3681 14.9814 18.305 15.0487C18.2419 15.116 18.1563 15.1538 18.067 15.1538C17.9778 15.1538 17.8922 15.116 17.829 15.0487C17.7659 14.9814 17.7305 14.8901 17.7305 14.7949V14.4359C17.7305 14.0551 17.8723 13.6898 18.1247 13.4206C18.3772 13.1513 18.7196 13 19.0766 13C19.4336 13 19.776 13.1513 20.0285 13.4206C20.2809 13.6898 20.4228 14.0551 20.4228 14.4359Z" fill="white"/>
<path d="M23.7407 14.0781H20.4404V15.4677C20.4404 15.8362 20.3014 16.1897 20.0538 16.4503C19.8062 16.7109 19.4705 16.8573 19.1203 16.8573C18.7702 16.8573 18.4345 16.7109 18.1869 16.4503C17.9393 16.1897 17.8002 15.8362 17.8002 15.4677C17.8002 15.3756 17.835 15.2872 17.8969 15.2221C17.9588 15.1569 18.0427 15.1203 18.1303 15.1203C18.2178 15.1203 18.3017 15.1569 18.3636 15.2221C18.4255 15.2872 18.4603 15.3756 18.4603 15.4677C18.4616 15.6516 18.5315 15.8275 18.6551 15.9575C18.7786 16.0875 18.9457 16.1611 19.1203 16.1625C19.2952 16.1619 19.4628 16.0886 19.5865 15.9584C19.7102 15.8282 19.7799 15.6518 19.7804 15.4677V14.0781H15.4901C15.2277 14.0789 14.9764 14.189 14.7909 14.3843C14.6053 14.5796 14.5008 14.8442 14.5 15.1203V23.8052C14.5008 24.0813 14.6053 24.3459 14.7909 24.5412C14.9764 24.7365 15.2277 24.8465 15.4901 24.8474H23.7407C24.003 24.8465 24.2544 24.7365 24.4399 24.5412C24.6254 24.3459 24.73 24.0813 24.7308 23.8052V15.1203C24.73 14.8442 24.6254 14.5796 24.4399 14.3843C24.2544 14.189 24.003 14.0789 23.7407 14.0781ZM17.1402 17.8995H20.1104C20.1979 17.8995 20.2819 17.9361 20.3438 18.0012C20.4057 18.0664 20.4404 18.1547 20.4404 18.2469C20.4404 18.339 20.4057 18.4274 20.3438 18.4925C20.2819 18.5577 20.1979 18.5943 20.1104 18.5943H17.1402C17.0527 18.5943 16.9687 18.5577 16.9068 18.4925C16.8449 18.4274 16.8102 18.339 16.8102 18.2469C16.8102 18.1547 16.8449 18.0664 16.9068 18.0012C16.9687 17.9361 17.0527 17.8995 17.1402 17.8995ZM22.0906 22.0682H17.1402C17.0527 22.0682 16.9687 22.0316 16.9068 21.9665C16.8449 21.9013 16.8102 21.8129 16.8102 21.7208C16.8102 21.6287 16.8449 21.5403 16.9068 21.4752C16.9687 21.41 17.0527 21.3734 17.1402 21.3734H22.0906C22.1781 21.3734 22.262 21.41 22.3239 21.4752C22.3858 21.5403 22.4206 21.6287 22.4206 21.7208C22.4206 21.8129 22.3858 21.9013 22.3239 21.9665C22.262 22.0316 22.1781 22.0682 22.0906 22.0682ZM22.0906 20.3312H17.1402C17.0527 20.3312 16.9687 20.2946 16.9068 20.2295C16.8449 20.1643 16.8102 20.076 16.8102 19.9838C16.8102 19.8917 16.8449 19.8033 16.9068 19.7382C16.9687 19.673 17.0527 19.6364 17.1402 19.6364H22.0906C22.1781 19.6364 22.262 19.673 22.3239 19.7382C22.3858 19.8033 22.4206 19.8917 22.4206 19.9838C22.4206 20.076 22.3858 20.1643 22.3239 20.2295C22.262 20.2946 22.1781 20.3312 22.0906 20.3312Z" fill="white"/>
</g>
<defs>
<filter id="filter0_d_8976_75647" x="0" y="0" width="43" height="52.7266" filterUnits="userSpaceOnUse" color-interpolation-filters="sRGB">
<feFlood flood-opacity="0" result="BackgroundImageFix"/>
<feColorMatrix in="SourceAlpha" type="matrix" values="0 0 0 0 0 0 0 0 0 0 0 0 0 0 0 0 0 0 127 0" result="hardAlpha"/>
<feOffset dy="2"/>
<feGaussianBlur stdDeviation="1.5"/>
<feComposite in2="hardAlpha" operator="out"/>
<feColorMatrix type="matrix" values="0 0 0 0 0 0 0 0 0 0 0 0 0 0 0 0 0 0 0.2 0"/>
<feBlend mode="normal" in2="BackgroundImageFix" result="effect1_dropShadow_8976_75647"/>
<feBlend mode="normal" in="SourceGraphic" in2="effect1_dropShadow_8976_75647" result="shape"/>
</filter>
<linearGradient id="paint0_linear_8976_75647" x1="3" y1="1" x2="46.2169" y2="7.46929" gradientUnits="userSpaceOnUse">
<stop stop-color="#F56B59"/>
<stop offset="1" stop-color="#FA4E80"/>
</linearGradient>
<clipPath id="clip0_8976_75647">
<rect width="14" height="14" fill="white" transform="translate(14.5 13)"/>
</clipPath>
</defs>
</svg>
