<svg width="35" height="41" viewBox="0 0 35 41" fill="none" xmlns="http://www.w3.org/2000/svg">
<g filter="url(#filter0_d_8718_16940)">
<path d="M31.6452 15.3226C31.6452 25.2192 22.8831 28.9141 18.3762 35.2995C17.9008 35.973 16.7954 35.9455 16.3415 35.2574C12.1459 28.8978 3 25.1975 3 15.3226C3 7.41244 9.41244 1 17.3226 1C25.2327 1 31.6452 7.41244 31.6452 15.3226Z" fill="white"/>
</g>
<path d="M29.3203 15C29.3203 23.43 20.9856 26.5959 17.8754 32.7155C17.6625 33.1343 16.9781 33.1343 16.7652 32.7155C13.655 26.5959 5.32031 23.43 5.32031 15C5.32031 8.37258 10.6929 3 17.3203 3C23.9477 3 29.3203 8.37258 29.3203 15Z" fill="#DF8317"/>
<g clip-path="url(#clip0_8718_16940)">
<path d="M24.3168 20.156C24.2399 20.2655 24.1419 20.3586 24.0283 20.4301C23.9148 20.5015 23.7881 20.5498 23.6556 20.5721L15.5987 21.9828C15.5402 21.9934 15.4809 21.9991 15.4215 21.9997C15.2114 21.9993 15.0066 21.9343 14.8353 21.8136C14.7251 21.738 14.6313 21.6413 14.5593 21.5292C14.4873 21.4171 14.4386 21.2918 14.4161 21.1608L14.2695 20.3353H19.8214C20.2734 20.3353 20.7068 20.1571 21.0264 19.8399C21.346 19.5227 21.5255 19.0925 21.5255 18.6439V11.3302L21.9992 11.2456C22.2658 11.1994 22.54 11.2599 22.7617 11.414C22.9834 11.5681 23.1345 11.8032 23.1819 12.0677L24.4838 19.3983C24.5079 19.5293 24.5056 19.6637 24.4769 19.7938C24.4482 19.9239 24.3938 20.047 24.3168 20.156Z" fill="white"/>
<path d="M16.4228 9.4359H15.7497C15.7484 9.24592 15.677 9.06413 15.5511 8.92979C15.4252 8.79545 15.2547 8.71936 15.0766 8.71795C14.8983 8.71852 14.7274 8.79434 14.6013 8.92886C14.4752 9.06338 14.4041 9.24566 14.4035 9.4359V9.79487C14.4035 9.89008 14.3681 9.98138 14.305 10.0487C14.2419 10.116 14.1563 10.1538 14.067 10.1538C13.9778 10.1538 13.8922 10.116 13.829 10.0487C13.7659 9.98138 13.7305 9.89008 13.7305 9.79487V9.4359C13.7305 9.05507 13.8723 8.68985 14.1247 8.42056C14.3772 8.15128 14.7196 8 15.0766 8C15.4336 8 15.776 8.15128 16.0285 8.42056C16.2809 8.68985 16.4228 9.05507 16.4228 9.4359Z" fill="white"/>
<path d="M19.7407 9.07812H16.4404V10.4677C16.4404 10.8362 16.3014 11.1897 16.0538 11.4503C15.8062 11.7109 15.4705 11.8573 15.1203 11.8573C14.7702 11.8573 14.4345 11.7109 14.1869 11.4503C13.9393 11.1897 13.8002 10.8362 13.8002 10.4677C13.8002 10.3756 13.835 10.2872 13.8969 10.2221C13.9588 10.1569 14.0427 10.1203 14.1303 10.1203C14.2178 10.1203 14.3017 10.1569 14.3636 10.2221C14.4255 10.2872 14.4603 10.3756 14.4603 10.4677C14.4616 10.6516 14.5315 10.8275 14.6551 10.9575C14.7786 11.0875 14.9457 11.1611 15.1203 11.1625C15.2952 11.1619 15.4628 11.0886 15.5865 10.9584C15.7102 10.8282 15.7799 10.6518 15.7804 10.4677V9.07812H11.4901C11.2277 9.07895 10.9764 9.18902 10.7909 9.38428C10.6053 9.57955 10.5008 9.84416 10.5 10.1203V18.8052C10.5008 19.0813 10.6053 19.3459 10.7909 19.5412C10.9764 19.7365 11.2277 19.8465 11.4901 19.8474H19.7407C20.003 19.8465 20.2544 19.7365 20.4399 19.5412C20.6254 19.3459 20.73 19.0813 20.7308 18.8052V10.1203C20.73 9.84416 20.6254 9.57955 20.4399 9.38428C20.2544 9.18902 20.003 9.07895 19.7407 9.07812ZM13.1402 12.8995H16.1104C16.1979 12.8995 16.2819 12.9361 16.3438 13.0012C16.4057 13.0664 16.4404 13.1547 16.4404 13.2469C16.4404 13.339 16.4057 13.4274 16.3438 13.4925C16.2819 13.5577 16.1979 13.5943 16.1104 13.5943H13.1402C13.0527 13.5943 12.9687 13.5577 12.9068 13.4925C12.8449 13.4274 12.8102 13.339 12.8102 13.2469C12.8102 13.1547 12.8449 13.0664 12.9068 13.0012C12.9687 12.9361 13.0527 12.8995 13.1402 12.8995ZM18.0906 17.0682H13.1402C13.0527 17.0682 12.9687 17.0316 12.9068 16.9665C12.8449 16.9013 12.8102 16.8129 12.8102 16.7208C12.8102 16.6287 12.8449 16.5403 12.9068 16.4752C12.9687 16.41 13.0527 16.3734 13.1402 16.3734H18.0906C18.1781 16.3734 18.262 16.41 18.3239 16.4752C18.3858 16.5403 18.4206 16.6287 18.4206 16.7208C18.4206 16.8129 18.3858 16.9013 18.3239 16.9665C18.262 17.0316 18.1781 17.0682 18.0906 17.0682ZM18.0906 15.3312H13.1402C13.0527 15.3312 12.9687 15.2946 12.9068 15.2295C12.8449 15.1643 12.8102 15.076 12.8102 14.9838C12.8102 14.8917 12.8449 14.8033 12.9068 14.7382C12.9687 14.673 13.0527 14.6364 13.1402 14.6364H18.0906C18.1781 14.6364 18.262 14.673 18.3239 14.7382C18.3858 14.8033 18.4206 14.8917 18.4206 14.9838C18.4206 15.076 18.3858 15.1643 18.3239 15.2295C18.262 15.2946 18.1781 15.3312 18.0906 15.3312Z" fill="white"/>
</g>
<defs>
<filter id="filter0_d_8718_16940" x="0" y="0" width="34.6445" height="40.7896" filterUnits="userSpaceOnUse" color-interpolation-filters="sRGB">
<feFlood flood-opacity="0" result="BackgroundImageFix"/>
<feColorMatrix in="SourceAlpha" type="matrix" values="0 0 0 0 0 0 0 0 0 0 0 0 0 0 0 0 0 0 127 0" result="hardAlpha"/>
<feOffset dy="2"/>
<feGaussianBlur stdDeviation="1.5"/>
<feComposite in2="hardAlpha" operator="out"/>
<feColorMatrix type="matrix" values="0 0 0 0 0 0 0 0 0 0 0 0 0 0 0 0 0 0 0.2 0"/>
<feBlend mode="normal" in2="BackgroundImageFix" result="effect1_dropShadow_8718_16940"/>
<feBlend mode="normal" in="SourceGraphic" in2="effect1_dropShadow_8718_16940" result="shape"/>
</filter>
<clipPath id="clip0_8718_16940">
<rect width="14" height="14" fill="white" transform="translate(10.5 8)"/>
</clipPath>
</defs>
</svg>
