<svg width="35" height="41" viewBox="0 0 35 41" fill="none" xmlns="http://www.w3.org/2000/svg">
<g filter="url(#filter0_d_5279_82931)">
<path d="M31.6452 15.3226C31.6452 25.2192 22.8831 28.9141 18.3762 35.2995C17.9008 35.973 16.7954 35.9455 16.3415 35.2574C12.1459 28.8978 3 25.1975 3 15.3226C3 7.41244 9.41244 1 17.3226 1C25.2327 1 31.6452 7.41244 31.6452 15.3226Z" fill="white"/>
</g>
<path d="M29.3203 15C29.3203 23.43 20.9856 26.5959 17.8754 32.7155C17.6625 33.1343 16.9781 33.1343 16.7652 32.7155C13.655 26.5959 5.32031 23.43 5.32031 15C5.32031 8.37258 10.6929 3 17.3203 3C23.9477 3 29.3203 8.37258 29.3203 15Z" fill="#EF4424"/>
<path fill-rule="evenodd" clip-rule="evenodd" d="M13.2389 16.7132C13.2389 16.2723 12.7557 16.0478 12.1935 15.7866C11.4117 15.4234 10.4772 14.9893 10.4772 13.8034C10.4772 12.4965 11.6185 12 12.7075 12C13.1692 12 14.4412 12.0871 14.4412 12.7667C14.4412 13.0019 14.2844 13.4811 13.901 13.4811C13.776 13.4811 13.6746 13.4285 13.5525 13.3652C13.3683 13.2698 13.1371 13.15 12.7075 13.15C12.0889 13.15 11.8362 13.4027 11.8362 13.6728C11.8362 14.0095 12.2487 14.1913 12.7549 14.4145C13.5584 14.7687 14.598 15.227 14.598 16.5739C14.598 17.8285 13.6832 18.508 12.42 18.508C11.2786 18.508 10.3203 17.9505 10.3203 17.3755C10.3203 17.0792 10.5817 16.6436 10.9127 16.6436C11.0829 16.6436 11.2275 16.7549 11.3965 16.8851C11.6342 17.0681 11.9202 17.2883 12.3938 17.2883C12.7946 17.2883 13.2389 17.1314 13.2389 16.7132ZM15.2031 16.4155V14.1069C15.2031 12.6084 16.1353 12.0508 17.3376 12.0508C18.5398 12.0508 19.4807 12.6084 19.4807 14.1069V16.4155C19.4807 17.914 18.5398 18.4716 17.3376 18.4716C16.1353 18.4716 15.2031 17.914 15.2031 16.4155ZM18.1217 14.1069C18.1217 13.5057 17.8254 13.2357 17.3376 13.2357C16.8497 13.2357 16.5622 13.5057 16.5622 14.1069V16.4155C16.5622 17.0167 16.8497 17.2867 17.3376 17.2867C17.8254 17.2867 18.1217 17.0167 18.1217 16.4155V14.1069ZM21.9123 15.7866C22.4744 16.0478 22.9577 16.2723 22.9577 16.7132C22.9577 17.1314 22.5133 17.2883 22.1125 17.2883C21.639 17.2883 21.3529 17.0681 21.1152 16.8851C20.9462 16.7549 20.8016 16.6436 20.6315 16.6436C20.3004 16.6436 20.0391 17.0792 20.0391 17.3755C20.0391 17.9505 20.9974 18.508 22.1387 18.508C23.402 18.508 24.3167 17.8285 24.3167 16.5739C24.3167 15.227 23.2772 14.7687 22.4737 14.4145C21.9675 14.1913 21.555 14.0095 21.555 13.6728C21.555 13.4027 21.8076 13.15 22.4262 13.15C22.8559 13.15 23.087 13.2698 23.2712 13.3652C23.3933 13.4285 23.4948 13.4811 23.6198 13.4811C24.0031 13.4811 24.1599 13.0019 24.1599 12.7667C24.1599 12.0871 22.888 12 22.4262 12C21.3372 12 20.1959 12.4965 20.1959 13.8034C20.1959 14.9893 21.1304 15.4234 21.9123 15.7866Z" fill="white"/>
<defs>
<filter id="filter0_d_5279_82931" x="0" y="0" width="34.6445" height="40.7891" filterUnits="userSpaceOnUse" color-interpolation-filters="sRGB">
<feFlood flood-opacity="0" result="BackgroundImageFix"/>
<feColorMatrix in="SourceAlpha" type="matrix" values="0 0 0 0 0 0 0 0 0 0 0 0 0 0 0 0 0 0 127 0" result="hardAlpha"/>
<feOffset dy="2"/>
<feGaussianBlur stdDeviation="1.5"/>
<feComposite in2="hardAlpha" operator="out"/>
<feColorMatrix type="matrix" values="0 0 0 0 0 0 0 0 0 0 0 0 0 0 0 0 0 0 0.2 0"/>
<feBlend mode="normal" in2="BackgroundImageFix" result="effect1_dropShadow_5279_82931"/>
<feBlend mode="normal" in="SourceGraphic" in2="effect1_dropShadow_5279_82931" result="shape"/>
</filter>
</defs>
</svg>
