<svg xmlns="http://www.w3.org/2000/svg" enable-background="new 0 0 65 65" viewBox="0 0 65 65" id="beauty"><g><path fill="#FDC77C" d="M11.2,64.5c0.6-3.5,2.9-10.2,4.6-11.4c1.9-1.5,7.8-1.7,10-3.8c2.2-2.1,0.5-6.8,0.5-6.8l6.1-0.9l6.1,0.9   c0,0-1.6,4.7,0.5,6.8c2.2,2.1,8.1,2.3,10,3.8c1.7,1.3,3.9,7.9,4.6,11.4H11.2z"></path><ellipse cx="32.5" cy="30.2" fill="#FBD984" rx="12.5" ry="15.9"></ellipse><g><path fill="#E3E7E8" d="M26.2,10L20,11.8c0,0-5,6.7-4,12.8c1,6.1,4.1,8,4.1,8s7.3-8.9,18.9-10.1C50.7,21.2,26.2,10,26.2,10z"></path><path fill="#EAEAEA" d="M46.7,31.7c0,0,10.5-7.7,0.4-17.8C37,3.8,34,2.2,34,0.5l-2.9,2.8l0.4,10.5L46.7,31.7z"></path><path fill="#DBDFE0" d="M44.3,34.9c0,0,10.3-6.2,2.8-15.4S31,6.6,31.1,3.3c0,0-13.5,7.5-13,12.8c0.5,5.3,18.2,4.7,22.2,8.6    C44.3,28.5,45.3,32.2,44.3,34.9z"></path><path fill="#EFF3F5" d="M47.1,13.9c0,0-2.9-0.5-7.2,2.8c-4.3,3.3-22.6,9.8-19.5,17.5c0,0-8.8-7.9-1.7-15C26,12,35.4,6,39.5,6.9    C43.5,7.7,47.1,13.9,47.1,13.9z"></path></g><path fill="#F1786B" d="M45.1,64.5H19.9c0.3-1.7,1.5-3.1,3.1-4l-1.1-9.6l1.8-0.5l1,9.5c0.6-0.1,1.1-0.2,1.8-0.2   c2.7,0,5.1,1.4,6.1,3.4c1-2,3.4-3.4,6.1-3.4c0.6,0,1.2,0.1,1.8,0.2l1-9.5l1.8,0.5L42,60.5C43.7,61.4,44.8,62.8,45.1,64.5z"></path></g></svg>