<svg xmlns="http://www.w3.org/2000/svg" enable-background="new 0 0 65 65" viewBox="0 0 65 65" id="beauty"><g><path fill="#FDC77C" d="M64.5,30.9c-0.8-0.3-1.8-0.7-2.9-1.2c-4.4-1.9-6.4-0.4-8,0.6s-14.4,9.8-16.1,11.4   C35.6,43.2,25,50.1,25,50.1c-1.9,0.6-7.9,3.7-7.9,3.7c-2.4,1.6-3,1.3-4.7,2.3c-1.7,1-4.1,1.6-5,1.6c-0.8,0-2.4-0.6-2.8-0.6   c-0.4,0-1.5,0.2-1.5,0.2H1.6c-1.1,0.1,0,1.7,0,1.7C1.7,59.9,2.5,60,2.5,60c0.1,0.3,0.3,0.5,0.3,0.5c0.1,1,1.5,0.9,1.5,0.9   c0.2,0.5,1.1,0.7,1.1,0.7c0,0.3,1.2,1.3,1.2,1.3c2.2,1.2,7.9,1,11.2,0.6c3.3-0.3,7.7,1.5,8.8-0.3c1.2-1.8-0.5-3.4,1.1-5.3   c1.6-1.9,14.8-5.5,20.2-8.4s8.3-7.7,8.3-7.7c1.6,0.4,5.4,3.7,8.2,6.3V30.9z"></path><path fill="#F0B972" d="M8.1,59c0,0-0.5,0.3-1.1,0.2C6.5,59,6,58.5,5.4,58.3c-0.6-0.2-1.1-0.1-1.6,0c-0.5,0.1-0.8,0.1-1,0.2   c-0.2,0.1-0.3,0.2-0.3,0.2s-0.8,0.1-1,0.4l-0.4-0.9c0,0,0.1,0.8,0.8,0.5c0.7-0.3,1.7-0.5,1.9-0.5c0.2,0,1.2-0.3,2,0.3   C6.8,59,7.1,59.3,8.1,59z"></path><path fill="#F0B972" d="M2.1,59.8c0,0,0.1,0.1,0.6-0.1c0.5-0.2,0.8-0.6,1.3-0.7c0.5-0.1,1.2-0.2,1.5-0.1c0.2,0.1,0.9,0.7,1.1,0.7   c0,0,0-0.1-1-0.5c-0.1,0,0-0.2-1.5,0c0,0-0.4,0.2-0.5,0.4C3.5,59.6,3.3,59.9,3,60c0,0,0.6-0.5,0.3-0.4c-0.3,0.1-0.7,0.3-0.7,0.3   L2.7,60L2.5,60C2.5,60,2.4,60,2.1,59.8z"></path><path fill="#F0B972" d="M2.9,60.4c0,0,0,0,0.2-0.1C3.2,60.1,3.5,60,3.6,60c0.2,0,1.1-0.4,1.5-0.4c0.4,0,1.4,0.6,1.7,0.7   c0.3,0.1,1,0.3,1.4,0c0,0-0.7,0.3-1.3-0.1c-0.7-0.4-1.5-0.8-1.8-0.7c-0.3,0-1.4,0.4-1.5,0.4s-0.8,0.5-0.9,0.4L2.9,60.4z"></path><g><path fill="#EFF3F5" d="M1.5 57.4c0 0-.4.7.1.9.5.2 1.5-.2 1.6-.4.1-.3 0-.4 0-.4L1.5 57.4zM2.6 58.7c0 0-.5.6-.9.6L1.6 59C1.6 59 2.2 58.7 2.6 58.7zM2.6 59.8c0 0 .7-.4.8-.3C3.5 59.7 3 60 2.7 60L2.6 59.8zM2.9 60.4c0 0 .6-.5.8-.4.3.1-.6.5-.8.5C2.8 60.5 2.9 60.4 2.9 60.4z"></path></g><path fill="#F0B972" d="M4.3,61.3c0,0-0.2-0.4,0.2-0.7c0.4-0.3,0.7-0.1,0.7-0.1s0.7-0.1,1.1,0c0.4,0.1,0.9,0.6,1.3,0.7   c0,0-1-0.6-1.2-0.7c-0.2-0.2-1-0.1-1.1-0.1c-0.1,0-0.7-0.1-0.9,0.2c-0.3,0.4-0.7,0.6-0.7,0.6C3.7,61.2,3.9,61.3,4.3,61.3z"></path><path fill="#EFF3F5" d="M4.5,60.7c0,0-0.1,0.2,0.2,0.2c0.3,0,0.9-0.2,0.7-0.3c-0.2-0.1-0.7,0-0.7,0L4.5,60.7z"></path><path fill="#FFF1D2" d="M52.8,36.7c-0.5-1.5-3.9-3.4-3.9-3.4c-4.4,3-10.4,7.3-11.6,8.3c-1,0.9-5.1,3.7-8.3,5.8   c0.9,1.2,2.7,3.2,3.6,3.2C33.9,50.5,53.4,38.1,52.8,36.7z"></path><path fill="#FBD984" d="M23.9,7.2c0,0,0.9,0.9,2.4,2.1c1.5,1.2,5.6,6.8,8.4,9.9c2.8,3.1,4.9,5.4,5.6,5.8c0.7,0.4,1.1,1.5,1.8,1.8   c0.7,0.3,5.2,1.8,6.5,2.4c0,0,1.7,0.7,3.1,1.1c1.4,0.4,2.5,0.5,2.5,0.5s0.4,0.4,0,0.9l2.8,0.6c0,0,0.6,0.5,0,1.3l1,0.2   c0,0,0.3,0.7-0.4,1.1c-0.7,0.4-0.9,0.2-0.9,0.2s0.6,0.8-0.8,1.2c-1.4,0.3-6.6-0.7-6.6-0.7s0.8,1.2-1.1,1.5c-1.9,0.3-2.6-1-3.8-0.9   c-1.2,0.1-2.3-0.1-3.4-1c-1.1-0.9-2-1.2-2.3-2.6c-0.3-1.5-2.9-5-4-5.6c-1.1-0.6-11.7-8.1-15.7-12.7C15.3,9.7,1.2,0.5,1.2,0.5H19   C19,0.5,20.7,3.4,23.9,7.2z"></path><path fill="#EFF3F5" d="M49.2 35.5l-.6-.2c-.4-.1-.8.1-.9.5h0c-.1.4.1.8.4 1l.6.2c.4.1.8-.1.9-.5v0C49.8 36 49.6 35.6 49.2 35.5zM55.5 34.9l1.4.3c0 0 .3.4-.1.8 0 0-1.2 0-1.5-.5C55.1 35.1 55.5 34.9 55.5 34.9zM58.2 33.8c.1 0 .2.1.2.2 0 .2 0 .6-.2.7-.4.2-1.3-.1-1.5-.4-.2-.2-.1-.9.4-.8C57.5 33.7 58 33.8 58.2 33.8z"></path><path fill="#EFF3F5" d="M55.8 32.6c0 0 .1-.5 1.3-.2l.2.1c0 0 .4.4-.1 1.1C57.3 33.5 55.5 33.3 55.8 32.6zM53.4 30.7c0 0 1.1 0 1.3.1s0 .4-.2.4S53.2 31.2 53.4 30.7z"></path><path fill="#FDC77C" d="M47.4 34.5c.7.1 2 1.1 2 1.1s4.4.8 6.2.7c-.1 0-3.8-.4-4.5-.6-.7-.2-1.4-.3-1.9-.6-.5-.3-1.3-.7-2.1-.9-.8-.2-2.3-.4-3.4-1.1 0 0 .1.2.8.6C45.3 34.2 46.8 34.4 47.4 34.5zM49.2 32.7c0 0 0 .2 1.2.6 1.3.4 1.7.4 2.5.6.8.2 2.6.9 2.6.9l1.4.3c0 0 .5.1.8-.2 0 0-.3.2-1.1 0-.8-.2-1.5-.3-2.3-.6-.9-.3-2.2-.6-2.7-.7C51.1 33.5 49.4 33.1 49.2 32.7zM57.1 33.6c0 0-1-.1-2.1-.5-1.1-.4-2.9-.9-3.3-1-.4-.1-1.9-.7-2.1-.9 0 0 1.5.6 2 .8.5.2 2.9.9 3.4 1.1.6.2 2.1.4 2.1.4L57.1 33.6zM54.3 31.8c0 0-2.9-1-3.8-1.3-.9-.3-2.1-.9-2.1-.9l3.5 1.2c0 0 2.4.8 2.5.6L54.3 31.8z"></path><path fill="#FBD984" d="M32.8,46.7c-0.3-0.3-1-0.7-1-0.7c0-0.4-0.7-0.8-0.7-0.8s-2.8-2.1-4-3.5c-1.2-1.3-1.7-1.4-1.7-1.4   c-0.4-0.4-1-0.3-1-0.3c-0.7,0.1-3.3,3.6-5.1,3.5c-1.9-0.1-4.9-4.1-7.7-7.1c-2.8-2.9-7.9-9.5-9.4-10.4c-0.5-0.3-1-0.7-1.6-1.2v12.1   c0.4,0.4,0.8,0.8,1.3,1.3c4.2,4.1,12.7,7.9,13.8,8.9c1,1,2.8,2.8,5.2,2.8c2.4,0,6-2.7,6.6-2.3s3.5,1.7,4.7,1.5   c1.2-0.2,0.6-1.5,0.6-1.5C33.2,47.8,33,47,32.8,46.7z"></path><path fill="#FDC77C" d="M31.7 46c0 0-3.5-2.6-4.6-3.7-1-1.1-1.6-1.8-2-1.6 0 0-.2-.7 2.1 1.6C28.3 43.3 31.7 46 31.7 46zM31.9 49.3l.1-.2c0 0 .5-.3.1-.5-.4-.2-1.5-.7-1.5-.7s-2.5-2.1-2.8-2.5c-.4-.4-1-.3-1-.3s.3-.4 1.2.3c.9.6 2.5 2.2 2.9 2.5.4.3 1.5.6 1.5.8 0 .2.1.5.1.5S32.2 49.3 31.9 49.3zM32.8 48.1c0 0-.4-.2-1.1-.4-.7-.2-2.6-1.9-2.6-2-.1-.1-2.3-2.4-2.3-2.4s2.1 2.1 2.7 2.6c.6.5 1.8 1.6 2.3 1.7.5.1 1 .3 1 .3V48.1z"></path><path fill="#EFF3F5" d="M31.3 48.2c0 0-.3.2 0 .5.3.3 1 .4 1 .4s.1-.3 0-.5C32.2 48.5 31.3 48.2 31.3 48.2zM31.7 47.7c0 0-.3.4 0 .5.3.1 1.1.3 1.1.3s.1-.3 0-.5C32.7 47.9 31.7 47.7 31.7 47.7zM32 46.2c0 0-.6.1-.1.6.5.4 1.2.6 1.2.6S33.3 46.9 32 46.2z"></path></g></svg>