<svg xmlns="http://www.w3.org/2000/svg" enable-background="new 0 0 65 65" viewBox="0 0 65 65" id="back"><g><path fill="#FBD984" d="M56.2,7.4l-4.4-6.9h12.8v2.6C64.5,3.1,59.9,4.5,56.2,7.4z"></path><path fill="#E39A61" d="M36.7,0.5l16.7,0c0,0,4.2,2.6,4,8.5c-0.2,5.9-1.9,9.9-1.9,9.9l1,0.6c0,0,1.8,1.8,1.7-3.4   C58,11,63.4,5.5,63.4,5.5l-1.8,5.2l2.9-4.1v10.5L63,29l-10.5,1.7L41.1,10.1L36.7,0.5z"></path><polygon fill="#5AC8AE" points="55.4 18.9 52.9 21.6 53.9 23.8 57.1 19.8"></polygon><path fill="#FBD984" d="M11.1,39.1c0,0,6.8-7.7,7.9-8.6c1.1-1,3.2-4.5,6.7-4.5l0.3-14.8c0,0-4.2,3.1-4.9,4.2   c-0.7,1.1-2.5,4.2-3.6,5.1c-1.1,0.9-17,13.4-17,13.4v9.5l5,2.8L11.1,39.1z"></path><path fill="#FDC77C" d="M30.7,51.5c2,0.8,6,4.6,7.1,6.8c0.6,1.1,2.3,3.8,3.9,6.3h22.8V15c0,0-1.8,1.2-2.2,3.3   c-0.4,2.1-0.6,5.2-1,5.7c-0.4,0.4-3.3,1.3-4.3,1.3c-1,0-2.1-0.7-2.1-0.7s0-1-0.9-1.1c0,0,0.1-0.6-0.6-1.5c-0.7-1-16.9-10-16.9-10   l-7.3-9.2l-4.1,4c0,0-1,1.3-0.8,3.9c0.2,2.6,0.4,4.6,0.4,4.6l0.4,1c0,0-3.6,5.2-3.1,5.6c0.5,0.4,2.4,0.7,2.5,1.2   c0.1,0.4,0.5,1.1,0,1.6l0.6,0.9c0,0-0.2,1,0.4,1.8c0.6,0.8,1,0.3,1,2.1c0,1.8,0.8,2.6,3.3,2.4c2.5-0.2,6-1,6-1s5.2,1.8,4.9,3.3   c-0.3,1.5-5.3-0.4-9.3,0.5c-4.1,1-8.4,2.6-10.5,3c-2.1,0.4-9.6,1.5-9.6,1.5l-4.9,1.6l-5.8,2.7v8.8c0,0,9.3,2,15,1.3   C21.3,52.8,28.7,50.7,30.7,51.5z"></path><path fill="#E39A61" d="M53,20.9L37.6,0.5l-10.9,0c-1.7,1.1-4,2.8-4,4.1c0,2.1,2.4,2.1,2.4,2.1l5.8-4.5c-1.6,1.3-4.3,3.7-4.4,5.2   c-0.1,2.1,0.4,5.3,4,6.8c3.6,1.5,6.9,5.2,6.9,5.2l1.7-0.3c0,0,1-2.9,3.8-1.9c2.9,1,2.9,3.4,7.4,4.6l2.8-0.3   C53,21.2,53,21.1,53,20.9z"></path><g><path fill="#F0B972" d="M39.3 26.5c.1-.2.3-.4.4-.6C39.7 25.9 39.5 26.1 39.3 26.5zM41.9 32.9c0 0-2.7-1.4-3.4-2.7-.6-1 .3-2.8.9-3.7-3 4.3-11.4 5.2-11.6 5.2.5.2 1.1.2 2 .1 2.5-.2 6-1 6-1s5.2 1.8 4.9 3.3c-.3 1.5-5.3-.4-9.3.5-.6.2-1.3.3-2 .5 1.4-.1 3-.2 4.8-.2 7.6 0 6.6.1 7.1-.6.5-.7 4.9-4.6 4.9-4.6L41.9 32.9z"></path></g><path fill="#FBD984" d="M30.8,41.8c0,0-0.6-0.3-0.8,0.9c-0.1,1.2,2.9,3.5,2.9,3.5s-0.6-0.1-0.5,0.9c0.1,1,6.4,8.3,8.4,10.2   c2,1.9,5,3.5,5.9,4.2c0.4,0.3,1.2,1.5,2.1,2.9h10.2c-3.1-4.6-4.8-9.5-4.8-9.5s0.8-1.6,0.3-3.5c-0.5-1.9,0.2-5.9,0.5-7.4   c0.3-1.5,1.5-4.2,1.5-4.2s-0.2-0.6-1-0.8c-0.8-0.2-3,1.6-3.8,4c-0.7,2.3-1.4,3.1-2.9,3.2c-1.5,0.1-4-1.7-5.1-2.5   c-1-0.7-8.8-5.6-10.3-5.8c-1.6-0.1-1.6,1.4-1.6,1.4c-1.9-0.6-2.3,0.9-2.3,1.3C29.4,41.1,30.8,41.8,30.8,41.8z"></path><path fill="#EFF3F5" d="M55.3,39.1c0,0-0.9,0.8-0.9,1.7s0.8,1.4,1.3,1.2l1-2.1C56.7,39.8,56.1,38.9,55.3,39.1z"></path><path fill="#FDC77C" d="M30.8 41.8c0 0 1.7 1 3.1 2.4 1.4 1.4 5.1 5.1 5.1 5.1s-3.5-3.8-5-5.2C32.4 42.6 30.8 41.8 30.8 41.8zM33 46.2c0 0 3.6 2.7 6 6.1C39 52.3 34.1 47.2 33 46.2z"></path><path fill="#EFF3F5" d="M32.4,38.2c0,0,0.6-0.1,1.6,0.6c1,0.8-0.3,1.6-0.8,1.2c-0.5-0.3-1.4-0.7-1.4-0.7S32,38.4,32.4,38.2z"></path><path fill="#FDC77C" d="M31.7,39.4c0,0,3.7,2.4,5.1,3.5c1.4,1.1,4.3,4,4.3,4s-3.2-3.5-4.9-4.7c-1.6-1.2-4.5-3-4.5-3L31.7,39.4z"></path><path fill="#EFF3F5" d="M30.1 39.5c0 0 1.4.4 1.5.9.2.5.1 1.2-.3 1.2-.4.1-.5.2-.8 0-.3-.2-1.1-.7-1.1-.9C29.5 40.5 29.9 39.7 30.1 39.5zM30.7 41.8c0 0 .7.2 1.1 1 .3.8.2 1 0 1.1-.2.1-.8.4-1.2 0-.4-.4-.7-.9-.6-1.5C30.2 41.9 30.7 41.8 30.7 41.8zM33 46.2c0 0 1 .7 1.1 1.1.1.5-.6 1.1-.9.8-.4-.3-.7-1-.6-1.4C32.6 46.4 32.8 46.2 33 46.2z"></path><path fill="#FBD984" d="M64.5,42.6c0,0-2.4-1.1-4.5-1.9c-2.1-0.8-4.3-1.6-4.9-1.9c-0.6-0.3-0.5-1.8,0.1-2.1   c0.6-0.4,1.9-0.6,3.7-0.2c1.7,0.4,4,1.2,4.5,1c0.5-0.2,1.1-1.2,1.1-1.2V42.6z"></path><path fill="#EFF3F5" d="M55,36.8c0,0,1.3-0.1,2,0.6c0.7,0.7,0.2,1.7-0.4,1.7c-0.6,0-1.8-0.4-1.8-0.4s-0.3-0.4-0.2-1.1   C54.8,36.8,55,36.8,55,36.8z"></path></g></svg>