<svg xmlns="http://www.w3.org/2000/svg" enable-background="new 0 0 65 65" viewBox="0 0 65 65" id="actress"><g><g><path fill="#445C6C" d="M32.5,0.5c-8.8,0-15.9,7.1-15.9,15.9v18.5c0,3.3,2.7,6,6,6h19.9c3.3,0,6-2.7,6-6V16.4    C48.4,7.6,41.3,0.5,32.5,0.5z"></path><path fill="#FDC77C" d="M54.9,49.8c-5-4.2-14.4-4-15.3-5.7c-0.9-1.7-0.3-9-0.3-9H25.6c0,0,0.6,7.3-0.3,9    c-0.9,1.7-10.3,1.6-15.3,5.7c-3.4,2.9-3.4,14.7-3.4,14.7h25.8h25.8C58.3,64.5,58.3,52.6,54.9,49.8z"></path><g><ellipse cx="18.4" cy="23.6" fill="#FDC77C" rx="2.7" ry="4.3" transform="rotate(-5.474 18.378 23.58) scale(.99996)"></ellipse><ellipse cx="46.6" cy="23.6" fill="#FDC77C" rx="2.7" ry="4.3" transform="rotate(-174.526 46.62 23.58) scale(.99996)"></ellipse></g><path fill="#445C6C" d="M37.3,12.2c0,0,2.5,5.5,9.5,8.5C46.5,11,40.2,3.2,32.5,3.2c-7.8,0-14.2,8-14.2,17.9    C22.3,20.7,32.9,18.8,37.3,12.2z"></path><path fill="#FBD984" d="M37.3,12.2c-4.4,6.5-15,8.4-19,8.9c0,0.1,0,0.1,0,0.2c0,10,6.4,18.1,14.2,18.1c7.9,0,14.2-8.1,14.2-18.1    c0-0.2,0-0.4,0-0.5C39.8,17.7,37.3,12.2,37.3,12.2z"></path><path fill="#F1786B" d="M49.7,64.5c0-0.2,0-0.4,0-0.7c0-4.9-3.9-8.8-8.8-8.8c-4,0-7.4,2.7-8.5,6.4c-1-3.7-4.4-6.4-8.5-6.4    c-4.9,0-8.8,3.9-8.8,8.8c0,0.2,0,0.4,0,0.7H49.7z"></path><g><circle cx="32.5" cy="47.6" r="1.2" fill="#FFF"></circle><circle cx="30.1" cy="47.3" r="1.2" fill="#FFF"></circle><circle cx="27.8" cy="46.4" r="1.2" fill="#FFF"></circle><circle cx="25.9" cy="44.9" r="1.2" fill="#FFF"></circle><g><circle cx="35" cy="47.3" r="1.2" fill="#FFF"></circle><circle cx="37.3" cy="46.4" r="1.2" fill="#FFF"></circle><circle cx="39.2" cy="44.9" r="1.2" fill="#FFF"></circle></g></g><path fill="#445C6C" d="M46.7 20.8c0 0 1.3-1.2 1.7-.7l-1.1-3.2-3.4.7L46.7 20.8zM18.3 21.2c0 0-1.3-1.6-1.7-1.1l1.1-2.8 3.4.7L18.3 21.2z"></path></g><g><g><path fill="#FFF" d="M18.7,29.1v-1.9c0-0.3-0.2-0.5-0.5-0.5c-0.3,0-0.5,0.2-0.5,0.5v1.9c-0.4,0.2-0.7,0.6-0.7,1     c0,0.6,0.5,1.2,1.2,1.2c0.6,0,1.2-0.5,1.2-1.2C19.4,29.7,19.1,29.3,18.7,29.1z"></path></g><g><path fill="#FFF" d="M47.3,29.1v-1.9c0-0.3-0.2-0.5-0.5-0.5c-0.3,0-0.5,0.2-0.5,0.5v1.9c-0.4,0.2-0.7,0.6-0.7,1     c0,0.6,0.5,1.2,1.2,1.2c0.6,0,1.2-0.5,1.2-1.2C47.9,29.7,47.7,29.3,47.3,29.1z"></path></g></g></g></svg>