<svg xmlns="http://www.w3.org/2000/svg" enable-background="new 0 0 65 65" viewBox="0 0 65 65" id="fitness"><g><path fill="#FDC77C" d="M14.5,17.3c0,0-1.7,1.1-3,3.5c-1.3,2.4-5.2,5.5-6.3,6.6c-1,1.1-2.2,3.1-2.5,4S2.7,34.7,2,36.3   C1.2,37.9,0,40,0.7,40.8c0,0,0,1.5,1.9,1.8c0,0,0.3,1.2,2.6,0.9c0,0,1.5,1.3,4.1-0.9c2.7-2.2,2.2-3.3,2.2-3.3l1.1-5.2l-1-1.3   l6.8-6.7L14.5,17.3z"></path><path fill="#FBD984" d="M37.3,8.7c-12.1,0-22.2,1.9-24.7,4.4c0.1,0.4,4,11.1,3.5,15.6c-0.6,4.6-1.1,7.5-1.1,7.5s-2.8,3.2-2.7,6.3   c0,0,4.9,5.6,25,5.6c20.1,0,25-5.6,25-5.6c0.1-3.1-2.7-6.3-2.7-6.3s-0.6-2.9-1.1-7.5C58,24.2,61.9,13.5,62,13.1   C59.5,10.6,49.4,8.7,37.3,8.7z"></path><path fill="#41B3E2" d="M62.4,42.5c0,0-4.9,5.6-25,5.6c-19.7,0-24.8-5.4-25-5.6c-0.1,0.2-4.2,8.1-0.7,21.9h25.7h0H63   C66.7,50.5,62.4,42.5,62.4,42.5z"></path><path fill="#41B3E2" d="M62.4 42.5c0 0-4.9 5.6-25 5.6-19.7 0-24.8-5.4-25-5.6-.1.2-4.2 8.1-.7 21.9h25.7 0H63C66.7 50.5 62.4 42.5 62.4 42.5zM62 13.1C62 13.1 62 13.1 62 13.1c1.3-2.4 1.7-12.6 1.7-12.6H10.9c0 0 .3 10.2 1.7 12.6 0 0 0 0 0 0 2.5-2.5 12.6-4.4 24.7-4.4S59.5 10.6 62 13.1z"></path><ellipse cx="37.3" cy="34.5" fill="#F0B972" rx="1.1" ry="1.7"></ellipse><path fill="#E39A61" d="M2.4,36.6c0,0,2.3-1.1,2.5-1.6c0.2-0.5,0.5-1.4,1.2-1.1c0.8,0.3,2,1.4,3.5,1.3c0,0-0.9,0.4-1.3,1   C8,36.9,6.3,38.4,6,38.4c-0.2,0-0.4-0.6-0.4-0.6s-2.2-0.6-3.3,0.6l3-2.2L3,37.2l2.6-1.8L2.4,36.6z"></path><polygon fill="#E39A61" points="2.5 42.5 7 42.5 2.8 42.9"></polygon><polygon fill="#E39A61" points="5.1 43.5 7.9 42.5 5.5 43.7"></polygon><polygon fill="#E39A61" points="8.4 41.3 10.2 37.8 8.9 41"></polygon><path fill="#FBD984" d="M3.3 31.2c0 0 1-.9 1.8-.7.8.2 1.6.9 2.2.7C7.9 31.1 9 31.5 9 31.5s-.5-.7-1.1-.8c-.6-.1-.7 0-.9-.2-.2-.2-1.9-.4-2.2-.3 0 0 1.2-.3 2 0 .8.3 1.8.6 1.8.6l-.9-1.1C7.7 29.7 7 29 6 29c-1-.1-2.8 1.4-2.8 1.4s-.6 1.5-.2 2.3.4 1.7.4 1.7.3-.9 0-1.7C3.1 31.9 3.3 31.2 3.3 31.2zM10.2 52c-.2 3.3.1 7.5 1.4 12.5h14.8C19.8 56.3 13.1 53.1 10.2 52zM48.2 64.5H63c1.3-4.9 1.6-9.1 1.4-12.5C61.6 53.1 54.9 56.3 48.2 64.5z"></path><g><rect width="2.8" height="19" x="11.9" y="34.6" fill="#E6E7E8"></rect><rect width="1.4" height=".3" x="11.9" y="35.6" fill="#788D9A"></rect><rect width=".9" height=".3" x="11.9" y="36.7" fill="#788D9A"></rect><rect width="1.4" height=".3" x="11.9" y="37.9" fill="#788D9A"></rect><rect width=".9" height=".3" x="11.9" y="39.1" fill="#788D9A"></rect><rect width="1.4" height=".3" x="11.9" y="40.3" fill="#788D9A"></rect><rect width=".9" height=".3" x="11.9" y="41.5" fill="#788D9A"></rect><rect width="1.4" height=".3" x="11.9" y="42.7" fill="#788D9A"></rect><rect width=".9" height=".3" x="11.9" y="43.9" fill="#788D9A"></rect><rect width="1.4" height=".3" x="11.9" y="45.1" fill="#788D9A"></rect><rect width=".9" height=".3" x="11.9" y="46.3" fill="#788D9A"></rect><rect width="1.4" height=".3" x="11.9" y="47.5" fill="#788D9A"></rect><rect width=".9" height=".3" x="11.9" y="48.6" fill="#788D9A"></rect><rect width="1.4" height=".3" x="11.9" y="49.9" fill="#788D9A"></rect><rect width=".9" height=".3" x="11.9" y="51" fill="#788D9A"></rect><rect width="1.4" height=".3" x="11.9" y="52.4" fill="#788D9A"></rect></g><path fill="#EFF3F5" d="M59.3,33.4c0,0-2.3,2.2-14.7,2.2c-12.5,0-32.7-2.3-32.7-2.3v2.7c0,0,27.2,2.6,32.4,2.5   c5.2-0.1,13.1-0.7,15.4-2.2L59.3,33.4z"></path><path fill="#788D9A" d="M58.9 35.3l-.1-1.6c-.1 0-.2.1-.3.1l.1 1.5L58.9 35.3zM58.1 35.1L58 34c-.1 0-.2.1-.3.1l.1 1L58.1 35.1zM56.3 35.7l-.1-1.2c-.1 0-.2 0-.3.1l.1 1.1L56.3 35.7zM54.1 36.1L54 35c-.1 0-.2 0-.3 0l.1 1.1L54.1 36.1zM52 36.3l-.1-1.1c-.1 0-.2 0-.3 0l.1 1.1L52 36.3zM49.9 36.4l-.1-1c-.1 0-.2 0-.3 0l.1 1L49.9 36.4zM47.6 36.5l-.1-1c-.1 0-.2 0-.3 0l.1 1.1L47.6 36.5zM57.2 35.7L57 34.3c-.1 0-.2.1-.3.1l.1 1.3L57.2 35.7zM55.3 36.1l-.1-1.3c-.1 0-.2 0-.3.1l.1 1.3L55.3 36.1zM53 36.4l-.1-1.3c-.1 0-.2 0-.3 0l.1 1.3L53 36.4zM50.9 36.6l-.1-1.3c-.1 0-.2 0-.3 0l.1 1.3L50.9 36.6zM48.8 36.8l-.1-1.3c-.1 0-.2 0-.3 0l.1 1.3L48.8 36.8zM46.3 36.8l-.1-1.3c-.1 0-.2 0-.3 0l.1 1.3L46.3 36.8zM45 36.5l-.1-1c-.1 0-.2 0-.3 0l.1 1L45 36.5zM43.6 36.7v-1.2c-.1 0-.2 0-.3 0v1.2H43.6zM42.5 36.3v-.8c-.1 0-.2 0-.3 0v.8H42.5zM41.1 36.6v-1.1c-.1 0-.2 0-.3 0v1.1H41.1zM40 36.2v-.7c-.1 0-.2 0-.3 0v.7H40zM38.8 36.5v-1.1c-.1 0-.2 0-.3 0v1.1H38.8zM37.6 36.1v-.7c-.1 0-.2 0-.3 0v.7H37.6zM36.4 36.4v-1.1c-.1 0-.2 0-.3 0v1.1H36.4zM35.3 35.9v-.7c-.1 0-.2 0-.3 0v.7H35.3zM34 36.2v-1.1c-.1 0-.2 0-.3 0v1.1H34zM32.8 35.8v-.7c-.1 0-.2 0-.3 0v.7H32.8zM31.4 36.1V35c-.1 0-.2 0-.3 0v1.1H31.4zM30.3 35.6v-.7c-.1 0-.2 0-.3 0v.7H30.3zM28.9 35.9v-1.1c-.1 0-.2 0-.3 0v1.1H28.9zM27.7 35.4v-.7c-.1 0-.2 0-.3 0v.8H27.7zM26.4 35.7v-1.1c-.1 0-.2 0-.3 0v1.2H26.4zM25.3 35.3v-.8c-.1 0-.2 0-.3 0v.8H25.3zM24.1 35.6v-1.2c-.1 0-.2 0-.3 0v1.2H24.1zM23 35.1v-.8c-.1 0-.2 0-.3 0v.8H23zM21.6 35.3v-1.1c-.1 0-.2 0-.3 0v1.1H21.6zM20.4 34.8v-.7c-.1 0-.2 0-.3 0v.8H20.4zM19.1 35.1V34c-.1 0-.2 0-.3 0v1.2H19.1zM18 34.6v-.8c-.1 0-.2 0-.3 0v.8H18zM16.6 34.9v-1.1c-.1 0-.2 0-.3 0v1.2H16.6zM15.4 34.4v-.8c-.1 0-.2 0-.3 0v.9H15.4zM14.2 34.6v-1.2c-.1 0-.2 0-.3 0v1.2H14.2zM13.1 34.2v-.9c-.1 0-.2 0-.3 0v.9H13.1z"></path><path fill="#FDC77C" d="M11.9,33.1c0,0,0.8,0.4,0.6,1.2c-0.2,0.8-1.3,1.1-2.9,1L11.9,33.1z"></path><path fill="#EFF3F5" d="M9.8,32.7c0,0,0.9-0.2,1.7,0.2c0.6,0.3,0.7,0.9,0.3,1.1c-0.4,0.2-0.9,1.1-1.7,0.8c-0.8-0.2-1.4-0.9-1.2-1.5   C9.3,32.7,9.8,32.7,9.8,32.7z"></path></g></svg>