<svg xmlns="http://www.w3.org/2000/svg" enable-background="new 0 0 65 65" viewBox="0 0 65 65" id="flower"><g><path fill="#5AC8AE" d="M50.3,42.7L32.6,42l-17.7,0.6c0,0-6.8-0.5-10.5,4.9c0,0,6,1.4,13.5,5.2c7.5,3.8,11.5,2.1,13,0   s1.8-2.7,1.8-2.7s0.3,0.6,1.8,2.7c1.5,2.1,5.4,3.8,13,0c7.5-3.8,13.5-5.2,13.5-5.2C57.1,42.2,50.3,42.7,50.3,42.7z"></path><g><path fill="#DBDFE0" d="M0.5,36.5c7.1,9.8,23.2,16.4,32.1,6C28.1,29.7,10.7,30,0.5,36.5z"></path><path fill="#EFF3F5" d="M6,23.5c2.3,11.9,14.1,24.7,26.5,19C33.9,29,18,21.9,6,23.5z"></path><path fill="#DBDFE0" d="M17.3,13.7c-3.2,11.7,1.6,28.4,15.2,28.8C39.8,31,28.8,17.6,17.3,13.7z"></path><path fill="#DBDFE0" d="M64.5,36.5c-7.1,9.8-23.2,16.4-32.1,6C36.9,29.7,54.3,30,64.5,36.5z"></path><path fill="#EFF3F5" d="M59,23.5c-2.3,11.9-14.1,24.7-26.5,19C31.1,29,47,21.9,59,23.5z"></path><path fill="#DBDFE0" d="M47.7,13.7c3.2,11.7-1.6,28.4-15.2,28.8C25.2,31,36.2,17.6,47.7,13.7z"></path></g><path fill="#EFF3F5" d="M32.5,9.9c-8.3,8.8-11.8,25.8,0,32.6C44.3,35.8,40.8,18.7,32.5,9.9z"></path></g></svg>