<svg xmlns="http://www.w3.org/2000/svg" enable-background="new 0 0 65 65" viewBox="0 0 65 65" id="heel"><g><path fill="#DD6258" d="M53.5,62.3h4.6c0.4-4.6,1.9-18.3,6.3-37.6l-7.7-1.7L27.2,50.4L0.8,51.2c0,0-0.7,5,0.9,8.2   c1.6,3.3,15.9,8,34,2.5c0,0,3-0.5,4.3-6.1c1.3-5.5,4.8-12.3,9.7-15.6L53.5,62.3z"></path><path fill="#C64C46" d="M56.8,22.9L27.2,50.4L0.8,51.2c0,0-0.1,0.4-0.1,1c0.1,0.2,0.1,0.3,0.1,0.3c4.7,4,23.7,4.4,30.2,3.4   c6.5-1.1,13.6-14.5,16.9-18.4c5.7-6.9,14.5-10.7,16.3-11.4c0.1-0.5,0.2-1,0.3-1.5L56.8,22.9z"></path><path fill="#FBD984" d="M17.7,39.2c0,0,7.5-11.7,10-18.4c2.5-6.7,3.9-20.4,3.9-20.4h22.8L55,1.8V18L38.6,44.6L22,50l-10.4-4.5   L17.7,39.2z"></path><path fill="#F1786B" d="M55,1.8c0,0,10.2,9.6,9.5,22.9c0,0-10.3,3.8-16.6,11.5C44.6,40.1,37.4,53.5,31,54.6   c-6.5,1.1-25.5,0.6-30.2-3.4c0,0-1.9-4.8,4.1-7.2c6-2.4,11-3,12.8-4.8c0,0-1.2,3.4,4.1,3c5.3-0.4,10.4-0.4,18.4-9.3   C48.2,23.9,55,1.8,55,1.8z"></path><g><path fill="#F98B82" d="M21.7 43.5c5.3-.4 10.4-.4 18.4-9.3C48.2 25.2 55 3 55 3s9.2 8.6 9.5 20.9C64.8 11 55 1.8 55 1.8s-6.8 22.2-14.8 31.1c-8 9-13.2 9-18.4 9.3-2.9.2-3.9-.7-4.1-1.6C17.5 41.2 17.1 43.8 21.7 43.5zM4.9 45.3c5.9-2.4 10.9-3 12.7-4.7-.2-.7.1-1.3.1-1.3C15.9 41 10.8 41.6 4.9 44c-4.2 1.7-4.5 4.5-4.3 6C.7 48.5 1.7 46.6 4.9 45.3z"></path></g></g></svg>