<svg xmlns="http://www.w3.org/2000/svg" enable-background="new 0 0 65 65" viewBox="0 0 65 65" id="beauty"><g><path fill="#5AC8AE" d="M55.8,55.7c-1.1-3.3-3.8-5.7-7.2-6.3l-16.1-2.9l-16.1,2.9c-3.4,0.6-6.2,3-7.2,6.3l-2.8,8.8h26.2h26.2   L55.8,55.7z"></path><path fill="#6AD3B8" d="M9.2,56.9c1.1-3.3,3.8-5.7,7.2-6.3l16.1-2.9l16.1,2.9c3.4,0.6,6.2,3,7.2,6.3l2.4,7.6h0.4l-2.8-8.8   c-1.1-3.3-3.8-5.7-7.2-6.3l-16.1-2.9l-16.1,2.9c-3.4,0.6-6.2,3-7.2,6.3l-2.8,8.8h0.4L9.2,56.9z"></path><g><ellipse cx="27.4" cy="51.3" fill="#46AA90" rx="5.9" ry="5.7"></ellipse><ellipse cx="37.6" cy="51.3" fill="#46AA90" rx="5.9" ry="5.7"></ellipse></g><path fill="#445C6C" d="M32.5,0.5c-9.5,0-17.1,7.7-17.1,17.1v21c0,3.3,2.7,6,6,6h22.3c3.3,0,6-2.7,6-6v-21   C49.6,8.2,42,0.5,32.5,0.5z"></path><path fill="#445C6C" d="M32.5,0.5c-9.5,0-17.1,7.7-17.1,17.1v21c0,3.3,2.7,6,6,6h22.3c3.3,0,6-2.7,6-6v-21   C49.6,8.2,42,0.5,32.5,0.5z"></path><path fill="#57717F" d="M32.5,0.5c-9.5,0-17.1,7.7-17.1,17.1V19c0-9.5,7.7-17.1,17.1-17.1C42,1.9,49.6,9.5,49.6,19v-1.4   C49.6,8.2,42,0.5,32.5,0.5z"></path><path fill="#F0B972" d="M24.5,37.8v10.5c0,2.7,3.6,4.9,8,4.9l0,0c4.4,0,8-2.2,8-4.9V37.8H24.5z"></path><path fill="#FBD984" d="M36.5,12.6c-4.3,7.1-14.5,9.7-18.6,10.5c0,0.3,0,0.6,0,1c0,11.5,6.5,20.8,14.6,20.8   c8.1,0,14.6-9.3,14.6-20.8c0-0.5,0-0.9,0-1.4C39.1,19.4,36.5,12.6,36.5,12.6z"></path><g><path fill="#EFF3F5" d="M31.7,15.8c-0.7-0.4-1.8-0.7-3-0.8c1.2-0.1,2.4-0.5,3-0.8c1.4-0.8,1.8-2.5,1.1-3.9    c-0.8-1.4-2.5-1.8-3.9-1.1c-0.7,0.4-1.6,1.2-2.2,2.2c0.5-1.1,0.8-2.3,0.8-3c0-1.6-1.3-2.9-2.9-2.9c-1.6,0-2.9,1.3-2.9,2.9    c0,0.8,0.3,2,0.8,3c-0.7-0.9-1.6-1.8-2.2-2.2c-1.4-0.8-3.1-0.3-3.9,1.1c-0.8,1.4-0.3,3.1,1.1,3.9c0.7,0.4,1.8,0.7,3,0.8    c-1.2,0.1-2.4,0.5-3,0.8c-1.4,0.8-1.8,2.5-1.1,3.9c0.8,1.4,2.5,1.8,3.9,1.1c0.7-0.4,1.6-1.2,2.2-2.2c-0.5,1.1-0.8,2.3-0.8,3    c0,1.6,1.3,2.9,2.9,2.9c1.6,0,2.9-1.3,2.9-2.9c0-0.8-0.3-2-0.8-3c0.7,0.9,1.6,1.8,2.2,2.2c1.4,0.8,3.1,0.3,3.9-1.1    C33.5,18.3,33.1,16.6,31.7,15.8z"></path><circle cx="24.5" cy="14.9" r="2.6" fill="#5AC8AE"></circle></g></g></svg>