<svg xmlns="http://www.w3.org/2000/svg" width="48" height="48" viewBox="0 0 48 48" id="pets"><path fill="#5d4037" d="M4.305 12.95L15.5 9.23V3H9C5.686 3 3 5.789 3 9.23v2.731C3 12.664 3.66 13.164 4.305 12.95zM27.695 12.95L16.5 9.23V3H23c3.314 0 6 2.789 6 6.23v2.731C29 12.664 28.34 13.164 27.695 12.95z"></path><path fill="#a16a4a" d="M26,14.541v-1.092c0-7.521-7.866-12.774-14.571-9.413C8.224,5.642,6,8.805,6,12.445v2.097	c0,0.537-0.206,1.061-0.599,1.426C3.668,17.581,2.693,20,3.087,22.637C3.614,26.159,7.188,29,10.737,29h9.502	c4.576,0,8.15-2.844,8.674-6.37c0.392-2.632-0.581-5.045-2.309-6.657C26.211,15.606,26,15.082,26,14.541z"></path><path fill="#66798f" d="M36.667 25C35 25 43.34 32.83 43.34 32.83s3.327-6.163-.007-12.83C41.667 20 40 25 36.667 25zM28.333 25c1.667 0-6.673 7.83-6.673 7.83S18.333 26.667 21.667 20C23.333 20 25 25 28.333 25z"></path><ellipse cx="32.5" cy="34.167" fill="#788b9c" rx="12.5" ry="10.833"></ellipse><rect width="2" height="9.25" x="15" y="19.75" fill="#5d4037"></rect><path fill="#263238" d="M19,18.6c0-1.105-1.343-1.6-3-1.6s-3,0.495-3,1.6s1.343,2.4,3,2.4S19,19.705,19,18.6z"></path><circle cx="10.5" cy="14.5" r="1.5" fill="#263238"></circle><circle cx="21.5" cy="14.5" r="1.5" fill="#263238"></circle><circle cx="28.5" cy="31.5" r="1.5" fill="#36404d"></circle><circle cx="36.5" cy="31.5" r="1.5" fill="#36404d"></circle><circle cx="30" cy="39" r="3" fill="#e1ebf2"></circle><circle cx="35" cy="39" r="3" fill="#e1ebf2"></circle><path fill="#ea4c89" d="M34.5,36.2c0-0.828-0.895-1.2-2-1.2s-2,0.372-2,1.2s0.895,1.8,2,1.8S34.5,37.028,34.5,36.2z"></path></svg>