<svg xmlns="http://www.w3.org/2000/svg" data-name="Layer 1" viewBox="0 0 64 64" id="dog-walking"><path fill="#57432a" d="M47.846,39.2c-7.581,0-20.425-7.186-20.9-7.469a1,1,0,0,1,1.028-1.716c.119.072,14.551,8.2,21.452,7.065a1,1,0,1,1,.325,1.972A11.7,11.7,0,0,1,47.846,39.2Z"></path><path fill="#d6b387" d="M27.047,43.477A3.508,3.508,0,0,1,27.7,42a7.741,7.741,0,0,1,.873-.951l.016-.024c-2.317-2.133-7.083.562-9.86.761-4.593.33-6.782-.986-6.782-.986,1.89,1.725,1.593,6.165,6.336,6.171,4.039,0,7.528-3.4,8.754-3.477Z"></path><path fill="#d6a86d" d="M23,44.265a16.073,16.073,0,0,1-8.325,1.185,4.364,4.364,0,0,0,3.607,1.521c4.039,0,7.528-3.4,8.754-3.477l.011-.017A3.508,3.508,0,0,1,27.7,42a7.741,7.741,0,0,1,.873-.951l.016-.024a3.077,3.077,0,0,0-1.64-.751A10.258,10.258,0,0,1,23,44.265Z"></path><polygon fill="#203691" points="8 29.003 7.276 44 3 57 6.222 57 11.728 44 13.34 35.941 15.728 58 19.19 58 19.19 29.003 8 29.003"></polygon><path fill="#f0c2b4" d="M26.1,32.474a1,1,0,0,0,1.113-.718l.249-.886h0l.247-.877a1,1,0,0,0-.72-1.241L24,28l-1,4Z"></path><path fill="#e84848" d="M19.65,26.553,18.074,15.521a1,1,0,0,0-.543-.753L14,12l-3.58,2.79a1,1,0,0,0-.527.667L7.015,27.775A1,1,0,0,0,7.989,29H15.2L23,32l1-4Z"></path><path fill="#f0c2b4" d="M12.283,12.7A5,5,0,0,0,19,7.782L14,7.009,9.894,10.837A4.965,4.965,0,0,0,12.283,12.7Z"></path><path fill="#946a34" d="M9.306,6.283a4.988,4.988,0,0,0,.588,4.554L14,7.009Z"></path><path fill="#606060" d="M14,7.009h0L19,7.782a5,5,0,0,0-9.689-1.5l4.7.726Z"></path><path fill="#57432a" d="M21.728 61V60a2 2 0 0 0-2-2h-4v3zM9 59a2 2 0 0 0-2-2H3v3H9z"></path><line x1="46.459" x2="35.635" y1="50.852" y2="51.448" fill="#d6b387"></line><path fill="#d6b387" d="M61.784,38.047c-.076-1.17-2.317-1.693-3.11-2.425-.69-.636-.763-1.632-1.41-2.307a6.323,6.323,0,0,0-4.03-1.775A3.823,3.823,0,0,0,49.3,33.947c-.248.569-.621,1.288-.875,2.027h0a6.366,6.366,0,0,1-3.852,1.8l-10.952.967A8.749,8.749,0,0,0,27.7,42a3.584,3.584,0,0,0-.458,3.52,62.14,62.14,0,0,0,3.889,7.337,2.458,2.458,0,0,1,.339,1.549l-.364,3.278a1,1,0,0,0,0,.632l.667,2a1,1,0,0,0,.949.684h.892a1,1,0,0,0,.948-1.316l-.43-1.291a1,1,0,0,1,.054-.763l1.675-3.351a1,1,0,0,0,.1-.588l-.321-2.243,10.824-.6,0,0c.553.456,1.123.894,1.694,1.321L50.85,54.19c1.624,1.217,1.616,3.138,1.989,5.006a1,1,0,0,0,.981.8h1.027a1,1,0,0,0,.99-1.141l-.8-5.592a1.007,1.007,0,0,0-.2-.479l-3.38-4.278h0a9.406,9.406,0,0,0,2.073-2.972,19.7,19.7,0,0,1,2.7-4.361l.023-.026.02,0a6,6,0,0,0,1.637-.078,9.411,9.411,0,0,0,3.183-.921C61.846,39.674,61.838,38.89,61.784,38.047Z"></path><path fill="#d6a86d" d="M42.4 44.914l-.037.963a9.254 9.254 0 0 0 1.319 5.128l2.776-.153C43.564 49.62 42.4 44.914 42.4 44.914zM34.943 46.7l.692 4.75 2.481-.136A15.31 15.31 0 0 1 34.943 46.7z"></path><path fill="#a88251" d="M53.867,40.611c1.258,1.509-.282,3.482-.958,4.915a3.287,3.287,0,0,1-.516.856,1.954,1.954,0,0,1-1.593.57,2.928,2.928,0,0,1-1.581-.691c.8.66,1.5,1.512,2.234,2.249a7.068,7.068,0,0,0,.631-.661c.009-.01.016-.022.024-.032a8.883,8.883,0,0,0,.542-.722h0a11.512,11.512,0,0,0,.876-1.557,19.7,19.7,0,0,1,2.7-4.361S52.937,39.495,53.867,40.611Z"></path><path fill="#d6a86d" d="M52.1,34.7s.791,5.209-2.372,4.884c-1.554-.16-2-1.59-2.045-3-.144.1-.3.191-.448.282-.243,1.964.012,4.106,2.307,4.106C53.774,40.974,52.1,34.7,52.1,34.7Z"></path><path fill="#a88251" d="M47.794 54.278a7.984 7.984 0 0 1 .713-1.647c0-.006.018-.067.039-.168l-.389-.292c-.571-.427-1.141-.865-1.694-1.321l0 0-1.824.1h0l-.626 4.569a.975.975 0 0 0 0 .209l.557 4.4a1 1 0 0 0 .992.875h1.491a.9.9 0 0 0 .818-1.255A6.892 6.892 0 0 1 47.578 55zM28.088 47.378l0 0-2.978 9.414a.993.993 0 0 0-.106.447V60a1 1 0 0 0 1 1h1a1 1 0 0 0 1-1V58.333a1 1 0 0 1 .2-.6l2.871-4.974C30.382 51.616 29.1 49.432 28.088 47.378z"></path><path fill="#57432a" d="M51.759,39.941a2.3,2.3,0,0,1-1.161.853c1.547,1,4.211,2.707,4.211,2.707l.861-1.32A25.919,25.919,0,0,1,51.759,39.941Z"></path><ellipse cx="56.56" cy="35.913" fill="#d6a86d" rx=".889" ry=".326"></ellipse><polygon fill="#de4545" points="15.2 29.003 12.588 17.681 12.588 29.003 15.2 29.003"></polygon><path fill="#203691" d="M22.684,8.143a1,1,0,0,1-.99.84.757.757,0,0,1-.15-.01l-12.7-1.96c-1.981-.306.205-3.386.9-4.007a5.944,5.944,0,0,1,4.946-1.1c.315.045.626.1.937.17a5.011,5.011,0,0,1,3.5,2.46,5.431,5.431,0,0,1,.64,2.15l2.08.32A1,1,0,0,1,22.684,8.143Z"></path><path fill="#e84848" d="M21.544,8.973a.757.757,0,0,0,.15.01A1,1,0,0,0,21.844,7l-2.08-.32a61.45,61.45,0,0,1-6.058,1.08Z"></path></svg>