<svg xmlns="http://www.w3.org/2000/svg" enable-background="new 0 0 65 65" viewBox="0 0 65 65" id="beauty"><g><path fill="#F0B972" d="M64.5,34.7c-3.3,0.4-6.4,3.1-6.4,3.1L55.3,59l5.3,2.5c0.5,1.2,1.5,1.2,1.8,1.4c0.5,0.3,1.4,1,2.1,1.7V34.7z   "></path><path fill="#FDC77C" d="M54.6,52.2c0,0-2.5,1.2-2.6,2.8c-0.1,1.7,1.7,3.8,3.5,4.5c1.9,0.6,4.3,0.7,5.1-1.4c0.5-1.5-1-3-1-3   s3,0.5,3.5-1.5c0.6-1.9-0.5-3.6-1.8-4.5c-1.3-0.8-1.7-1.7-1.7-1.7s1.7-1.5,0.1-4.6c-1.5-3.2-9.2-10.4-9.2-10.4s-4.6,2.4-3.2,5.2   c1.4,2.8,6.3,8.5,6.3,8.5S51.5,48.4,54.6,52.2z"></path><path fill="#F0B972" d="M55.3,47.4c0,0,2.7,1.6,3.9-0.6c1.2-2.2-2.8-7.3-2.8-7.3s2,0.9,2.8,2.4c0.8,1.5,2,3.1,0.4,5.5   C58,49.8,55.3,47.4,55.3,47.4z"></path><path fill="#FBD984" d="M23.2,0.5c0,0,7.6,11.3,8.8,12.5c1.2,1.3,4.5,5.7,6.1,8.5c1.6,2.8,6.9,11.1,6.4,12.9   c-0.5,1.8-3.3,3.3-4.6,1.9c0,0,3.1,4.1,1.9,6.8c-1.2,2.7-5.7,0-5.7,0s0.6,4.8-5.1,2.4l-5.4-5.4c0,0,0,2.5-3.4,2.7   c-1.5,0.1-10.4-8.5-13.1-10.4c-2.6-1.9-8.6-4.8-8.6-4.8V0.5H23.2z"></path><path fill="#FDC77C" d="M22.5 11.9c0 0 .6 2.6 2.5 4.6 1.8 2 7.4 8.4 9.1 11.3 1.7 2.9 6.9 9.6 7.2 9.3l-1.5-.8c0 0-5.6-7.8-7.1-9.7-1.5-1.9-7.6-9.3-8.7-10.5S22.2 13 22.5 11.9zM15.4 17.1c0 0 3.3 4 6.1 6.8 2.8 2.8 3.7 5.5 6.7 8.7 3 3.2 6.5 9.3 8.9 10.9l-.9-.5c0 0-3.3-3.1-5.1-5.5-1.8-2.4-5.7-7.6-6.2-8.5-.5-1-3.1-4.3-4.6-5.8C18.7 21.6 15.8 18.8 15.4 17.1zM25.6 40.1l-6-6.6c0 0-6.6-8.4-7.7-10-1-1.6-3.2-2-3.2-2s2.1.6 3.3 2.9c1.2 2.3 6.5 8.3 7 9.1C19.6 34.4 25.6 40.1 25.6 40.1z"></path><path fill="#FFEDE1" d="M44.1,33.6l-1.4-2c-0.7-1-2-1.2-3-0.6l0,0c-1,0.7-1.2,2-0.6,3l1.5,2.3C43.1,35.6,43.9,34.2,44.1,33.6z"></path><path fill="#FFF6F0" d="M44.8,34.6l-0.7-1.1c-0.2,0.6-0.9,2-3.4,2.7l0.6,0.8c0.4,0.5,1.1,0.7,1.6,0.3l1.6-1.1   C45,35.9,45.1,35.2,44.8,34.6z"></path><path fill="#FFF" d="M40.2,32l2.3,3.2l0.7-0.6l-2.2-3C41,31.6,40.7,31.1,40.2,32z"></path><path fill="#FFEDE1" d="M41.2,40.9l-1.5-2.2c-0.7-1-2.1-1.3-3.2-0.6l0,0c-1,0.7-1.3,2.1-0.6,3.2l1.7,2.4   C40.2,43.1,41,41.5,41.2,40.9z"></path><path fill="#FFF6F0" d="M42,42l-0.8-1.1c-0.2,0.6-1,2.2-3.6,2.9l0.6,0.9c0.4,0.6,1.2,0.7,1.7,0.3l1.7-1.2   C42.2,43.4,42.3,42.6,42,42z"></path><path fill="#FFF" d="M37,39.2l2.5,3.4l0.8-0.6l-2.4-3.2C37.9,38.7,37.6,38.3,37,39.2z"></path><path fill="#FFEDE1" d="M35.4,42.4l-1.7-1.9c-0.8-0.9-2.2-1-3.1-0.1l0,0c-0.9,0.8-1,2.2-0.1,3.1l1.9,2.1   C34.8,44.6,35.3,43.1,35.4,42.4z"></path><path fill="#FFF6F0" d="M36.3,43.4l-0.9-1c-0.1,0.6-0.7,2.2-3.1,3.2l0.7,0.8c0.4,0.5,1.2,0.5,1.7,0.1l1.5-1.4   C36.7,44.6,36.8,43.9,36.3,43.4z"></path><path fill="#FFF" d="M31.2,41.3l2.8,2.9l0.7-0.7L32,40.8C32,40.8,31.7,40.4,31.2,41.3z"></path><path fill="#FFEDE1" d="M25.5,39.8l-1.4-1.6c-0.7-0.8-1.9-0.8-2.6-0.1l0,0c-0.8,0.7-0.8,1.9-0.1,2.6l1.6,1.8   C25,41.7,25.4,40.4,25.5,39.8z"></path><path fill="#FFF6F0" d="M26.3,40.7l-0.8-0.8c-0.1,0.5-0.6,1.8-2.6,2.7l0.6,0.6c0.4,0.4,1,0.4,1.4,0.1l1.3-1.2   C26.6,41.7,26.6,41.1,26.3,40.7z"></path><path fill="#FFF" d="M22,38.9l2.4,2.4l0.6-0.6l-2.3-2.3C22.6,38.5,22.3,38.1,22,38.9z"></path><path fill="#FDC77C" d="M54.6,52.2c0,0-1.9-3.7-0.2-5.4L53.7,46C53.7,46,51.3,48.4,54.6,52.2z"></path><path fill="#F0B972" d="M52.9,53.4c0,0,1.2-1.5,3.2-0.3c2,1.2,3.9,2.1,4.3,2.9l-0.7-1l-5-2.8L52.9,53.4z"></path><g><path fill="#FFEDE1" d="M58.4,55.3l-1.7-0.8c-0.8-0.4-1.8,0-2.2,0.8l0,0c-0.4,0.8,0,1.8,0.8,2.2l1.9,0.9    C58.6,57,58.6,55.8,58.4,55.3z"></path><path fill="#FFF6F0" d="M59.4,55.7l-0.9-0.4c0.1,0.5,0.2,1.7-1.2,3.1l0.7,0.3c0.5,0.2,1,0,1.2-0.4l0.6-1.4    C60,56.5,59.8,55.9,59.4,55.7z"></path><path fill="#FFF" d="M55.2,55.8L58,57l0.3-0.7l-2.7-1.1C55.6,55.2,55.2,55,55.2,55.8z"></path></g><g><path fill="#FFEDE1" d="M62.1,51l-2-1.6c-1-0.8-2.4-0.7-3.2,0.3l0,0c-0.8,1-0.7,2.4,0.3,3.2l2.3,1.8C61.7,53.3,62.1,51.7,62.1,51z    "></path><path fill="#FFF6F0" d="M63.1,51.8L62.1,51c0,0.7-0.3,2.3-2.6,3.7l0.8,0.7c0.5,0.4,1.3,0.4,1.7-0.2l1.3-1.6    C63.8,53,63.7,52.3,63.1,51.8z"></path><path fill="#FFF" d="M57.6,50.5L61,53l0.6-0.8l-3.2-2.4C58.4,49.8,57.9,49.5,57.6,50.5z"></path></g><g><path fill="#FFEDE1" d="M58.4,44.5l-1.7-1.4c-0.8-0.7-2-0.5-2.7,0.3l0,0c-0.7,0.8-0.5,2,0.3,2.7l1.9,1.5    C58.1,46.5,58.3,45.1,58.4,44.5z"></path><path fill="#FFF6F0" d="M59.2,45.3l-0.9-0.7c0,0.6-0.3,2-2.2,3.1l0.7,0.6c0.4,0.4,1.1,0.3,1.5-0.1l1.1-1.4    C59.8,46.3,59.7,45.6,59.2,45.3z"></path><path fill="#FFF" d="M54.6,44.2l2.8,2.1l0.5-0.7l-2.7-2C55.2,43.6,54.9,43.3,54.6,44.2z"></path></g><path fill="#DBDFE0" d="M64.5,23.1L32.9,52.9c-1.7,1.6-1.8,4.3-0.2,6c1.6,1.7,4.3,1.8,6,0.2l25.7-24.3V23.1z"></path><path fill="#FBD984" d="M50.8,28.8c0,0-2.2,2.4-0.3,6.3c1.9,3.9,13.7,10.7,14,11.6V35.6c0,0-5.5-3.2-6.5-3.8   c-1-0.6-3.3-3.3-3.3-3.3L50.8,28.8z"></path><path fill="#FFEDE1" d="M57.5,31.5c0,0-0.4,0-2.9-3c-0.1-0.1-0.2-0.2-0.3-0.4c-1.1-0.3-2.4-0.5-3.4-0.2c-0.9,0.3-1.2,0.7-1.4,1.1   c0.9,1.6,2.8,3.5,3.5,4c1.1,0.7,1.8-0.5,3.3-0.8C58,31.8,57.5,31.5,57.5,31.5z"></path><path fill="#FFF6F0" d="M51,27.9c0.9-0.3,2.3-0.1,3.4,0.2c-2.4-2.5-4.4-2.2-5.2-1.1c-0.3,0.4,0,1.1,0.4,1.9   C49.7,28.6,50.1,28.2,51,27.9z"></path><path fill="#FFF" d="M50.9,28.5c0,0,2.4,3.2,3.2,3.5c0.8,0.3,1.3,0,1.3,0l-3.5-3.8L50.9,28.5z"></path></g></svg>