<svg xmlns="http://www.w3.org/2000/svg" data-name="Layer 1" viewBox="0 0 64 64" id="grooming-delivery"><path fill="#a8a8a8" d="M2 40v4H12a4.98 4.98 0 0 1 2.027-4H2zM19.973 40A4.98 4.98 0 0 1 22 44H41V40z"></path><rect width="37" height="30" x="4" y="12" fill="#f0f0f0"></rect><path fill="#e8e8e8" d="M10.974,41.6,4,42H41V12h0A31.928,31.928,0,0,1,10.974,41.6Z"></path><circle cx="22.5" cy="26.5" r="13.5" fill="#fff"></circle><path fill="#d6d6d6" d="M57,35V33a1,1,0,0,1,1-1h3l-5-4H45V20H41V44h3a5,5,0,0,1,10,0h7V36H58A1,1,0,0,1,57,35Z"></path><path fill="#c9c9c9" d="M41,31H54a1,1,0,0,1,1,1v0a1,1,0,0,1-1,1H41a0,0,0,0,1,0,0V31A0,0,0,0,1,41,31Z"></path><rect width="20" height="2" x="41" y="42" fill="#a8a8a8"></rect><polygon fill="#94e3ff" points="56 28 51 20 45 20 45 28 56 28"></polygon><path fill="#94e3ff" d="M57,33v2a1,1,0,0,0,1,1h3V32H58A1,1,0,0,0,57,33Z"></path><path fill="#606060" d="M49 39a5 5 0 1 0 5 5A5 5 0 0 0 49 39zm0 7a2 2 0 1 1 2-2A2 2 0 0 1 49 46zM17 39a5 5 0 1 0 5 5A5 5 0 0 0 17 39zm0 7a2 2 0 1 1 2-2A2 2 0 0 1 17 46z"></path><circle cx="17" cy="44" r="2" fill="#d6d6d6"></circle><circle cx="49" cy="44" r="2" fill="#d6d6d6"></circle><path fill="#d6b387" d="M20.9 21.121c1.193-.1 2.052-1.47 1.92-3.061s-1.208-2.8-2.4-2.7-2.053 1.47-1.92 3.061S19.7 21.22 20.9 21.121zM13.72 31.431c-1.27 4.447 2.669 1.964 6.353 3.016s5.718 5.24 6.988.793a2.434 2.434 0 0 0-.566-2.61 4.621 4.621 0 0 1-1.027-4.444l0-.012a3.219 3.219 0 0 0-2.541-3.732A3.219 3.219 0 0 0 18.8 26.269l0 .013a4.621 4.621 0 0 1-3.219 3.231A2.438 2.438 0 0 0 13.72 31.431zM15.022 25.423c1.127-.4 1.607-1.947 1.07-3.451s-1.885-2.4-3.013-1.993-1.607 1.947-1.07 3.45S13.894 25.826 15.022 25.423zM26.178 22.667c.967.7 2.514.231 3.455-1.059S30.551 18.7 29.584 18s-2.514-.231-3.455 1.059S25.211 21.961 26.178 22.667zM28.959 29.4c.754.93 2.37.868 3.61-.137s1.634-2.575.879-3.5-2.37-.868-3.61.138S28.205 28.465 28.959 29.4z"></path><polygon fill="#fff" points="51 28 54.077 24.923 53.308 23.692 49 28 51 28"></polygon><polygon fill="#fff" points="45 28 46.5 28 52.346 22.154 51 20 45 26 45 28"></polygon><path fill="#a8a8a8" d="M48,36H45a1,1,0,0,1,0-2h3a1,1,0,0,1,0,2Z"></path></svg>