<svg xmlns="http://www.w3.org/2000/svg" data-name="Layer 1" viewBox="0 0 64 64" id="dog-channel"><rect width="54" height="36" x="5" y="12" fill="#d6d6d6"></rect><rect width="48" height="32" x="8" y="16" fill="#fff"></rect><path fill="#606060" d="M3 48a4 4 0 0 0 4 4H57a4 4 0 0 0 4-4zM5 9v3H59V9a1 1 0 0 0-1-1H6A1 1 0 0 0 5 9z"></path><path fill="#e69d4e" d="M33.542,30.31l-2.624.974a7.022,7.022,0,0,0-7.136,0l-2.623-.974s-1.3,1.958.582,3.07a3.655,3.655,0,0,0-.289.823,7.134,7.134,0,0,0,.072,3.65C16.565,38.3,13.2,42.925,13.2,48H30a14.081,14.081,0,0,1,.917-4.993c.584-1.539,1.481-2.939,2.006-4.511a7.773,7.773,0,0,0,.321-4.293,3.655,3.655,0,0,0-.289-.823C34.84,32.268,33.542,30.31,33.542,30.31Z"></path><path fill="#e69d4e" d="M13.3,35.668a8.612,8.612,0,0,0-1.348,1.642c-.842,1.19-1.15,2.75.027,3.86A2.64,2.64,0,0,0,16.3,38.495a7.06,7.06,0,0,0-1.275-2.8A1.121,1.121,0,0,0,13.3,35.668Z"></path><path fill="#e84848" d="M13.14,27.4l5.693,2.751L21.759,24.1a2.412,2.412,0,0,0-.945-3.127L20.8,20.96a2.412,2.412,0,0,0-3.551,1.433l-.494,1.785-1.067-.843A2.412,2.412,0,1,0,13.14,27.4Z"></path><path fill="#dd8936" d="M25.6,37.588a1.5,1.5,0,0,0,1.5,1.5h0a1.5,1.5,0,0,0,1.5-1.5,1.5,1.5,0,0,0,1.5,1.5h0a1.5,1.5,0,0,0,1.5-1.5A2.768,2.768,0,0,1,28.6,40.326,2.766,2.766,0,0,1,25.6,37.588Z"></path><path fill="#e84848" d="M29.6,39.088V39a1.494,1.494,0,0,1-1-1.408A1.5,1.5,0,0,1,27.6,39v.092a1,1,0,0,0,2,0Z"></path><path fill="#f0b3a1" d="M46,39V36H42v3A2.4,2.4,0,0,0,46,39Z"></path><path fill="#a87c43" d="M51,26a5,5,0,0,0-5-5H37a1,1,0,0,0-1,1,5,5,0,0,0,5,5h7l3,5V26Z"></path><path fill="#e84848" d="M49,37.93H46a2.4,2.4,0,0,1-4,0H39c-2.209,0-4,2.861-4,5.07v5H53V43C53,40.791,51.209,37.93,49,37.93Z"></path><path fill="#f5c6b8" d="M41,27a4.974,4.974,0,0,1-3.977-2H37v7a4,4,0,0,0,4,4h6a4,4,0,0,0,4-4l-3-5Z"></path><path fill="#d13636" d="M38.168,42A4.721,4.721,0,0,0,38,43.211V48H50l-3.964-.817A13.56,13.56,0,0,1,38.168,42Z"></path><path fill="#575757" d="M57,50H7a3.982,3.982,0,0,1-3.445-2H3a4,4,0,0,0,4,4H57a4,4,0,0,0,4-4h-.555A3.982,3.982,0,0,1,57,50Z"></path><path fill="#dd8936" d="M11.532,39.694a2.656,2.656,0,0,1-.326-.382,2.353,2.353,0,0,0,.768,1.858A2.64,2.64,0,0,0,16.3,38.495c-.111-.384-.238-.8-.389-1.206A2.634,2.634,0,0,1,11.532,39.694Z"></path><path fill="#d13636" d="M21.759,22.946,18.833,29,13.14,26.249a2.394,2.394,0,0,1-1.282-1.592A2.4,2.4,0,0,0,13.14,27.4l5.693,2.751L21.759,24.1a2.393,2.393,0,0,0,.166-1.611A2.425,2.425,0,0,1,21.759,22.946Z"></path><rect width="3" height="3" x="35" y="45" fill="#f5c6b8"></rect><rect width="3" height="3" x="50" y="45" fill="#f5c6b8"></rect><circle cx="30.549" cy="34.991" r=".579" fill="#382916"></circle><circle cx="26.627" cy="34.991" r=".579" fill="#382916"></circle><path fill="#382916" d="M29.484,36.991a1.215,1.215,0,0,1-.9.854,1.2,1.2,0,0,1-.883-.854c0-.32.564-.579.883-.579S29.484,36.671,29.484,36.991Z"></path><path fill="#dd8936" d="M28.4,45.644a1,1,0,0,1-.93-1v-1.3a1,1,0,0,0-2,0V44.3a1,1,0,0,1-1.1,1c-.8-.086-1.6-.181-2.365-.291-4.14-.591-4.432-3.63-3.98-6.016A10.43,10.43,0,0,0,13.2,48H30a14.026,14.026,0,0,1,.191-2.241C29.609,45.726,29.007,45.687,28.4,45.644Z"></path><path fill="#d13636" d="M13.689 20.4a1 1 0 0 1-.991-.877l-.175-1.4a1 1 0 1 1 1.985-.247l.175 1.4a1 1 0 0 1-.869 1.116A1.063 1.063 0 0 1 13.689 20.4zM11.333 21.805A1 1 0 0 1 11 21.747l-1.333-.471a1 1 0 0 1 .666-1.886l1.333.471a1 1 0 0 1-.333 1.944z"></path><circle cx="32" cy="10" r="1" fill="#474747"></circle><ellipse cx="40.5" cy="31" fill="#382916" rx=".5" ry="1"></ellipse><ellipse cx="45.5" cy="31" fill="#382916" rx=".5" ry="1"></ellipse><path fill="#e0938e" d="M42.207,33h1.586a.5.5,0,0,1,.353.854l-.13.13a1.437,1.437,0,0,1-2.032,0l-.13-.13A.5.5,0,0,1,42.207,33Z"></path></svg>