<svg xmlns="http://www.w3.org/2000/svg" enable-background="new 0 0 467.162 496" viewBox="0 0 467.162 496" id="dog"><path fill="#c68642" d="M450.982,404.94c0,0,9.82-6.17,9.82-18.78c0-12.6-12.17-25.59-12.17-25.59s13.1-19,5.1-44.68
		c-8-25.68-41.29-49.57-41.29-49.57l-5,145.74c0,0,33.14,48.95,52.86,40.16C480.012,443.44,450.982,404.94,450.982,404.94z"></path><path fill="#e0ac69" d="M339.402,376.25l-13.29,72.49c-1.92,10.49,4.34,20.75,14.55,23.84c2.02,0.61,4.07,0.91,6.08,0.91
		c1.78,0,3.54-0.23,5.23-0.67l14.02-101.3L339.402,376.25z"></path><path fill="#f1c27d" d="M425.592,308.02c-1-15.68-6.32-29.76-13.15-41.7c-14.91-26.08-37-41.96-37-41.96l-9.45,147.16
		l-16.09,87.76c-0.87,4.78-0.05,9.51,2.07,13.54c2.53,4.81,6.92,8.62,12.48,10.3c2.02,0.61,4.07,0.9,6.08,0.9
		c8.89,0,17.13-5.7,19.96-14.61c4.55-14.31,10.89-35.02,16.95-57.35C417.692,374.28,427.112,331.87,425.592,308.02z"></path><path fill="#e0ac69" d="M120.072,345.18c-17.515-0.958-21.086,9.222-15.98,24.66l24.4,83.17
		c3.23,11.02,14.63,17.47,25.74,14.56c1.21-0.32,2.38-0.73,3.48-1.24C155.539,414.416,144.697,372.137,120.072,345.18z"></path><path fill="#f1c27d" d="M194.492,448.45l-13.17-72.2l-23.65-80.8l-27.15-0.73c-15.829,7.253-18.969,26.681-10.45,50.45v0.01
		l33.17,113.05c0.91,3.1,2.46,5.83,4.47,8.1c5.15,5.81,13.29,8.55,21.27,6.46c9.48-2.48,15.86-11.03,15.86-20.52
		C194.842,451.01,194.722,449.73,194.492,448.45z"></path><path fill="#fec4b9" d="M292.182 376.25l0 119.75h-71.87l0-119.75C243.093 367.226 267.155 368.038 292.182 376.25zM218.472 0v29.46c0 0-16.01 19.42-21.08 32.82-5.06 13.41-1.21 38.03-1.21 38.03l84.47-64.45V0H218.472z"></path><path fill="#5d5560" d="M346.922,95.13c-10.2-23.09-31.46-49.55-59.64-57.72c-2.17-0.63-4.38-1.15-6.63-1.55
		c-10.17-1.82-21.14-1.22-32.74,2.72c-25.75,8.74-42.13,37.37-51.73,61.73c-8.1,20.55-11.37,38.07-11.37,38.07
		c-8.519,26.191,5.196,34.735,21.68,33.16l128.92,23.06l31.79,5.71C367.112,199.14,361.332,127.76,346.922,95.13z"></path><path fill="#1ea6bc" d="M367.202,200.32c0,0,0,0,0-0.01c-4.14-3.56-9.53-5.71-15.41-5.71h-16.38
		c-44.947-24.624-90.643-16.668-136.54,0l-35.09,7.78c-3.8,4.2-6.11,9.76-6.11,15.87v10.71c7.33,4.25,12.73,11.18,14.64,19.69
		c2.42,10.8-2.87,35.24-14.64,46.8v57.15c0,13.06,10.59,23.65,23.65,23.65h38.99h71.87h47.22h12.39c5.32,0,10.24-1.76,14.2-4.73
		c5.74-4.31,9.45-11.18,9.45-18.92V224.36v-6.11C375.442,211.07,372.252,204.64,367.202,200.32z"></path><path fill="#ffdbac" d="M172.312,248.65c-1.91-8.51-7.31-15.44-14.64-19.69c-5.08-2.95-11.09-4.6-17.51-4.6
		c-15.69,0-26.46,12.91-26.46,12.91s-11.52-4.71-27.26-4.71c-15.74,0-27.26,4.71-27.26,4.71s-10.76-12.91-26.45-12.91
		c-15.7,0-28.93,9.89-32.16,24.29c-3.22,14.4,7.26,53.08,28.56,53.08c5.78,0,10.07-2.85,13.23-7.01c2.43,26.58,10,69.74,33.72,79.51
		l20.73-0.01c2.62-1.07,5.04-2.56,7.28-4.38c6.92-5.65,12.1-14.52,15.98-24.66v-0.01c6.24-16.31,9.12-35.87,10.45-50.45
		c3.17,4.16,7.45,7.01,13.23,7.01c5.33,0,9.98-2.42,13.92-6.28C169.442,283.89,174.732,259.45,172.312,248.65z"></path><path fill="#604533" d="M99.332,363.39c0,4.05-0.94,7.8-2.52,10.83c-3.16,1.32-6.61,2.03-10.37,2.03
		c-3.76,0-7.2-0.71-10.36-2.02c-1.59-3.03-2.53-6.78-2.53-10.84c0-10.07,5.77-18.22,12.89-18.22
		C93.562,345.17,99.332,353.32,99.332,363.39z"></path><path fill="#655f68" d="M340.002 327.08c.88 2.86.59 5.88-.81 8.53-1.4 2.64-3.74 4.58-6.6 5.46-1.07.33-2.18.5-3.29.5-4.93 0-9.23-3.16-10.69-7.87-.31-.99-5.97-18.24-24.4-27.8 1.2-1.38 2.25-2.91 3.14-4.58 2.4-4.52 5.05-9.56 7.8-14.92 8.58 4.6 15.06 10.29 19.77 15.51C335.732 313.89 339.592 325.76 340.002 327.08zM253.712 278.13c-.23.54-.47 1.07-.7 1.59-3.11 7.03-2.69 14.75.53 21.13-30.22 5.93-38.65 31.63-39.04 32.86-1.47 4.7-5.76 7.85-10.68 7.85-1.13 0-2.25-.17-3.33-.5-5.87-1.83-9.18-8.1-7.37-13.98.4-1.32 4.27-13.19 15.07-25.17C216.802 292.37 231.312 281.28 253.712 278.13z"></path><path fill="#fec4b9" d="M282.472,194.6l-83.6,0c-11.343-17.053-13.058-28.272,7.62-23.06c0,0,25.72-87.52,43.22-99.33
		c17.5-11.8,50.19,0.57,60.28,18.88c8.22,14.95,22.62,69.11,25.42,103.51c0.63,7.74,0.68,14.48-0.07,19.55
		c-2.27,15.4-17.32,47.17-30.19,72.25c-2.75,5.36-5.4,10.4-7.8,14.92c-0.89,1.67-1.94,3.2-3.14,4.58c-4.72,5.46-11.57,8.5-18.64,8.5
		c-3.52,0-7.08-0.75-10.46-2.33c-5.21-2.43-9.17-6.45-11.57-11.22c-3.22-6.38-3.64-14.1-0.53-21.13c0.23-0.52,0.47-1.05,0.7-1.59
		c10.99-24.93,26.74-62.88,28.5-79.36C282.352,197.44,282.442,196.05,282.472,194.6z"></path><path fill="#ffd7d2" d="M206.492,171.54c0,8.87-2.88,16.96-7.62,23.06c-5.41,6.97-13.25,11.35-21.96,11.35
		c-4.72,0-9.18-1.28-13.13-3.57c-9.74-5.63-16.44-17.32-16.44-30.84c0-19,13.24-34.41,29.57-34.41c2.74,0,5.39,0.43,7.9,1.25
		C197.312,142.39,206.492,155.72,206.492,171.54z"></path><path fill="#543927" d="M106.202 288.44c4.33 0 7.84 3.51 7.84 7.84s-3.51 7.84-7.84 7.84-7.83-3.51-7.83-7.84S101.872 288.44 106.202 288.44zM66.682 288.44c4.33 0 7.84 3.51 7.84 7.84s-3.51 7.84-7.84 7.84c-4.32 0-7.83-3.51-7.83-7.84S62.362 288.44 66.682 288.44z"></path><path fill="#e2bf96" d="M51.402 263.01c0 0 10.39 31.34-7.24 46.83-.8-5.37-1.38-10.49-1.8-15.12C50.892 283.56 51.402 263.01 51.402 263.01zM130.522 294.72c-.42 4.63-1 9.75-1.79 15.12-20.01-17.8-7.24-46.83-7.24-46.83S122.002 283.56 130.522 294.72z"></path><rect width="71.87" height="19.76" x="220.312" y="376.25" fill="#f7b6ad"></rect><path fill="#5d5560" d="M305.152,286.4c6,3.22,10.98,6.97,15.04,10.72c-4.22,7.11-8.76,13.28-13.27,18.17
		c-3.33-3.39-7.51-6.69-12.71-9.39c1.2-1.38,2.25-2.91,3.14-4.58C299.752,296.8,302.402,291.76,305.152,286.4z"></path><path fill="#1498b7" d="M294.212 305.9c5.2 2.7 9.38 6 12.71 9.39-4.38 4.77-8.73 8.32-12.71 10.31-23.59 11.8-29.1-13.53-29.1-13.53 3.38 1.58 6.94 2.33 10.46 2.33C282.642 314.4 289.492 311.36 294.212 305.9zM335.412 194.6c12.49 34.77.9 75.43-15.22 102.52-4.06-3.75-9.04-7.5-15.04-10.72 12.87-25.08 27.92-56.85 30.19-72.25C336.092 209.08 336.042 202.34 335.412 194.6z"></path><path fill="#f7b6ad" d="M266.572 123.67c.49 1.33 16.52 44.9 15.9 70.93h-19.24C277.442 179.11 266.872 125.22 266.572 123.67zM309.992 91.09c2.79 5.08 6.3 14.68 9.82 26.51-47.79-70.97-89.59-12.43-90.41-11.28 6.79-16.06 14.07-29.9 20.31-34.11C267.212 60.41 299.902 72.78 309.992 91.09z"></path></svg>