<svg xmlns="http://www.w3.org/2000/svg" enable-background="new 0 0 64 64" viewBox="0 0 64 64" id="studying"><g display="none"><path fill="#A7A9AC" stroke="#000" stroke-linecap="round" stroke-linejoin="round" stroke-miterlimit="10" stroke-width="2" d="
		M62,62V46.014c0-2.948-1.798-5.598-4.538-6.687l-5.84-2.321l-11.998-0.445l-6.241,2.6c-2.183,0.909-3.949,2.599-4.955,4.739
		L19.919,62H62z"></path><circle cx="26.808" cy="24.841" r="3.647" fill="#A7A9AC" stroke="#000" stroke-linecap="round" stroke-linejoin="round" stroke-miterlimit="10" stroke-width="2"></circle><path fill="#A7A9AC" stroke="#000" stroke-linecap="round" stroke-linejoin="round" stroke-miterlimit="10" stroke-width="2" d="M36.952 2.337L36.952 2.337c6.243-1.382 12.64 1.58 15.626 7.235l3.769 7.138c1.328 2.515.813 5.607-1.259 7.555l-2.742 2.579-.593 2.263c-.473 1.804-2.175 3.006-4.034 2.848l-8.755-.745-12.763-9.104-4.047-.027c-1.612-.011-2.756-1.576-2.277-3.115l.997-3.204-1.546-.9c-1.629-.948-1.808-3.232-.348-4.423l2.085-1.701c3.19-2.603 6.946-4.422 10.966-5.311L36.952 2.337zM22.578 43.832l-3.87-18.836c-.213-1.035-1.124-1.778-2.18-1.778h0c-1.331 0-2.365 1.161-2.211 2.483l.159 1.366H4.567c-1.128 0-2.01.974-1.898 2.097l.505 5.053c.087.869.753 1.568 1.617 1.697l7.351 1.094.376 6.825H22.578z"></path><line x1="7.772" x2="2.967" y1="30.047" y2="30.047" fill="none" stroke="#000" stroke-linecap="round" stroke-linejoin="round" stroke-miterlimit="10" stroke-width="2"></line><line x1="7.772" x2="3.667" y1="32.935" y2="32.935" fill="none" stroke="#000" stroke-linecap="round" stroke-linejoin="round" stroke-miterlimit="10" stroke-width="2"></line><path fill="none" stroke="#000" stroke-linecap="round" stroke-linejoin="round" stroke-miterlimit="10" stroke-width="2" d="
		M14.474,27.066c-1.237,1.62-1.161,3.643-0.6,4.934"></path><path fill="#A7A9AC" stroke="#000" stroke-linecap="round" stroke-linejoin="round" stroke-miterlimit="10" stroke-width="2" d="
		M45.421,27.553l1.631,7.368l4.57,2.086c-1.29,2.399-3.839,4.389-6.891,5.064c-3.052,0.675-6.452-1.358-7.538-4.496l2.417-1.007
		L37.979,29.2L45.421,27.553z"></path><path fill="#A7A9AC" stroke="#000" stroke-linecap="round" stroke-linejoin="round" stroke-miterlimit="10" stroke-width="2" d="
		M38.442,10.842c1.635,2.768,4.417,4.93,8.216,6.556l0.786,3.552c1.252,5.659-2.32,11.262-7.979,12.514l0,0
		c-5.659,1.252-11.263-2.324-12.515-7.983c-0.232-1.047-0.686-3.102-1.073-4.847c-0.344-1.554,0.641-3.09,2.196-3.426
		C32.454,16.261,35.834,14.042,38.442,10.842z"></path><line x1="40.04" x2="40.251" y1="20.204" y2="21.159" fill="none" stroke="#000" stroke-linecap="round" stroke-linejoin="round" stroke-miterlimit="10" stroke-width="2"></line><line x1="30.925" x2="31.137" y1="22.221" y2="23.176" fill="none" stroke="#000" stroke-linecap="round" stroke-linejoin="round" stroke-miterlimit="10" stroke-width="2"></line><path fill="none" stroke="#000" stroke-linecap="round" stroke-linejoin="round" stroke-miterlimit="10" stroke-width="2" d="M41.406 17.529c-.409-.436-1.21-.631-2.056-.444-.847.187-1.49.702-1.677 1.27M28.862 20.305c.139-.557.664-1.046 1.373-1.203.709-.157 1.392.064 1.752.511"></path><path fill="#A7A9AC" stroke="#000" stroke-linecap="round" stroke-linejoin="round" stroke-miterlimit="10" stroke-width="2" d="M36.684 26.643L36.684 26.643c1.246-.276 2.032-1.509 1.757-2.755l-.167-.753-4.512.998.167.753C34.205 26.132 35.439 26.919 36.684 26.643zM49.482 19.793l-4.249-.349L46.44 4.759c.096-1.173 1.126-2.046 2.299-1.95l0 0c1.173.096 2.046 1.126 1.95 2.299L49.482 19.793z"></path><circle cx="47.301" cy="20.306" r="3.647" fill="#A7A9AC" stroke="#000" stroke-linecap="round" stroke-linejoin="round" stroke-miterlimit="10" stroke-width="2"></circle><path fill="#A7A9AC" stroke="#000" stroke-linecap="round" stroke-linejoin="round" stroke-miterlimit="10" stroke-width="2" d="
		M43.465,52.284l-3.117-0.745l2.332-9.752c0.206-0.861,1.07-1.392,1.931-1.186h0c0.861,0.206,1.392,1.07,1.186,1.931L43.465,52.284z
		"></path><path fill="#A7A9AC" stroke="#000" stroke-linecap="round" stroke-linejoin="round" stroke-miterlimit="10" stroke-width="2" d="
		M45.498,49.504h-5.935c-1.148,0-2.168,0.733-2.535,1.821l-2.042,6.065L40,62h22L48.45,50.582
		C47.624,49.885,46.578,49.504,45.498,49.504z"></path><line x1="36.504" x2="39.567" y1="53.528" y2="53.528" fill="none" stroke="#000" stroke-linecap="round" stroke-linejoin="round" stroke-miterlimit="10" stroke-width="2"></line><path fill="#A7A9AC" stroke="#000" stroke-linecap="round" stroke-linejoin="round" stroke-miterlimit="10" stroke-width="2" d="
		M28.652,57.389H40c1.273,0,2.305,1.032,2.305,2.305v0C42.306,60.968,41.274,62,40,62H28.652V57.389z"></path><path fill="#A7A9AC" stroke="#000" stroke-linecap="round" stroke-linejoin="round" stroke-miterlimit="10" stroke-width="2" d="
		M26.623,40.845H4.213c-1.353,0-2.389,1.204-2.188,2.542l2.502,16.606C4.701,61.147,5.692,62,6.859,62h24.981l-2.885-19.148
		C28.781,41.698,27.79,40.845,26.623,40.845z"></path><path fill="#A7A9AC" stroke="#000" stroke-linecap="round" stroke-linejoin="round" stroke-miterlimit="10" stroke-width="2" d="
		M18.342,51.422c0,1.412-1.145,2.557-2.557,2.557c-1.412,0-2.557-1.145-2.557-2.557s1.145-2.557,2.557-2.557
		C17.197,48.865,18.342,50.01,18.342,51.422z"></path></g><g display="none"><path fill="#F34E60" d="M62,62V46.014c0-2.948-1.798-5.598-4.538-6.687l-5.84-2.321l-11.998-0.445l-6.241,2.6
		c-2.183,0.909-3.949,2.599-4.955,4.739L19.919,62H62z"></path><circle cx="26.808" cy="24.841" r="4.159" fill="#6D3552"></circle><path fill="#FAF3E0" d="M36.952,2.337L36.952,2.337c6.243-1.382,12.64,1.58,15.626,7.235l3.769,7.138
		c1.328,2.515,0.813,5.607-1.259,7.555l-2.742,2.579l-0.593,2.263c-0.473,1.804-2.175,3.006-4.034,2.848l-8.755-0.745l-12.763-9.104
		l-4.047-0.027c-1.612-0.011-2.756-1.576-2.277-3.115l0.997-3.204l-1.546-0.9c-1.629-0.948-1.808-3.232-0.348-4.423l2.085-1.701
		c3.19-2.603,6.946-4.422,10.966-5.311L36.952,2.337z"></path><path fill="#FAAD95" d="M45.421,27.553l1.631,7.368l4.57,2.086c-1.29,2.399-3.839,4.389-6.891,5.064
		c-3.052,0.675-6.452-1.358-7.538-4.496l2.417-1.007L37.979,29.2L45.421,27.553z"></path><path fill="#FAAD95" d="M38.442,10.842c1.635,2.768,4.417,4.93,8.216,6.556l0.786,3.552
		c1.252,5.659-2.32,11.262-7.979,12.514l0,0c-5.659,1.252-11.263-2.324-12.515-7.983c-0.232-1.047-0.686-3.102-1.073-4.847
		c-0.344-1.554,0.641-3.09,2.196-3.426C32.454,16.261,35.834,14.042,38.442,10.842z"></path><path fill="#6D3552" d="M40.25,22.159c-0.458,0-0.872-0.317-0.976-0.784l-0.211-0.955
		c-0.119-0.54,0.221-1.073,0.76-1.193c0.537-0.118,1.073,0.221,1.193,0.76l0.211,0.955c0.119,0.54-0.221,1.073-0.76,1.193
		C40.395,22.152,40.322,22.159,40.25,22.159z M31.353,24.153c0.539-0.12,0.879-0.653,0.76-1.193l-0.211-0.955
		c-0.12-0.539-0.655-0.88-1.193-0.76c-0.539,0.12-0.879,0.653-0.76,1.193l0.211,0.955c0.104,0.466,0.517,0.784,0.976,0.784
		C31.208,24.176,31.28,24.169,31.353,24.153z"></path><path fill="#FAF3E0" d="M37.672,19.356c-0.104,0-0.209-0.017-0.313-0.051c-0.524-0.173-0.81-0.738-0.637-1.263
		c0.307-0.931,1.23-1.672,2.411-1.934c1.183-0.258,2.331,0.021,3.001,0.736c0.378,0.402,0.358,1.035-0.044,1.414
		c-0.402,0.377-1.035,0.358-1.414-0.044c-0.129-0.137-0.558-0.275-1.111-0.152c-0.553,0.123-0.885,0.428-0.943,0.606
		C38.483,19.089,38.093,19.356,37.672,19.356z M29.832,20.547c0.043-0.174,0.27-0.391,0.619-0.468
		c0.35-0.076,0.646,0.023,0.759,0.163c0.347,0.429,0.977,0.495,1.407,0.149c0.429-0.348,0.496-0.977,0.149-1.407
		c-0.611-0.755-1.691-1.093-2.746-0.858c-1.058,0.234-1.894,0.995-2.128,1.938c-0.134,0.536,0.193,1.079,0.729,1.212
		c0.081,0.021,0.163,0.03,0.243,0.03C29.311,21.305,29.719,21.001,29.832,20.547z"></path><path fill="#F78177" d="M36.684,26.643L36.684,26.643c1.246-0.276,2.032-1.509,1.757-2.755v0
		c-0.092-0.416-0.504-0.679-0.92-0.587l-3.005,0.665c-0.416,0.092-0.679,0.504-0.587,0.92v0
		C34.205,26.132,35.439,26.919,36.684,26.643z"></path><path fill="#6D3552" d="M51.247 19.432c-.218-.986-.79-1.794-1.542-2.354l.984-11.97c.096-1.173-.777-2.203-1.95-2.299-1.173-.096-2.203.777-2.299 1.95l-.983 11.967c-1.591.82-2.506 2.622-2.101 4.452.482 2.179 2.64 3.555 4.819 3.073C50.353 23.769 51.729 21.612 51.247 19.432zM43.465 52.284l-3.117-.745 2.332-9.752c.206-.861 1.07-1.392 1.931-1.186h0c.861.206 1.392 1.07 1.186 1.931L43.465 52.284z"></path><path fill="#FAAD95" d="M12.518,43.832l-0.376-6.825l-7.351-1.094c-0.864-0.129-1.53-0.828-1.617-1.697
		l-0.505-5.053c-0.112-1.123,0.769-2.097,1.898-2.097h9.908L14.316,25.7c-0.154-1.322,0.88-2.483,2.211-2.483h0
		c1.057,0,1.968,0.743,2.18,1.778l3.87,18.836H12.518z M45.498,49.504h-5.935c-1.148,0-2.168,0.733-2.535,1.821l-2.042,6.065L40,62
		h22L48.45,50.582C47.624,49.885,46.578,49.504,45.498,49.504z"></path><path fill="#4F5EB5" d="M28.652,57.389H40c1.273,0,2.305,1.032,2.305,2.305v0C42.306,60.968,41.274,62,40,62
		H28.652V57.389z"></path><path fill="#FAF3E0" d="M26.623,40.845H4.213c-1.353,0-2.389,1.204-2.188,2.542l2.502,16.606
		C4.701,61.147,5.692,62,6.859,62h24.981l-2.885-19.148C28.781,41.698,27.79,40.845,26.623,40.845z"></path><path fill="#4F5EB5" d="M18.342,51.422c0,1.412-1.145,2.557-2.557,2.557c-1.412,0-2.557-1.145-2.557-2.557
		s1.145-2.557,2.557-2.557C17.197,48.865,18.342,50.01,18.342,51.422z"></path><path fill="#F78177" d="M7.772,31.047H4.542c-0.552,0-1-0.448-1-1s0.448-1,1-1h3.229c0.552,0,1,0.448,1,1
		S8.324,31.047,7.772,31.047z M8.772,32.935c0-0.552-0.448-1-1-1H4.79c-0.552,0-1,0.448-1,1s0.448,1,1,1h2.982
		C8.324,33.935,8.772,33.487,8.772,32.935z M14.273,32.917c0.506-0.22,0.739-0.809,0.519-1.315c-0.329-0.757-0.397-1.714-0.183-2.56
		c0.136-0.535-0.188-1.079-0.724-1.215c-0.536-0.138-1.08,0.188-1.215,0.724c-0.324,1.279-0.22,2.681,0.287,3.848
		C13.121,32.775,13.489,33,13.875,33C14.008,33,14.143,32.974,14.273,32.917z M41.54,53.528c0-0.552-0.448-1-1-1h-2.235
		c-0.552,0-1,0.448-1,1s0.448,1,1,1h2.235C41.092,54.528,41.54,54.08,41.54,53.528z M39.464,33.464L39.464,33.464
		c-0.174,0.039-0.348,0.059-0.522,0.088l0.432,1.951c0.008,0.005,0.013,0.009,0.021,0.014c1.925-0.345,3.655-1.115,5.127-2.189
		c0.346-0.252,0.475-0.711,0.338-1.117h0c-0.218-0.647-0.994-0.875-1.547-0.475C42.194,32.545,40.899,33.146,39.464,33.464z"></path></g><g display="none"><path fill="#F34E60" d="M62,62V46.014c0-2.948-1.798-5.598-4.538-6.687l-5.84-2.321l-11.998-0.445l-6.241,2.6
		c-2.183,0.909-3.949,2.599-4.955,4.739L19.919,62H62z"></path><circle cx="26.808" cy="24.841" r="4.159" fill="#6D3552"></circle><path fill="#FAF3E0" d="M36.952,2.337L36.952,2.337c6.243-1.382,12.64,1.58,15.626,7.235l3.769,7.138
		c1.328,2.515,0.813,5.607-1.259,7.555l-2.742,2.579l-0.593,2.263c-0.473,1.804-2.175,3.006-4.034,2.848l-8.755-0.745l-12.763-9.104
		l-4.047-0.027c-1.612-0.011-2.756-1.576-2.277-3.115l0.997-3.204l-1.546-0.9c-1.629-0.948-1.808-3.232-0.348-4.423l2.085-1.701
		c3.19-2.603,6.946-4.422,10.966-5.311L36.952,2.337z"></path><path fill="#FAAD95" d="M45.421,27.553l1.631,7.368l4.57,2.086c-1.29,2.399-3.839,4.389-6.891,5.064
		c-3.052,0.675-6.452-1.358-7.538-4.496l2.417-1.007L37.979,29.2L45.421,27.553z"></path><path fill="#FAAD95" d="M38.442,10.842c1.635,2.768,4.417,4.93,8.216,6.556l0.786,3.552
		c1.252,5.659-2.32,11.262-7.979,12.514l0,0c-5.659,1.252-11.263-2.324-12.515-7.983c-0.232-1.047-0.686-3.102-1.073-4.847
		c-0.344-1.554,0.641-3.09,2.196-3.426C32.454,16.261,35.834,14.042,38.442,10.842z"></path><path fill="#F78177" d="M36.684,26.643L36.684,26.643c1.246-0.276,2.032-1.509,1.757-2.755v0
		c-0.092-0.416-0.504-0.679-0.92-0.587l-3.005,0.665c-0.416,0.092-0.679,0.504-0.587,0.92v0
		C34.205,26.132,35.439,26.919,36.684,26.643z"></path><path fill="#6D3552" d="M51.247 19.432c-.218-.986-.79-1.794-1.542-2.354l.984-11.97c.096-1.173-.777-2.203-1.95-2.299-1.173-.096-2.203.777-2.299 1.95l-.983 11.967c-1.591.82-2.506 2.622-2.101 4.452.482 2.179 2.64 3.555 4.819 3.073C50.353 23.769 51.729 21.612 51.247 19.432zM43.465 52.284l-3.117-.745 2.332-9.752c.206-.861 1.07-1.392 1.931-1.186h0c.861.206 1.392 1.07 1.186 1.931L43.465 52.284z"></path><path fill="#FAAD95" d="M12.518,43.832l-0.376-6.825l-7.351-1.094c-0.864-0.129-1.53-0.828-1.617-1.697
		l-0.505-5.053c-0.112-1.123,0.769-2.097,1.898-2.097h9.908L14.316,25.7c-0.154-1.322,0.88-2.483,2.211-2.483h0
		c1.057,0,1.968,0.743,2.18,1.778l3.87,18.836H12.518z M45.498,49.504h-5.935c-1.148,0-2.168,0.733-2.535,1.821l-2.042,6.065L40,62
		h22L48.45,50.582C47.624,49.885,46.578,49.504,45.498,49.504z"></path><path fill="#4F5EB5" d="M28.652,57.389H40c1.273,0,2.305,1.032,2.305,2.305v0C42.306,60.968,41.274,62,40,62
		H28.652V57.389z"></path><path fill="#FAF3E0" d="M26.623,40.845H4.213c-1.353,0-2.389,1.204-2.188,2.542l2.502,16.606
		C4.701,61.147,5.692,62,6.859,62h24.981l-2.885-19.148C28.781,41.698,27.79,40.845,26.623,40.845z"></path><path fill="#4F5EB5" d="M18.342,51.422c0,1.412-1.145,2.557-2.557,2.557c-1.412,0-2.557-1.145-2.557-2.557
		s1.145-2.557,2.557-2.557C17.197,48.865,18.342,50.01,18.342,51.422z"></path></g><g display="none"><path fill="none" stroke="#000" stroke-linejoin="round" stroke-miterlimit="10" stroke-width="2" d="M28.96 42.93c1.04-1.68 2.58-3 4.42-3.77l6.23-2.59v-.01M51.62 37.01l5.84 2.32C60.2 40.42 62 43.07 62 46.01V62H31.84 19.92M24.41 22.1c-.97.84-1.46 2.18-1.16 3.53.43 1.96 2.38 3.21 4.35 2.77.14-.03.28-.07.41-.12M50.56 6.7c.79.86 1.46 1.82 2.02 2.87l3.77 7.14c1.33 2.51.81 5.61-1.26 7.55l-2.74 2.58-.6 2.27c-.47 1.8-2.17 3-4.03 2.84l-1.35-.12"></path><path fill="none" stroke="#000" stroke-linejoin="round" stroke-miterlimit="10" stroke-width="2" d="M26.21 22.12l-.01-.01-4.04-.03c-1.62-.01-2.76-1.58-2.28-3.12l1-3.2-1.55-.9c-1.63-.95-1.81-3.23-.35-4.42l2.09-1.7c3.19-2.61 6.94-4.43 10.96-5.31l4.92-1.09c3.44-.77 6.93-.21 9.86 1.4M12.35 40.84l-.21-3.83-7.35-1.1c-.86-.13-1.53-.82-1.62-1.69l-.5-5.06c-.11-1.12.77-2.09 1.9-2.09h9.9l-.15-1.37c-.01-.09-.02-.18-.02-.27 0-1.2.99-2.21 2.23-2.21 1.05 0 1.96.74 2.18 1.78l3.26 15.84"></path><line x1="7.772" x2="2.967" y1="30.047" y2="30.047" fill="none" stroke="#000" stroke-linecap="round" stroke-linejoin="round" stroke-miterlimit="10" stroke-width="2"></line><line x1="7.772" x2="3.667" y1="32.935" y2="32.935" fill="none" stroke="#000" stroke-linecap="round" stroke-linejoin="round" stroke-miterlimit="10" stroke-width="2"></line><path fill="none" stroke="#000" stroke-linecap="round" stroke-linejoin="round" stroke-miterlimit="10" stroke-width="2" d="
		M14.474,27.066c-1.237,1.62-1.161,3.643-0.6,4.934"></path><path fill="none" stroke="#000" stroke-linejoin="round" stroke-miterlimit="10" stroke-width="2" d="M38.94 33.56l.67 3.01-2.42 1.01c.84 2.41 3.04 4.17 5.41 4.54M45.79 29.23l1.26 5.69 4.57 2.09c-1.14 2.12-3.25 3.91-5.83 4.77"></path><path fill="none" stroke="#000" stroke-linejoin="round" stroke-miterlimit="10" stroke-width="2" d="
		M45.45,16.84c-3.19-1.55-5.55-3.53-7.01-6c-2.61,3.2-5.99,5.42-10.37,6.37c-1.55,0.33-2.54,1.87-2.19,3.42
		c0.38,1.75,0.84,3.8,1.07,4.85c1.08,4.89,5.42,8.23,10.23,8.23c0.75,0,1.52-0.08,2.28-0.25c4.65-1.03,7.9-5,8.2-9.52"></path><line x1="40.04" x2="40.251" y1="20.204" y2="21.159" fill="none" stroke="#000" stroke-linecap="round" stroke-linejoin="round" stroke-miterlimit="10" stroke-width="2"></line><line x1="30.925" x2="31.137" y1="22.221" y2="23.176" fill="none" stroke="#000" stroke-linecap="round" stroke-linejoin="round" stroke-miterlimit="10" stroke-width="2"></line><path fill="none" stroke="#000" stroke-linecap="round" stroke-linejoin="round" stroke-miterlimit="10" stroke-width="2" d="M41.406 17.529c-.409-.436-1.21-.631-2.056-.444-.847.187-1.49.702-1.677 1.27M28.862 20.305c.139-.557.664-1.046 1.373-1.203.709-.157 1.392.064 1.752.511"></path><path fill="none" stroke="#000" stroke-linejoin="round" stroke-miterlimit="10" stroke-width="2" d="M36.684 26.643L36.684 26.643c1.246-.276 2.032-1.509 1.757-2.755l-.167-.753-4.512.998.167.753C34.205 26.132 35.439 26.919 36.684 26.643zM45.42 17.19l1.02-12.43c.1-1.17 1.13-2.05 2.3-1.95 1.11.1 1.96 1.03 1.96 2.13 0 .06-.01.11-.01.17l-1.02 12.42"></path><circle cx="47.301" cy="20.306" r="3.647" fill="none" stroke="#000" stroke-linejoin="round" stroke-miterlimit="10" stroke-width="2"></circle><path fill="none" stroke="#000" stroke-linejoin="round" stroke-miterlimit="10" stroke-width="2" d="M40.84 49.5l1.84-7.71c.21-.86 1.07-1.39 1.93-1.19.74.18 1.23.84 1.23 1.56 0 .12-.01.25-.04.37l-1.67 6.97M40 62h22L48.45 50.58c-.83-.69-1.87-1.08-2.95-1.08h-5.94c-1.15 0-2.17.74-2.53 1.82l-2.04 6.07"></path><line x1="36.504" x2="39.567" y1="53.528" y2="53.528" fill="none" stroke="#000" stroke-linecap="round" stroke-linejoin="round" stroke-miterlimit="10" stroke-width="2"></line><path fill="none" stroke="#000" stroke-linejoin="round" stroke-miterlimit="10" stroke-width="2" d="
		M28.65,62h3.19H40c0.64,0,1.21-0.26,1.63-0.68c0.42-0.41,0.68-0.99,0.68-1.63c0-1.27-1.04-2.3-2.31-2.3h-8.86"></path><path fill="none" stroke="#000" stroke-linejoin="round" stroke-miterlimit="10" stroke-width="2" d="
		M26.623,40.845H4.213c-1.353,0-2.389,1.204-2.188,2.542l2.502,16.606C4.701,61.147,5.692,62,6.859,62h24.981l-2.885-19.148
		C28.781,41.698,27.79,40.845,26.623,40.845z"></path><path fill="none" stroke="#000" stroke-linejoin="round" stroke-miterlimit="10" stroke-width="2" d="
		M18.342,51.422c0,1.412-1.145,2.557-2.557,2.557c-1.412,0-2.557-1.145-2.557-2.557s1.145-2.557,2.557-2.557
		C17.197,48.865,18.342,50.01,18.342,51.422z"></path></g><g display="none"><path fill="none" stroke="#000" stroke-linejoin="round" stroke-miterlimit="10" stroke-width="2" d="
		M28.96,42.93c1.04-1.68,2.58-3,4.42-3.77l6.23-2.59v-0.01"></path><line x1="31.84" x2="19.92" y1="62" y2="62" fill="none" stroke="#000" stroke-linejoin="round" stroke-miterlimit="10" stroke-width="2"></line><path fill="none" stroke="#000" stroke-linejoin="round" stroke-miterlimit="10" stroke-width="2" d="M24.41 22.1c-.97.84-1.46 2.18-1.16 3.53.43 1.96 2.38 3.21 4.35 2.77.14-.03.28-.07.41-.12M50.56 6.7c.79.86 1.46 1.82 2.02 2.87l3.77 7.14c1.33 2.51.81 5.61-1.26 7.55l-2.74 2.58-.6 2.27c-.47 1.8-2.17 3-4.03 2.84l-1.35-.12"></path><path fill="none" stroke="#000" stroke-linejoin="round" stroke-miterlimit="10" stroke-width="2" d="M26.21 22.12l-.01-.01-4.04-.03c-1.62-.01-2.76-1.58-2.28-3.12l1-3.2-1.55-.9c-1.63-.95-1.81-3.23-.35-4.42l2.09-1.7c3.19-2.61 6.94-4.43 10.96-5.31l4.92-1.09c3.44-.77 6.93-.21 9.86 1.4M12.35 40.84l-.21-3.83-7.35-1.1c-.86-.13-1.53-.82-1.62-1.69l-.5-5.06c-.11-1.12.77-2.09 1.9-2.09h9.9l-.15-1.37c-.01-.09-.02-.18-.02-.27 0-1.2.99-2.21 2.23-2.21 1.05 0 1.96.74 2.18 1.78l3.26 15.84"></path><line x1="7.772" x2="2.967" y1="30.047" y2="30.047" fill="none" stroke="#000" stroke-linecap="round" stroke-linejoin="round" stroke-miterlimit="10" stroke-width="2"></line><line x1="7.772" x2="3.667" y1="32.935" y2="32.935" fill="none" stroke="#000" stroke-linecap="round" stroke-linejoin="round" stroke-miterlimit="10" stroke-width="2"></line><path fill="none" stroke="#000" stroke-linecap="round" stroke-linejoin="round" stroke-miterlimit="10" stroke-width="2" d="
		M14.474,27.066c-1.237,1.62-1.161,3.643-0.6,4.934"></path><path fill="none" stroke="#000" stroke-linejoin="round" stroke-miterlimit="10" stroke-width="2" d="M38.94 33.56l.67 3.01-2.42 1.01c.84 2.41 3.04 4.17 5.41 4.54M45.79 29.23l1.26 5.69 4.57 2.09c-1.14 2.12-3.25 3.91-5.83 4.77"></path><path fill="none" stroke="#000" stroke-linejoin="round" stroke-miterlimit="10" stroke-width="2" d="
		M45.45,16.84c-3.19-1.55-5.55-3.53-7.01-6c-2.61,3.2-5.99,5.42-10.37,6.37c-1.55,0.33-2.54,1.87-2.19,3.42
		c0.38,1.75,0.84,3.8,1.07,4.85c1.08,4.89,5.42,8.23,10.23,8.23c0.75,0,1.52-0.08,2.28-0.25c4.65-1.03,7.9-5,8.2-9.52"></path><line x1="40.04" x2="40.251" y1="20.204" y2="21.159" fill="none" stroke="#000" stroke-linecap="round" stroke-linejoin="round" stroke-miterlimit="10" stroke-width="2"></line><line x1="30.925" x2="31.137" y1="22.221" y2="23.176" fill="none" stroke="#000" stroke-linecap="round" stroke-linejoin="round" stroke-miterlimit="10" stroke-width="2"></line><path fill="none" stroke="#000" stroke-linecap="round" stroke-linejoin="round" stroke-miterlimit="10" stroke-width="2" d="M41.406 17.529c-.409-.436-1.21-.631-2.056-.444-.847.187-1.49.702-1.677 1.27M28.862 20.305c.139-.557.664-1.046 1.373-1.203.709-.157 1.392.064 1.752.511"></path><path fill="none" stroke="#000" stroke-linejoin="round" stroke-miterlimit="10" stroke-width="2" d="M36.684 26.643L36.684 26.643c1.246-.276 2.032-1.509 1.757-2.755l-.167-.753-4.512.998.167.753C34.205 26.132 35.439 26.919 36.684 26.643zM45.42 17.19l1.02-12.43c.1-1.17 1.13-2.05 2.3-1.95 1.11.1 1.96 1.03 1.96 2.13 0 .06-.01.11-.01.17l-1.02 12.42"></path><circle cx="47.301" cy="20.306" r="3.647" fill="none" stroke="#000" stroke-linejoin="round" stroke-miterlimit="10" stroke-width="2"></circle><path fill="none" stroke="#000" stroke-linejoin="round" stroke-miterlimit="10" stroke-width="2" d="
		M40.84,49.5l1.84-7.71c0.21-0.86,1.07-1.39,1.93-1.19c0.74,0.18,1.23,0.84,1.23,1.56c0,0.12-0.01,0.25-0.04,0.37l-1.67,6.97"></path><path fill="none" stroke="#000" stroke-linejoin="round" stroke-miterlimit="10" stroke-width="2" d="
		M34.99,57.39l2.04-6.07c0.36-1.08,1.38-1.82,2.53-1.82h5.94c1.08,0,2.12,0.39,2.95,1.08L62,62V46.01c0-2.94-1.8-5.59-4.54-6.68
		l-5.84-2.32"></path><line x1="36.504" x2="39.567" y1="53.528" y2="53.528" fill="none" stroke="#000" stroke-linecap="round" stroke-linejoin="round" stroke-miterlimit="10" stroke-width="2"></line><path fill="none" stroke="#000" stroke-linejoin="round" stroke-miterlimit="10" stroke-width="2" d="
		M28.65,62h3.19H40c0.64,0,1.21-0.26,1.63-0.68c0.42-0.41,0.68-0.99,0.68-1.63c0-1.27-1.04-2.3-2.31-2.3h-8.86"></path><path fill="none" stroke="#000" stroke-linejoin="round" stroke-miterlimit="10" stroke-width="2" d="
		M26.623,40.845H4.213c-1.353,0-2.389,1.204-2.188,2.542l2.502,16.606C4.701,61.147,5.692,62,6.859,62h24.981l-2.885-19.148
		C28.781,41.698,27.79,40.845,26.623,40.845z"></path><path fill="none" stroke="#000" stroke-linejoin="round" stroke-miterlimit="10" stroke-width="2" d="
		M18.342,51.422c0,1.412-1.145,2.557-2.557,2.557c-1.412,0-2.557-1.145-2.557-2.557s1.145-2.557,2.557-2.557
		C17.197,48.865,18.342,50.01,18.342,51.422z"></path></g><path fill="#F34E60" d="M62,62V46.014c0-2.948-1.798-5.598-4.538-6.687l-5.84-2.321l-11.998-0.445l-6.241,2.6
		c-2.183,0.909-3.949,2.599-4.955,4.739L19.919,62H62z"></path><circle cx="26.808" cy="24.841" r="4.159" fill="#6D3552"></circle><path fill="#FAF3E0" d="M36.952,2.337L36.952,2.337c6.243-1.382,12.64,1.58,15.626,7.235l3.769,7.138
		c1.328,2.515,0.813,5.607-1.259,7.555l-2.742,2.579l-0.593,2.263c-0.473,1.804-2.175,3.006-4.034,2.848l-8.755-0.745l-12.763-9.104
		l-4.047-0.027c-1.612-0.011-2.756-1.576-2.277-3.115l0.997-3.204l-1.546-0.9c-1.629-0.948-1.808-3.232-0.348-4.423l2.085-1.701
		c3.19-2.603,6.946-4.422,10.966-5.311L36.952,2.337z"></path><path fill="#FAAD95" d="M45.421,27.553l1.631,7.368l4.57,2.086c-1.29,2.399-3.839,4.389-6.891,5.064
		c-3.052,0.675-6.452-1.358-7.538-4.496l2.417-1.007L37.979,29.2L45.421,27.553z"></path><path fill="#FAAD95" d="M38.442,10.842c1.635,2.768,4.417,4.93,8.216,6.556l0.786,3.552c1.252,5.659-2.32,11.262-7.979,12.514l0,0
		c-5.659,1.252-11.263-2.324-12.515-7.983c-0.232-1.047-0.686-3.102-1.073-4.847c-0.344-1.554,0.641-3.09,2.196-3.426
		C32.454,16.261,35.834,14.042,38.442,10.842z"></path><path fill="#6D3552" d="M40.25,22.159c-0.458,0-0.872-0.317-0.976-0.784l-0.211-0.955c-0.119-0.54,0.221-1.073,0.76-1.193
		c0.537-0.118,1.073,0.221,1.193,0.76l0.211,0.955c0.119,0.54-0.221,1.073-0.76,1.193C40.395,22.152,40.322,22.159,40.25,22.159z
		 M31.353,24.153c0.539-0.12,0.879-0.653,0.76-1.193l-0.211-0.955c-0.12-0.539-0.655-0.88-1.193-0.76
		c-0.539,0.12-0.879,0.653-0.76,1.193l0.211,0.955c0.104,0.466,0.517,0.784,0.976,0.784C31.208,24.176,31.28,24.169,31.353,24.153z"></path><path fill="#FAF3E0" d="M37.672,19.356c-0.104,0-0.209-0.017-0.313-0.051c-0.524-0.173-0.81-0.738-0.637-1.263
		c0.307-0.931,1.23-1.672,2.411-1.934c1.183-0.258,2.331,0.021,3.001,0.736c0.378,0.402,0.358,1.035-0.044,1.414
		c-0.402,0.377-1.035,0.358-1.414-0.044c-0.129-0.137-0.558-0.275-1.111-0.152c-0.553,0.123-0.885,0.428-0.943,0.606
		C38.483,19.089,38.093,19.356,37.672,19.356z M29.832,20.547c0.043-0.174,0.27-0.391,0.619-0.468
		c0.35-0.076,0.646,0.023,0.759,0.163c0.347,0.429,0.977,0.495,1.407,0.149c0.429-0.348,0.496-0.977,0.149-1.407
		c-0.611-0.755-1.691-1.093-2.746-0.858c-1.058,0.234-1.894,0.995-2.128,1.938c-0.134,0.536,0.193,1.079,0.729,1.212
		c0.081,0.021,0.163,0.03,0.243,0.03C29.311,21.305,29.719,21.001,29.832,20.547z"></path><path fill="#F78177" d="M36.684,26.643L36.684,26.643c1.246-0.276,2.032-1.509,1.757-2.755v0c-0.092-0.416-0.504-0.679-0.92-0.587
		l-3.005,0.665c-0.416,0.092-0.679,0.504-0.587,0.92v0C34.205,26.132,35.439,26.919,36.684,26.643z"></path><path fill="#6D3552" d="M51.247 19.432c-.218-.986-.79-1.794-1.542-2.354l.984-11.97c.096-1.173-.777-2.203-1.95-2.299-1.173-.096-2.203.777-2.299 1.95l-.983 11.967c-1.591.82-2.506 2.622-2.101 4.452.482 2.179 2.64 3.555 4.819 3.073C50.353 23.769 51.729 21.612 51.247 19.432zM43.465 52.284l-3.117-.745 2.332-9.752c.206-.861 1.07-1.392 1.931-1.186h0c.861.206 1.392 1.07 1.186 1.931L43.465 52.284z"></path><path fill="#FAAD95" d="M12.518,43.832l-0.376-6.825l-7.351-1.094c-0.864-0.129-1.53-0.828-1.617-1.697l-0.505-5.053
		c-0.112-1.123,0.769-2.097,1.898-2.097h9.908L14.316,25.7c-0.154-1.322,0.88-2.483,2.211-2.483h0c1.057,0,1.968,0.743,2.18,1.778
		l3.87,18.836H12.518z M45.498,49.504h-5.935c-1.148,0-2.168,0.733-2.535,1.821l-2.042,6.065L40,62h22L48.45,50.582
		C47.624,49.885,46.578,49.504,45.498,49.504z"></path><path fill="#4F5EB5" d="M28.652,57.389H40c1.273,0,2.305,1.032,2.305,2.305v0C42.306,60.968,41.274,62,40,62H28.652V57.389z"></path><path fill="#FAF3E0" d="M26.623,40.845H4.213c-1.353,0-2.389,1.204-2.188,2.542l2.502,16.606C4.701,61.147,5.692,62,6.859,62
		h24.981l-2.885-19.148C28.781,41.698,27.79,40.845,26.623,40.845z"></path><path fill="#4F5EB5" d="M18.342,51.422c0,1.412-1.145,2.557-2.557,2.557c-1.412,0-2.557-1.145-2.557-2.557s1.145-2.557,2.557-2.557
		C17.197,48.865,18.342,50.01,18.342,51.422z"></path><path fill="#F78177" d="M7.772,31.047H4.542c-0.552,0-1-0.448-1-1s0.448-1,1-1h3.229c0.552,0,1,0.448,1,1
		S8.324,31.047,7.772,31.047z M8.772,32.935c0-0.552-0.448-1-1-1H4.79c-0.552,0-1,0.448-1,1s0.448,1,1,1h2.982
		C8.324,33.935,8.772,33.487,8.772,32.935z M14.273,32.917c0.506-0.22,0.739-0.809,0.519-1.315c-0.329-0.757-0.397-1.714-0.183-2.56
		c0.136-0.535-0.188-1.079-0.724-1.215c-0.536-0.138-1.08,0.188-1.215,0.724c-0.324,1.279-0.22,2.681,0.287,3.848
		C13.121,32.775,13.489,33,13.875,33C14.008,33,14.143,32.974,14.273,32.917z M41.54,53.528c0-0.552-0.448-1-1-1h-2.235
		c-0.552,0-1,0.448-1,1s0.448,1,1,1h2.235C41.092,54.528,41.54,54.08,41.54,53.528z M39.464,33.464L39.464,33.464
		c-0.174,0.039-0.348,0.059-0.522,0.088l0.432,1.951c0.008,0.005,0.013,0.009,0.021,0.014c1.925-0.345,3.655-1.115,5.127-2.189
		c0.346-0.252,0.475-0.711,0.338-1.117h0c-0.218-0.647-0.994-0.875-1.547-0.475C42.194,32.545,40.899,33.146,39.464,33.464z"></path><g display="none"><path d="M41.228,20.943c0.119,0.54-0.221,1.073-0.76,1.193c-0.073,0.016-0.146,0.023-0.217,0.023
		c-0.458,0-0.872-0.317-0.976-0.784l-0.211-0.955c-0.119-0.54,0.221-1.073,0.76-1.193c0.537-0.118,1.073,0.221,1.193,0.76
		L41.228,20.943z M31.902,22.005c-0.12-0.539-0.655-0.88-1.193-0.76c-0.539,0.12-0.879,0.653-0.76,1.193l0.211,0.955
		c0.104,0.466,0.517,0.784,0.976,0.784c0.072,0,0.145-0.007,0.217-0.023c0.539-0.12,0.879-0.653,0.76-1.193L31.902,22.005z
		 M37.359,19.305c0.104,0.034,0.209,0.051,0.313,0.051c0.42,0,0.811-0.267,0.95-0.688c0.059-0.178,0.39-0.484,0.943-0.606
		c0.553-0.123,0.982,0.015,1.111,0.152c0.378,0.402,1.012,0.421,1.414,0.044c0.403-0.378,0.422-1.011,0.044-1.414
		c-0.671-0.715-1.818-0.994-3.001-0.736c-1.18,0.262-2.104,1.002-2.411,1.934C36.55,18.567,36.835,19.132,37.359,19.305z
		 M32.766,18.984c-0.611-0.755-1.691-1.093-2.746-0.858c-1.058,0.234-1.894,0.995-2.128,1.938c-0.134,0.536,0.193,1.079,0.729,1.212
		c0.081,0.021,0.163,0.03,0.243,0.03c0.448,0,0.856-0.304,0.969-0.758c0.043-0.174,0.27-0.391,0.619-0.468
		c0.35-0.076,0.646,0.023,0.759,0.163c0.347,0.429,0.977,0.495,1.407,0.149C33.046,20.043,33.113,19.414,32.766,18.984z
		 M36.901,27.62c-0.24,0.053-0.48,0.079-0.716,0.079c-1.518,0-2.89-1.053-3.232-2.596l-0.167-0.754
		c-0.119-0.539,0.221-1.073,0.76-1.192l4.512-0.999c0.26-0.057,0.53-0.009,0.754,0.133s0.382,0.369,0.439,0.627l0.167,0.753
		C39.812,25.454,38.683,27.225,36.901,27.62z M37.495,24.331l-2.521,0.558c0.238,0.576,0.863,0.916,1.494,0.778
		C37.098,25.527,37.521,24.954,37.495,24.331z M63,46.01V62c0,0.389-0.226,0.743-0.578,0.907C62.287,62.969,62.143,63,62,63
		c-0.231,0-0.46-0.081-0.645-0.235l-13.55-11.42C47.152,50.802,46.332,50.5,45.5,50.5h-5.94c-0.719,0-1.355,0.457-1.582,1.136
		l-0.3,0.892h1.888c0.552,0,1,0.448,1,1s-0.448,1-1,1h-2.56l-0.626,1.862H40c1.825,0,3.31,1.48,3.31,3.3
		c0,0.882-0.358,1.737-0.982,2.346C41.71,62.654,40.88,63,40,63h-8.16h0H28.65h-8.73H6.858c-1.674,0-3.071-1.202-3.32-2.858
		L1.036,43.536c-0.139-0.926,0.131-1.864,0.742-2.574c0.611-0.709,1.499-1.117,2.435-1.117h7.081l-0.108-1.966l-6.544-0.979
		c-1.317-0.2-2.331-1.259-2.467-2.576l-0.5-5.064c-0.08-0.814,0.189-1.628,0.738-2.234c0.55-0.606,1.336-0.955,2.157-0.955h8.785
		l-0.029-0.26c-0.015-0.137-0.026-0.258-0.026-0.379c0-1.77,1.449-3.21,3.23-3.21c1.515,0,2.844,1.082,3.159,2.573l3.098,15.051
		h3.837c0.994,0,1.903,0.452,2.526,1.165c1.049-1.199,2.351-2.147,3.845-2.772l3.811-1.584l0.001,0.003l1.646-0.687l-0.292-1.313
		c-0.325,0.028-0.651,0.053-0.979,0.053c-3.963,0-7.576-2.09-9.65-5.301c-0.244,0.039-0.487,0.081-0.731,0.081
		c-0.872,0-1.73-0.249-2.487-0.731c-1.049-0.668-1.772-1.703-2.038-2.915c-0.21-0.943-0.108-1.902,0.244-2.761l-0.365-0.003
		c-1.089-0.007-2.083-0.515-2.726-1.394c-0.644-0.88-0.826-1.982-0.501-3.023l0.762-2.439l-0.859-0.499
		c-1.051-0.612-1.734-1.699-1.829-2.909c-0.094-1.208,0.41-2.386,1.349-3.151l2.091-1.701c3.296-2.697,7.231-4.604,11.377-5.511
		l4.918-1.089c3.331-0.746,6.796-0.325,9.854,1.154c0.607-0.496,1.397-0.771,2.238-0.704C50.439,1.959,51.7,3.333,51.7,4.94
		c0,0.031-0.006,0.147-0.009,0.178l-0.104,1.267c0.705,0.82,1.344,1.72,1.875,2.714l3.772,7.144
		c1.538,2.902,0.938,6.499-1.461,8.746l-2.53,2.382l-0.527,1.994c-0.559,2.139-2.481,3.599-4.662,3.599
		c-0.138,0-0.278-0.006-0.418-0.017l0.281,1.271l4.103,1.875l5.808,2.308C60.971,39.65,63,42.637,63,46.01z M50.703,17.166
		c0.553,0.597,0.954,1.321,1.135,2.136c0.532,2.406-0.924,4.779-3.261,5.451c-0.226,1.687-0.827,3.27-1.722,4.659l0.329,1.487
		l0.625,0.056c1.375,0.121,2.625-0.765,2.974-2.097l0.601-2.272c0.048-0.181,0.145-0.345,0.281-0.473l2.74-2.58
		c1.743-1.633,2.179-4.246,1.062-6.354l-3.771-7.142c-0.109-0.205-0.242-0.389-0.36-0.586L50.703,17.166z M49.885,19.733
		c-0.152-0.69-0.565-1.279-1.161-1.659c-0.595-0.38-1.305-0.506-1.995-0.353c-1.424,0.315-2.327,1.731-2.012,3.156
		c0.152,0.69,0.565,1.279,1.161,1.659c0.596,0.38,1.304,0.505,1.995,0.353C49.297,22.575,50.2,21.159,49.885,19.733z M46.542,15.739
		c0.765-0.127,1.534-0.065,2.256,0.182l0.902-11.007C49.7,4.357,49.239,3.859,48.65,3.806c-0.619-0.056-1.16,0.413-1.214,1.039
		L46.542,15.739z M26.523,27.461c-0.227-0.567-0.415-1.155-0.549-1.765l-0.339-1.532c-0.074-0.334-0.154-0.694-0.235-1.06
		L24.85,23.1c-0.56,0.624-0.81,1.474-0.624,2.313c0.152,0.69,0.563,1.279,1.161,1.66C25.735,27.295,26.124,27.418,26.523,27.461z
		 M27.861,16.232c3.997-0.867,7.205-2.838,9.804-6.024c0.206-0.253,0.518-0.396,0.85-0.365c0.326,0.024,0.619,0.207,0.786,0.488
		c1.126,1.906,2.902,3.552,5.276,4.912l0.867-10.565c0.013-0.157,0.05-0.306,0.085-0.454c-2.605-1.209-5.538-1.538-8.36-0.907
		l-4.922,1.091c-3.842,0.841-7.487,2.607-10.543,5.107l-2.092,1.702c-0.436,0.355-0.662,0.882-0.618,1.444
		c0.044,0.563,0.351,1.051,0.84,1.336l1.548,0.899c0.404,0.234,0.592,0.717,0.453,1.163l-1,3.2
		c-0.134,0.429-0.059,0.884,0.207,1.248c0.265,0.362,0.675,0.571,1.125,0.574l2.793,0.021c-0.019-0.086-0.038-0.174-0.056-0.259
		c-0.227-1.002-0.044-2.042,0.516-2.917C25.979,17.049,26.847,16.448,27.861,16.232z M39.242,32.484
		c3.757-0.832,6.629-3.885,7.291-7.599c-0.607-0.102-1.195-0.32-1.73-0.661c-1.046-0.667-1.771-1.702-2.039-2.914
		c-0.341-1.54,0.134-3.071,1.13-4.152c-2.356-1.3-4.219-2.865-5.559-4.672c-2.718,2.928-6.093,4.844-10.052,5.702
		c-0.491,0.105-0.908,0.395-1.178,0.816c-0.27,0.421-0.358,0.921-0.248,1.406c0.239,1.101,0.508,2.311,0.732,3.321l0.34,1.536
		c0.952,4.312,4.844,7.444,9.253,7.444C37.878,32.71,38.571,32.634,39.242,32.484z M12.288,36.021
		c0.469,0.07,0.825,0.46,0.851,0.934l0.158,2.89h7.447L17.73,25.202c-0.12-0.566-0.625-0.981-1.201-0.981
		c-0.678,0-1.23,0.543-1.23,1.21c0,0.049,0.007,0.099,0.013,0.148l0.147,1.338c0.002,0.013,0.003,0.026,0.004,0.04l0,0.004
		c0.001,0.006-0.002,0.012-0.002,0.018c0.011,0.126-0.001,0.252-0.038,0.375c-0.013,0.044-0.04,0.08-0.059,0.122
		c-0.031,0.067-0.05,0.137-0.096,0.198c-0.961,1.26-0.933,2.881-0.478,3.929c0.22,0.506-0.012,1.096-0.519,1.315
		C14.143,32.974,14.008,33,13.875,33c-0.386,0-0.754-0.225-0.917-0.602c-0.476-1.094-0.702-2.726-0.144-4.329H4.57
		c-0.261,0-0.501,0.106-0.675,0.298c-0.169,0.188-0.248,0.429-0.228,0.68h4.105c0.552,0,1,0.448,1,1s-0.448,1-1,1H3.861l0.088,0.887
		h3.823c0.552,0,1,0.448,1,1s-0.448,1-1,1H4.146l0.019,0.188c0.042,0.406,0.361,0.737,0.775,0.799L12.288,36.021z M30.677,61
		l-2.711-18c-0.099-0.659-0.676-1.156-1.343-1.156H4.213c-0.358,0-0.685,0.15-0.919,0.421c-0.234,0.272-0.333,0.617-0.28,0.972
		l2.502,16.606C5.617,60.514,6.181,61,6.858,61H19.92h8.73H30.677z M32.307,58.39L32.7,61H40c0.443,0,0.746-0.21,0.922-0.387
		c0.253-0.248,0.388-0.572,0.388-0.923c0-0.717-0.588-1.3-1.31-1.3H32.307z M41.396,42.865c-2.029-0.623-3.762-2.082-4.734-3.986
		l-2.898,1.205c-1.539,0.644-2.819,1.719-3.749,3.093l1.991,13.213h2.266l1.811-5.389c0.499-1.496,1.897-2.501,3.478-2.501h0.49
		L41.396,42.865z M41.958,40.937c0.548-1.01,1.714-1.579,2.879-1.311c0.572,0.139,1.057,0.457,1.407,0.882
		c1.59-0.684,2.97-1.738,3.925-3.062l-3.535-1.616c-0.285-0.131-0.493-0.387-0.561-0.693l-0.828-3.739
		c-1.396,1.375-3.148,2.396-5.113,2.918l0.453,2.037c0.105,0.473-0.144,0.954-0.591,1.14l-1.477,0.617
		C39.253,39.443,40.52,40.481,41.958,40.937z M44.84,42.16c0-0.28-0.191-0.521-0.466-0.588c-0.316-0.072-0.643,0.129-0.722,0.456
		L42.107,48.5h1.234l1.486-6.203C44.831,42.283,44.84,42.246,44.84,42.16z M61,46.01c0-2.549-1.535-4.806-3.91-5.75l-5.055-2.009
		c-1.22,1.849-3.067,3.332-5.23,4.209c-0.012,0.106-0.012,0.221-0.036,0.316L45.398,48.5H45.5c1.297,0,2.572,0.466,3.589,1.311
		L61,59.85V46.01z M12.228,51.422c0-1.961,1.596-3.557,3.557-3.557s3.557,1.596,3.557,3.557s-1.596,3.557-3.557,3.557
		S12.228,53.384,12.228,51.422z M14.228,51.422c0,0.858,0.699,1.557,1.557,1.557s1.557-0.699,1.557-1.557s-0.699-1.557-1.557-1.557
		S14.228,50.564,14.228,51.422z"></path></g><g display="none"><path fill="#F34E60" d="M62,62V46.014c0-2.948-1.798-5.598-4.538-6.687l-5.84-2.321l-11.998-0.445l-6.241,2.6
		c-2.183,0.909-3.949,2.599-4.955,4.739L19.919,62H62z"></path><circle cx="26.808" cy="24.841" r="4.159" fill="#6D3552"></circle><path fill="#FAF3E0" d="M36.952,2.337L36.952,2.337c6.243-1.382,12.64,1.58,15.626,7.235l3.769,7.138
		c1.328,2.515,0.813,5.607-1.259,7.555l-2.742,2.579l-0.593,2.263c-0.473,1.804-2.175,3.006-4.034,2.848l-8.755-0.745l-12.763-9.104
		l-4.047-0.027c-1.612-0.011-2.756-1.576-2.277-3.115l0.997-3.204l-1.546-0.9c-1.629-0.948-1.808-3.232-0.348-4.423l2.085-1.701
		c3.19-2.603,6.946-4.422,10.966-5.311L36.952,2.337z"></path><path fill="#FAAD95" d="M45.421,27.553l1.631,7.368l4.57,2.086c-1.29,2.399-3.839,4.389-6.891,5.064
		c-3.052,0.675-6.452-1.358-7.538-4.496l2.417-1.007L37.979,29.2L45.421,27.553z"></path><path fill="#FAAD95" d="M38.442,10.842c1.635,2.768,4.417,4.93,8.216,6.556l0.786,3.552
		c1.252,5.659-2.32,11.262-7.979,12.514l0,0c-5.659,1.252-11.263-2.324-12.515-7.983c-0.232-1.047-0.686-3.102-1.073-4.847
		c-0.344-1.554,0.641-3.09,2.196-3.426C32.454,16.261,35.834,14.042,38.442,10.842z"></path><path fill="#F78177" d="M36.684,26.643L36.684,26.643c1.246-0.276,2.032-1.509,1.757-2.755v0
		c-0.092-0.416-0.504-0.679-0.92-0.587l-3.005,0.665c-0.416,0.092-0.679,0.504-0.587,0.92v0
		C34.205,26.132,35.439,26.919,36.684,26.643z"></path><path fill="#6D3552" d="M51.247 19.432c-.218-.986-.79-1.794-1.542-2.354l.984-11.97c.096-1.173-.777-2.203-1.95-2.299-1.173-.096-2.203.777-2.299 1.95l-.983 11.967c-1.591.82-2.506 2.622-2.101 4.452.482 2.179 2.64 3.555 4.819 3.073C50.353 23.769 51.729 21.612 51.247 19.432zM43.465 52.284l-3.117-.745 2.332-9.752c.206-.861 1.07-1.392 1.931-1.186h0c.861.206 1.392 1.07 1.186 1.931L43.465 52.284z"></path><path fill="#FAAD95" d="M12.518,43.832l-0.376-6.825l-7.351-1.094c-0.864-0.129-1.53-0.828-1.617-1.697
		l-0.505-5.053c-0.112-1.123,0.769-2.097,1.898-2.097h9.908L14.316,25.7c-0.154-1.322,0.88-2.483,2.211-2.483h0
		c1.057,0,1.968,0.743,2.18,1.778l3.87,18.836H12.518z M45.498,49.504h-5.935c-1.148,0-2.168,0.733-2.535,1.821l-2.042,6.065L40,62
		h22L48.45,50.582C47.624,49.885,46.578,49.504,45.498,49.504z"></path><path fill="#4F5EB5" d="M28.652,57.389H40c1.273,0,2.305,1.032,2.305,2.305v0C42.306,60.968,41.274,62,40,62
		H28.652V57.389z"></path><path fill="#FAF3E0" d="M26.623,40.845H4.213c-1.353,0-2.389,1.204-2.188,2.542l2.502,16.606
		C4.701,61.147,5.692,62,6.859,62h24.981l-2.885-19.148C28.781,41.698,27.79,40.845,26.623,40.845z"></path><path fill="#4F5EB5" d="M18.342,51.422c0,1.412-1.145,2.557-2.557,2.557c-1.412,0-2.557-1.145-2.557-2.557
		s1.145-2.557,2.557-2.557C17.197,48.865,18.342,50.01,18.342,51.422z"></path><path d="M41.016 19.988c-.12-.539-.656-.878-1.193-.76-.539.12-.879.653-.76 1.193l.211.955c.104.466.517.784.976.784.072 0 .145-.007.217-.023.539-.12.879-.653.76-1.193L41.016 19.988zM31.902 22.005c-.12-.539-.655-.88-1.193-.76-.539.12-.879.653-.76 1.193l.211.955c.104.466.517.784.976.784.072 0 .145-.007.217-.023.539-.12.879-.653.76-1.193L31.902 22.005zM37.359 19.305c.104.034.209.051.313.051.42 0 .811-.267.95-.688.059-.178.39-.484.943-.606.553-.123.982.015 1.111.152.378.402 1.012.421 1.414.044.403-.378.422-1.011.044-1.414-.671-.715-1.818-.994-3.001-.736-1.18.262-2.104 1.002-2.411 1.934C36.55 18.567 36.835 19.132 37.359 19.305zM32.766 18.984c-.611-.755-1.691-1.093-2.746-.858-1.058.234-1.894.995-2.128 1.938-.134.536.193 1.079.729 1.212.081.021.163.03.243.03.448 0 .856-.304.969-.758.043-.174.27-.391.619-.468.35-.076.646.023.759.163.347.429.977.495 1.407.149C33.046 20.043 33.113 19.414 32.766 18.984zM39.417 23.672l-.167-.753c-.057-.259-.215-.485-.439-.627s-.494-.19-.754-.133l-4.512.999c-.539.12-.879.653-.76 1.192l.167.754c.342 1.542 1.714 2.596 3.232 2.596.236 0 .476-.026.716-.079C38.683 27.225 39.812 25.454 39.417 23.672zM36.468 25.667c-.631.138-1.256-.202-1.494-.778l2.521-.558C37.521 24.954 37.098 25.527 36.468 25.667z"></path><path d="M57.829,38.401l-5.808-2.308l-4.103-1.875l-0.281-1.271c0.14,0.012,0.28,0.018,0.418,0.017
		c2.181,0,4.103-1.46,4.662-3.599l0.527-1.994l2.53-2.382c2.398-2.247,2.999-5.844,1.461-8.746l-3.772-7.144
		c-0.531-0.995-1.17-1.894-1.875-2.714l0.104-1.267C51.694,5.087,51.7,4.971,51.7,4.94c0-1.607-1.261-2.98-2.875-3.126
		c-0.841-0.067-1.631,0.208-2.238,0.704c-3.058-1.479-6.523-1.9-9.854-1.154l-4.918,1.089c-4.146,0.908-8.081,2.814-11.377,5.511
		l-2.091,1.701c-0.939,0.765-1.443,1.943-1.349,3.151c0.095,1.209,0.778,2.296,1.829,2.909l0.859,0.499l-0.762,2.439
		c-0.325,1.041-0.142,2.143,0.501,3.023c0.643,0.879,1.637,1.387,2.726,1.394l0.365,0.003c-0.353,0.859-0.454,1.819-0.244,2.761
		c0.266,1.211,0.989,2.247,2.038,2.915c0.757,0.482,1.616,0.731,2.487,0.731c0.244,0,0.488-0.042,0.731-0.081
		c2.074,3.211,5.687,5.301,9.65,5.301c0.328,0,0.654-0.026,0.979-0.053l0.292,1.313l-1.646,0.687l-0.001-0.003l-3.811,1.584
		c-1.494,0.625-2.797,1.573-3.845,2.772c-0.622-0.713-1.531-1.165-2.526-1.165h-3.837l-3.098-15.051
		c-0.315-1.491-1.644-2.573-3.159-2.573c-1.781,0-3.23,1.44-3.23,3.21c0,0.121,0.011,0.243,0.026,0.379l0.029,0.26H4.57
		c-0.821,0-1.606,0.348-2.157,0.955c-0.549,0.605-0.818,1.419-0.738,2.234l0.5,5.064c0.136,1.317,1.149,2.376,2.467,2.576
		l6.544,0.979l0.108,1.966H4.213c-0.936,0-1.824,0.407-2.435,1.117c-0.611,0.71-0.881,1.648-0.742,2.574l2.502,16.606
		C3.788,61.798,5.184,63,6.858,63H19.92h8.73h3.189h0H40c0.88,0,1.71-0.346,2.328-0.964c0.624-0.609,0.982-1.464,0.982-2.346
		c0-1.819-1.485-3.3-3.31-3.3h-3.619l0.626-1.862h2.56c0.552,0,1-0.448,1-1s-0.448-1-1-1h-1.888l0.3-0.892
		c0.227-0.68,0.862-1.136,1.582-1.136h5.94c0.832,0,1.652,0.302,2.306,0.845l13.55,11.42C61.54,62.919,61.769,63,62,63
		c0.143,0,0.287-0.031,0.422-0.093C62.774,62.743,63,62.389,63,62V46.01C63,42.637,60.971,39.65,57.829,38.401z M51.336,9.451
		c0.118,0.197,0.251,0.381,0.36,0.586l3.771,7.142c1.117,2.108,0.681,4.72-1.062,6.354l-2.74,2.58
		c-0.136,0.128-0.233,0.292-0.281,0.473l-0.601,2.272c-0.348,1.333-1.599,2.218-2.974,2.097l-0.625-0.056l-0.329-1.487
		c0.895-1.389,1.496-2.972,1.722-4.659c2.338-0.672,3.793-3.045,3.261-5.451c-0.18-0.815-0.582-1.539-1.135-2.136L51.336,9.451z
		 M47.873,22.89c-0.691,0.153-1.399,0.028-1.995-0.353c-0.596-0.38-1.009-0.969-1.161-1.659c-0.315-1.425,0.587-2.841,2.012-3.156
		c0.69-0.153,1.4-0.027,1.995,0.353c0.596,0.38,1.009,0.969,1.161,1.659C50.2,21.159,49.297,22.575,47.873,22.89z M47.437,4.845
		c0.054-0.626,0.595-1.095,1.214-1.039c0.589,0.053,1.05,0.551,1.051,1.108l-0.902,11.007c-0.722-0.248-1.491-0.309-2.256-0.182
		L47.437,4.845z M25.387,27.073c-0.597-0.381-1.009-0.969-1.161-1.66c-0.186-0.839,0.064-1.689,0.624-2.313l0.55,0.004
		c0.081,0.366,0.161,0.726,0.235,1.06l0.339,1.532c0.135,0.61,0.322,1.198,0.549,1.765C26.124,27.418,25.735,27.295,25.387,27.073z
		 M25.419,17.925c-0.56,0.875-0.743,1.914-0.516,2.917c0.018,0.085,0.038,0.173,0.056,0.259l-2.793-0.021
		c-0.45-0.003-0.86-0.212-1.125-0.574c-0.266-0.363-0.341-0.818-0.207-1.248l1-3.2c0.139-0.446-0.049-0.929-0.453-1.163
		l-1.548-0.899c-0.49-0.285-0.796-0.772-0.84-1.336c-0.044-0.562,0.182-1.088,0.618-1.444l2.092-1.702
		c3.056-2.5,6.701-4.267,10.543-5.107l4.922-1.091c2.823-0.63,5.755-0.301,8.36,0.907c-0.035,0.149-0.072,0.297-0.085,0.454
		l-0.867,10.565c-2.374-1.36-4.149-3.006-5.276-4.912c-0.167-0.281-0.46-0.464-0.786-0.488c-0.333-0.031-0.644,0.112-0.85,0.365
		c-2.599,3.186-5.807,5.157-9.804,6.024C26.847,16.448,25.979,17.049,25.419,17.925z M37.18,32.71c-4.409,0-8.301-3.131-9.253-7.444
		l-0.34-1.536c-0.224-1.01-0.493-2.22-0.732-3.321c-0.11-0.485-0.021-0.985,0.248-1.406c0.27-0.422,0.688-0.711,1.178-0.816
		c3.959-0.858,7.334-2.774,10.052-5.702c1.34,1.808,3.204,3.372,5.559,4.672c-0.996,1.081-1.47,2.612-1.13,4.152
		c0.268,1.212,0.992,2.247,2.039,2.914c0.535,0.341,1.123,0.559,1.73,0.661c-0.662,3.715-3.534,6.768-7.291,7.599
		C38.571,32.634,37.878,32.71,37.18,32.71z M4.94,34.921c-0.414-0.062-0.733-0.394-0.775-0.799l-0.019-0.188h3.625
		c0.552,0,1-0.448,1-1s-0.448-1-1-1H3.949l-0.088-0.887h3.911c0.552,0,1-0.448,1-1s-0.448-1-1-1H3.667
		c-0.02-0.251,0.059-0.492,0.228-0.68c0.174-0.192,0.414-0.298,0.675-0.298h8.243c-0.558,1.603-0.331,3.235,0.144,4.329
		C13.121,32.775,13.489,33,13.875,33c0.133,0,0.268-0.027,0.398-0.083c0.507-0.22,0.739-0.809,0.519-1.315
		c-0.455-1.048-0.484-2.668,0.478-3.929c0.046-0.061,0.066-0.131,0.096-0.198c0.019-0.042,0.046-0.078,0.059-0.122
		c0.037-0.123,0.049-0.249,0.038-0.375c-0.001-0.006,0.002-0.012,0.002-0.018l0-0.004c-0.002-0.013-0.002-0.026-0.004-0.04
		l-0.147-1.338c-0.005-0.049-0.013-0.099-0.013-0.148c0-0.667,0.552-1.21,1.23-1.21c0.576,0,1.081,0.415,1.201,0.981l3.014,14.643
		h-7.447l-0.158-2.89c-0.026-0.474-0.381-0.864-0.851-0.934L4.94,34.921z M28.65,61h-8.73H6.858c-0.677,0-1.242-0.486-1.343-1.156
		L3.014,43.238c-0.053-0.354,0.046-0.7,0.28-0.972c0.234-0.271,0.561-0.421,0.919-0.421h22.41c0.667,0,1.244,0.497,1.343,1.156
		l2.711,18H28.65z M40,58.39c0.722,0,1.31,0.583,1.31,1.3c0,0.352-0.134,0.676-0.388,0.923C40.746,60.79,40.443,61,40,61h-7.3
		l-0.393-2.61H40z M40.051,48.5h-0.49c-1.581,0-2.979,1.006-3.478,2.501l-1.811,5.389h-2.266l-1.991-13.213
		c0.93-1.375,2.21-2.449,3.749-3.093l2.898-1.205c0.973,1.904,2.705,3.363,4.734,3.986L40.051,48.5z M38.518,38.109l1.477-0.617
		c0.447-0.187,0.696-0.667,0.591-1.14l-0.453-2.037c1.965-0.522,3.717-1.542,5.113-2.918l0.828,3.739
		c0.068,0.306,0.275,0.562,0.561,0.693l3.535,1.616c-0.956,1.324-2.336,2.378-3.925,3.062c-0.351-0.425-0.835-0.743-1.407-0.882
		c-1.164-0.268-2.33,0.301-2.879,1.311C40.52,40.481,39.253,39.443,38.518,38.109z M44.827,42.297L43.341,48.5h-1.234l1.545-6.473
		c0.079-0.326,0.406-0.527,0.722-0.456c0.274,0.067,0.466,0.309,0.466,0.588C44.84,42.246,44.831,42.283,44.827,42.297z M61,59.85
		L49.089,49.811C48.072,48.966,46.797,48.5,45.5,48.5h-0.102l1.371-5.725c0.024-0.095,0.024-0.21,0.036-0.316
		c2.164-0.877,4.01-2.36,5.23-4.209l5.055,2.009c2.375,0.945,3.91,3.202,3.91,5.75V59.85z"></path><path d="M15.785,54.979c1.961,0,3.557-1.596,3.557-3.557s-1.596-3.557-3.557-3.557s-3.557,1.596-3.557,3.557
		S13.823,54.979,15.785,54.979z M15.785,49.865c0.858,0,1.557,0.699,1.557,1.557s-0.699,1.557-1.557,1.557s-1.557-0.699-1.557-1.557
		S14.926,49.865,15.785,49.865z"></path></g><g display="none"><path d="M57.829,38.401l-5.808-2.308l-4.103-1.875l-0.281-1.271c0.14,0.012,0.28,0.018,0.418,0.017
		c2.181,0,4.103-1.46,4.662-3.599l0.527-1.994l2.53-2.382c2.398-2.247,2.999-5.844,1.461-8.746l-3.772-7.144
		c-0.531-0.995-1.17-1.894-1.875-2.714l0.104-1.267C51.694,5.087,51.7,4.971,51.7,4.94c0-1.607-1.261-2.98-2.875-3.126
		c-0.841-0.067-1.631,0.208-2.238,0.704c-3.058-1.479-6.523-1.9-9.854-1.154l-4.918,1.089c-4.146,0.908-8.081,2.814-11.377,5.511
		l-2.091,1.701c-0.939,0.765-1.443,1.943-1.349,3.151c0.095,1.209,0.778,2.296,1.829,2.909l0.859,0.499l-0.762,2.439
		c-0.325,1.041-0.142,2.143,0.501,3.023c0.643,0.879,1.637,1.387,2.726,1.394l0.365,0.003c-0.353,0.859-0.454,1.819-0.244,2.761
		c0.266,1.211,0.989,2.247,2.038,2.915c0.757,0.482,1.616,0.731,2.487,0.731c0.244,0,0.488-0.042,0.731-0.081
		c2.074,3.211,5.687,5.301,9.65,5.301c0.328,0,0.654-0.026,0.979-0.053l0.292,1.312l-5.458,2.269
		c-1.494,0.625-2.797,1.573-3.845,2.772c-0.622-0.713-1.531-1.165-2.526-1.165h-3.837l-3.098-15.051
		c-0.315-1.491-1.644-2.573-3.159-2.573c-1.781,0-3.23,1.44-3.23,3.21c0,0.121,0.011,0.243,0.026,0.379l0.029,0.26H4.57
		c-0.821,0-1.606,0.348-2.157,0.955c-0.549,0.605-0.818,1.419-0.738,2.234l0.5,5.064c0.136,1.317,1.149,2.376,2.467,2.576
		l6.544,0.979l0.108,1.966H4.213c-0.936,0-1.824,0.407-2.435,1.117c-0.611,0.71-0.881,1.648-0.742,2.574l2.502,16.606
		C3.788,61.798,5.184,63,6.858,63H19.92h8.73h3.189H40h22c0.124,0,0.241-0.029,0.352-0.071c0.035-0.013,0.064-0.031,0.097-0.048
		c0.074-0.038,0.141-0.083,0.204-0.137c0.029-0.025,0.056-0.049,0.082-0.078c0.058-0.064,0.105-0.137,0.146-0.216
		c0.014-0.028,0.033-0.051,0.044-0.081c0.004-0.009,0.01-0.016,0.014-0.025c0.039-0.107,0.055-0.217,0.057-0.326
		C62.997,62.011,63,62.006,63,62V46.01C63,42.637,60.971,39.65,57.829,38.401z M25.387,27.073c-0.597-0.381-1.009-0.969-1.161-1.66
		c-0.186-0.839,0.064-1.689,0.624-2.313l0.55,0.004c0.081,0.366,0.161,0.726,0.235,1.06l0.339,1.532
		c0.135,0.61,0.322,1.198,0.549,1.765C26.124,27.418,25.735,27.295,25.387,27.073z M15.785,54.345c-1.611,0-2.922-1.311-2.922-2.922
		c0-1.611,1.311-2.922,2.922-2.922s2.922,1.311,2.922,2.922C18.707,53.034,17.396,54.345,15.785,54.345z M13.297,39.845l-0.158-2.89
		c-0.026-0.474-0.381-0.864-0.851-0.934l-7.348-1.1c-0.414-0.062-0.733-0.394-0.775-0.799l-0.019-0.188h3.625c0.552,0,1-0.448,1-1
		s-0.448-1-1-1H3.949l-0.088-0.887h3.911c0.552,0,1-0.448,1-1s-0.448-1-1-1H3.667c-0.02-0.251,0.059-0.492,0.228-0.68
		c0.174-0.192,0.414-0.298,0.675-0.298h8.243c-0.558,1.603-0.331,3.235,0.144,4.329C13.121,32.775,13.489,33,13.875,33
		c0.133,0,0.268-0.027,0.398-0.083c0.507-0.22,0.739-0.809,0.519-1.315c-0.455-1.048-0.484-2.668,0.478-3.929
		c0.046-0.061,0.066-0.131,0.096-0.198c0.019-0.042,0.046-0.078,0.059-0.122c0.037-0.123,0.049-0.249,0.038-0.375
		c-0.001-0.006,0.002-0.012,0.002-0.018l0-0.004c-0.002-0.013-0.002-0.026-0.004-0.04l-0.147-1.338
		c-0.005-0.049-0.013-0.099-0.013-0.148c0-0.667,0.552-1.21,1.23-1.21c0.576,0,1.081,0.415,1.201,0.981l3.014,14.643H13.297z
		 M50.169,37.446c-0.956,1.324-2.336,2.378-3.925,3.062c-0.351-0.425-0.835-0.743-1.407-0.882c-1.164-0.268-2.33,0.301-2.879,1.311
		c-1.438-0.456-2.705-1.494-3.44-2.828l1.477-0.617c0.005-0.002,0.007-0.006,0.012-0.008c0.096-0.042,0.181-0.098,0.257-0.166
		c0.036-0.032,0.063-0.07,0.094-0.106c0.037-0.043,0.073-0.086,0.102-0.135c0.027-0.045,0.047-0.092,0.066-0.141
		c0.021-0.052,0.038-0.103,0.05-0.158c0.01-0.047,0.018-0.092,0.021-0.141c0.002-0.027,0.012-0.052,0.012-0.078l-0.015,0
		c-0.001-0.069,0.007-0.138-0.009-0.208l-0.453-2.037c1.965-0.522,3.717-1.542,5.113-2.918l0.828,3.739
		c0.068,0.306,0.275,0.562,0.561,0.693L50.169,37.446z M44.84,42.16c0,0.086-0.009,0.123-0.013,0.137L43.341,48.5h-1.234
		l1.545-6.473c0.079-0.326,0.406-0.527,0.722-0.456C44.648,41.639,44.84,41.88,44.84,42.16z M47.437,4.845
		c0.054-0.626,0.595-1.095,1.214-1.039c0.589,0.053,1.05,0.551,1.051,1.108l0.997,0.075l-1.005,0.039l-0.895,10.893
		c-0.722-0.248-1.491-0.309-2.256-0.182L47.437,4.845z M46.729,17.722c0.69-0.153,1.4-0.027,1.995,0.353
		c0.596,0.38,1.009,0.969,1.161,1.659c0.315,1.425-0.587,2.841-2.012,3.156c-0.691,0.153-1.399,0.028-1.995-0.353
		c-0.596-0.38-1.009-0.969-1.161-1.659C44.401,19.453,45.304,18.037,46.729,17.722z M37.18,32.71c-4.409,0-8.301-3.131-9.253-7.444
		l-0.34-1.536c-0.224-1.01-0.493-2.22-0.732-3.321c-0.11-0.485-0.021-0.985,0.248-1.406c0.27-0.422,0.688-0.711,1.178-0.816
		c3.959-0.858,7.334-2.774,10.052-5.702c1.34,1.808,3.204,3.372,5.559,4.672c-0.996,1.081-1.47,2.612-1.13,4.152
		c0.268,1.212,0.992,2.247,2.039,2.914c0.535,0.341,1.123,0.559,1.73,0.661c-0.662,3.715-3.534,6.768-7.291,7.599
		C38.571,32.634,37.878,32.71,37.18,32.71z M30.967,56.501L30.967,56.501c-0.532,0.057-1.015-0.316-1.095-0.845l-1.661-11.026
		c-0.073-0.487,0.219-0.956,0.69-1.103c0.585-0.184,1.196,0.198,1.288,0.805l1.661,11.026C31.935,55.92,31.533,56.44,30.967,56.501z
		 M40.922,60.613C40.746,60.79,40.443,61,40,61h-7.3l-0.393-2.61H40c0.722,0,1.31,0.583,1.31,1.3
		C41.31,60.042,41.176,60.366,40.922,60.613z M43.034,61c0.177-0.41,0.276-0.856,0.276-1.31c0-1.819-1.485-3.3-3.31-3.3h-3.619
		l0.626-1.862h2.56c0.552,0,1-0.448,1-1s-0.448-1-1-1h-1.888l0.3-0.892c0.227-0.68,0.862-1.136,1.582-1.136h5.94
		c0.832,0,1.652,0.302,2.306,0.845L59.262,61H43.034z M41.228,20.943c0.119,0.54-0.221,1.073-0.76,1.193
		c-0.073,0.016-0.146,0.023-0.217,0.023c-0.458,0-0.872-0.317-0.976-0.784l-0.211-0.955c-0.119-0.54,0.221-1.073,0.76-1.193
		c0.537-0.118,1.073,0.221,1.193,0.76L41.228,20.943z M32.617,20.391c-0.43,0.346-1.06,0.28-1.407-0.149
		c-0.112-0.14-0.409-0.239-0.759-0.163c-0.349,0.077-0.576,0.293-0.619,0.468c-0.113,0.455-0.521,0.758-0.969,0.758
		c-0.08,0-0.162-0.009-0.243-0.03c-0.536-0.133-0.862-0.676-0.729-1.212c0.234-0.943,1.07-1.704,2.128-1.938
		c1.055-0.235,2.135,0.103,2.746,0.858C33.113,19.414,33.046,20.043,32.617,20.391z M39.417,23.672l-0.167-0.753
		c-0.057-0.259-0.215-0.485-0.439-0.627s-0.494-0.19-0.754-0.133l-4.512,0.999c-0.539,0.12-0.879,0.653-0.76,1.192l0.167,0.754
		c0.342,1.542,1.714,2.596,3.232,2.596c0.236,0,0.476-0.026,0.716-0.079C38.683,27.225,39.812,25.454,39.417,23.672z M36.468,25.667
		c-0.631,0.138-1.256-0.202-1.494-0.778l2.521-0.558C37.521,24.954,37.098,25.527,36.468,25.667z M32.113,22.96
		c0.119,0.54-0.221,1.073-0.76,1.193c-0.073,0.016-0.146,0.023-0.217,0.023c-0.458,0-0.872-0.317-0.976-0.784l-0.211-0.955
		c-0.119-0.54,0.221-1.073,0.76-1.193c0.538-0.12,1.073,0.221,1.193,0.76L32.113,22.96z M36.723,18.042
		c0.307-0.931,1.23-1.672,2.411-1.934c1.183-0.258,2.331,0.021,3.001,0.736c0.378,0.402,0.358,1.035-0.044,1.414
		c-0.402,0.377-1.035,0.358-1.414-0.044c-0.129-0.137-0.558-0.275-1.111-0.152c-0.553,0.123-0.885,0.428-0.943,0.606
		c-0.139,0.42-0.529,0.688-0.95,0.688c-0.104,0-0.209-0.017-0.313-0.051C36.835,19.132,36.55,18.567,36.723,18.042z"></path></g><g display="none"><path fill="#F9D3C8" d="M2.025,43.387c-0.202-1.338,0.835-2.542,2.188-2.542h8.141l-0.211-3.838l-7.352-1.094
		c-0.864-0.129-1.53-0.828-1.617-1.697l-0.505-5.053c-0.112-1.123,0.769-2.097,1.898-2.097h9.908L14.316,25.7
		c-0.154-1.322,0.88-2.483,2.211-2.483c1.057,0,1.968,0.743,2.18,1.778l3.257,15.849h4.659c1.167,0,2.158,0.853,2.332,2.007
		l0.011,0.075c1.042-1.675,2.578-2.998,4.416-3.764l6.227-2.595l-0.667-3.016c-4.3,0.729-8.482-1.282-10.673-4.836
		c-0.184,0.069-0.366,0.142-0.563,0.185c-2.243,0.496-4.463-0.919-4.959-3.162c-0.299-1.351,0.105-2.687,0.957-3.65l-1.548-0.01
		c-1.612-0.011-2.756-1.576-2.277-3.115l0.997-3.203l-1.546-0.9c-1.629-0.948-1.808-3.232-0.348-4.423l2.085-1.701
		c3.19-2.603,6.946-4.422,10.966-5.311l4.919-1.088c3.44-0.761,6.922-0.198,9.859,1.401c0.418-0.612,1.137-0.993,1.928-0.928
		c1.173,0.096,2.046,1.126,1.95,2.299l-0.129,1.574c0.777,0.861,1.458,1.827,2.019,2.889l3.769,7.138
		c1.328,2.515,0.813,5.607-1.259,7.555l-2.742,2.579l-0.593,2.263c-0.473,1.804-2.175,3.006-4.034,2.848l-1.35-0.115l0.682,3.081
		l4.57,2.086l5.84,2.321C60.202,40.416,62,43.066,62,46.014V62H40h-8.161h-3.187h-8.734H6.859c-1.167,0-2.158-0.853-2.332-2.007
		L2.025,43.387z"></path><path fill="#F48B7F" d="M41.228,20.943c0.119,0.54-0.221,1.073-0.76,1.193c-0.073,0.016-0.146,0.023-0.217,0.023
		c-0.458,0-0.872-0.317-0.976-0.784l-0.211-0.955c-0.119-0.54,0.221-1.073,0.76-1.193c0.537-0.118,1.073,0.221,1.193,0.76
		L41.228,20.943z M31.902,22.005c-0.12-0.539-0.655-0.88-1.193-0.76c-0.539,0.12-0.879,0.653-0.76,1.193l0.211,0.955
		c0.104,0.466,0.517,0.784,0.976,0.784c0.072,0,0.145-0.007,0.217-0.023c0.539-0.12,0.879-0.653,0.76-1.193L31.902,22.005z
		 M37.359,19.305c0.104,0.034,0.209,0.051,0.313,0.051c0.42,0,0.811-0.267,0.95-0.688c0.059-0.178,0.39-0.484,0.943-0.606
		c0.553-0.123,0.982,0.015,1.111,0.152c0.378,0.402,1.012,0.421,1.414,0.044c0.403-0.378,0.422-1.011,0.044-1.414
		c-0.671-0.715-1.818-0.994-3.001-0.736c-1.18,0.262-2.104,1.002-2.411,1.934C36.55,18.567,36.835,19.132,37.359,19.305z
		 M32.766,18.984c-0.611-0.755-1.691-1.093-2.746-0.858c-1.058,0.234-1.894,0.995-2.128,1.938c-0.134,0.536,0.193,1.079,0.729,1.212
		c0.081,0.021,0.163,0.03,0.243,0.03c0.448,0,0.856-0.304,0.969-0.758c0.043-0.174,0.27-0.391,0.619-0.468
		c0.35-0.076,0.646,0.023,0.759,0.163c0.347,0.429,0.977,0.495,1.407,0.149C33.046,20.043,33.113,19.414,32.766,18.984z
		 M36.901,27.62c-0.24,0.053-0.48,0.079-0.716,0.079c-1.518,0-2.89-1.053-3.232-2.596l-0.167-0.754
		c-0.119-0.539,0.221-1.073,0.76-1.192l4.512-0.999c0.26-0.057,0.53-0.009,0.754,0.133s0.382,0.369,0.439,0.627l0.167,0.753
		C39.812,25.454,38.683,27.225,36.901,27.62z M37.495,24.331l-2.521,0.558c0.238,0.576,0.863,0.916,1.494,0.778
		C37.098,25.527,37.521,24.954,37.495,24.331z M63,46.01V62c0,0.389-0.226,0.743-0.578,0.907C62.287,62.969,62.143,63,62,63
		c-0.231,0-0.46-0.081-0.645-0.235l-13.55-11.42C47.152,50.802,46.332,50.5,45.5,50.5h-5.94c-0.719,0-1.355,0.457-1.582,1.136
		l-0.3,0.892h1.888c0.552,0,1,0.448,1,1s-0.448,1-1,1h-2.56l-0.626,1.862H40c1.825,0,3.31,1.48,3.31,3.3
		c0,0.882-0.358,1.737-0.982,2.346C41.71,62.654,40.88,63,40,63h-8.16h0H28.65h-8.73H6.858c-1.674,0-3.071-1.202-3.32-2.858
		L1.036,43.536c-0.139-0.926,0.131-1.864,0.742-2.574c0.611-0.709,1.499-1.117,2.435-1.117h7.081l-0.108-1.966l-6.544-0.979
		c-1.317-0.2-2.331-1.259-2.467-2.576l-0.5-5.064c-0.08-0.814,0.189-1.628,0.738-2.234c0.55-0.606,1.336-0.955,2.157-0.955h8.785
		l-0.029-0.26c-0.015-0.137-0.026-0.258-0.026-0.379c0-1.77,1.449-3.21,3.23-3.21c1.515,0,2.844,1.082,3.159,2.573l3.098,15.051
		h3.837c0.994,0,1.903,0.452,2.526,1.165c1.049-1.199,2.351-2.147,3.845-2.772l3.811-1.584l0.001,0.003l1.646-0.687l-0.292-1.313
		c-0.325,0.028-0.651,0.053-0.979,0.053c-3.963,0-7.576-2.09-9.65-5.301c-0.244,0.039-0.487,0.081-0.731,0.081
		c-0.872,0-1.73-0.249-2.487-0.731c-1.049-0.668-1.772-1.703-2.038-2.915c-0.21-0.943-0.108-1.902,0.244-2.761l-0.365-0.003
		c-1.089-0.007-2.083-0.515-2.726-1.394c-0.644-0.88-0.826-1.982-0.501-3.023l0.762-2.439l-0.859-0.499
		c-1.051-0.612-1.734-1.699-1.829-2.909c-0.094-1.208,0.41-2.386,1.349-3.151l2.091-1.701c3.296-2.697,7.231-4.604,11.377-5.511
		l4.918-1.089c3.331-0.746,6.796-0.325,9.854,1.154c0.607-0.496,1.397-0.771,2.238-0.704C50.439,1.959,51.7,3.333,51.7,4.94
		c0,0.031-0.006,0.147-0.009,0.178l-0.104,1.267c0.705,0.82,1.344,1.72,1.875,2.714l3.772,7.144
		c1.538,2.902,0.938,6.499-1.461,8.746l-2.53,2.382l-0.527,1.994c-0.559,2.139-2.481,3.599-4.662,3.599
		c-0.138,0-0.278-0.006-0.418-0.017l0.281,1.271l4.103,1.875l5.808,2.308C60.971,39.65,63,42.637,63,46.01z M50.703,17.166
		c0.553,0.597,0.954,1.321,1.135,2.136c0.532,2.406-0.924,4.779-3.261,5.451c-0.226,1.687-0.827,3.27-1.722,4.659l0.329,1.487
		l0.625,0.056c1.375,0.121,2.625-0.765,2.974-2.097l0.601-2.272c0.048-0.181,0.145-0.345,0.281-0.473l2.74-2.58
		c1.743-1.633,2.179-4.246,1.062-6.354l-3.771-7.142c-0.109-0.205-0.242-0.389-0.36-0.586L50.703,17.166z M49.885,19.733
		c-0.152-0.69-0.565-1.279-1.161-1.659c-0.595-0.38-1.305-0.506-1.995-0.353c-1.424,0.315-2.327,1.731-2.012,3.156
		c0.152,0.69,0.565,1.279,1.161,1.659c0.596,0.38,1.304,0.505,1.995,0.353C49.297,22.575,50.2,21.159,49.885,19.733z M46.542,15.739
		c0.765-0.127,1.534-0.065,2.256,0.182l0.902-11.007C49.7,4.357,49.239,3.859,48.65,3.806c-0.619-0.056-1.16,0.413-1.214,1.039
		L46.542,15.739z M26.523,27.461c-0.227-0.567-0.415-1.155-0.549-1.765l-0.339-1.532c-0.074-0.334-0.154-0.694-0.235-1.06
		L24.85,23.1c-0.56,0.624-0.81,1.474-0.624,2.313c0.152,0.69,0.563,1.279,1.161,1.66C25.735,27.295,26.124,27.418,26.523,27.461z
		 M27.861,16.232c3.997-0.867,7.205-2.838,9.804-6.024c0.206-0.253,0.518-0.396,0.85-0.365c0.326,0.024,0.619,0.207,0.786,0.488
		c1.126,1.906,2.902,3.552,5.276,4.912l0.867-10.565c0.013-0.157,0.05-0.306,0.085-0.454c-2.605-1.209-5.538-1.538-8.36-0.907
		l-4.922,1.091c-3.842,0.841-7.487,2.607-10.543,5.107l-2.092,1.702c-0.436,0.355-0.662,0.882-0.618,1.444
		c0.044,0.563,0.351,1.051,0.84,1.336l1.548,0.899c0.404,0.234,0.592,0.717,0.453,1.163l-1,3.2
		c-0.134,0.429-0.059,0.884,0.207,1.248c0.265,0.362,0.675,0.571,1.125,0.574l2.793,0.021c-0.019-0.086-0.038-0.174-0.056-0.259
		c-0.227-1.002-0.044-2.042,0.516-2.917C25.979,17.049,26.847,16.448,27.861,16.232z M39.242,32.484
		c3.757-0.832,6.629-3.885,7.291-7.599c-0.607-0.102-1.195-0.32-1.73-0.661c-1.046-0.667-1.771-1.702-2.039-2.914
		c-0.341-1.54,0.134-3.071,1.13-4.152c-2.356-1.3-4.219-2.865-5.559-4.672c-2.718,2.928-6.093,4.844-10.052,5.702
		c-0.491,0.105-0.908,0.395-1.178,0.816c-0.27,0.421-0.358,0.921-0.248,1.406c0.239,1.101,0.508,2.311,0.732,3.321l0.34,1.536
		c0.952,4.312,4.844,7.444,9.253,7.444C37.878,32.71,38.571,32.634,39.242,32.484z M12.288,36.021
		c0.469,0.07,0.825,0.46,0.851,0.934l0.158,2.89h7.447L17.73,25.202c-0.12-0.566-0.625-0.981-1.201-0.981
		c-0.678,0-1.23,0.543-1.23,1.21c0,0.049,0.007,0.099,0.013,0.148l0.147,1.338c0.002,0.013,0.003,0.026,0.004,0.04l0,0.004
		c0.001,0.006-0.002,0.012-0.002,0.018c0.011,0.126-0.001,0.252-0.038,0.375c-0.013,0.044-0.04,0.08-0.059,0.122
		c-0.031,0.067-0.05,0.137-0.096,0.198c-0.961,1.26-0.933,2.881-0.478,3.929c0.22,0.506-0.012,1.096-0.519,1.315
		C14.143,32.974,14.008,33,13.875,33c-0.386,0-0.754-0.225-0.917-0.602c-0.476-1.094-0.702-2.726-0.144-4.329H4.57
		c-0.261,0-0.501,0.106-0.675,0.298c-0.169,0.188-0.248,0.429-0.228,0.68h4.105c0.552,0,1,0.448,1,1s-0.448,1-1,1H3.861l0.088,0.887
		h3.823c0.552,0,1,0.448,1,1s-0.448,1-1,1H4.146l0.019,0.188c0.042,0.406,0.361,0.737,0.775,0.799L12.288,36.021z M30.677,61
		l-2.711-18c-0.099-0.659-0.676-1.156-1.343-1.156H4.213c-0.358,0-0.685,0.15-0.919,0.421c-0.234,0.272-0.333,0.617-0.28,0.972
		l2.502,16.606C5.617,60.514,6.181,61,6.858,61H19.92h8.73H30.677z M32.307,58.39L32.7,61H40c0.443,0,0.746-0.21,0.922-0.387
		c0.253-0.248,0.388-0.572,0.388-0.923c0-0.717-0.588-1.3-1.31-1.3H32.307z M41.396,42.865c-2.029-0.623-3.762-2.082-4.734-3.986
		l-2.898,1.205c-1.539,0.644-2.819,1.719-3.749,3.093l1.991,13.213h2.266l1.811-5.389c0.499-1.496,1.897-2.501,3.478-2.501h0.49
		L41.396,42.865z M41.958,40.937c0.548-1.01,1.714-1.579,2.879-1.311c0.572,0.139,1.057,0.457,1.407,0.882
		c1.59-0.684,2.97-1.738,3.925-3.062l-3.535-1.616c-0.285-0.131-0.493-0.387-0.561-0.693l-0.828-3.739
		c-1.396,1.375-3.148,2.396-5.113,2.918l0.453,2.037c0.105,0.473-0.144,0.954-0.591,1.14l-1.477,0.617
		C39.253,39.443,40.52,40.481,41.958,40.937z M44.84,42.16c0-0.28-0.191-0.521-0.466-0.588c-0.316-0.072-0.643,0.129-0.722,0.456
		L42.107,48.5h1.234l1.486-6.203C44.831,42.283,44.84,42.246,44.84,42.16z M61,46.01c0-2.549-1.535-4.806-3.91-5.75l-5.055-2.009
		c-1.22,1.849-3.067,3.332-5.23,4.209c-0.012,0.106-0.012,0.221-0.036,0.316L45.398,48.5H45.5c1.297,0,2.572,0.466,3.589,1.311
		L61,59.85V46.01z M12.228,51.422c0-1.961,1.596-3.557,3.557-3.557s3.557,1.596,3.557,3.557s-1.596,3.557-3.557,3.557
		S12.228,53.384,12.228,51.422z M14.228,51.422c0,0.858,0.699,1.557,1.557,1.557s1.557-0.699,1.557-1.557s-0.699-1.557-1.557-1.557
		S14.228,50.564,14.228,51.422z"></path></g></svg>