<svg xmlns="http://www.w3.org/2000/svg" enable-background="new 0 0 65 65" viewBox="0 0 65 65" id="foot"><g><g><path fill="#FBD984" d="M36.1,31.4c0,0,2.6-7.6,10.9-6c7.5,1.4,13.6,11.2,8.3,18.6c-5.3,7.4-10,6.7-13.3,12.1    c-3.3,5.3-9.5,11-15.3,7.2c-5.9-3.8-2.1-10.2,4.7-14.5S33.9,37.9,36.1,31.4z"></path><ellipse cx="46.9" cy="16.3" fill="#FBD984" rx="4.7" ry="6.4" transform="rotate(23.484 46.93 16.34)"></ellipse><path fill="#FBD984" d="M56.7 22.5c-1 1.8-2.8 2.6-4.1 1.9-1.3-.7-1.6-2.7-.6-4.5 1-1.8 2.8-2.6 4.1-1.9C57.5 18.7 57.7 20.7 56.7 22.5zM60.2 26.5c-1 1.4-2.7 1.9-3.7 1.1-1-.8-1-2.5.1-3.9 1-1.4 2.7-1.9 3.7-1.1C61.3 23.4 61.3 25.2 60.2 26.5zM62.2 31.7c-1.2 1-2.7 1.2-3.5.3-.8-.9-.5-2.4.7-3.4 1.2-1 2.7-1.2 3.5-.3C63.7 29.1 63.4 30.6 62.2 31.7zM63.1 36.4c-1.2.6-2.5.4-2.9-.4s.1-2 1.3-2.7c1.2-.6 2.5-.4 2.9.4C64.8 34.6 64.2 35.8 63.1 36.4z"></path></g><g><path fill="#FBD984" d="M26.7,25.3c0,0,1.6-7.9-6.3-10.7C13.2,11.9,3,17.3,3.8,26.4S9,37.3,9.1,43.5c0.1,6.3,2.5,14.3,9.5,14    c7-0.3,7-7.7,3.4-14.8C18.4,35.6,25.3,32.1,26.7,25.3z"></path><ellipse cx="25.1" cy="6.8" fill="#FBD984" rx="4.7" ry="6.4" transform="rotate(-172.885 25.057 6.837)"></ellipse><path fill="#FBD984" d="M13.5 7.1c-.1 2 1.1 3.7 2.6 3.7 1.5 0 2.7-1.5 2.8-3.6.1-2-1.1-3.7-2.6-3.7C14.8 3.5 13.5 5.1 13.5 7.1zM8.4 8.9c.2 1.7 1.4 3 2.7 2.8 1.3-.2 2.1-1.7 1.9-3.4-.2-1.7-1.4-3-2.7-2.8C9.1 5.6 8.2 7.1 8.4 8.9zM4.1 12.3c.5 1.5 1.8 2.4 2.9 2.1C8.1 14 8.6 12.5 8.1 11 7.6 9.5 6.4 8.6 5.3 8.9 4.2 9.3 3.7 10.8 4.1 12.3zM.9 15.9C1.6 17 2.9 17.5 3.7 17s1-1.8.3-2.9C3.3 13 2 12.5 1.2 13 .4 13.5.3 14.8.9 15.9z"></path></g></g></svg>