<svg xmlns="http://www.w3.org/2000/svg" enable-background="new 0 0 65 65" viewBox="0 0 65 65" id="actress"><g><path fill="#FDC77C" d="M58.1,64.5c-0.8-0.9-1.5-1.6-2-1.9c-2.5-1.2-8.6-1.7-11-3.2s-0.9-24.5-0.9-24.5l-14.7,10l-3.2,6.8   c0,0-4.1-0.9-8,1C15.8,54,11,59.4,6.9,64.5H58.1z"></path><path fill="#FBD984" d="M16,36.9c0,0,4.8,11.8,8.1,13.8s8.9,1.1,12.6-1.8c3.7-2.9,6.6-5.8,7.6-13.9c0,0,3.4,1.6,3.6-8.1   C48,17,48,17,48,17l-24.9-4.1L12.5,24.8L16,36.9z"></path><path fill="#D45947" d="M22.1,44.9c0,0-0.1-2.2,1.4-2.6c0,0,0.7-0.2,1.5,0.2c0,0,0.2,0.3,1-0.4c0,0,0.3-0.5,1.5,0s2.1,0.4,2.8,0.7   c0.7,0.2,1.3,0.7,1.3,0.7s0.1,0.2-0.6,0.2S27.9,44,27.4,44s-1.8,0.4-2.5,0.3C24.3,44.2,22.4,44.4,22.1,44.9z"></path><path fill="#F1786B" d="M31.7,43.7c0,0-0.6,0.6-1.1,1.2c-0.5,0.6-1.6,1.6-2.2,1.8c-0.7,0.3-3,0.5-3.7,0s-1.7-1.1-1.9-1.4   c-0.2-0.3-0.6-0.5-0.6-0.5s1.2-0.3,2-0.3c0.9,0,2.2,0,2.7-0.2C27.5,44.2,31.7,43.7,31.7,43.7z"></path><path fill="#E39A61" d="M27.3 39.3c0 .3-.3.5-.7.5-.4 0-1.4-.2-1.4-.5s1-.5 1.4-.5C26.9 38.8 27.3 39.1 27.3 39.3zM28.3 29.4c0 0 2.3 2.2 7.7-.4C36.1 29 32.1 30.6 28.3 29.4z"></path><g><path fill="#E39A61" d="M34.5 29.6c0 0 0 .1.2.2.1.1.3.3.5.5.4.3.9.5.9.5s-.5 0-1-.3c-.2-.1-.4-.3-.6-.4-.1-.1-.2-.3-.2-.3L34.5 29.6zM33.4 29.9L33.4 29.9c0 .1 0 .1.1.2s.2.3.4.4c.3.3.8.5.8.5s-.5-.1-.9-.3c-.2-.1-.4-.3-.5-.4S33.1 30 33.1 30L33.4 29.9zM32.1 30c0 0 .1.4.4.8.2.4.5.7.5.7s-.3-.3-.6-.7c-.3-.3-.5-.7-.5-.7L32.1 30z"></path><polygon fill="#E39A61" points="31 30.1 30.7 31.5 30.6 30"></polygon></g><path fill="#445C6C" d="M27.3,26.4c0,0,4.9-0.9,6.8-0.6c1.9,0.3,3.8,1,3.8,1s-2-1.6-3.6-1.9s-6.8,0.3-7.1,0.5S26.6,25.9,27.3,26.4z   "></path><path fill="#F0B972" d="M28.2,54.4c3.7,2.2,4.6,7.1,4.9,10.1h0.4c0.1-1.8,0-4.3-0.9-6.8c-1.8-4.7-6.3-5.9-6.3-5.9   c-9.2-2.1-14.1,6.6-14.1,6.6C16.9,54.2,22.7,51.1,28.2,54.4z"></path><path fill="#FDC77C" d="M24.5,30.2c0,0-0.4,4.7-0.9,7.2s1.2,2.5,1.2,2.5s-2.1,0.4-1.6-2.6C23.6,34.2,24.5,30.2,24.5,30.2z"></path><path fill="#445C6C" d="M47,22.6c0,0-2,3.3-2.4,6.3s-2.3,10-2.3,10l0.7-5.7l-3.3,5l2.6-7.7l-2.6,4.9l2.2-9.1l-3.5,8.4l2.1-9.9   l-3.7,5.7l2.3-7.3l-3.8,4.3l3.4-8.1c0,0-0.3,0.9-4.8,3.8c-4.5,2.8-4.1,5.6-7.8,7s-9.1,5.2-9.1,7c0,1.7,4.6,8.5,2.1,11.8   c0,0,1.4-6.3-4.8-9c0,0,3.4,5.9,2.2,8.5c0,0,0.3-4.2-5.2-9.5C6,33.6,9,18.3,9,18.3s2-7,7-9.2c0,0-5.5,1.7-7.8,8.8   c0,0-1.1-6.3,8.4-11.3l-4.6,2c0,0,9.7-13.2,24.4-6.2l2,1.7c0,0,2.5-3.1,5.4-1.7c0,0-3.7-0.2-3.8,3.5c0,0,3.8-1.4,4.7,0.2   c0.9,1.5,1,2.7,1,2.7s0.9-0.4,2.6,2.3c1.6,2.7,1.2,10.9-0.5,15.5L47,22.6z"></path></g></svg>