<svg xmlns="http://www.w3.org/2000/svg" enable-background="new 0 0 65 65" viewBox="0 0 65 65" id="actress"><g><path fill="#FDC77C" d="M39,41.4c0,0-6.6,10.6,0.8,12.6c7.4,2,12.6,3.6,13.9,6c1.3,2.4,1.8,4.5,1.8,4.5H7.2c0,0,0-8.6,10.1-14.6   c7.6-4.5,11.7-17.2,11.7-17.2L39,41.4z"></path><path fill="#CC804C" d="M52.4,8.4c0.4,1,9,6.3,5.9,24.7c-3.4,20.3-23.4,16.4-23.4,16.4s11.6-22,0.6-29.4   C24.5,12.9,52.4,8.4,52.4,8.4z"></path><path fill="#FBD984" d="M49.4,10.3c0,0,2,2.5,2.5,6.1c0.5,3.6,1.1,5.2,1.1,5.2s-2,1.1-1.6,2.8c0.4,1.7,3.7,6.5,3.6,7.4   c-0.1,0.9-2.6,1.9-3.2,2c-0.6,0.1-1,1.7,0,2.7c0,0,0.1,1.5-0.9,1.8c0,0,1.5,1.7-0.8,2.6c-2.3,0.9-0.4,2.5-0.3,3   c0.1,0.5,0.8,3.5-4.1,3.3c-4.7-0.2-16.2-2-20.6-8.2c-4.9-7-3.6-21.4-3.6-21.4L38.1,6C38.1,6,46.3,6.6,49.4,10.3z"></path><path fill="#E39A61" d="M50.3,6.1c2.2,1.8,6.6,6-5.2,13.8C31.5,29,24.6,40.4,32.4,48.2c7.8,7.8,14.6,6.2,14.6,6.2   S18.5,68.1,8.7,44.1C-1.8,18.6,21.2,0.7,34.3,0.5C44.1,0.4,46.8,3.2,50.3,6.1z"></path><path fill="#CC804C" d="M45,9.1c0,0-2.8,7.1-15.5,19.5c-10,9.8-9,22.1-1.5,26.1c0,0-18.5-5.8-7.1-26.7c0,0-6.9,15.2,2.1,22.7   c0,0-9.5-9.2,5.1-23.7S44.5,10.4,45,9.1z"></path><path fill="#CC804C" d="M20.2,17.1c0,0-14,17.7-3.7,28.8C16.6,45.9,3.4,34.8,20.2,17.1z"></path></g></svg>