<svg xmlns="http://www.w3.org/2000/svg" viewBox="0 0 48 48" id="house"><path fill="#e2e3e5" d="M43.2 46.9V22.6c0-.4-.3-.7-.7-.7h-37c-.4 0-.7.3-.7.7v24.3h38.4z"></path><path fill="#60bce2" d="M24.9 29.4h12.8v9.3H24.9z"></path><path fill="#535c7b" d="M38.6 5.1v11.8c0 .3-.2.6-.4.7-.1 0-.2.1-.3.1-.2 0-.3-.1-.5-.2L33 13.9c-.2-.1-.3-.4-.3-.6V6.6c0-.3.2-.6.5-.7l4.4-1.5c.2-.1.5 0 .7.1.2.2.3.4.3.6z"></path><path fill="#f0de6e" d="M33.4 3.9c-.3-.3-.3-.8 0-1 .1-.1.1-.2 0-.3-.7-.7-.7-1.7 0-2.4.3-.3.8-.3 1 0 .3.3.3.8 0 1-.1.1-.1.2 0 .3.7.7.7 1.7 0 2.4-.2.3-.7.3-1 0zM36.3 3.9c-.3-.3-.3-.8 0-1 .1-.1.1-.2 0-.3-.7-.7-.7-1.7 0-2.4.3-.3.8-.3 1 0 .3.3.3.8 0 1-.1.1-.1.2 0 .3.7.7.7 1.7 0 2.4-.2.3-.7.3-1 0z"></path><path fill="#f16963" d="M45.6 22.9c-.1.3-.4.5-.7.5H3.1c-.3 0-.6-.2-.7-.5-.1-.3 0-.6.2-.8L23.5 5c.3-.2.7-.2.9 0l20.9 17.1c.3.2.4.5.3.8z"></path><path fill="#e2e3e5" d="M27.8 14.1c0 2.1-1.7 3.8-3.8 3.8s-3.8-1.7-3.8-3.8 1.7-3.8 3.8-3.8 3.8 1.7 3.8 3.8z"></path><path fill="#535c7b" d="M44.9 48H3.1c-.4 0-.7-.3-.7-.7 0-.4.3-.7.7-.7h41.8c.4 0 .7.3.7.7.1.4-.3.7-.7.7z"></path><path fill="#b8b8b8" d="M19.7 46.5v-13c0-.5-.4-.9-.9-.9h-8.6c-.5 0-.9.4-.9.9v13h10.4z"></path></svg>