<svg xmlns="http://www.w3.org/2000/svg" viewBox="0 0 64 64" id="house-cleaning-service"><path fill="#318cd4" d="M46 6h8v14h-8z"></path><path fill="#57a7e6" d="M54 18.931 32 3 3 24h5v37h48V24h5l-7-5.069z"></path><circle cx="29" cy="43" r="12" fill="#fff"></circle><path fill="#9c5f20" d="m21.371 44.055-1.942 5.677c-.326.953-1.016 1.795-1.609 2.621a7 7 0 0 1-7.28 1.737l13.246 4.531a7 7 0 0 0 8.889-4.357l1.942-5.677-13.246-4.532zM28.045 39.996l8.416-24.6 3.784 1.295-8.416 24.6z"></path><path fill="#9c5f20" d="M39.647 12.259a2 2 0 0 0-2.54 1.245l-.647 1.892 3.785 1.295.647-1.892a2 2 0 0 0-1.245-2.54zm-17.952 30.85-.324.946 5.677 1.942 3.785 1.295 3.785 1.295.324-.946a5 5 0 0 0-3.112-6.349l-3.785-1.295a5 5 0 0 0-6.35 3.112z"></path><path fill="#c47d33" d="M25.063 57.002a7.01 7.01 0 0 1-1.181-.101c-.592-.102-.935-.735-.741-1.304l.002-.007a.992.992 0 0 1 1.107-.655c1.893.314 3.869-.481 5.154-2.327.058-.084.104-.178.137-.274l2.187-6.393a1 1 0 0 1 1.892.648l-2.294 6.707a1.34 1.34 0 0 1-.125.255c-1.53 2.286-3.821 3.451-6.138 3.451zm2.858-9.195a1 1 0 0 1-.623-1.27l.648-1.893a1 1 0 1 1 1.892.648l-.648 1.893a.999.999 0 0 1-1.269.622z"></path><path fill="#c47d33" d="M26.626 51.592a1 1 0 1 1 .647-1.892.999.999 0 1 1-.647 1.892z"></path><path fill="#fff" d="M44 32h2v2h-2zM46 34h2v2h-2zM44 36h2v2h-2zM42 34h2v2h-2zM22 21h2v2h-2zM24 23h2v2h-2zM22 25h2v2h-2zM20 23h2v2h-2z"></path></svg>