<svg xmlns="http://www.w3.org/2000/svg" viewBox="0 0 48 48" id="sofa"><path fill="#f26963" d="M42.5 21.8s-2.6 7.3-2.7 11.6H8.2c-.1-4.2-2.7-11.6-2.7-11.6-5.9.7-5.5-4.5-5.5-4.5.4-4.5 5.6-4 5.6-4 4.2.2 8.9-3.8 8.9-3.8 3.4-3 8.7-2.9 9.5-2.9.8 0 6.1-.2 9.5 2.9 0 0 4.7 4 8.9 3.8 0 0 5.2-.4 5.6 4 0 0 .4 5.2-5.5 4.5z"></path><path fill="#e2534f" d="M16.4 30.3h15.5c2.4-2.3 3.9-5.7 3.9-9.5 0-7-5.2-12.8-11.7-12.8s-11.7 5.7-11.7 12.8c.1 3.8 1.6 7.2 4 9.5z"></path><circle cx="27.1" cy="12.2" r=".9" fill="#f26963"></circle><circle cx="20.7" cy="12.2" r=".9" fill="#f26963"></circle><circle cx="27.1" cy="18.7" r=".9" fill="#f26963"></circle><circle cx="20.7" cy="18.7" r=".9" fill="#f26963"></circle><circle cx="17.2" cy="15.3" r=".9" fill="#f26963"></circle><circle cx="23.9" cy="15.3" r=".9" fill="#f26963"></circle><circle cx="30.6" cy="15.3" r=".9" fill="#f26963"></circle><circle cx="17.2" cy="22.1" r=".9" fill="#f26963"></circle><circle cx="23.9" cy="22.1" r=".9" fill="#f26963"></circle><circle cx="30.6" cy="22.1" r=".9" fill="#f26963"></circle><path fill="#f26963" d="M39 31.1c-.1.8-.1 1.5-.2 2.2h-30c0-.7-.1-1.4-.2-2.2 3.9-4.3 26.5-4.4 30.4 0z"></path><path fill="#f16963" d="M42.5 21.8s-2.6 7.3-2.7 11.6h-3.3c-.1-3-.1-14.1 4.8-18.6 1.3-1.2 3.3-1.5 4.9-.5.9.6 1.7 1.6 1.8 3.2 0-.2.4 5-5.5 4.3zM5.5 21.8s2.6 7.3 2.7 11.6h3.3c.1-3 .1-14.1-4.8-18.6-1.3-1.2-3.3-1.5-4.9-.5-.9.6-1.7 1.6-1.8 3.2 0-.2-.4 5 5.5 4.3z"></path><path fill="#435076" d="M39.8 33.8v-.5H9.4v-.5H8.1v1s-2.7 2.6.4 4.8c0 0 .4 1.1-.8 1.5 0 0-.8.4-.2 1.2h1.9c.7-.4 2-1.5 1.2-3.4 0 0-1.1-1.7 2.7-2.3h21.1c3.8.6 2.7 2.3 2.7 2.3-.8 1.9.5 3 1.2 3.4h1.9c.5-.8-.2-1.2-.2-1.2-1.2-.4-.8-1.5-.8-1.5 3.4-2.2.6-4.8.6-4.8z"></path><circle cx="4" cy="17.9" r="1.7" fill="#435076"></circle><circle cx="44" cy="17.9" r="1.7" fill="#435076"></circle><path fill="#435076" d="M8.2 34.2c0-.1-1.1-9.3-4.4-16.1l1.2-.6c3.4 7 4.4 16.2 4.5 16.5l-1.3.2zM39.8 34.2c0-.1 1.1-9.3 4.4-16.1l-1.2-.6c-3.4 7-4.4 16.2-4.5 16.5l1.3.2z"></path></svg>