<svg xmlns="http://www.w3.org/2000/svg" enable-background="new 0 0 65 65" viewBox="0 0 65 65" id="hair"><g><path fill="#445C6C" d="M24.3,0.5L24.3,0.5C13.9,0.5,5.4,9,5.4,19.4v33.3h37.8V19.4C43.2,9,34.8,0.5,24.3,0.5z"></path><g><ellipse cx="11.1" cy="27.4" fill="#FDC77C" rx="2.7" ry="4.2"></ellipse><ellipse cx="37.1" cy="27.4" fill="#FDC77C" rx="2.7" ry="4.2"></ellipse></g><path fill="#41B3E2" d="M44.7,51.7c-1.7-3.4-14.9-6.4-14.9-6.4H18.5c0,0-13.1,3-14.9,6.4C1.9,55,0.5,64.5,0.5,64.5h23.6h23.6   C47.8,64.5,46.4,55,44.7,51.7z"></path><path fill="#FDC77C" d="M29.9,46.9v-6.5H18.4v6.5c-2.2,0.8-3.5,2.1-3.5,3.6c0,2.5,4.2,4.6,9.3,4.6c5.1,0,9.3-2.1,9.3-4.6   C33.4,49.1,32,47.8,29.9,46.9z"></path><path fill="#FBD984" d="M29.3,17.2C25,22.9,15.1,23.1,11.1,23v8.4c0,7.2,5.8,13,13,13c7.2,0,13-5.8,13-13v-8.6   C31.2,21.4,29.3,17.2,29.3,17.2z"></path><g><path fill="#DBDFE0" d="M47.3,30.8l3.3,22.5c-1.5,0.7-2.2,2.7-1.8,5c0.5,2.5,2.4,4.2,4.2,3.8c1.8-0.4,2.8-2.7,2.3-5.1    c-0.4-1.8-1.4-3.2-2.7-3.7l-0.2-4.6c0,0,1.1-1.1,0.8-3.5C52.9,42.8,50.1,31.4,47.3,30.8z M54.1,57.2c0.3,1.6-0.3,3-1.5,3.3    c-1.1,0.2-2.3-0.9-2.6-2.4c-0.3-1.6,0.3-3,1.5-3.3C52.6,54.6,53.8,55.6,54.1,57.2z"></path><path fill="#EFF3F5" d="M48.3,48.5c2.2,1.2,3.5,0.6,3.5,0.6l4.2,1.9c0,1.3,0.9,2.8,2.4,3.8c2.1,1.4,4.6,1.3,5.6-0.2    c1-1.5,0.1-3.9-2-5.3c-1.9-1.2-4.1-1.3-5.3-0.2L37.1,37.7C36.6,40.5,46.2,47.3,48.3,48.5z M57.9,50.5c0.6-1,2.2-1,3.6-0.2    c1.3,0.9,1.9,2.4,1.3,3.4c-0.6,1-2.2,1-3.6,0.2C57.8,52.9,57.2,51.4,57.9,50.5z"></path><circle cx="51.2" cy="47.6" r=".9" fill="#788D9A"></circle></g></g></svg>