<svg xmlns="http://www.w3.org/2000/svg" viewBox="0 0 64 64" id="cleaning-spray"><path fill="#f2c09d" d="m5 26-3 1.308V44l8.967-3.991z"></path><path fill="#cca408" d="m48.352 14-8.105.501L38 15v5h4l3-2 3.675-.735A1.65 1.65 0 0 0 48.352 14z"></path><path fill="#074678" d="M47.553 20.895a12.755 12.755 0 0 1-6.142-6.675l-.339-.848 1.857-.742.339.848c.98 2.45 2.82 4.449 5.18 5.629l-.895 1.788z"></path><path fill="#7cbef2" d="M53 9a1 1 0 0 1 0-1.414L56.586 4A1 1 0 0 1 58 5.414L54.414 9A1 1 0 0 1 53 9zm8 3h-4a1 1 0 0 1 0-2h4a1 1 0 0 1 0 2zm-4.414 6L53 14.414A1 1 0 0 1 54.414 13L58 16.586A1 1 0 0 1 56.586 18z"></path><path fill="#57a7e6" d="M45.773 36.773A16.296 16.296 0 0 1 41 25.251V19l-1-4h-5v4l-2.661 11.976A56.207 56.207 0 0 0 31 43.171V54a2 2 0 0 0 2 2h13.491a2 2 0 0 0 1.923-1.451l1.03-3.606a14.435 14.435 0 0 0-3.671-14.17z"></path><path fill="#0a5fa2" d="M48.414 54.549 49.143 52H31v2a2 2 0 0 0 2 2h13.491a2 2 0 0 0 1.923-1.451z"></path><path fill="#7cbef2" d="M45.06 41.346c-.986-2.82-3.852-4.439-5.282-5.092a.997.997 0 0 1-.535-1.226l.001-.002a.997.997 0 0 1 1.357-.598c1.72.782 5.113 2.719 6.346 6.249a1.003 1.003 0 0 1-.757 1.302h-.002a.984.984 0 0 1-1.128-.633z"></path><path fill="#57a7e6" d="M49 12v-2l-4-1v4z"></path><path fill="#0a5fa2" d="M33 10v3.382c0 .379.214.725.553.894L35 15h5l5-2V9H34a1 1 0 0 0-1 1z"></path><path fill="#4e96cf" d="M41 23.273V19l-1-4h-5v4l-2.661 11.976a56.144 56.144 0 0 0-1.316 11.38l3.319-10.907A13.931 13.931 0 0 1 41 23.273z"></path><path fill="#f2c720" d="M38 15h-4l-10 7-20 3c0 7.747 2.912 12.561 4.98 15.012C10.115 41.357 11 42 11 42l21.744-12.849L35 19h3a2 2 0 1 0 0-4z"></path><path fill="#cca408" d="M22.999 32C20 35 14.07 39.703 12.983 40.828l19.761-11.677L35 19s-3.487 4.485-12.001 13z"></path><path fill="#f2c720" d="M43 22a2 2 0 0 0-2-2h-1a2 2 0 1 0 0 4h1a2 2 0 0 0 2-2zm0 4a2 2 0 0 0-2-2h-1a2 2 0 1 0 0 4h1a2 2 0 0 0 2-2z"></path><ellipse cx="39" cy="45.333" fill="#fff" rx="6" ry="5.333"></ellipse></svg>