<svg xmlns="http://www.w3.org/2000/svg" viewBox="0 0 64 64" id="iron"><path fill="#084e85" d="m57.566 26-3.143-.698c-4.641-1.031-4.641-5.745-4.641-8.278h2c0 3.573.503 5.754 3.074 6.326l1.19.265A1.998 1.998 0 0 1 57.566 26z"></path><path fill="#a9d3f5" d="M56.011 40.27 48 30h-6l-8.011 10.27c-.068.087-.126.18-.192.268L31.813 53.69A14.058 14.058 0 0 0 37.816 61h14.368C56.262 58.553 59 54.102 59 49v-.021a14.154 14.154 0 0 0-2.989-8.709z"></path><path fill="#0a5fa2" d="m27.696 21.643 1.688-1.351a2 2 0 0 0 .269-2.863l-3.434-4.006a2 2 0 0 0-2.719-.298l-1.98 1.485a36.158 36.158 0 0 1 6.176 7.033zM43 15a4 4 0 0 0-4 4v3a2 2 0 0 0 2 2h1v2h6v-2a5 5 0 0 1 4.001-4.899L52 19h5v-4H43z"></path><path fill="#0a5fa2" d="M52.001 19.101c.323-.066.657-.101.999-.101h-1l.001.101z"></path><path fill="#084e85" d="M57 15h4v4h-4z"></path><path fill="#0a5fa2" d="M42 30h6v-4h-6zM6 61h5c0-4.66.341-9.315 1.021-13.925l5.32-36.068-6.167-5.287L6 53v8z"></path><path fill="#919191" d="M7.774 4.853 3 52l3 1 5.174-47.28-1.757-1.505a1 1 0 0 0-1.643.638z"></path><path fill="#f0f0f0" d="M11 61h18l2.365-6.081a36.218 36.218 0 0 0 .758-24.106A36.19 36.19 0 0 0 21.521 14.61c-.115-.102-.222-.212-.339-.312l-3.84-3.291-5.32 36.068A95.295 95.295 0 0 0 11 61zm9.657-33.684c.125-1.937 2.664-2.588 3.689-.94C26.146 29.266 28 33.368 28 38c0 6.322-.987 11.164-1.574 13.485A2.001 2.001 0 0 1 24.485 53h-3.352a2 2 0 0 1-1.996-2.129l1.52-23.555z"></path><path fill="#57a7e6" d="M55.556 49.264a14.269 14.269 0 0 1-12.042-2.254c-2.773-2.017-6.414-2.969-9.775-2.7l-.602.6-1.325 8.779a14.058 14.058 0 0 0 6.003 7.31h14.368C56.262 58.553 59 54.102 59 49v-.021c0-.207-.017-.413-.026-.619l-3.418.904z"></path><path fill="#084e85" d="M49 18.571a4 4 0 0 0-4 4V30h3v-6a5 5 0 0 1 4.001-4.899L52 19h9v-.429H49z"></path><path fill="#e8e8e8" d="m18.83 29.309-1.52 23.556a2 2 0 0 0 1.996 2.129h3.352c.919 0 1.715-.624 1.941-1.515.039-.155.08-.322.122-.499-.078.009-.156.02-.236.02h-3.352a2 2 0 0 1-1.996-2.129l1.51-23.409c-.903.09-1.746.753-1.817 1.847z"></path><path fill="#e8e8e8" d="M32.122 30.813A36.203 36.203 0 0 0 21.52 14.61c-.115-.102-.222-.212-.339-.312l-3.84-3.291-.466 3.16 2.479 2.125c.117.1.224.21.339.312a36.186 36.186 0 0 1 10.602 16.203 36.211 36.211 0 0 1-.758 24.106L27.948 61H29l2.365-6.081a36.211 36.211 0 0 0 .757-24.106z"></path><path fill="#e8e8e8" d="M19.079 58c-2.846 0-5.091-2.398-4.935-5.24.16-2.906.453-5.804.877-8.685l4.59-31.122-2.271-1.946-5.32 36.068A95.572 95.572 0 0 0 11 61h18l1.167-3H19.079z"></path><path fill="#084e85" d="M9 55.945V50l4.616-42.186-2.442-2.094L6 53v8h5c0-1 .023-2 .055-3A2.055 2.055 0 0 1 9 55.945z"></path><path fill="#919191" d="M44.071 57.372c-.083-.208-2.052-5.17-3.058-11.207-1.031-6.188 2.88-17.047 3.047-17.506l1.879.684c-.039.107-3.898 10.824-2.953 16.494.97 5.815 2.923 10.744 2.942 10.793l-1.857.742z"></path><path fill="#919191" d="M42 27h6v3h-6z"></path><path fill="#a9d3f5" d="M2 5h3v2H2zM2 10h2v2H2zM2 15h2v2H2z"></path></svg>