<svg xmlns="http://www.w3.org/2000/svg" enable-background="new 0 0 65 65" viewBox="0 0 65 65" id="eye"><g><g><path fill="#E39A61" d="M40.5 37l.5 1.3c0 0 .8.1 2 .1 1.2 0 2.8-.1 4.3-.4.8-.2 1.5-.4 2.2-.6.3-.1.7-.2 1-.4.3-.2.6-.3.8-.4.5-.3.9-.6 1.2-.8.3-.2.4-.3.4-.3s-.2.1-.4.3c-.3.2-.7.4-1.2.7-.3.1-.6.2-.9.3-.3.1-.6.2-1 .3-.7.2-1.4.3-2.2.4-1.5.1-3 .1-4.2 0C41.9 37.3 40.5 37 40.5 37zM37 35.6l.1 1.1c0 0 .7-.1 1.5-.4.9-.3 2-.8 3-1.5.5-.4 1-.8 1.3-1.2.2-.2.4-.4.5-.6.2-.2.3-.4.4-.6.3-.4.4-.7.6-.9.1-.2.2-.4.2-.4s-.1.1-.2.3c-.1.2-.4.5-.7.8-.1.2-.3.3-.5.5-.2.2-.4.4-.6.5-.4.3-.9.7-1.4 1-1 .6-2.1.9-2.9 1.1C37.6 35.6 37 35.6 37 35.6zM33.3 34.4c-.1 0-.2 0-.2 0-.1 0-.1 0-.1 0l-.1 1.2c0 0 0 0 .1 0 .1 0 .2 0 .4 0 .3 0 .7-.2 1.2-.4.9-.4 1.9-1.2 2.7-2.2.4-.5.7-1 1-1.5.3-.5.5-1 .7-1.4.2-.4.3-.8.4-1 .1-.2.2-.4.2-.4s-.1.1-.2.4c-.1.2-.3.6-.6.9-.3.4-.5.8-.9 1.3-.3.5-.7.9-1.2 1.3C36 33.4 35 34 34.2 34.2 33.8 34.4 33.5 34.4 33.3 34.4zM31.2 34.5c.6-.3 1.4-.9 2-1.5.7-.6 1.2-1.3 1.5-1.9.2-.3.3-.5.4-.7.1-.2.1-.3.1-.3s-.1.1-.2.2c-.1.2-.3.4-.5.6-.4.5-1.1 1.1-1.8 1.6-.7.5-1.5.9-2 1.1-.6.2-1 .3-1 .3l.3 1.1C30.1 35 30.6 34.8 31.2 34.5z"></path><polygon fill="#E39A61" points="26.9 34.4 28.1 34.4 27.5 29.1"></polygon><path fill="#E39A61" d="M26.6 33.9c-.1-.1-.2-.2-.3-.3-.3-.3-.6-.8-.9-1.3-.6-1-.9-2.2-.9-2.2s0 1.2.3 2.4c.2.6.4 1.2.6 1.6.1.2.2.4.3.5.1.1.2.2.2.2l.8-.8C26.7 34 26.7 34 26.6 33.9zM23.1 34.4c-.4 0-.9-.2-1.5-.5-.5-.3-1-.7-1.3-1.1-.3-.3-.5-.6-.5-.6s.1.3.4.7c.3.4.6.9 1.1 1.4.5.5 1.1.9 1.7 1 .3.1.5.1.7.1.1 0 .2 0 .2 0l0-1.2c0 0-.1 0-.2 0C23.5 34.4 23.3 34.4 23.1 34.4zM18.1 36.7c-.4-.1-.9-.2-1.2-.3-.3-.1-.5-.2-.5-.2s.2.1.5.4c.3.2.7.5 1.1.7.4.2 1 .4 1.5.3.3-.1.5-.2.6-.4.1-.1.1-.1.1-.2 0-.1 0-.1 0-.1v-.4C20.3 36.5 18.6 36.8 18.1 36.7zM55.8 42.9c-.1.1-.3.2-.5.3-.2.1-.5.2-.7.3-.3.1-.6.2-.9.2-.3.1-.7.1-1 .1-.3 0-.7-.1-1.1-.1-.4 0-.7-.2-1.1-.3-.3-.2-.7-.3-1-.4-.3-.2-.6-.3-.9-.5-.6-.4-1.1-.8-1.5-1.1-.1-.1-.1-.1-.2-.1.1 0 .3 0 .4 0 .4 0 .8 0 1.2-.1.4-.1.8-.1 1.2-.2.4-.1.8-.2 1.1-.3.4-.1.7-.3 1.1-.4.3-.2.7-.3.9-.5.3-.2.6-.3.8-.5.5-.3.9-.6 1.2-.8.3-.2.4-.3.4-.3s-.2.1-.5.3c-.3.2-.7.4-1.2.7-.3.1-.5.2-.8.4-.3.1-.6.2-1 .4-.3.1-.7.2-1.1.3-.4.1-.7.2-1.1.2-.4.1-.7.1-1.1.1-.4 0-.7 0-1.1 0-.3-.1-.7-.1-1-.2-.2-.1-.4-.1-.6-.2 0 0 0 0 0 0l0 0c-.1 0-.1 0-.2-.1-.5-.2-.9-.4-1.1-.6-.2-.2-.3-.3-.3-.3l-.8.8c0 0 .2.2.5.4.3.2.6.3 1.1.5l0 0c0 0 .6.6 1.5 1.3.5.3 1.1.7 1.7 1.1.3.2.7.3 1 .5.4.2.8.2 1.1.4.4.1.8.2 1.2.2.4 0 .8.1 1.1 0 .4 0 .7-.1 1-.2.3-.1.6-.2.9-.3.3-.1.5-.2.7-.3C55.5 43.2 55.6 43.1 55.8 42.9c.3-.1.5-.3.5-.3S56 42.8 55.8 42.9zM51.3 48c-.2-.3-.6-.5-.9-.8-.4-.3-.8-.5-1.2-.7-.9-.4-1.8-.7-2.6-.8-.7-.1-1.3-.1-1.3-.1l.1 1.1c0 0 .4-.1 1.1-.1.7 0 1.6.1 2.4.4.4.1.9.3 1.3.5.4.2.7.4 1 .6.3.2.5.4.7.5.2.1.2.2.2.2s-.1-.1-.2-.2C51.7 48.4 51.5 48.2 51.3 48zM47.1 50.4c-.2-.2-.4-.5-.7-.8-.3-.3-.6-.5-.9-.7-.7-.5-1.4-.8-2-.9-.6-.2-1-.2-1-.2l0 1.2c0 0 .3 0 .9 0 .5 0 1.3.2 1.9.5.3.1.7.3 1 .5.3.2.6.4.7.6.2.2.4.4.5.5.1.1.2.2.2.2s0-.1-.1-.2C47.4 50.9 47.3 50.6 47.1 50.4zM43.5 52.3c-.4-.5-.9-1.1-1.6-1.6-.7-.5-1.4-.9-2-1.1-.6-.2-1.1-.3-1.1-.3l-.1 1.1c0 0 .3 0 .9.1.6.1 1.3.3 2 .7.7.3 1.4.8 1.8 1.2.2.2.4.4.5.5.1.1.2.2.2.2s-.1-.1-.1-.2C43.8 52.8 43.7 52.5 43.5 52.3zM39.5 53.6c-.3-.5-.8-1.1-1.4-1.7-.6-.6-1.2-1.1-1.8-1.4-.5-.3-.9-.5-.9-.5L35 51.1c0 0 .3.1.9.3.5.2 1.2.5 1.9 1 .6.4 1.2.9 1.6 1.4.2.2.4.4.5.5.1.1.2.2.2.2s0-.1-.1-.2C39.8 54.1 39.7 53.9 39.5 53.6zM34.5 52.5c-.4-.6-.8-1.2-1.2-1.7-.4-.4-.7-.7-.7-.7L31.9 51c0 0 .3.2.7.5.4.3.9.8 1.4 1.3.5.5.8 1.1 1 1.6.1.2.2.5.2.6 0 .2 0 .2 0 .2s0-.1 0-.2c0-.2 0-.4 0-.7C35.1 53.8 34.9 53.1 34.5 52.5zM31.6 52.6c-.5-1.1-1.3-2-1.3-2L29 50.9c0 0 .8.7 1.1 1 .3.3.7.7 1.1 1.1.4.4.7.9.9 1.3.2.4.2.7.2.7s0-.3-.1-.7C32.1 53.7 31.9 53.1 31.6 52.6z"></path><polygon fill="#E39A61" points="27.5 54.8 27.6 50.8 26.2 50.6"></polygon></g><path fill="#EFF3F5" d="M10.5,43.8c0,0,10.9-9.1,16.7-9.4c11-0.6,21.1,8.4,21.1,8.4l-2,3.2c0,0-8,7.6-24.5,4.1c0,0-5.8-2.6-8.5-2.6   c-2.7-0.1-5.5,1.4-6.4,0C6,46.1,10.5,43.8,10.5,43.8z"></path><path fill="#445C6C" d="M1.2,25.1c0,0-3.6,5.6,5.3,2.5c8.9-3.2,31.6-11.2,36.5-11.2c4.9,0,17,5.2,21.5,10.1c0,0-5.8-13.6-22.5-16.3   C25.3,7.4,2.5,21.2,2.5,21.2L1.2,25.1z"></path><path fill="#E39A61" d="M6.7 42c.1-.2 8.9-12.2 13.2-14.2 4.3-2 21.5.2 26.8 5.5C52 38.7 52 42 52 42s-1.5-4.5-6.2-8.2c-4.7-3.7-19.2-7.6-25.4-4.8C14.3 31.8 6.7 42 6.7 42zM19.2 36.5C19.2 36.5 19.2 36.5 19.2 36.5L19.2 36.5C19.2 36.5 19.2 36.5 19.2 36.5 19.2 36.5 19.2 36.5 19.2 36.5zM19.2 36.5L19.2 36.5C19.2 36.5 19.2 36.5 19.2 36.5z"></path><path fill="#E1E4E5" d="M28.8,38c7.9,0,14.5,3.5,17,8.4c0.3-0.2,0.5-0.4,0.5-0.4l2-3.2c0,0-10.1-9-21.1-8.4   c-5.7,0.3-16.7,9.4-16.7,9.4S6,46.1,6.9,47.5c0.7,1,2.4,0.5,4.3,0.2C13.1,42.1,20.2,38,28.8,38z"></path><path fill="#41B3E2" d="M34.7,35.5c-0.5-0.1-1-0.2-1.4-0.4c0,0,0,0,0,0c-2.8,0.1-5.5-0.5-8.3-0.7c-0.5,0.3-1,0.4-1.6,0.5   c-1.8,1.5-3,3.8-3,6.4c0,4.6,3.7,8.3,8.3,8.3c4.6,0,8.3-3.7,8.3-8.3C37.1,39,36.2,37,34.7,35.5z"></path><circle cx="28.8" cy="41.3" r="3.8" fill="#2B3E49"></circle><path fill="#E39A61" d="M6.9,47.5c0,0-1.5-1,3.3-4.1c4.8-3.1,10.5-7.7,13.4-9c2.4-1.1,15.5-1.6,24.7,8.5c0,0-12.9-10.2-24.1-7.4   c-3.8,1-11.9,6.8-12.9,8.4c-0.9,1.6,1.8,3.1,1.8,3.1l-2.9-2.4C10.2,44.5,6.8,46.3,6.9,47.5z"></path><circle cx="32.3" cy="39.5" r="1.4" fill="#FFF"></circle><path fill="#E39A61" d="M46.9,45.2c0,0-4,9.3-25.1,4.9c0,0,16.4,3.2,24-5.7l1.4-2.5l1.1,0.9L46.9,45.2z"></path></g></svg>