<svg xmlns="http://www.w3.org/2000/svg" viewBox="0 0 64 64" id="trash-bag"><g data-name="Layer 2"><path fill="#212121" d="M43,4.2c-.1.4-2.2,8.6-7.6,10.7H35c-6.4,0-6.1.1-6.4-.1C23.2,12.8,21.1,4.6,21,4.2A1,1,0,0,1,22,3c4.3.1,6.6-.7,10,3.1A8.1,8.1,0,0,1,38,3h4A1,1,0,0,1,43,4.2Z"></path><path fill="#fbc02d" d="M36,13H28a3,3,0,0,0,0,6h8a3,3,0,0,0,0-6Z"></path><path fill="#ff8f00" d="M36,13a2.9,2.9,0,0,1-3,3H25a2.9,2.9,0,0,0,3,3h8a2.9,2.9,0,0,0,3-3A3,3,0,0,0,36,13Z"></path><path fill="#111" d="M36.8,9.8l-1.9.8A17.3,17.3,0,0,0,32,6.1l1.5-1.4A23.2,23.2,0,0,1,36.8,9.8Z"></path><path fill="#212121" d="M52.9,47.6A2.9,2.9,0,0,1,51,44.9V30A13,13,0,0,0,38,17H26A13,13,0,0,0,13,30V44.9a2.9,2.9,0,0,1-1.9,2.7A7,7,0,0,0,7,54.2,7.2,7.2,0,0,0,14.3,61H49.7A7.2,7.2,0,0,0,57,54.2,7,7,0,0,0,52.9,47.6Z"></path><path fill="#111" d="M52.9,47.6A2.9,2.9,0,0,1,51,44.9V30A13,13,0,0,0,38,17H33.3A9.6,9.6,0,0,1,43,26.7V39.9A15.2,15.2,0,0,1,27.9,55H7.1a7.2,7.2,0,0,0,7.2,6H49.7A7.2,7.2,0,0,0,57,54.2,7,7,0,0,0,52.9,47.6Z"></path><path fill="#00e676" d="M35.7 38.8l-1.2-.3-.4 2 3.5.7h.2a1 1 0 0 0 1-.7l.8-3.5-1.9-.5-.3 1.2-4.5-8a1.1 1.1 0 0 0-1.8-.1l-2.7 4.8 1.7 1L32 32.2zM26.7 37.7l-3.4 1 .5 1.9 1.1-.3-4.7 7.9a1 1 0 0 0 .9 1.5h5.5v-2H22.9l3.8-6.5.4 1.2 1.9-.7-1.1-3.3A1 1 0 0 0 26.7 37.7zM43.8 48.2L41 43.5l-1.7 1 1.9 3.2H33.5l.9-1-1.5-1.3-2.4 2.7a.9.9 0 0 0 .1 1.3l2.5 2.5 1.4-1.4-.8-.8h9.2A1 1 0 0 0 43.8 48.2z"></path></g></svg>