<svg xmlns="http://www.w3.org/2000/svg" enable-background="new 0 0 65 65" viewBox="0 0 65 65" id="beauty"><g><ellipse cx="32.4" cy="30.3" fill="#445C6C" rx="16.7" ry="16.2"></ellipse><ellipse cx="32.4" cy="19.6" fill="#445C6C" rx="16.7" ry="19.1"></ellipse><g><ellipse cx="17.8" cy="25.1" fill="#FDC77C" rx="2.1" ry="4.3"></ellipse><ellipse cx="47.6" cy="25.1" fill="#FDC77C" rx="2.1" ry="4.3"></ellipse></g><path fill="#FDC77C" d="M6.5,64.5c0.7-3.9,3.3-11.5,5.2-12.9c2.2-1.7,10.9-2,13.3-4.3c2.4-2.3,0.6-7.7,0.6-7.7l6.9-1l6.9,1   c0,0-1.8,5.4,0.6,7.7s11.1,2.6,13.3,4.3c1.9,1.5,4.4,9,5.2,12.9H6.5z"></path><path fill="#379FC8" d="M48.8,64.5H16.2c0.3-1.9,1.6-3.5,3.5-4.5l-1.2-10.4l2-0.4l1.1,10.1c0.6-0.1,3.3-0.2,4-0.2   c3.1,0,5.7,1.6,6.9,3.8c1.1-2.2,3.8-3.8,6.9-3.8c0.7,0,3.4,0.1,4,0.2l1.1-10.1l2,0.4L45.3,60C47.1,61,48.4,62.6,48.8,64.5z"></path><path fill="#FBD984" d="M38.4,10.5c-2.2,0-4.2,0-5.7,1.5c-1.5-1.5-3.5-1.5-5.7-1.5c-1.7,0-3.5,0.4-4.7,1.5c-3,2.8-4.1,7.6-4.1,12.5   c0,9.9,6.5,18,14.5,18c8,0,14.5-8.1,14.5-18c0-4.9-1.1-9.6-4.1-12.5C41.9,10.9,40.1,10.5,38.4,10.5z"></path><path fill="#EFF3F5" d="M46.1,23.6c0-5-1.5-8.8-4-11.3c-1.1-0.6-2.4-0.8-3.7-0.8c-2.2,0-4.2,0-5.7,1.5c-1.5-1.5-3.5-1.5-5.7-1.5   c-1.3,0-2.6,0.2-3.7,0.8c-2.4,2.5-4,6.3-4,11.3c0,9.9,6,18,13.4,18S46.1,33.6,46.1,23.6z"></path><ellipse cx="26.6" cy="22.5" fill="#FBD984" rx="4.2" ry="3.9"></ellipse><ellipse cx="38.3" cy="22.5" fill="#FBD984" rx="4.2" ry="3.9"></ellipse><ellipse cx="32.7" cy="35.6" fill="#FBD984" rx="4.2" ry="3.1"></ellipse><ellipse cx="32.4" cy="29.2" fill="#FBD984" rx="2.5" ry="1.1"></ellipse></g></svg>