<svg xmlns="http://www.w3.org/2000/svg" enable-background="new 0 0 65 65" viewBox="0 0 65 65" id="cosmetics"><g><g><path fill="#E39A61" d="M2.2,38.2c-0.2,0.4-0.4,0.7-0.6,1.1l5.4,3.4l-5.9-2.3l0,0L5,42.6l-4-1.4c-0.8,2.8-0.5,5.2,1,6.1    c2,1.2,11.6,2.6,13.8-1.2c2.2-3.8-3.9-11.3-5.9-12.5S4.4,34.4,2.2,38.2z"></path><path fill="#F1786B" d="M47.6,64.1c1-1.7-8.3-8.9-22-17.3L21.5,54C35.8,61.5,46.7,65.8,47.6,64.1z"></path><path fill="#DBDFE0" d="M11.1,48.3c3.6,2.1,7.1,4,10.5,5.7l4.1-7.2c-3.2-2-6.6-4-10.2-6.1L11.1,48.3z"></path></g><g><circle cx="40.7" cy="24.3" r="23.8" fill="#445C6C"></circle><path fill="#5AC8AE" d="M39.4,23V3.7C29,4.3,20.7,12.6,20.1,23L39.4,23z"></path><path fill="#FBD984" d="M42,23l19.3,0C60.7,12.6,52.4,4.3,42,3.7V23z"></path><path fill="#F1786B" d="M39.4,25.6l-19.3,0C20.7,36,29,44.3,39.4,44.9V25.6z"></path><path fill="#41B3E2" d="M42,25.6v19.3c10.4-0.6,18.7-8.9,19.3-19.3L42,25.6z"></path><path fill="#6ED3B9" d="M20.1,23L20.1,23c1.2-9.9,9.3-17.7,19.3-18.3v-1C29,4.3,20.7,12.6,20.1,23z"></path><path fill="#FFE2A1" d="M61.2,23L61.2,23C60.7,12.6,52.4,4.3,42,3.7v1C52,5.3,60.1,13.1,61.2,23z"></path><path fill="#F98980" d="M20.1,25.6c0,0.3,0.1,0.7,0.1,1l19.3,0v-1L20.1,25.6z"></path><path fill="#58CAED" d="M61.3,25.6l-19.3,0v1l19.3,0C61.2,26.2,61.3,25.9,61.3,25.6z"></path></g></g></svg>