<svg xmlns="http://www.w3.org/2000/svg" viewBox="0 0 64 64" id="broom"><g data-name="Layer 2"><path fill="#fbc02d" d="M35.3,55.8c-.8,0-3.3-.1-4.2-1.3a12.6,12.6,0,0,1-2.7-6.2.9.9,0,0,0-.3-.6L12.6,32.2a.9.9,0,0,0-1.1-.2C3.9,35,3,41.1,3,45.4v.3a27.8,27.8,0,0,0,2.8,6,1,1,0,0,0,1.8-.3c.9-3.5,1.9-5.5,3.9-7.1-1.7,3.5-2.9,8.4-1.4,11.9.1.2.1.3.3.4C13.2,59,15.9,61,21.1,61a1,1,0,0,0,1.1-1.1,15.3,15.3,0,0,1,.2-4.6,8.1,8.1,0,0,0,4,5.6h.5c4.2,0,7-1.1,9.2-3.5A1,1,0,0,0,35.3,55.8Z"></path><path fill="#f4511e" d="M56.4,3.9a2.9,2.9,0,0,0-4.2,0L22.5,33.6a1,1,0,0,0,0,1.4l2.8,2.8a1,1,0,0,0,1.4,0L56.4,8.1A2.9,2.9,0,0,0,56.4,3.9Z"></path><path fill="#bf360c" d="M29.1,31.4a2.9,2.9,0,0,1-4.2,0h-.1l-2.3,2.3a1,1,0,0,0,0,1.4l2.8,2.8a1,1,0,0,0,1.4,0L56.4,8.1A3,3,0,0,0,56.5,4Z"></path><path fill="#80deea" d="M46.4 45.3c-2.1-.8-3.2-2.1-3.4-3.9a1 1 0 0 0-2 0c-.2 1.8-1.3 3.1-3.5 3.9a1.1 1.1 0 0 0 0 1.9c2.2.8 3.3 2.1 3.5 3.9a1 1 0 0 0 2 0c.2-1.8 1.3-3.1 3.4-3.9A1 1 0 0 0 46.4 45.3zM50 51H49a3 3 0 0 0 0 6h2V55H49a1 1 0 0 1 0-2h1a3 3 0 0 1 0 6H37v2H50a5 5 0 0 0 0-10z"></path><rect width="4" height="2" x="39" y="54" fill="#80deea"></rect><rect width="4" height="2" x="33" y="50" fill="#80deea"></rect><path fill="#ff8f00" d="M7.6 51.4a13.8 13.8 0 0 1 2.5-5.7c-1.4 1.3-3.4 3.1-4 2.7s-2.2-3.8-2.8-6.5A21.6 21.6 0 0 0 3 45.4v.3a27.8 27.8 0 0 0 2.8 6A1 1 0 0 0 7.6 51.4zM35.3 55.8c-.8 0-3.3-.1-4.2-1.3a12.6 12.6 0 0 1-2.7-6.2.9.9 0 0 0-.3-.6L23.4 43c.3 3.2.7 6.9 1.5 9 1.7 4.3 4.2 5.5 4.1 5.9s-3.1 1.4-4.4 1.6a8.6 8.6 0 0 0 1.8 1.4h.5c4.2 0 7-1.1 9.2-3.5A1 1 0 0 0 35.3 55.8zM22.2 59.9a15.3 15.3 0 0 1 .2-4.6s-.2 3.2-2.7 3.3-9.7-4-10.3-6a8.6 8.6 0 0 0 .7 3.6c.1.2.1.3.3.4C13.2 59 15.9 61 21.1 61A1 1 0 0 0 22.2 59.9z"></path><path fill="#1565c0" d="M29.1,38.8l-7.6-7.6a5.1,5.1,0,0,0-5.4-1.1L11.5,32a1,1,0,0,0-.4,1.6L26.7,49.1a.9.9,0,0,0,1.6-.3l1.9-4.6A5.1,5.1,0,0,0,29.1,38.8Z"></path><path fill="#0d47a1" d="M29.1,38.8l-.8-.8c-.1,0-.1.1-.1.2l-1.3,3.2a2.1,2.1,0,0,1-3.3.7L12.9,31.4l-1.4.6a1,1,0,0,0-.4,1.6L26.7,49.1a.9.9,0,0,0,1.6-.3l1.9-4.6A5.1,5.1,0,0,0,29.1,38.8Z"></path></g></svg>