<svg xmlns="http://www.w3.org/2000/svg"  viewBox="0 0 50 50" width="50px" height="50px"><path d="M 25 2 C 12.32 2 2 12.32 2 25 C 2 37.68 12.32 48 25 48 C 37.68 48 48 37.68 48 25 C 48 12.32 37.68 2 25 2 z M 14.523438 10.986328 C 14.688438 10.975078 14.854766 11.005078 15.009766 11.080078 L 27.970703 17.169922 C 27.970703 17.179922 27.980469 17.179688 27.980469 17.179688 L 34.970703 13.689453 C 35.280703 13.539453 35.639453 13.550234 35.939453 13.740234 C 36.229453 13.920234 36.410156 14.239844 36.410156 14.589844 L 36.410156 32.080078 C 36.410156 32.450078 36.199375 32.800703 35.859375 32.970703 L 21.980469 39.910156 C 21.830469 39.980156 21.679297 40.019531 21.529297 40.019531 C 21.349297 40.019531 21.16 39.969141 21 39.869141 C 20.71 39.689141 20.529297 39.359531 20.529297 39.019531 L 20.529297 33.240234 L 14.160156 30.240234 C 13.810156 30.080234 13.589844 29.729844 13.589844 29.339844 L 13.589844 11.980469 C 13.589844 11.640469 13.760781 11.320625 14.050781 11.140625 C 14.195781 11.050625 14.358437 10.997578 14.523438 10.986328 z M 15.589844 13.560547 L 15.589844 28.699219 L 20.529297 31.029297 L 20.529297 29.080078 L 17.169922 27.679688 C 16.659922 27.469687 16.410859 26.890859 16.630859 26.380859 C 16.840859 25.870859 17.419687 25.629844 17.929688 25.839844 L 20.529297 26.910156 L 20.529297 24.740234 L 17.169922 23.339844 C 16.659922 23.129844 16.410859 22.549063 16.630859 22.039062 C 16.840859 21.529062 17.419687 21.29 17.929688 21.5 L 20.529297 22.570312 L 20.529297 21.529297 C 20.529297 21.149297 20.740078 20.800859 21.080078 20.630859 L 17.169922 19 C 16.659922 18.79 16.410859 18.209219 16.630859 17.699219 C 16.840859 17.189219 17.419687 16.950156 17.929688 17.160156 L 23.460938 19.449219 L 25.710938 18.320312 L 15.589844 13.560547 z M 34.410156 16.199219 L 22.529297 22.150391 L 22.529297 37.400391 L 34.410156 31.460938 L 34.410156 16.199219 z M 32.123047 19.544922 C 32.512578 19.518672 32.900078 19.722344 33.080078 20.089844 C 33.330078 20.589844 33.130625 21.189688 32.640625 21.429688 L 25.390625 25.050781 C 25.240625 25.130781 25.089453 25.160156 24.939453 25.160156 C 24.569453 25.160156 24.220781 24.959375 24.050781 24.609375 C 23.800781 24.109375 24.000234 23.509531 24.490234 23.269531 L 31.740234 19.650391 C 31.862734 19.587891 31.993203 19.553672 32.123047 19.544922 z M 32.123047 23.884766 C 32.512578 23.858516 32.900078 24.062188 33.080078 24.429688 C 33.330078 24.929688 33.130625 25.529531 32.640625 25.769531 L 25.390625 29.390625 C 25.240625 29.470625 25.089453 29.5 24.939453 29.5 C 24.569453 29.5 24.220781 29.299219 24.050781 28.949219 C 23.800781 28.449219 24.000234 27.849375 24.490234 27.609375 L 31.740234 23.990234 C 31.862734 23.927734 31.993203 23.893516 32.123047 23.884766 z M 32.123047 28.224609 C 32.512578 28.198359 32.900078 28.402031 33.080078 28.769531 C 33.330078 29.269531 33.130625 29.869375 32.640625 30.109375 L 25.390625 33.730469 C 25.240625 33.810469 25.089453 33.839844 24.939453 33.839844 C 24.569453 33.839844 24.220781 33.639062 24.050781 33.289062 C 23.800781 32.789062 24.000234 32.189219 24.490234 31.949219 L 31.740234 28.330078 C 31.862734 28.267578 31.993203 28.233359 32.123047 28.224609 z"/></svg>