<svg width="16" height="16" viewBox="0 0 16 16" fill="none" xmlns="http://www.w3.org/2000/svg">
<g id="social-button_icons" clip-path="url(#clip0_5281_146960)">
<path id="Union" fill-rule="evenodd" clip-rule="evenodd" d="M12.2394 0.167429C12.4619 -0.0558095 12.8246 -0.0558095 13.047 0.167429L14.5709 1.69124C14.6825 1.80289 14.7383 1.94904 14.7383 2.09517C14.7383 2.26122 14.6673 2.41114 14.5541 2.51558L13.047 4.02267C12.8246 4.2459 12.4619 4.2459 12.2394 4.02267C12.0162 3.80019 12.0162 3.43752 12.2394 3.21505L12.7872 2.66695H8.07162C7.75619 2.66695 7.50019 2.41095 7.50019 2.09552C7.50019 1.78009 7.75619 1.52409 8.07162 1.52409H12.7881L12.2394 0.975048C12.0162 0.752571 12.0162 0.389905 12.2394 0.167429ZM3.99924 2.46756C4.22248 2.69003 4.22248 3.0527 3.99924 3.27518L3.45057 3.82422H8.16685C8.48228 3.82422 8.73828 4.08022 8.73828 4.39565C8.73828 4.71108 8.48228 4.96708 8.16685 4.96708H3.45151L3.99924 5.51518C4.22248 5.73765 4.22248 6.10032 3.99924 6.3228C3.77676 6.54603 3.41409 6.54603 3.19162 6.3228L1.68668 4.81786C1.57211 4.71334 1.50019 4.56284 1.50019 4.39565C1.50019 4.30517 1.52125 4.21957 1.55874 4.14351C1.58573 4.08859 1.62209 4.03709 1.66781 3.99137L3.19162 2.46756C3.41409 2.24432 3.77676 2.24432 3.99924 2.46756ZM1.15124 8.41512C1.08038 8.34351 0.983619 8.30389 0.882286 8.30389H0.380952C0.170667 8.30389 0 8.47455 0 8.68484V13.8178C0 13.9184 0.040381 14.0151 0.111238 14.0867C0.182857 14.1584 0.279619 14.1987 0.380952 14.1987H0.882286C0.983619 14.1987 1.08038 14.1584 1.15124 14.0867C1.22286 14.0151 1.26324 13.9184 1.26324 13.8178V8.68484C1.26324 8.58351 1.22286 8.48674 1.15124 8.41512ZM5.3181 9.4216C5.48038 9.01855 5.78133 8.69094 6.16152 8.49436C5.62895 8.15608 4.97067 8.07303 4.36724 8.27417L2.10514 9.02846V13.7774H3.06514C3.61752 13.7774 4.15848 13.9328 4.62705 14.2254L6.29943 15.2707C6.77943 15.5702 7.39962 15.5146 7.81867 15.1344L9.39962 13.6967C9.82248 13.3119 10.051 12.7572 10.0206 12.1866C10.0122 12.0288 9.93752 11.8506 9.84762 11.6738C9.73105 11.4445 9.58324 11.2212 9.45524 11.0452L7.46133 11.7584C6.65905 12.0456 5.76914 11.6883 5.38743 10.9264L5.37676 10.905C5.14591 10.4418 5.12381 9.9016 5.3181 9.4216ZM13.8949 13.1816V9.04294L10.7634 8.15379C10.3444 8.03493 9.89867 8.04865 9.48724 8.19417L6.67124 9.18922C6.41067 9.28065 6.20191 9.48027 6.09905 9.73627C5.99543 9.99303 6.00686 10.281 6.13029 10.5279L6.14095 10.5492C6.33143 10.9302 6.77714 11.1092 7.17791 10.966L10.1234 9.91151C10.3421 9.83303 10.5836 9.94732 10.6613 10.166C10.7398 10.3846 10.6263 10.6262 10.4069 10.7046L10.2728 10.7526C10.5463 11.1694 10.8396 11.7172 10.8617 12.1416C10.9051 12.966 10.576 13.7652 9.96572 14.3199L9.91391 14.3671L10.8968 14.6483C11.632 14.8586 12.4236 14.6536 12.9638 14.1126L13.8949 13.1816ZM14.8488 14.0867C14.9196 14.1584 15.0164 14.1987 15.1177 14.1987H15.619C15.8293 14.1987 16 14.0281 16 13.8178V8.68484C16 8.58351 15.9596 8.48674 15.8888 8.41512C15.8171 8.34351 15.7204 8.30389 15.619 8.30389H15.1177C14.9074 8.30389 14.7368 8.47455 14.7368 8.68484V13.8178C14.7368 13.9184 14.7771 14.0151 14.8488 14.0867Z" fill="white"/>
</g>
<defs>
<clipPath id="clip0_5281_146960">
<rect width="16" height="16" fill="white"/>
</clipPath>
</defs>
</svg>
