<svg width="32" height="32" viewBox="0 0 32 32" fill="none" xmlns="http://www.w3.org/2000/svg">
<g id="social-button_icons" clip-path="url(#clip0_5845_476)">
<path id="Union" fill-rule="evenodd" clip-rule="evenodd" d="M0.292969 9.81881C0.292969 4.39606 4.68903 0 10.1118 0C15.5345 0 19.9305 4.39606 19.9307 9.81881C19.9307 10.0273 19.9227 10.2338 19.9099 10.439C18.9985 10.5912 18.1092 10.8489 17.2507 11.2119C16.2383 11.6402 15.3002 12.2008 14.4485 12.8838V12.5144H5.77509V14.6012L12.7037 14.6013C11.968 15.4905 11.3687 16.4772 10.9164 17.5463C10.6293 18.2248 10.4087 18.9227 10.2532 19.6354C10.2378 19.6357 10.2226 19.636 10.2073 19.6363C10.1755 19.637 10.1437 19.6376 10.1118 19.6376C7.96772 19.6376 5.98453 18.9499 4.36978 17.7838L0.388906 18.8504L1.52997 14.5919C0.742344 13.1789 0.292969 11.5514 0.292969 9.81881ZM5.77509 8.77531V10.8623H14.4485V8.77531H5.77509ZM5.77509 5.03631V7.12325H14.4485V5.03631H5.77509ZM21.8872 12.3624C27.3099 12.3624 31.7059 16.7584 31.7059 22.1812C31.7059 23.9138 31.2566 25.5412 30.4689 26.9543L31.61 31.2129L27.6291 30.1463C26.0143 31.3124 24.0311 32 21.8871 32C16.4644 32 12.0684 27.6039 12.0684 22.1812C12.0684 16.7585 16.4645 12.3624 21.8872 12.3624ZM17.5504 24.8768V26.9637H26.2238V24.8768H17.5504ZM17.5504 23.2247H26.2238V21.1378H17.5504V23.2247ZM17.5504 19.4856H26.2238V17.3987H17.5504V19.4856Z" fill="#1075EE"/>
</g>
<defs>
<clipPath id="clip0_5845_476">
<rect width="32" height="32" fill="white"/>
</clipPath>
</defs>
</svg>
