<svg width="32" height="32" viewBox="0 0 32 32" fill="none" xmlns="http://www.w3.org/2000/svg">
<g id="social-button_icons">
<rect width="32" height="32" rx="16" fill="#EF4424"/>
<path id="Union" fill-rule="evenodd" clip-rule="evenodd" d="M10.2596 18.0495C10.2596 17.4293 9.57989 17.1135 8.78912 16.7462C7.68943 16.2353 6.37494 15.6246 6.37494 13.9566C6.37494 12.1183 7.98029 11.4199 9.51209 11.4199C10.1615 11.4199 11.9507 11.5424 11.9507 12.4983C11.9507 12.8291 11.7301 13.5032 11.1909 13.5032C11.0151 13.5032 10.8724 13.4292 10.7007 13.3403C10.4415 13.206 10.1164 13.0375 9.51209 13.0375C8.64192 13.0375 8.28659 13.3929 8.28659 13.7729C8.28659 14.2465 8.86682 14.5022 9.5788 14.8161C10.709 15.3144 12.1712 15.9589 12.1712 17.8536C12.1712 19.6182 10.8845 20.5741 9.10765 20.5741C7.50223 20.5741 6.1543 19.7898 6.1543 18.981C6.1543 18.5643 6.52196 17.9516 6.98761 17.9516C7.22694 17.9516 7.43029 18.1082 7.668 18.2912C8.00237 18.5486 8.40471 18.8584 9.0708 18.8584C9.63459 18.8583 10.2596 18.6378 10.2596 18.0495ZM13.0176 17.6326V14.3852C13.0176 12.2775 14.3288 11.4932 16.0199 11.4932C17.711 11.4932 19.0345 12.2775 19.0345 14.3852V17.6326C19.0345 19.7404 17.711 20.5247 16.0199 20.5247C14.3288 20.5247 13.0176 19.7404 13.0176 17.6326ZM17.1228 14.3852C17.1228 13.5396 16.7061 13.1598 16.0199 13.1598C15.3337 13.1598 14.9292 13.5396 14.9292 14.3852V17.6326C14.9292 18.4782 15.3337 18.858 16.0199 18.858C16.7061 18.858 17.1228 18.4782 17.1228 17.6326V14.3852ZM22.4649 16.7462C23.2557 17.1135 23.9354 17.4293 23.9354 18.0495C23.9354 18.6378 23.3104 18.8583 22.7466 18.8584C22.0805 18.8584 21.6781 18.5486 21.3438 18.2912C21.1061 18.1082 20.9027 17.9516 20.6634 17.9516C20.1977 17.9516 19.8301 18.5643 19.8301 18.981C19.8301 19.7898 21.178 20.5741 22.7834 20.5741C24.5603 20.5741 25.847 19.6182 25.847 17.8536C25.847 15.9589 24.3848 15.3144 23.2546 14.8161C22.5426 14.5022 21.9624 14.2465 21.9624 13.7729C21.9624 13.3929 22.3177 13.0375 23.1879 13.0375C23.7922 13.0375 24.1173 13.206 24.3764 13.3403C24.5481 13.4292 24.6909 13.5032 24.8667 13.5032C25.4059 13.5032 25.6265 12.8291 25.6265 12.4983C25.6265 11.5424 23.8373 11.4199 23.1879 11.4199C21.6561 11.4199 20.0507 12.1183 20.0507 13.9566C20.0507 15.6246 21.3652 16.2353 22.4649 16.7462Z" fill="white"/>
</g>
</svg>
