<svg width="101" height="31" viewBox="0 0 101 31" fill="none" xmlns="http://www.w3.org/2000/svg">
<g id="Group">
<g id="Group_2">
<g id="Group_3">
<path id="Vector" d="M6.48547 30.9242C6.2245 30.9242 5.96984 30.9212 5.71092 30.9158C5.17455 30.9094 4.63943 30.8667 4.10995 30.7879C3.61624 30.71 3.13797 30.5652 2.69091 30.3582C2.24795 30.1529 1.84393 29.8837 1.49434 29.5609C1.13969 29.2419 0.844421 28.872 0.620245 28.4657C0.393599 28.0567 0.236747 27.6184 0.155151 27.166C0.0670355 26.6798 0.0193613 26.1882 0.0125396 25.6955C0.0071092 25.5301 0 24.9793 0 24.9793V6.86221C0 6.86221 0.00757173 6.31995 0.0125824 6.16064C0.0191141 5.66866 0.0665112 5.17784 0.154363 4.69243C0.236109 4.23875 0.393083 3.79916 0.619852 3.38889C0.843204 2.98288 1.13683 2.61264 1.48935 2.29252C1.84147 1.96935 2.24677 1.69876 2.69049 1.49062C3.13652 1.28427 3.61389 1.14046 4.1066 1.06403C4.63782 0.984473 5.17479 0.941464 5.71303 0.935357L6.48589 0.925781H94.5099L95.292 0.935742C95.8253 0.941545 96.3574 0.98417 96.8838 1.06326C97.3815 1.14065 97.8638 1.28546 98.315 1.49292C99.2039 1.91239 99.9272 2.57602 100.383 3.39081C100.607 3.79824 100.761 4.23424 100.842 4.68401C100.931 5.1734 100.981 5.66807 100.991 6.1641C100.993 6.3862 100.993 6.62478 100.993 6.86221C101 7.15631 101 7.43624 101 7.71847V24.1323C101 24.4172 101 24.6952 100.993 24.9755C100.993 25.2306 100.993 25.4642 100.99 25.7046C100.98 26.1918 100.931 26.6777 100.844 27.1583C100.764 27.614 100.608 28.0557 100.381 28.468C100.155 28.8699 99.8617 29.2367 99.5111 29.5548C99.1612 29.8793 98.7565 30.1501 98.3125 30.3567C97.8626 30.5653 97.381 30.7107 96.8838 30.7879C96.3543 30.8671 95.8192 30.9098 95.2828 30.9158C95.0319 30.9212 94.7692 30.9242 94.5141 30.9242L93.5856 30.9258L6.48547 30.9242Z" fill="white"/>
</g>
</g>
<g id="&#60;Group&#62;">
<g id="&#60;Group&#62;_2">
<g id="&#60;Group&#62;_3">
<path id="&#60;Path&#62;" d="M19.5374 16.1525C19.5454 15.5265 19.7113 14.9127 20.0195 14.3682C20.3278 13.8238 20.7684 13.3663 21.3004 13.0384C20.9625 12.5546 20.5166 12.1564 19.9983 11.8755C19.4799 11.5945 18.9034 11.4387 18.3145 11.4202C17.0581 11.288 15.8402 12.1738 15.2 12.1738C14.5474 12.1738 13.5617 11.4333 12.5003 11.4552C11.8137 11.4774 11.1446 11.6776 10.5582 12.0361C9.97172 12.3947 9.48791 12.8994 9.15389 13.5011C7.70697 16.0124 8.78624 19.7032 10.1723 21.7332C10.8657 22.7272 11.6762 23.8375 12.7366 23.7981C13.7744 23.755 14.1619 23.1348 15.4146 23.1348C16.6556 23.1348 17.0192 23.7981 18.1012 23.7731C19.2147 23.755 19.9163 22.7747 20.5854 21.7713C21.0836 21.063 21.4671 20.2802 21.7214 19.4519C21.0745 19.1776 20.5224 18.7184 20.134 18.1317C19.7456 17.545 19.5381 16.8566 19.5374 16.1525Z" fill="#101828"/>
<path id="&#60;Path&#62;_2" d="M17.4938 10.0843C18.101 9.35362 18.4001 8.41448 18.3277 7.46631C17.4001 7.56397 16.5433 8.00839 15.9279 8.71102C15.6271 9.05427 15.3966 9.45359 15.2498 9.88617C15.103 10.3187 15.0427 10.7761 15.0723 11.2321C15.5362 11.2368 15.9952 11.136 16.4147 10.9372C16.8341 10.7384 17.2031 10.4468 17.4938 10.0843Z" fill="#101828"/>
</g>
</g>
<g id="Group_4">
<path id="Vector_2" d="M32.6553 21.2805H29.1141L28.2636 23.7979H26.7637L30.1179 14.4844H31.6763L35.0306 23.7979H33.505L32.6553 21.2805ZM29.4808 20.1189H32.2879L30.9041 16.0335H30.8654L29.4808 20.1189Z" fill="#667085"/>
<path id="Vector_3" d="M42.2745 20.4034C42.2745 22.5135 41.1479 23.8692 39.4478 23.8692C39.0171 23.8918 38.5888 23.7923 38.2119 23.5822C37.835 23.3721 37.5247 23.0598 37.3166 22.6812H37.2844V26.0445H35.894V17.0078H37.2399V18.1372H37.2654C37.4831 17.7604 37.7986 17.4497 38.1784 17.2384C38.5582 17.027 38.988 16.9228 39.4222 16.9368C41.1413 16.9368 42.2745 18.2991 42.2745 20.4034ZM40.8454 20.4034C40.8454 19.0286 40.1367 18.1248 39.0554 18.1248C37.9931 18.1248 37.2786 19.0476 37.2786 20.4034C37.2786 21.7715 37.9931 22.6878 39.0554 22.6878C40.1367 22.6878 40.8454 21.7906 40.8454 20.4034Z" fill="#667085"/>
<path id="Vector_4" d="M49.7301 20.4034C49.7301 22.5135 48.6035 23.8692 46.9033 23.8692C46.4727 23.8918 46.0443 23.7923 45.6674 23.5822C45.2905 23.3721 44.9802 23.0598 44.7721 22.6812H44.74V26.0445H43.3496V17.0078H44.6954V18.1372H44.721C44.9386 17.7604 45.2542 17.4497 45.6339 17.2384C46.0137 17.027 46.4436 16.9228 46.8777 16.9368C48.5969 16.9368 49.7301 18.2991 49.7301 20.4034ZM48.301 20.4034C48.301 19.0286 47.5923 18.1248 46.511 18.1248C45.4487 18.1248 44.7341 19.0476 44.7341 20.4034C44.7341 21.7715 45.4487 22.6878 46.511 22.6878C47.5923 22.6878 48.301 21.7906 48.301 20.4034Z" fill="#667085"/>
<path id="Vector_5" d="M54.6571 21.2034C54.7602 22.127 55.6552 22.7334 56.8782 22.7334C58.0501 22.7334 58.8932 22.127 58.8932 21.2942C58.8932 20.5713 58.3847 20.1384 57.1807 19.8418L55.9766 19.551C54.2707 19.1379 53.4787 18.3381 53.4787 17.0403C53.4787 15.4333 54.8756 14.3296 56.8592 14.3296C58.8224 14.3296 60.1682 15.4333 60.2135 17.0403H58.8099C58.7259 16.1108 57.9595 15.5498 56.8395 15.5498C55.7194 15.5498 54.953 16.1174 54.953 16.9436C54.953 17.6021 55.4425 17.9895 56.64 18.2861L57.6636 18.5381C59.5698 18.99 60.3618 19.7576 60.3618 21.1198C60.3618 22.8623 58.9772 23.9536 56.7752 23.9536C54.7148 23.9536 53.3238 22.8879 53.2339 21.2033L54.6571 21.2034Z" fill="#667085"/>
<path id="Vector_6" d="M63.3623 15.4004V17.0073H64.6503V18.1111H63.3623V21.8545C63.3623 22.436 63.6202 22.707 64.1864 22.707C64.3393 22.7044 64.492 22.6936 64.6438 22.6748V23.7719C64.3892 23.8196 64.1304 23.8412 63.8715 23.8364C62.5001 23.8364 61.9653 23.32 61.9653 22.0031V18.1111H60.9805V17.0073H61.9653V15.4004H63.3623Z" fill="#667085"/>
<path id="Vector_7" d="M65.3965 20.4028C65.3965 18.2664 66.6517 16.9238 68.609 16.9238C70.5729 16.9238 71.8222 18.2663 71.8222 20.4028C71.8222 22.5452 70.5795 23.8818 68.609 23.8818C66.6392 23.8818 65.3965 22.5452 65.3965 20.4028ZM70.4056 20.4028C70.4056 18.9373 69.7356 18.0723 68.609 18.0723C67.4824 18.0723 66.8131 18.9438 66.8131 20.4028C66.8131 21.8743 67.4824 22.7327 68.609 22.7327C69.7356 22.7327 70.4056 21.8743 70.4056 20.4028Z" fill="#667085"/>
<path id="Vector_8" d="M72.9683 17.0078H74.2943V18.1635H74.3265C74.4162 17.8026 74.6272 17.4836 74.9239 17.2602C75.2206 17.0367 75.585 16.9225 75.9558 16.9367C76.116 16.9362 76.2758 16.9536 76.4321 16.9887V18.2924C76.2299 18.2305 76.0188 18.202 75.8074 18.2082C75.6054 18.2 75.4041 18.2357 75.2172 18.3129C75.0302 18.39 74.8622 18.5068 74.7245 18.6553C74.5869 18.8037 74.4829 18.9802 74.4198 19.1727C74.3566 19.3652 74.3357 19.5691 74.3586 19.7705V23.7981H72.9683L72.9683 17.0078Z" fill="#667085"/>
<path id="Vector_9" d="M82.8425 21.8032C82.6555 23.0359 81.458 23.8818 79.9259 23.8818C77.9555 23.8818 76.7324 22.5583 76.7324 20.4351C76.7324 18.3052 77.962 16.9238 79.8675 16.9238C81.7415 16.9238 82.92 18.2144 82.92 20.2732V20.7507H78.1359V20.835C78.1139 21.0849 78.1451 21.3366 78.2275 21.5735C78.3099 21.8104 78.4417 22.027 78.614 22.2089C78.7864 22.3908 78.9953 22.5338 79.2271 22.6286C79.4588 22.7233 79.708 22.7675 79.9581 22.7583C80.2866 22.7892 80.6164 22.7129 80.8982 22.5408C81.18 22.3687 81.3989 22.11 81.5223 21.8032L82.8425 21.8032ZM78.1425 19.7766H81.5289C81.5414 19.5519 81.5074 19.3271 81.4291 19.1161C81.3508 18.9052 81.2298 18.7128 81.0738 18.551C80.9178 18.3892 80.7301 18.2614 80.5225 18.1758C80.3149 18.0901 80.0919 18.0484 79.8675 18.0532C79.6411 18.0519 79.4166 18.0955 79.2071 18.1815C78.9976 18.2676 78.8072 18.3944 78.6468 18.5546C78.4864 18.7148 78.3593 18.9053 78.2727 19.1151C78.1862 19.3248 78.1419 19.5496 78.1425 19.7766Z" fill="#667085"/>
</g>
</g>
<g id="&#60;Group&#62;_4">
<g id="Group_5">
<path id="Vector_10" d="M28.4918 9.36631H29.0887C29.1915 9.37914 29.2958 9.37049 29.395 9.34091C29.4943 9.31132 29.5863 9.26145 29.6654 9.19443C29.7445 9.12741 29.8089 9.04469 29.8545 8.9515C29.9001 8.8583 29.9259 8.75664 29.9304 8.65293C29.9304 8.24022 29.6206 7.97361 29.0953 7.97361C28.99 7.95887 28.8829 7.96542 28.7802 7.99287C28.6774 8.02033 28.5813 8.06814 28.4973 8.13347C28.4133 8.19881 28.3433 8.28035 28.2912 8.37328C28.2392 8.46621 28.2063 8.56865 28.1944 8.67454H27.5391C27.5503 8.48232 27.601 8.29448 27.6878 8.12272C27.7746 7.95096 27.8958 7.79896 28.0438 7.67618C28.1918 7.55341 28.3634 7.46248 28.5479 7.40906C28.7324 7.35565 28.926 7.34089 29.1165 7.3657C29.9954 7.3657 30.6143 7.85898 30.6143 8.56907C30.6163 8.80695 30.5369 9.03835 30.3893 9.22463C30.2417 9.41091 30.0349 9.54081 29.8033 9.59263V9.64536C30.0778 9.65757 30.3364 9.77826 30.5225 9.98104C30.7085 10.1838 30.8069 10.4522 30.7962 10.7275C30.7759 10.9254 30.7163 11.1173 30.6211 11.2919C30.5258 11.4664 30.3968 11.6202 30.2415 11.7441C30.0862 11.868 29.9078 11.9596 29.7168 12.0135C29.5257 12.0674 29.3259 12.0825 29.1289 12.058C28.9315 12.0849 28.7308 12.0718 28.5386 12.0193C28.3464 11.9669 28.1667 11.8761 28.0102 11.7526C27.8537 11.629 27.7237 11.4751 27.6278 11.3001C27.5319 11.125 27.4722 10.9324 27.4521 10.7337H28.1177C28.1579 11.1618 28.5503 11.438 29.1289 11.438C29.7075 11.438 30.0853 11.1278 30.0853 10.6906C30.0853 10.2471 29.7295 9.97389 29.1077 9.97389H28.4918V9.36631Z" fill="#667085"/>
<path id="Vector_11" d="M31.5522 10.9946C31.5522 10.3867 32.0045 10.0363 32.8052 9.98644L33.7178 9.93371V9.64221C33.7178 9.28552 33.4833 9.0841 33.0281 9.0841C32.6569 9.0841 32.4005 9.2207 32.326 9.45947H31.6823C31.7502 8.87939 32.2953 8.50732 33.0595 8.50732C33.9041 8.50732 34.3805 8.92882 34.3805 9.64221V11.9497H33.7397V11.4751H33.6871C33.5803 11.6453 33.4304 11.7841 33.2526 11.8773C33.0748 11.9704 32.8756 12.0146 32.6752 12.0053C32.5338 12.0201 32.3908 12.005 32.2556 11.9609C32.1204 11.9169 31.9958 11.845 31.89 11.7497C31.7842 11.6545 31.6995 11.5381 31.6413 11.4081C31.5831 11.278 31.5528 11.1372 31.5522 10.9946ZM33.7178 10.706V10.4237L32.8951 10.4764C32.4311 10.5076 32.2207 10.6658 32.2207 10.9635C32.2207 11.2674 32.4837 11.4443 32.8454 11.4443C32.9514 11.4551 33.0585 11.4444 33.1602 11.4128C33.262 11.3812 33.3563 11.3295 33.4377 11.2606C33.5191 11.1917 33.5859 11.1071 33.634 11.0118C33.6821 10.9166 33.7106 10.8126 33.7178 10.706Z" fill="#667085"/>
<path id="Vector_12" d="M36.1448 9.13281V11.949H35.48V8.57178H37.6981V9.13278L36.1448 9.13281Z" fill="#667085"/>
<path id="Vector_13" d="M41.7276 10.2596C41.7276 11.3326 41.1862 12.0053 40.3357 12.0053C40.127 12.0196 39.9185 11.9738 39.7348 11.8733C39.5512 11.7728 39.3999 11.6218 39.299 11.4381H39.2464V13.0725H38.5815V8.57248H39.2216V9.13061H39.2712C39.374 8.94044 39.5272 8.78244 39.7139 8.67406C39.9006 8.56569 40.1135 8.51115 40.3292 8.51647C41.1862 8.51645 41.7276 9.18624 41.7276 10.2596ZM41.0437 10.2596C41.0437 9.54623 40.7069 9.1152 40.1436 9.1152C39.584 9.1152 39.234 9.55538 39.234 10.2625C39.234 10.9664 39.584 11.407 40.1407 11.407C40.7069 11.4069 41.0437 10.9759 41.0437 10.2596Z" fill="#667085"/>
<path id="Vector_14" d="M42.6129 13.1586V12.5847C42.6849 12.5939 42.7574 12.598 42.8299 12.5972C42.9716 12.6077 43.1121 12.5654 43.2245 12.4784C43.337 12.3914 43.4135 12.2659 43.4392 12.1259L43.4889 11.9614L42.2695 8.57178H42.9936L43.8382 11.2543H43.8908L44.7325 8.57178H45.4375L44.1816 12.0885C43.8937 12.9103 43.5752 13.174 42.8884 13.174C42.8329 13.1739 42.675 13.1677 42.6129 13.1586Z" fill="#667085"/>
<path id="Vector_15" d="M45.9556 10.9917H46.6175C46.6825 11.2894 46.9609 11.4447 47.3503 11.4447C47.7931 11.4447 48.0649 11.2491 48.0649 10.9452C48.0649 10.6196 47.8208 10.4643 47.3503 10.4643H46.8462V9.9465H47.3415C47.7434 9.9465 47.948 9.79159 47.948 9.50925C47.948 9.26132 47.75 9.072 47.3415 9.072C46.9697 9.072 46.6979 9.2302 46.6547 9.49681H46.014C46.0619 9.19046 46.2278 8.9152 46.4761 8.73022C46.7244 8.54525 47.0351 8.46533 47.3415 8.50767C48.1423 8.50767 48.6004 8.87059 48.6004 9.44114C48.6041 9.60002 48.5533 9.75538 48.4565 9.88123C48.3597 10.0071 48.2227 10.0958 48.0685 10.1326V10.1853C48.2521 10.209 48.4207 10.2995 48.5422 10.4396C48.6636 10.5797 48.7296 10.7596 48.7275 10.9452C48.7275 11.5872 48.1825 12.0119 47.3503 12.0119C46.6146 12.0119 46.0169 11.6739 45.9556 10.9917Z" fill="#667085"/>
<path id="Vector_16" d="M49.6851 11.949V8.57178H50.3441V10.8947H50.3967L51.9492 8.57178H52.6082V11.949H51.9492V9.61366H51.8995L50.3441 11.949L49.6851 11.949Z" fill="#667085"/>
<path id="Vector_17" d="M56.2385 9.13278H55.1776V11.9489H54.512V9.13278H53.4512V8.57178H56.2385V9.13278Z" fill="#667085"/>
<path id="Vector_18" d="M59.8201 11.0379C59.7295 11.3465 59.5337 11.6135 59.2667 11.7921C58.9998 11.9706 58.6787 12.0495 58.3596 12.015C58.1377 12.0208 57.9171 11.9782 57.7132 11.8901C57.5094 11.8019 57.3271 11.6703 57.179 11.5045C57.031 11.3386 56.9207 11.1425 56.8558 10.9296C56.7909 10.7167 56.7731 10.4923 56.8034 10.2718C56.7739 10.0506 56.7921 9.82567 56.8568 9.61217C56.9215 9.39866 57.0312 9.20159 57.1785 9.03428C57.3258 8.86698 57.5072 8.73335 57.7105 8.64244C57.9137 8.55154 58.1341 8.50548 58.3567 8.50738C59.2941 8.50738 59.8603 9.14938 59.8603 10.2099V10.4425H57.4814V10.4798C57.4709 10.6038 57.4864 10.7286 57.5268 10.8462C57.5673 10.9638 57.6318 11.0716 57.7163 11.1628C57.8008 11.2539 57.9034 11.3263 58.0174 11.3753C58.1315 11.4243 58.2545 11.4488 58.3786 11.4473C58.5376 11.4664 58.6986 11.4376 58.8411 11.3647C58.9837 11.2918 59.1015 11.178 59.1794 11.0379L59.8201 11.0379ZM57.4814 9.94953H59.1823C59.1907 9.83624 59.1754 9.72244 59.1373 9.61544C59.0992 9.50844 59.0393 9.41061 58.9612 9.32822C58.8832 9.24584 58.7889 9.18072 58.6843 9.13705C58.5796 9.09338 58.4671 9.07212 58.3538 9.07465C58.2388 9.07308 58.1246 9.09464 58.018 9.13806C57.9114 9.18147 57.8146 9.24586 57.7333 9.32742C57.652 9.40898 57.5878 9.50606 57.5446 9.61291C57.5013 9.71976 57.4798 9.83422 57.4814 9.94953Z" fill="#667085"/>
<path id="Vector_19" d="M62.6387 8.57178H64.1576C64.8166 8.57178 65.2031 8.90649 65.2031 9.43053C65.2041 9.59681 65.1482 9.7584 65.0446 9.88826C64.941 10.0181 64.796 10.1084 64.634 10.1439V10.1966C64.8307 10.2091 65.0152 10.2968 65.1492 10.4417C65.2833 10.5866 65.3567 10.7776 65.3544 10.9752C65.3544 11.5644 64.9123 11.949 64.173 11.949H62.6387V8.57178ZM63.2977 9.08337V9.95787H63.9567C64.3585 9.95787 64.5507 9.80297 64.5507 9.51732C64.5507 9.25402 64.3834 9.08337 64.0305 9.08337L63.2977 9.08337ZM63.2977 10.4479V11.4374H64.0861C64.4791 11.4374 64.6895 11.2634 64.6895 10.9441C64.6895 10.6061 64.4514 10.4479 64.0027 10.4479L63.2977 10.4479Z" fill="#667085"/>
</g>
</g>
</g>
</svg>
