<svg width="20" height="20" viewBox="0 0 20 20" fill="none" xmlns="http://www.w3.org/2000/svg">
<g id="arrow-right">
<path id="Union" d="M10.5303 3.63569C10.2374 3.34279 9.76256 3.34279 9.46967 3.63569C9.17678 3.92858 9.17678 4.40345 9.46967 4.69635L14.0223 9.24902H4.16797C3.75376 9.24902 3.41797 9.58481 3.41797 9.99902C3.41797 10.4132 3.75376 10.749 4.16797 10.749H14.023L9.46967 15.3024C9.17678 15.5952 9.17678 16.0701 9.46967 16.363C9.76256 16.6559 10.2374 16.6559 10.5303 16.363L16.3417 10.5517C16.491 10.4146 16.5846 10.2177 16.5846 9.99902C16.5846 9.77692 16.4881 9.57737 16.3347 9.44004L10.5303 3.63569Z" fill="#6B5AE7"/>
</g>
</svg>
