<svg width="22" height="22" viewBox="0 0 22 22" fill="none" xmlns="http://www.w3.org/2000/svg">
<g id="bell-01">
<path id="Icon" d="M8.5747 19.2502C9.22107 19.8207 10.0701 20.1668 11 20.1668C11.9299 20.1668 12.779 19.8207 13.4254 19.2502M16.5 7.3335C16.5 5.87481 15.9206 4.47586 14.8891 3.44441C13.8577 2.41296 12.4587 1.8335 11 1.8335C9.54135 1.8335 8.1424 2.41296 7.11095 3.44441C6.0795 4.47586 5.50004 5.87481 5.50004 7.3335C5.50004 10.1662 4.78547 12.1056 3.98723 13.3885C3.3139 14.4705 2.97724 15.0116 2.98959 15.1625C3.00325 15.3296 3.03866 15.3934 3.17333 15.4933C3.29496 15.5835 3.84325 15.5835 4.93982 15.5835H17.0603C18.1568 15.5835 18.7051 15.5835 18.8267 15.4933C18.9614 15.3934 18.9968 15.3296 19.0105 15.1625C19.0228 15.0116 18.6862 14.4705 18.0128 13.3885C17.2146 12.1056 16.5 10.1662 16.5 7.3335Z" stroke="#101828" stroke-width="1.83333" stroke-linecap="round" stroke-linejoin="round"/>
</g>
</svg>
