<svg width="40" height="37" viewBox="0 0 40 37" fill="none" xmlns="http://www.w3.org/2000/svg">
<g id="bubble-chat" filter="url(#filter0_d_527_16063)">
<g id="Chat Bubbles">
<path id="Subtract" fill-rule="evenodd" clip-rule="evenodd" d="M11.0417 16.6388C11.0417 11.8652 15.0794 8.0415 20.0001 8.0415C24.9207 8.0415 28.9584 11.8652 28.9584 16.6388C28.9584 21.4124 24.9207 25.236 20.0001 25.236C19.4202 25.2367 18.842 25.1831 18.2726 25.0761C18.0749 25.039 17.9493 25.0156 17.8559 25.0028C17.7862 24.9921 17.7162 25.0181 17.6899 25.0324C17.5944 25.0777 17.4673 25.1451 17.2727 25.2486C16.0796 25.8831 14.6876 26.1082 13.3451 25.8584C13.1283 25.8181 12.9487 25.6665 12.8727 25.4595C12.7966 25.2526 12.8353 25.0208 12.9744 24.8497C13.3642 24.3702 13.6323 23.7926 13.7508 23.1708C13.7829 22.9998 13.7103 22.7676 13.4872 22.541C11.9748 21.0053 11.0417 18.9285 11.0417 16.6388ZM16.6667 16.1665C16.2065 16.1665 15.8334 16.5396 15.8334 16.9998C15.8334 17.4601 16.2065 17.8332 16.6667 17.8332H16.6742C17.1345 17.8332 17.5076 17.4601 17.5076 16.9998C17.5076 16.5396 17.1345 16.1665 16.6742 16.1665H16.6667ZM19.9963 16.1665C19.5361 16.1665 19.163 16.5396 19.163 16.9998C19.163 17.4601 19.5361 17.8332 19.9963 17.8332H20.0038C20.4641 17.8332 20.8372 17.4601 20.8372 16.9998C20.8372 16.5396 20.4641 16.1665 20.0038 16.1665H19.9963ZM22.4926 16.9998C22.4926 16.5396 22.8657 16.1665 23.3259 16.1665H23.3334C23.7937 16.1665 24.1667 16.5396 24.1667 16.9998C24.1667 17.4601 23.7937 17.8332 23.3334 17.8332H23.3259C22.8657 17.8332 22.4926 17.4601 22.4926 16.9998Z" fill="white"/>
</g>
</g>
<defs>
<filter id="filter0_d_527_16063" x="-2" y="-1" width="44" height="44" filterUnits="userSpaceOnUse" color-interpolation-filters="sRGB">
<feFlood flood-opacity="0" result="BackgroundImageFix"/>
<feColorMatrix in="SourceAlpha" type="matrix" values="0 0 0 0 0 0 0 0 0 0 0 0 0 0 0 0 0 0 127 0" result="hardAlpha"/>
<feOffset dy="4"/>
<feGaussianBlur stdDeviation="6"/>
<feComposite in2="hardAlpha" operator="out"/>
<feColorMatrix type="matrix" values="0 0 0 0 0.980392 0 0 0 0 0.443137 0 0 0 0 0.321569 0 0 0 0.5 0"/>
<feBlend mode="normal" in2="BackgroundImageFix" result="effect1_dropShadow_527_16063"/>
<feBlend mode="normal" in="SourceGraphic" in2="effect1_dropShadow_527_16063" result="shape"/>
</filter>
</defs>
</svg>
