<svg width="17" height="16" viewBox="0 0 17 16" fill="none" xmlns="http://www.w3.org/2000/svg">
<g id="btn-icon">
<path id="Icon (Stroke)" fill-rule="evenodd" clip-rule="evenodd" d="M12.3632 1.19541C13.1759 0.382779 14.4934 0.38278 15.306 1.19541C16.1187 2.00805 16.1187 3.32559 15.306 4.13822L8.93088 10.5134C8.91768 10.5266 8.9046 10.5397 8.89163 10.5527C8.7 10.7447 8.53104 10.9139 8.32735 11.0388C8.1484 11.1484 7.95331 11.2292 7.74924 11.2782C7.51694 11.334 7.27778 11.3338 7.00651 11.3335C6.98815 11.3335 6.96964 11.3335 6.95098 11.3335H5.83462C5.46643 11.3335 5.16795 11.035 5.16795 10.6668V9.55048C5.16795 9.53181 5.16793 9.5133 5.16792 9.49494C5.16767 9.22367 5.16744 8.98451 5.22321 8.75221C5.27221 8.54814 5.35301 8.35305 5.46267 8.17411C5.5875 7.97041 5.75677 7.80146 5.94876 7.60982C5.96175 7.59685 5.97486 7.58377 5.98805 7.57057L12.3632 1.19541ZM14.3632 2.13822C14.0713 1.84629 13.598 1.84629 13.306 2.13822L6.93086 8.51338C6.67782 8.76643 6.63116 8.81914 6.59952 8.87077C6.56297 8.93042 6.53604 8.99545 6.5197 9.06347C6.50557 9.12235 6.50128 9.19262 6.50128 9.55048V10.0002H6.95098C7.30883 10.0002 7.3791 9.99587 7.43798 9.98173C7.50601 9.9654 7.57104 9.93847 7.63068 9.90191C7.68231 9.87027 7.73503 9.82362 7.98807 9.57058L14.3632 3.19541C14.6552 2.90348 14.6552 2.43016 14.3632 2.13822ZM5.00711 2.00015L7.83464 2.00015C8.20283 2.00015 8.5013 2.29863 8.5013 2.66682C8.5013 3.03501 8.20283 3.33349 7.83464 3.33349H5.03464C4.46358 3.33349 4.07539 3.334 3.77533 3.35852C3.48305 3.3824 3.33358 3.42568 3.22932 3.47881C2.97843 3.60664 2.77446 3.81062 2.64663 4.0615C2.5935 4.16576 2.55022 4.31523 2.52634 4.60751C2.50182 4.90757 2.5013 5.29577 2.5013 5.86682V11.4668C2.5013 12.0379 2.50182 12.4261 2.52634 12.7261C2.55022 13.0184 2.5935 13.1679 2.64663 13.2721C2.77446 13.523 2.97843 13.727 3.22932 13.8548C3.33358 13.908 3.48305 13.9512 3.77533 13.9751C4.07539 13.9996 4.46358 14.0002 5.03464 14.0002H10.6346C11.2057 14.0002 11.5939 13.9996 11.8939 13.9751C12.1862 13.9512 12.3357 13.908 12.44 13.8548C12.6908 13.727 12.8948 13.523 13.0226 13.2721C13.0758 13.1679 13.1191 13.0184 13.1429 12.7261C13.1675 12.4261 13.168 12.0379 13.168 11.4668V8.66682C13.168 8.29863 13.4664 8.00015 13.8346 8.00015C14.2028 8.00015 14.5013 8.29863 14.5013 8.66682V11.4944C14.5013 12.031 14.5013 12.4739 14.4718 12.8347C14.4412 13.2094 14.3755 13.5539 14.2107 13.8775C13.955 14.3792 13.547 14.7872 13.0453 15.0428C12.7217 15.2077 12.3773 15.2734 12.0025 15.304C11.6417 15.3335 11.1988 15.3335 10.6621 15.3335H5.00714C4.47047 15.3335 4.02756 15.3335 3.66675 15.304C3.29202 15.2734 2.94755 15.2077 2.62399 15.0428C2.12223 14.7872 1.71428 14.3792 1.45862 13.8775C1.29376 13.5539 1.22805 13.2094 1.19743 12.8347C1.16795 12.4739 1.16796 12.031 1.16797 11.4944V5.83929C1.16796 5.30264 1.16795 4.85973 1.19743 4.49893C1.22805 4.1242 1.29376 3.77973 1.45862 3.45618C1.71428 2.95441 2.12223 2.54646 2.62399 2.2908C2.94755 2.12594 3.29202 2.06023 3.66675 2.02961C4.02755 2.00014 4.47046 2.00014 5.00711 2.00015Z" fill="#6B5AE7"/>
</g>
</svg>
