<svg width="18" height="18" viewBox="0 0 18 18" fill="none" xmlns="http://www.w3.org/2000/svg">
<g id="Chat Bubbles">
<path id="Subtract" fill-rule="evenodd" clip-rule="evenodd" d="M0.041748 8.63877C0.041748 3.86516 4.07944 0.0415039 9.00008 0.0415039C13.9207 0.0415039 17.9584 3.86516 17.9584 8.63877C17.9584 13.4124 13.9207 17.236 9.00008 17.236C8.42019 17.2367 7.84204 17.1831 7.27257 17.0761C7.07491 17.039 6.94932 17.0156 6.85589 17.0028C6.78619 16.9921 6.71617 17.0181 6.68987 17.0324C6.59444 17.0777 6.46732 17.1451 6.27269 17.2486C5.0796 17.8831 3.68762 18.1082 2.34505 17.8584C2.12825 17.8181 1.94875 17.6665 1.87269 17.4595C1.79663 17.2526 1.83528 17.0208 1.97439 16.8497C2.36423 16.3702 2.63228 15.7926 2.75082 15.1708C2.78289 14.9998 2.71031 14.7676 2.48718 14.541C0.974844 13.0053 0.041748 10.9285 0.041748 8.63877ZM5.66675 8.1665C5.20651 8.1665 4.83342 8.5396 4.83342 8.99984C4.83342 9.46007 5.20651 9.83317 5.66675 9.83317H5.67423C6.13446 9.83317 6.50756 9.46007 6.50756 8.99984C6.50756 8.5396 6.13446 8.1665 5.67423 8.1665H5.66675ZM8.99634 8.1665C8.53611 8.1665 8.16301 8.5396 8.16301 8.99984C8.16301 9.46007 8.53611 9.83317 8.99634 9.83317H9.00382C9.46406 9.83317 9.83715 9.46007 9.83715 8.99984C9.83715 8.5396 9.46406 8.1665 9.00382 8.1665H8.99634ZM11.4926 8.99984C11.4926 8.5396 11.8657 8.1665 12.3259 8.1665H12.3334C12.7937 8.1665 13.1667 8.5396 13.1667 8.99984C13.1667 9.46007 12.7937 9.83317 12.3334 9.83317H12.3259C11.8657 9.83317 11.4926 9.46007 11.4926 8.99984Z" fill="url(#paint0_linear_1778_22440)"/>
</g>
<defs>
<linearGradient id="paint0_linear_1778_22440" x1="9.00008" y1="0.0415039" x2="9.00008" y2="17.9582" gradientUnits="userSpaceOnUse">
<stop stop-color="#FF9E88"/>
<stop offset="1" stop-color="#EE4E29"/>
</linearGradient>
</defs>
</svg>
