<svg width="28" height="30" viewBox="0 0 28 30" fill="none" xmlns="http://www.w3.org/2000/svg">
<g id="Chat Bubbles">
<path id="Subtract" fill-rule="evenodd" clip-rule="evenodd" d="M0.5625 14.4221C0.5625 6.78435 6.61904 0.666504 14 0.666504C21.381 0.666504 27.4375 6.78435 27.4375 14.4221C27.4375 22.0599 21.381 28.1777 14 28.1777C13.1302 28.1788 12.2629 28.093 11.4087 27.9219C11.1122 27.8625 10.9239 27.8251 10.7837 27.8046C10.6792 27.7875 10.5741 27.829 10.5347 27.8519C10.3915 27.9245 10.2009 28.0323 9.90892 28.1979C8.11927 29.2131 6.03131 29.5732 4.01746 29.1736C3.69226 29.1091 3.423 28.8666 3.30892 28.5354C3.19483 28.2042 3.2528 27.8334 3.46146 27.5596C4.04622 26.7924 4.44829 25.8683 4.6261 24.8734C4.67421 24.5998 4.56534 24.2282 4.23064 23.8656C1.96214 21.4086 0.5625 18.0857 0.5625 14.4221ZM9 13.6665C8.30964 13.6665 7.75 14.2635 7.75 14.9998C7.75 15.7362 8.30964 16.3332 9 16.3332H9.01122C9.70157 16.3332 10.2612 15.7362 10.2612 14.9998C10.2612 14.2635 9.70157 13.6665 9.01122 13.6665H9ZM13.9944 13.6665C13.304 13.6665 12.7444 14.2635 12.7444 14.9998C12.7444 15.7362 13.304 16.3332 13.9944 16.3332H14.0056C14.696 16.3332 15.2556 15.7362 15.2556 14.9998C15.2556 14.2635 14.696 13.6665 14.0056 13.6665H13.9944ZM17.7388 14.9998C17.7388 14.2635 18.2984 13.6665 18.9888 13.6665H19C19.6904 13.6665 20.25 14.2635 20.25 14.9998C20.25 15.7362 19.6904 16.3332 19 16.3332H18.9888C18.2984 16.3332 17.7388 15.7362 17.7388 14.9998Z" fill="white"/>
</g>
</svg>
