<svg width="26" height="26" viewBox="0 0 26 26" fill="none" xmlns="http://www.w3.org/2000/svg">
<g id="Check Icon Tick">
<rect width="26" height="26" rx="13" fill="#6656DB"/>
<path id="Exclude" fill-rule="evenodd" clip-rule="evenodd" d="M10.1072 15.5571L18.6872 6.8182C19.5539 5.93709 20.8683 6.96264 19.785 8.1182C19.785 8.1182 11.5517 18.4604 11.1183 19.0526C10.9888 19.2617 10.808 19.4342 10.5932 19.5538C10.3783 19.6734 10.1365 19.7362 9.89056 19.7362C9.64465 19.7362 9.40281 19.6734 9.18795 19.5538C8.97309 19.4342 8.79232 19.2617 8.66278 19.0526L5.96167 14.4304C5.8244 14.1796 5.78128 13.888 5.84009 13.6082C5.89889 13.3284 6.05575 13.0789 6.28237 12.9046C6.50898 12.7302 6.79044 12.6426 7.07595 12.6576C7.36147 12.6725 7.63225 12.789 7.83945 12.986L10.1072 15.5571Z" fill="white"/>
</g>
</svg>
