<svg width="12" height="12" viewBox="0 0 12 12" fill="none" xmlns="http://www.w3.org/2000/svg">
<g id="clock-fast-forward">
<g id="Solid">
<path d="M5.85942 2.23248C3.72944 2.23248 2.00274 3.95917 2.00274 6.08916C2.00274 8.21914 3.72944 9.94583 5.85942 9.94583C7.07075 9.94583 8.15143 9.38793 8.85925 8.51322C9.02673 8.30624 9.33029 8.27423 9.53726 8.44171C9.74424 8.60919 9.77625 8.91275 9.60877 9.11972C8.72575 10.2109 7.37404 10.91 5.85942 10.91C3.19694 10.91 1.03857 8.75163 1.03857 6.08916C1.03857 3.42668 3.19694 1.26831 5.85942 1.26831C8.33458 1.26831 10.3741 3.13366 10.6488 5.53526L10.6768 5.50728C10.865 5.31898 11.1702 5.31894 11.3585 5.50718C11.5468 5.69542 11.5469 6.00065 11.3586 6.18895L10.3948 7.15312C10.3044 7.24354 10.1817 7.29435 10.0539 7.29437C9.92603 7.29438 9.8034 7.24361 9.71298 7.15322L8.74853 6.18905C8.56023 6.00081 8.56019 5.69557 8.74843 5.50728C8.93666 5.31898 9.2419 5.31894 9.4302 5.50718L9.70395 5.78085C9.54688 3.79502 7.88563 2.23248 5.85942 2.23248Z" fill="#667085"/>
<path d="M6.3415 3.67873C6.3415 3.41248 6.12567 3.19665 5.85942 3.19665C5.59317 3.19665 5.37733 3.41248 5.37733 3.67873V6.08916C5.37733 6.25034 5.45789 6.40086 5.59201 6.49027L7.03826 7.45444C7.25979 7.60213 7.5591 7.54227 7.70679 7.32074C7.85448 7.09921 7.79462 6.79989 7.57308 6.65221L6.3415 5.83115V3.67873Z" fill="#667085"/>
</g>
</g>
</svg>
