<svg width="16" height="16" viewBox="0 0 16 16" fill="none" xmlns="http://www.w3.org/2000/svg">
<g id="reward 1" clip-path="url(#clip0_1533_6776)">
<path id="Vector" d="M15.7688 6.94745C15.7688 3.11049 12.2906 0 8.00011 0C3.7096 0 0.231445 3.11049 0.231445 6.94745V8.58987C0.231445 12.4268 3.7096 15.5373 8.00011 15.5373C12.2906 15.5373 15.7688 12.4268 15.7688 8.58987C15.7688 8.58449 15.7688 6.95283 15.7688 6.94745Z" fill="url(#paint0_linear_1533_6776)"/>
<path id="Vector_2" d="M15.7688 6.94745C15.7688 3.11049 12.2906 0 8.00011 0C3.7096 0 0.231445 3.11049 0.231445 6.94745V8.58987C0.231445 12.4268 3.7096 15.5373 8.00011 15.5373C12.2906 15.5373 15.7688 12.4268 15.7688 8.58987C15.7688 8.58449 15.7688 6.95283 15.7688 6.94745Z" fill="url(#paint1_linear_1533_6776)"/>
<path id="Vector_3" d="M14.3985 3.00671C12.9971 1.19053 10.6543 0 8.00026 0C5.34618 0 3.00339 1.19053 1.60205 3.00671V12.5307C3.00339 14.3468 5.34618 15.5374 8.00026 15.5374C10.6543 15.5374 12.9971 14.3468 14.3985 12.5307V3.00671Z" fill="url(#paint2_linear_1533_6776)"/>
<path id="Vector_4" d="M3.44336 14.2168C4.72342 15.0473 6.2976 15.5373 7.99997 15.5373C9.70234 15.5373 11.2765 15.0472 12.5566 14.2168V1.3205C11.2765 0.490078 9.70234 0 7.99997 0C6.2976 0 4.72346 0.490078 3.44336 1.3205V14.2168Z" fill="url(#paint3_linear_1533_6776)"/>
<path id="Vector_5" d="M6.23486 15.3571C6.80191 15.4749 7.39273 15.5373 7.99987 15.5373C8.60702 15.5373 9.19783 15.4749 9.76488 15.3571V0.180185C9.19783 0.0623783 8.60702 0 7.99987 0C7.39273 0 6.80191 0.0623783 6.23486 0.180185V15.3571Z" fill="url(#paint4_linear_1533_6776)"/>
<path id="Vector_6" d="M8.00011 13.8949C12.2906 13.8949 15.7688 10.7844 15.7688 6.94745C15.7688 3.11048 12.2906 0 8.00011 0C3.70959 0 0.231445 3.11048 0.231445 6.94745C0.231445 10.7844 3.70959 13.8949 8.00011 13.8949Z" fill="url(#paint5_linear_1533_6776)"/>
<path id="Vector_7" d="M7.99993 13.1202C11.8119 13.1202 14.9022 10.3566 14.9022 6.94753C14.9022 3.53848 11.8119 0.774902 7.99993 0.774902C4.18791 0.774902 1.09766 3.53848 1.09766 6.94753C1.09766 10.3566 4.18791 13.1202 7.99993 13.1202Z" fill="url(#paint6_linear_1533_6776)"/>
<path id="Vector_8" d="M8.00002 12.5354C11.451 12.5354 14.2486 10.0336 14.2486 6.9474C14.2486 3.86122 11.451 1.35938 8.00002 1.35938C4.54904 1.35938 1.75146 3.86122 1.75146 6.9474C1.75146 10.0336 4.54904 12.5354 8.00002 12.5354Z" fill="url(#paint7_linear_1533_6776)"/>
<path id="Vector_9" d="M15.6382 8.21966L12.8191 5.40051C12.7716 5.30213 12.6791 5.22463 12.5533 5.20669L11.2411 5.01586L8.31661 2.09851C8.25254 1.96658 8.12622 1.8999 7.99994 1.8999C7.87367 1.8999 7.74735 1.96649 7.68327 2.09846L6.38015 4.78008L3.44659 5.20669C3.30146 5.22741 3.20029 5.32732 3.16198 5.44734C3.12301 5.56797 3.14751 5.70871 3.25372 5.80988L5.33266 7.88309C5.33714 7.88904 5.34209 7.89478 5.34704 7.9006L4.86661 10.7032C4.84211 10.8445 4.90305 10.9702 5.00231 11.0444L7.8513 13.8933C7.90077 13.8941 7.95029 13.895 7.99999 13.895C11.8045 13.8949 14.9699 11.449 15.6382 8.21966Z" fill="url(#paint8_linear_1533_6776)"/>
<path id="Vector_10" d="M12.8379 5.44734C12.7996 5.32732 12.6984 5.22741 12.5533 5.20669L9.61974 4.78008L8.31661 2.09846C8.25254 1.96654 8.12622 1.8999 7.99994 1.8999C7.87367 1.8999 7.74735 1.96649 7.68327 2.09846L6.38015 4.78008L3.44659 5.20669C3.30146 5.22741 3.20029 5.32732 3.16198 5.44734C3.12301 5.56797 3.14751 5.70871 3.25372 5.80988L5.36107 7.81859L4.86661 10.7031C4.84211 10.8445 4.90305 10.9702 5.00231 11.0443C5.10222 11.1191 5.24109 11.1423 5.3705 11.0776L7.99994 9.76695L10.6294 11.0776C10.7589 11.1423 10.8977 11.1191 10.9976 11.0443C11.0969 10.9702 11.1578 10.8445 11.1333 10.7031L10.6389 7.81859L12.7462 5.80988C12.8524 5.70871 12.8769 5.56797 12.8379 5.44734ZM7.99994 6.98169L7.99556 6.98295L7.99742 6.98108L7.99994 6.9773L8.00246 6.98108L8.00433 6.98295L7.99994 6.98169Z" fill="url(#paint9_linear_1533_6776)"/>
<path id="Vector_11" d="M7.99742 6.98101L7.99555 6.98287L5.36107 7.81851L3.25371 5.80981C3.14755 5.70864 3.12301 5.5679 3.16197 5.44727L7.99742 6.98101Z" fill="url(#paint10_linear_1533_6776)"/>
<path id="Vector_12" d="M7.99574 6.98291L5.00245 11.0443C4.90319 10.9702 4.84225 10.8445 4.86674 10.7031L5.36121 7.81859L7.99574 6.98291Z" fill="url(#paint11_linear_1533_6776)"/>
<path id="Vector_13" d="M10.9977 11.0441C10.8978 11.1189 10.7589 11.1421 10.6295 11.0774L8 9.76675V6.98145L8.00439 6.98271L10.9977 11.0441Z" fill="url(#paint12_linear_1533_6776)"/>
<path id="Vector_14" d="M8.00012 6.98145V9.76675L5.37063 11.0774C5.24118 11.1421 5.10235 11.1189 5.00244 11.0441L7.99573 6.9827L8.00012 6.98145Z" fill="url(#paint13_linear_1533_6776)"/>
<path id="Vector_15" d="M10.9977 11.0443L8.00439 6.98291L10.6389 7.81854L11.1333 10.7031C11.1579 10.8445 11.0969 10.9702 10.9977 11.0443Z" fill="url(#paint14_linear_1533_6776)"/>
<path id="Vector_16" d="M8.00008 6.97746L7.99756 6.98124L3.16211 5.44754C3.20042 5.32752 3.30159 5.22761 3.44672 5.20689L6.38028 4.78027L8.00008 6.97746Z" fill="url(#paint15_linear_1533_6776)"/>
<path id="Vector_17" d="M9.61979 4.78008L8 6.9773V1.8999C8.12628 1.8999 8.2526 1.96649 8.31667 2.09846L9.61979 4.78008Z" fill="url(#paint16_linear_1533_6776)"/>
<path id="Vector_18" d="M8.00016 1.8999V6.97726L6.38037 4.78008L7.6835 2.09846C7.74757 1.96649 7.87389 1.8999 8.00016 1.8999Z" fill="url(#paint17_linear_1533_6776)"/>
<path id="Vector_19" d="M12.838 5.4475L8.00252 6.98119L8 6.97746L9.61979 4.78027L12.5534 5.20689C12.6985 5.22761 12.7997 5.32747 12.838 5.4475Z" fill="url(#paint18_linear_1533_6776)"/>
<path id="Vector_20" d="M12.7461 5.80976L10.6388 7.81847L8.00431 6.98283L8.00244 6.98096L12.8379 5.44727C12.8768 5.56785 12.8523 5.70859 12.7461 5.80976Z" fill="url(#paint19_linear_1533_6776)"/>
<path id="Vector_21" d="M12.0185 5.62686C11.9867 5.52716 11.9027 5.44419 11.7821 5.42695L9.34534 5.07257L8.26293 2.84511C8.20967 2.73552 8.10481 2.68018 7.9999 2.68018C7.895 2.68018 7.79009 2.73552 7.73688 2.84511L6.65447 5.07257L4.21772 5.42695C4.09713 5.44419 4.01312 5.52716 3.98128 5.62686C3.94892 5.72707 3.96929 5.84396 4.05747 5.92797L5.80793 7.59646L5.39722 9.99251C5.37684 10.1099 5.42749 10.2143 5.50994 10.2759C5.59291 10.338 5.70828 10.3573 5.81579 10.3036L7.9999 9.21491L10.1841 10.3036C10.2916 10.3574 10.4069 10.338 10.4899 10.2759C10.5724 10.2143 10.623 10.1099 10.6026 9.99251L10.1919 7.59646L11.9424 5.92797C12.0305 5.84396 12.0509 5.72707 12.0185 5.62686ZM7.9999 6.90131L7.99625 6.90235L7.99782 6.90079L7.9999 6.89766L8.00199 6.90079L8.00355 6.90235L7.9999 6.90131Z" fill="url(#paint20_linear_1533_6776)"/>
<path id="Vector_22" d="M8.00022 11.9434C11.0854 11.9434 13.5864 9.70682 13.5864 6.9478C13.5864 4.18878 11.0854 1.95215 8.00022 1.95215C4.91507 1.95215 2.41406 4.18878 2.41406 6.9478C2.41406 9.70682 4.91507 11.9434 8.00022 11.9434Z" fill="url(#paint21_linear_1533_6776)"/>
</g>
<defs>
<linearGradient id="paint0_linear_1533_6776" x1="0.231445" y1="7.76866" x2="15.7688" y2="7.76866" gradientUnits="userSpaceOnUse">
<stop stop-color="#FFDA45"/>
<stop offset="1" stop-color="#FFA425"/>
</linearGradient>
<linearGradient id="paint1_linear_1533_6776" x1="11.4843" y1="8.89816" x2="17.029" y2="10.6956" gradientUnits="userSpaceOnUse">
<stop stop-color="#FFDA45" stop-opacity="0"/>
<stop offset="0.5194" stop-color="#D9874F" stop-opacity="0.519"/>
<stop offset="1" stop-color="#B53759"/>
</linearGradient>
<linearGradient id="paint2_linear_1533_6776" x1="7.26075" y1="6.34656" x2="13.6461" y2="18.6261" gradientUnits="userSpaceOnUse">
<stop stop-color="#FFDA45" stop-opacity="0"/>
<stop offset="0.5194" stop-color="#D9874F" stop-opacity="0.519"/>
<stop offset="1" stop-color="#B53759"/>
</linearGradient>
<linearGradient id="paint3_linear_1533_6776" x1="7.76097" y1="10.193" x2="7.00678" y2="17.8426" gradientUnits="userSpaceOnUse">
<stop stop-color="#FFDA45" stop-opacity="0"/>
<stop offset="0.5194" stop-color="#D9874F" stop-opacity="0.519"/>
<stop offset="1" stop-color="#B53759"/>
</linearGradient>
<linearGradient id="paint4_linear_1533_6776" x1="6.46118" y1="10.5829" x2="4.12977" y2="14.8469" gradientUnits="userSpaceOnUse">
<stop stop-color="#FFDA45" stop-opacity="0"/>
<stop offset="0.5194" stop-color="#D9874F" stop-opacity="0.519"/>
<stop offset="1" stop-color="#B53759"/>
</linearGradient>
<linearGradient id="paint5_linear_1533_6776" x1="0.231445" y1="6.94745" x2="15.7688" y2="6.94745" gradientUnits="userSpaceOnUse">
<stop stop-color="#FFDA45"/>
<stop offset="1" stop-color="#FFA425"/>
</linearGradient>
<linearGradient id="paint6_linear_1533_6776" x1="14.9022" y1="6.94753" x2="1.0977" y2="6.94753" gradientUnits="userSpaceOnUse">
<stop stop-color="#FFDA45"/>
<stop offset="1" stop-color="#FFA425"/>
</linearGradient>
<linearGradient id="paint7_linear_1533_6776" x1="1.75146" y1="6.9474" x2="14.2486" y2="6.9474" gradientUnits="userSpaceOnUse">
<stop stop-color="#FFDA45"/>
<stop offset="1" stop-color="#FFA425"/>
</linearGradient>
<linearGradient id="paint8_linear_1533_6776" x1="16.2996" y1="14.7493" x2="0.673927" y2="1.33072" gradientUnits="userSpaceOnUse">
<stop stop-color="#FFDA45" stop-opacity="0"/>
<stop offset="0.5194" stop-color="#D9874F" stop-opacity="0.519"/>
<stop offset="1" stop-color="#B53759"/>
</linearGradient>
<linearGradient id="paint9_linear_1533_6776" x1="6.11274" y1="5.31407" x2="13.4692" y2="12.9356" gradientUnits="userSpaceOnUse">
<stop stop-color="#FFDA45"/>
<stop offset="1" stop-color="#FCB37E"/>
</linearGradient>
<linearGradient id="paint10_linear_1533_6776" x1="4.98619" y1="5.71389" x2="9.56165" y2="10.5944" gradientUnits="userSpaceOnUse">
<stop stop-color="#FCB37E" stop-opacity="0"/>
<stop offset="1" stop-color="#FF7044"/>
</linearGradient>
<linearGradient id="paint11_linear_1533_6776" x1="4.86131" y1="9.01359" x2="7.99574" y2="9.01359" gradientUnits="userSpaceOnUse">
<stop stop-color="#FFDA45"/>
<stop offset="1" stop-color="#FCB37E"/>
</linearGradient>
<linearGradient id="paint12_linear_1533_6776" x1="7.2522" y1="7.52982" x2="12.6072" y2="13.5626" gradientUnits="userSpaceOnUse">
<stop stop-color="#FCB37E" stop-opacity="0"/>
<stop offset="1" stop-color="#FF7044"/>
</linearGradient>
<linearGradient id="paint13_linear_1533_6776" x1="4.18544" y1="9.13189" x2="11.0656" y2="8.89463" gradientUnits="userSpaceOnUse">
<stop stop-color="#FCB37E" stop-opacity="0"/>
<stop offset="1" stop-color="#FF7044"/>
</linearGradient>
<linearGradient id="paint14_linear_1533_6776" x1="10.3353" y1="11.9036" x2="8.57288" y2="4.0745" gradientUnits="userSpaceOnUse">
<stop stop-color="#FFDA45"/>
<stop offset="1" stop-color="#FCB37E"/>
</linearGradient>
<linearGradient id="paint15_linear_1533_6776" x1="5.34869" y1="5.20789" x2="6.39935" y2="9.74947" gradientUnits="userSpaceOnUse">
<stop stop-color="#FFDA45"/>
<stop offset="1" stop-color="#FCB37E"/>
</linearGradient>
<linearGradient id="paint16_linear_1533_6776" x1="9.82231" y1="5.1464" x2="3.31498" y2="2.5706" gradientUnits="userSpaceOnUse">
<stop stop-color="#FCB37E" stop-opacity="0"/>
<stop offset="1" stop-color="#FF7044"/>
</linearGradient>
<linearGradient id="paint17_linear_1533_6776" x1="6.99725" y1="3.01046" x2="10.3526" y2="8.73823" gradientUnits="userSpaceOnUse">
<stop stop-color="#FCB37E" stop-opacity="0"/>
<stop offset="1" stop-color="#FF7044"/>
</linearGradient>
<linearGradient id="paint18_linear_1533_6776" x1="11.1596" y1="5.17526" x2="4.9234" y2="10.6997" gradientUnits="userSpaceOnUse">
<stop stop-color="#FCB37E" stop-opacity="0"/>
<stop offset="1" stop-color="#FF7044"/>
</linearGradient>
<linearGradient id="paint19_linear_1533_6776" x1="10.0387" y1="7.42017" x2="12.2078" y2="1.184" gradientUnits="userSpaceOnUse">
<stop stop-color="#FCB37E" stop-opacity="0"/>
<stop offset="1" stop-color="#FF7044"/>
</linearGradient>
<linearGradient id="paint20_linear_1533_6776" x1="8.12727" y1="7.03349" x2="6.01974" y2="3.98925" gradientUnits="userSpaceOnUse">
<stop stop-color="#FFDA45" stop-opacity="0"/>
<stop offset="1" stop-color="#FFEE83"/>
</linearGradient>
<linearGradient id="paint21_linear_1533_6776" x1="7.61718" y1="6.41645" x2="3.51211" y2="0.722393" gradientUnits="userSpaceOnUse">
<stop stop-color="#FFDA45" stop-opacity="0"/>
<stop offset="1" stop-color="#FCEE21"/>
</linearGradient>
<clipPath id="clip0_1533_6776">
<rect width="16" height="16" fill="white"/>
</clipPath>
</defs>
</svg>
