<svg width="20" height="20" viewBox="0 0 20 20" fill="none" xmlns="http://www.w3.org/2000/svg">
<path id="Vector" d="M0 16.6667C0 17.5507 0.351189 18.3986 0.976311 19.0237C1.60143 19.6488 2.44928 20 3.33333 20H16.6667C17.5507 20 18.3986 19.6488 19.0237 19.0237C19.6488 18.3986 20 17.5507 20 16.6667V4C20 1.79086 18.2091 0 16 0H4C1.79086 0 0 1.79086 0 4V16.6667ZM5.28053 7.64166C4.62899 6.99318 4.62775 5.93892 5.27776 5.2889C5.92562 4.64105 6.97561 4.63981 7.62499 5.28614L10 7.65L12.3583 5.29167C13.0073 4.64273 14.0594 4.64273 14.7083 5.29167C15.3573 5.9406 15.3573 6.99273 14.7083 7.64167L12.35 10L14.7083 12.3583C15.3573 13.0073 15.3573 14.0594 14.7083 14.7083C14.0594 15.3573 13.0073 15.3573 12.3583 14.7083L10 12.35L7.64167 14.7083C6.99273 15.3573 5.9406 15.3573 5.29167 14.7083C4.64273 14.0594 4.64273 13.0073 5.29167 12.3583L7.65 10L5.28053 7.64166Z" fill="#EF4424"/>
</svg>
