<svg width="26" height="26" viewBox="0 0 26 26" fill="none" xmlns="http://www.w3.org/2000/svg">
<g id="chat_464212 (1) 1" clip-path="url(#clip0_3020_187424)">
<g id="Group">
<g id="Group_2">
<path id="Vector" d="M25.7612 18.0222C25.7612 13.6162 22.1894 10.0444 17.7835 10.0444C13.3775 10.0444 9.80566 13.6163 9.80566 18.0222C9.80566 22.4282 13.3774 26 17.7834 26C19.5254 26 21.1367 25.4413 22.4488 24.4938L25.6832 25.3605L24.7561 21.9004C25.3961 20.7522 25.7612 19.43 25.7612 18.0222ZM21.307 21.908H14.2598V20.2124H21.307V21.908ZM21.307 18.8701H14.2598V17.1744H21.307V18.8701ZM21.307 15.8321H14.2598V14.1364H21.307V15.8321Z" fill="#1075EE"/>
</g>
</g>
<g id="Group_3">
<g id="Group_4">
<path id="Vector_2" d="M8.21704 0C3.81106 0 0.239258 3.5718 0.239258 7.97779C0.239258 9.38549 0.604375 10.7078 1.24432 11.8559L0.317207 15.316L3.55167 14.4493C4.86365 15.3968 6.47499 15.9556 8.21704 15.9556C8.25548 15.9556 8.29357 15.9544 8.33191 15.9538C8.45825 15.3747 8.63756 14.8077 8.8708 14.2564C9.23825 13.3877 9.7252 12.586 10.323 11.8636H4.69348V11.8635V10.1679H11.7406V10.4681C12.4326 9.91316 13.1949 9.45765 14.0174 9.1097C14.7149 8.81471 15.4375 8.60534 16.178 8.48169C16.1884 8.31497 16.1949 8.14714 16.1949 7.97779C16.1948 3.5718 12.623 0 8.21704 0ZM11.7406 8.82558H4.69348V7.12994H11.7406V8.82558ZM11.7406 5.78764H4.69348V4.092H11.7406V5.78764Z" fill="#1075EE"/>
</g>
</g>
</g>
<defs>
<clipPath id="clip0_3020_187424">
<rect width="26" height="26" fill="white"/>
</clipPath>
</defs>
</svg>
