<svg width="28" height="28" viewBox="0 0 28 28" fill="none" xmlns="http://www.w3.org/2000/svg">
<g id="dots-vertical">
<g id="Icon">
<path d="M13.9997 15.1667C14.644 15.1667 15.1663 14.6444 15.1663 14.0001C15.1663 13.3557 14.644 12.8334 13.9997 12.8334C13.3553 12.8334 12.833 13.3557 12.833 14.0001C12.833 14.6444 13.3553 15.1667 13.9997 15.1667Z" stroke="#98A2B3" stroke-width="2" stroke-linecap="round" stroke-linejoin="round"/>
<path d="M13.9997 7.00008C14.644 7.00008 15.1663 6.47775 15.1663 5.83341C15.1663 5.18908 14.644 4.66675 13.9997 4.66675C13.3553 4.66675 12.833 5.18908 12.833 5.83341C12.833 6.47775 13.3553 7.00008 13.9997 7.00008Z" stroke="#98A2B3" stroke-width="2" stroke-linecap="round" stroke-linejoin="round"/>
<path d="M13.9997 23.3334C14.644 23.3334 15.1663 22.8111 15.1663 22.1667C15.1663 21.5224 14.644 21.0001 13.9997 21.0001C13.3553 21.0001 12.833 21.5224 12.833 22.1667C12.833 22.8111 13.3553 23.3334 13.9997 23.3334Z" stroke="#98A2B3" stroke-width="2" stroke-linecap="round" stroke-linejoin="round"/>
</g>
</g>
</svg>
