<svg width="17" height="16" viewBox="0 0 17 16" fill="none" xmlns="http://www.w3.org/2000/svg">
<g id="edit-05" clip-path="url(#clip0_1644_16421)">
<path id="Icon" d="M7.8335 2.66666H5.0335C3.91339 2.66666 3.35334 2.66666 2.92552 2.88464C2.54919 3.07639 2.24323 3.38235 2.05148 3.75867C1.8335 4.1865 1.8335 4.74655 1.8335 5.86666V11.4667C1.8335 12.5868 1.8335 13.1468 2.05148 13.5746C2.24323 13.951 2.54919 14.2569 2.92552 14.4487C3.35334 14.6667 3.91339 14.6667 5.0335 14.6667H10.6335C11.7536 14.6667 12.3137 14.6667 12.7415 14.4487C13.1178 14.2569 13.4238 13.951 13.6155 13.5746C13.8335 13.1468 13.8335 12.5868 13.8335 11.4667V8.66666M5.83348 10.6667H6.94984C7.27596 10.6667 7.43902 10.6667 7.59247 10.6298C7.72852 10.5972 7.85858 10.5433 7.97788 10.4702C8.11243 10.3877 8.22773 10.2724 8.45833 10.0418L14.8335 3.66666C15.3858 3.11437 15.3858 2.21894 14.8335 1.66666C14.2812 1.11437 13.3858 1.11437 12.8335 1.66665L6.45832 8.04182C6.22772 8.27242 6.11241 8.38772 6.02996 8.52228C5.95685 8.64157 5.90298 8.77163 5.87032 8.90768C5.83348 9.06113 5.83348 9.22419 5.83348 9.55031V10.6667Z" stroke="white" stroke-width="2" stroke-linecap="round" stroke-linejoin="round"/>
</g>
<defs>
<clipPath id="clip0_1644_16421">
<rect width="16" height="16" fill="white" transform="translate(0.5)"/>
</clipPath>
</defs>
</svg>
