<svg width="57" height="56" viewBox="0 0 57 56" fill="none" xmlns="http://www.w3.org/2000/svg">
<g id="email 1" clip-path="url(#clip0_744_18026)">
<path id="Vector" d="M55.1468 44.5669C54.0391 45.8969 52.3978 46.6662 50.6668 46.6669H6.33351C4.60254 46.6662 2.96126 45.8969 1.85352 44.5669L23.2502 26.7402L25.4669 28.2569C27.2929 29.5169 29.7076 29.5169 31.5336 28.2569L33.7503 26.7402L55.1468 44.5669Z" fill="#1E88E5"/>
<path id="Vector_2" d="M55.4748 11.8755L33.7516 26.7388L31.5349 28.2555C29.7088 29.5155 27.2942 29.5155 25.4682 28.2555L23.2515 26.7388L1.52832 11.8521C2.62141 10.2759 4.4168 9.33463 6.33501 9.33211H50.6682C52.5951 9.32194 54.3993 10.2766 55.4748 11.8755Z" fill="#64B5F6"/>
<g id="Group">
<path id="Vector_3" d="M23.2501 26.7401L1.8534 44.5667C0.977634 43.52 0.498463 42.1982 0.500104 40.8335V15.1668C0.492994 13.983 0.851634 12.8259 1.5268 11.8535L23.2501 26.7401Z" fill="#2196F3"/>
<path id="Vector_4" d="M56.5 15.1679V40.8346C56.5015 42.1994 56.0224 43.5212 55.1467 44.5679L33.75 26.7412L55.4733 11.8779C56.145 12.8433 56.5035 13.9918 56.5 15.1679Z" fill="#2196F3"/>
</g>
</g>
<defs>
<clipPath id="clip0_744_18026">
<rect width="56" height="56" fill="white" transform="translate(0.5)"/>
</clipPath>
</defs>
</svg>
