<svg width="39" height="39" viewBox="0 0 39 39" fill="none" xmlns="http://www.w3.org/2000/svg">
<g id="mail-01">
<path id="Icon" d="M3.45801 11.479L16.5559 20.6475C17.6165 21.39 18.1468 21.7612 18.7237 21.905C19.2332 22.032 19.7661 22.032 20.2757 21.905C20.8525 21.7612 21.3828 21.39 22.4434 20.6475L35.5413 11.479M11.158 32.3332H27.8413C30.5366 32.3332 31.8842 32.3332 32.9137 31.8086C33.8192 31.3472 34.5554 30.611 35.0168 29.7055C35.5413 28.6761 35.5413 27.3284 35.5413 24.6332V14.3665C35.5413 11.6713 35.5413 10.3236 35.0168 9.29417C34.5554 8.38864 33.8192 7.65243 32.9137 7.19104C31.8842 6.6665 30.5366 6.6665 27.8413 6.6665H11.158C8.46276 6.6665 7.11513 6.6665 6.08568 7.19104C5.18015 7.65243 4.44393 8.38864 3.98254 9.29417C3.45801 10.3236 3.45801 11.6713 3.45801 14.3665V24.6332C3.45801 27.3284 3.45801 28.6761 3.98254 29.7055C4.44393 30.611 5.18015 31.3472 6.08568 31.8086C7.11513 32.3332 8.46276 32.3332 11.158 32.3332Z" stroke="#7F56D9" stroke-width="2.75" stroke-linecap="round" stroke-linejoin="round"/>
</g>
</svg>
