<svg width="131" height="130" viewBox="0 0 131 130" fill="none" xmlns="http://www.w3.org/2000/svg">
<g id="fi_1271380" clip-path="url(#clip0_3490_48521)">
<path id="Vector" d="M119.984 33.5483L104.048 26.4597L96.9536 10.5183L79.6117 12.3294L65.5029 2.09766L51.386 12.3294L34.0523 10.5183L26.9625 26.4525L11.0212 33.5483L12.8333 50.8902L2.60156 64.999L12.8333 79.116L11.0212 96.4497L26.9564 103.538L34.0523 119.48L51.3942 117.669L65.5029 127.9L79.6199 117.669L96.9536 119.48L104.042 103.545L119.984 96.4497L118.172 79.1078L128.404 64.999L118.172 50.8821L119.984 33.5483ZM52.9227 90.1596L35.1211 72.358L41.0549 66.4456L52.9227 78.2919L88.5033 42.7112L94.4372 48.6441L52.9227 90.1596Z" fill="#57A4FF"/>
<g id="Group">
<path id="Vector_2" d="M130.103 63.7685L120.34 50.3006L122.07 33.7603C122.164 32.8563 121.667 31.9953 120.837 31.6258L105.641 24.8637L98.8784 9.66658C98.5068 8.83834 97.6468 8.3418 96.7438 8.4319L80.2005 10.1611L66.7336 0.399276C65.9996 -0.133092 65.0065 -0.133092 64.2724 0.399276L50.8045 10.1611L34.2622 8.4319C33.3603 8.3459 32.5033 8.84141 32.1276 9.66453L25.3655 24.8616L10.1684 31.6258C9.33918 31.9943 8.84161 32.8553 8.9358 33.7583L10.665 50.3006L0.903183 63.7685C0.370814 64.5026 0.370814 65.4956 0.903183 66.2297L10.665 79.6966L8.9358 96.2399C8.84059 97.1429 9.33815 98.0049 10.1684 98.3745L25.3655 105.137L32.1276 120.334C32.5013 121.159 33.3592 121.655 34.2622 121.568L50.8045 119.838L64.2724 129.601C65.0065 130.133 65.9996 130.133 66.7336 129.601L80.2005 119.838L96.7438 121.568C97.6468 121.659 98.5058 121.163 98.8784 120.336L105.641 105.139L120.837 98.3745C121.666 98.0049 122.163 97.1449 122.07 96.242L120.34 79.6986L130.103 66.2317C130.636 65.4977 130.636 64.5026 130.103 63.7685ZM116.474 77.8855C116.17 78.3042 116.032 78.8202 116.086 79.3342L117.739 95.1598L103.198 101.633C102.723 101.842 102.342 102.221 102.132 102.696L95.6637 117.237L79.834 115.582C79.32 115.529 78.8051 115.668 78.3874 115.972L65.503 125.311L52.6166 115.972C52.2593 115.711 51.8293 115.571 51.3881 115.572C51.3144 115.572 51.2407 115.572 51.1782 115.582L35.3474 117.237L28.8791 102.696C28.6682 102.221 28.2894 101.841 27.8144 101.63L13.2654 95.1598L14.9178 79.3342C14.971 78.8202 14.8328 78.3042 14.5298 77.8855L5.1908 64.9991L14.5298 52.1127C14.8328 51.694 14.971 51.178 14.9178 50.6641L13.2654 34.8374L27.8062 28.365C28.2813 28.1561 28.6611 27.7773 28.871 27.3023L35.3392 12.7615L51.17 14.4159C51.6829 14.4671 52.1979 14.3279 52.6166 14.0259L65.503 4.68689L78.3894 14.0259C78.8071 14.3289 79.3221 14.4671 79.836 14.4159L95.6658 12.7615L102.134 27.3023C102.345 27.7773 102.725 28.1561 103.2 28.367L117.741 34.8374L116.088 50.6641C116.034 51.178 116.172 51.694 116.476 52.1127L125.814 64.9991L116.474 77.8855Z" fill="#1E81CE"/>
<path id="Vector_3" d="M89.9862 41.229C89.1671 40.41 87.8403 40.41 87.0213 41.229L52.9231 75.3272L42.5378 64.9614C41.7198 64.1454 40.395 64.1454 39.577 64.9614L33.6329 70.8696C33.2388 71.2628 33.0166 71.7972 33.0166 72.3541C33.0166 72.9111 33.2388 73.4455 33.6329 73.8386L51.4345 91.6402C52.2525 92.4582 53.5804 92.4582 54.3994 91.6402L95.9139 50.1247C96.7319 49.3067 96.7319 47.9788 95.9139 47.1598L89.9862 41.229ZM52.9231 87.1949L38.0884 72.3603L41.0533 69.4026L51.4427 79.7704C52.2607 80.5874 53.5865 80.5874 54.4055 79.7704L88.5037 45.6753L91.4727 48.6443L52.9231 87.1949Z" fill="#1E81CE"/>
</g>
</g>
<defs>
<clipPath id="clip0_3490_48521">
<rect width="130" height="130" fill="white" transform="translate(0.5)"/>
</clipPath>
</defs>
</svg>
