<svg width="25" height="24" viewBox="0 0 25 24" fill="none" xmlns="http://www.w3.org/2000/svg">
<g id="graduation-cap_3914110 1">
<path id="Vector" d="M20.0427 6.84347L14.5124 4.16367C13.295 3.42406 11.7798 3.41094 10.5502 4.12934L4.95763 6.84347C4.93664 6.85416 4.91488 6.8656 4.89463 6.8778C3.56744 7.64965 3.1067 9.36969 3.86556 10.7196C4.12279 11.1772 4.50117 11.5522 4.95763 11.8018L6.50035 12.5494V16.2872C6.50126 17.9586 7.57051 19.4353 9.13953 19.932C10.2314 20.2533 11.3636 20.4106 12.5002 20.3989C13.6366 20.4118 14.7688 20.2558 15.8609 19.9358C17.4299 19.4391 18.4991 17.9625 18.5001 16.2911V12.5479L20 11.8186V18.1104C20 18.5317 20.3358 18.8732 20.75 18.8732C21.1642 18.8732 21.5 18.5317 21.5 18.1104V8.95648C21.505 8.06072 20.8096 7.23322 20.0427 6.84347ZM17.0001 16.2911C17.0004 17.2908 16.3627 18.1751 15.4251 18.475C14.4743 18.7513 13.489 18.8855 12.5002 18.8732C11.5114 18.8855 10.5261 18.7513 9.57525 18.475C8.63762 18.1751 7.9999 17.2908 8.00029 16.2911V13.2764L10.488 14.4817C11.1018 14.8524 11.8028 15.0472 12.5167 15.0454C13.1962 15.0503 13.8642 14.8673 14.4494 14.516L17.0001 13.2764V16.2911ZM19.4 10.4249L13.7437 13.1711C12.955 13.6382 11.9774 13.625 11.2012 13.1368L5.6671 10.4593C5.05022 10.1209 4.81982 9.33801 5.15246 8.71061C5.26495 8.49843 5.43363 8.32254 5.63936 8.20282L11.2605 5.47192C12.0494 5.00586 13.0264 5.01906 13.8029 5.50625L19.3332 8.18605C19.74 8.41575 19.9944 8.84953 20 9.32267C20.0007 9.77085 19.7738 10.1876 19.4 10.4249Z" fill="white"/>
</g>
</svg>
