<svg width="24" height="24" viewBox="0 0 24 24" fill="none" xmlns="http://www.w3.org/2000/svg">
<g id="graduation-cap_3914110 1">
<path id="Vector" d="M19.5427 6.84347L14.0124 4.16367C12.795 3.42406 11.2798 3.41094 10.0502 4.12934L4.45763 6.84347C4.43664 6.85416 4.41488 6.8656 4.39463 6.8778C3.06744 7.64965 2.6067 9.36969 3.36556 10.7196C3.62279 11.1772 4.00117 11.5522 4.45763 11.8018L6.00035 12.5494V16.2872C6.00126 17.9586 7.07051 19.4353 8.63953 19.932C9.73142 20.2533 10.8636 20.4106 12.0002 20.3989C13.1366 20.4118 14.2688 20.2558 15.3609 19.9358C16.9299 19.4391 17.9991 17.9625 18.0001 16.2911V12.5479L19.5 11.8186V18.1104C19.5 18.5317 19.8358 18.8732 20.25 18.8732C20.6642 18.8732 21 18.5317 21 18.1104V8.95648C21.005 8.06072 20.3096 7.23322 19.5427 6.84347ZM16.5001 16.2911C16.5004 17.2908 15.8627 18.1751 14.9251 18.475C13.9743 18.7513 12.989 18.8855 12.0002 18.8732C11.0114 18.8855 10.0261 18.7513 9.07525 18.475C8.13762 18.1751 7.4999 17.2908 7.50029 16.2911V13.2764L9.98798 14.4817C10.6018 14.8524 11.3028 15.0472 12.0167 15.0454C12.6962 15.0503 13.3642 14.8673 13.9494 14.516L16.5001 13.2764V16.2911ZM18.9 10.4249L13.2437 13.1711C12.455 13.6382 11.4774 13.625 10.7012 13.1368L5.1671 10.4593C4.55022 10.1209 4.31982 9.33801 4.65246 8.71061C4.76495 8.49843 4.93363 8.32254 5.13936 8.20282L10.7605 5.47192C11.5494 5.00586 12.5264 5.01906 13.3029 5.50625L18.8332 8.18605C19.24 8.41575 19.4944 8.84953 19.5 9.32267C19.5007 9.77085 19.2738 10.1876 18.9 10.4249Z" fill="#6B5AE7"/>
</g>
</svg>
