<svg width="60" height="53" viewBox="0 0 60 53" fill="none" xmlns="http://www.w3.org/2000/svg">
<g id="heart">
<path id="Vector" d="M55.3317 4.72842C53.8681 3.24609 52.1305 2.0702 50.218 1.26793C48.3054 0.465664 46.2555 0.0527344 44.1853 0.0527344C42.1151 0.0527344 40.0652 0.465664 38.1527 1.26793C36.2401 2.0702 34.5025 3.24609 33.039 4.72842L30.0017 7.80334L26.9643 4.72842C24.0082 1.73562 19.9987 0.0542856 15.818 0.0542857C11.6373 0.0542857 7.62785 1.73562 4.67166 4.72842C1.71546 7.72122 0.0546875 11.7803 0.0546875 16.0128C0.0546875 20.2452 1.71546 24.3044 4.67166 27.2972L7.70896 30.3721L27.8673 50.78C29.0418 51.9691 30.9615 51.9691 32.136 50.78L52.2943 30.3721L55.3317 27.2972C56.7959 25.8155 57.9574 24.0563 58.7498 22.1201C59.5423 20.1839 59.9502 18.1086 59.9502 16.0128C59.9502 13.9169 59.5423 11.8416 58.7498 9.90544C57.9574 7.96923 56.7959 6.21006 55.3317 4.72842Z" fill="url(#paint0_linear_2393_100516)"/>
<path id="Vector_2" d="M23.5907 27.1046V27.7247C23.5532 28.3418 23.6847 28.9575 23.9709 29.5054C24.2572 30.0532 24.6872 30.5123 25.2148 30.8332C26.3225 31.5268 27.9647 31.8735 30.1414 31.8735C32.2211 31.8735 33.819 31.5545 34.935 30.9164C35.4389 30.677 35.8635 30.2975 36.1582 29.8231C36.4528 29.3486 36.6049 28.7993 36.5966 28.2407C36.6179 27.7125 36.4841 27.1896 36.2116 26.7369C35.9391 26.2842 35.54 25.9215 35.0638 25.6939C34.0364 25.1529 32.0369 24.6619 29.0655 24.2208C25.8753 23.7409 23.6765 23.0334 22.4691 22.0985C21.9043 21.6965 21.4447 21.164 21.1294 20.546C20.8141 19.928 20.6524 19.2429 20.658 18.5488C20.658 16.8344 21.5026 15.4472 23.1919 14.3875C24.8811 13.3277 27.1686 12.8048 30.0541 12.8186C32.9591 12.8186 35.2701 13.3915 36.987 14.5373C38.704 15.683 39.5639 17.1492 39.5666 18.9358V19.1481H35.9236V18.6487C35.9363 18.0691 35.8051 17.4953 35.542 16.9789C35.2788 16.4626 34.8918 16.0197 34.4158 15.69C33.4105 14.9437 31.9026 14.565 29.8921 14.5539C27.8816 14.5428 26.3821 14.8355 25.3935 15.432C24.9395 15.6614 24.5596 16.0149 24.2979 16.4516C24.0362 16.8884 23.9033 17.3904 23.9146 17.8997C23.8956 18.3925 24.0162 18.8807 24.2624 19.3078C24.5087 19.7349 24.8706 20.0835 25.3062 20.3133C26.2312 20.8459 28.2472 21.3217 31.3543 21.7406C34.3424 22.1595 36.5177 22.8448 37.8801 23.7963C38.517 24.2044 39.0391 24.7688 39.3968 25.436C39.7545 26.1031 39.936 26.8509 39.9239 27.6081C39.9239 29.4197 39.0792 30.8762 37.3899 31.9776C35.7007 33.0789 33.189 33.6338 29.8548 33.6421C26.5621 33.6421 24.0877 33.0762 22.4317 31.9443C21.6473 31.4459 21.0053 30.7521 20.5684 29.9308C20.1316 29.1096 19.9149 28.1889 19.9394 27.2586V27.113L23.5907 27.1046Z" fill="white"/>
</g>
<defs>
<linearGradient id="paint0_linear_2393_100516" x1="3.79815" y1="4.68044" x2="43.3249" y2="47.9522" gradientUnits="userSpaceOnUse">
<stop stop-color="#D571F8"/>
<stop offset="1" stop-color="#6B5AE7"/>
</linearGradient>
</defs>
</svg>
