<svg width="16" height="16" viewBox="0 0 16 16" fill="none" xmlns="http://www.w3.org/2000/svg">
<g id="icon_16/log-out">
<g id="Vector">
<path fill-rule="evenodd" clip-rule="evenodd" d="M3.33333 2.75C3.17862 2.75 3.03025 2.81146 2.92085 2.92085C2.81146 3.03025 2.75 3.17862 2.75 3.33333V12.6667C2.75 12.8214 2.81146 12.9697 2.92085 13.0791C3.03025 13.1885 3.17862 13.25 3.33333 13.25H8.33333C8.74755 13.25 9.08333 13.5858 9.08333 14C9.08333 14.4142 8.74755 14.75 8.33333 14.75H3.33333C2.7808 14.75 2.25089 14.5305 1.86019 14.1398C1.46949 13.7491 1.25 13.2192 1.25 12.6667V3.33333C1.25 2.7808 1.46949 2.2509 1.86019 1.86019C2.2509 1.46949 2.7808 1.25 3.33333 1.25H8.33333C8.74755 1.25 9.08333 1.58579 9.08333 2C9.08333 2.41421 8.74755 2.75 8.33333 2.75H3.33333Z" fill="#6B5AE7"/>
<path fill-rule="evenodd" clip-rule="evenodd" d="M10.1363 4.13634C10.4292 3.84344 10.9041 3.84344 11.197 4.13634L14.5303 7.46967C14.8232 7.76256 14.8232 8.23744 14.5303 8.53033L11.197 11.8637C10.9041 12.1566 10.4292 12.1566 10.1363 11.8637C9.84344 11.5708 9.84344 11.0959 10.1363 10.803L12.9393 8L10.1363 5.197C9.84344 4.9041 9.84344 4.42923 10.1363 4.13634Z" fill="#6B5AE7"/>
<path fill-rule="evenodd" clip-rule="evenodd" d="M5.25 8C5.25 7.58579 5.58579 7.25 6 7.25H14C14.4142 7.25 14.75 7.58579 14.75 8C14.75 8.41421 14.4142 8.75 14 8.75H6C5.58579 8.75 5.25 8.41421 5.25 8Z" fill="#6B5AE7"/>
</g>
</g>
</svg>
