<svg width="16" height="16" viewBox="0 0 16 16" fill="none" xmlns="http://www.w3.org/2000/svg">
<g id="log-out-03">
<g id="Solid">
<path d="M5.38099 1.70495L6.11468 1.78646C6.28265 1.8051 6.40753 1.81895 6.52019 1.84135C7.68448 2.07284 8.55556 3.04607 8.65706 4.2288C8.66689 4.34325 8.66686 4.46889 8.66683 4.63789L8.66683 4.66674C8.66683 5.03492 8.36835 5.3334 8.00016 5.3334C7.63197 5.3334 7.3335 5.03492 7.3335 4.66674C7.3335 4.45635 7.33289 4.39264 7.32861 4.34281C7.27786 3.75145 6.84232 3.26483 6.26018 3.14909C6.21112 3.13933 6.14787 3.13169 5.93878 3.10846L5.25784 3.0328C4.73679 2.97491 4.3807 2.93574 4.10337 2.92474C3.83118 2.91394 3.69044 2.93377 3.59379 2.9647C3.23258 3.08029 2.93768 3.34424 2.78291 3.69048C2.7415 3.78311 2.70624 3.9208 2.68691 4.19252C2.66722 4.46938 2.66683 4.82761 2.66683 5.35186V10.6483C2.66683 11.1725 2.66722 11.5308 2.68691 11.8076C2.70624 12.0793 2.7415 12.217 2.78291 12.3097C2.93768 12.6559 3.23258 12.9198 3.59379 13.0354C3.69043 13.0664 3.83118 13.0862 4.10337 13.0754C4.38071 13.0644 4.7368 13.0252 5.25784 12.9673L5.93878 12.8917C6.14781 12.8684 6.21113 12.8608 6.26018 12.8511C6.84232 12.7353 7.27786 12.2487 7.32861 11.6573C7.33289 11.6075 7.3335 11.5438 7.3335 11.3334C7.3335 10.9652 7.63197 10.6667 8.00016 10.6667C8.36835 10.6667 8.66683 10.9652 8.66683 11.3334L8.66683 11.3622C8.66686 11.5312 8.66689 11.6569 8.65706 11.7713C8.55556 12.9541 7.68448 13.9273 6.52019 14.1588C6.40753 14.1812 6.28257 14.195 6.11462 14.2137L5.38097 14.2952C4.88996 14.3498 4.48659 14.3946 4.15623 14.4077C3.81534 14.4212 3.49714 14.4044 3.18742 14.3053C2.46499 14.0742 1.8752 13.5463 1.56566 12.8538C1.43295 12.5569 1.38115 12.2425 1.35694 11.9022C1.33349 11.5724 1.33349 11.1666 1.3335 10.6725V5.32763C1.33349 4.83358 1.33349 4.42772 1.35694 4.09793C1.38115 3.75762 1.43295 3.44323 1.56566 3.14635C1.8752 2.45387 2.46499 1.92598 3.18742 1.6948C3.49714 1.59569 3.81533 1.57893 4.15623 1.59245C4.48659 1.60556 4.88996 1.65038 5.38099 1.70495Z" fill="#6656DB"/>
<path d="M10.1954 4.19534C10.4558 3.93499 10.8779 3.93499 11.1382 4.19534L14.4716 7.52868C14.7319 7.78903 14.7319 8.21114 14.4716 8.47149L11.1382 11.8048C10.8779 12.0652 10.4558 12.0652 10.1954 11.8048C9.93507 11.5445 9.93507 11.1224 10.1954 10.862L12.3907 8.66675H6.00016C5.63197 8.66675 5.3335 8.36827 5.3335 8.00008C5.3335 7.63189 5.63197 7.33341 6.00016 7.33341H12.3907L10.1954 5.13815C9.93507 4.8778 9.93507 4.45569 10.1954 4.19534Z" fill="#6656DB"/>
</g>
</g>
</svg>
