<svg width="20" height="20" viewBox="0 0 20 20" fill="none" xmlns="http://www.w3.org/2000/svg">
<g id="mark" clip-path="url(#clip0_509_1508)">
<path id="Icon" d="M16.667 9.99996C16.667 13.6819 13.6822 16.6666 10.0003 16.6666M16.667 9.99996C16.667 6.31806 13.6822 3.33329 10.0003 3.33329M16.667 9.99996H18.3337M10.0003 16.6666C6.31843 16.6666 3.33366 13.6819 3.33366 9.99996M10.0003 16.6666V18.3333M3.33366 9.99996C3.33366 6.31806 6.31843 3.33329 10.0003 3.33329M3.33366 9.99996H1.66699M10.0003 3.33329V1.66663M12.5003 9.99996C12.5003 11.3807 11.381 12.5 10.0003 12.5C8.61961 12.5 7.50033 11.3807 7.50033 9.99996C7.50033 8.61925 8.61961 7.49996 10.0003 7.49996C11.381 7.49996 12.5003 8.61925 12.5003 9.99996Z" stroke="#6656DB" stroke-width="2" stroke-linecap="round" stroke-linejoin="round"/>
</g>
<defs>
<clipPath id="clip0_509_1508">
<rect width="20" height="20" fill="white"/>
</clipPath>
</defs>
</svg>
