<svg width="20" height="20" viewBox="0 0 20 20" fill="none" xmlns="http://www.w3.org/2000/svg">
<g id="message-dots-circle">
<path id="Solid" fill-rule="evenodd" clip-rule="evenodd" d="M10.0001 1.66699C5.39771 1.66699 1.66675 5.39795 1.66675 10.0003C1.66675 11.1073 1.88302 12.1657 2.27638 13.1343C2.31191 13.2218 2.33235 13.2723 2.34635 13.3096L2.35061 13.3211L2.35008 13.3251C2.34591 13.3558 2.33902 13.3978 2.32568 13.4778L1.82753 16.4666C1.80518 16.6005 1.78017 16.7502 1.77035 16.8803C1.75965 17.0221 1.75592 17.2477 1.85819 17.4862C1.98461 17.7809 2.21949 18.0158 2.51425 18.1422C2.75268 18.2445 2.9783 18.2408 3.12012 18.2301C3.25019 18.2202 3.39996 18.1952 3.53382 18.1729L6.52262 17.6747C6.60266 17.6614 6.64457 17.6545 6.67533 17.6503L6.67929 17.6498L6.6908 17.6541C6.7281 17.6681 6.7786 17.6885 6.86609 17.724C7.83466 18.1174 8.89315 18.3337 10.0001 18.3337C14.6025 18.3337 18.3334 14.6027 18.3334 10.0003C18.3334 5.39795 14.6025 1.66699 10.0001 1.66699ZM5.00008 10.0003C5.00008 9.30997 5.55973 8.75033 6.25008 8.75033C6.94044 8.75033 7.50008 9.30997 7.50008 10.0003C7.50008 10.6907 6.94044 11.2503 6.25008 11.2503C5.55973 11.2503 5.00008 10.6907 5.00008 10.0003ZM8.75008 10.0003C8.75008 9.30997 9.30973 8.75033 10.0001 8.75033C10.6904 8.75033 11.2501 9.30997 11.2501 10.0003C11.2501 10.6907 10.6904 11.2503 10.0001 11.2503C9.30973 11.2503 8.75008 10.6907 8.75008 10.0003ZM13.7501 8.75033C13.0597 8.75033 12.5001 9.30997 12.5001 10.0003C12.5001 10.6907 13.0597 11.2503 13.7501 11.2503C14.4404 11.2503 15.0001 10.6907 15.0001 10.0003C15.0001 9.30997 14.4404 8.75033 13.7501 8.75033Z" fill="#6656db"/>
</g>
</svg>
