<svg width="20" height="20" viewBox="0 0 20 20" fill="none" xmlns="http://www.w3.org/2000/svg">
<g id="message-dots-circle">
<path id="Solid" fill-rule="evenodd" clip-rule="evenodd" d="M10.0001 1.6665C5.39771 1.6665 1.66675 5.39746 1.66675 9.99984C1.66675 11.1068 1.88302 12.1653 2.27638 13.1338C2.31191 13.2213 2.33235 13.2718 2.34635 13.3091L2.35061 13.3206L2.35008 13.3246C2.34591 13.3553 2.33902 13.3973 2.32568 13.4773L1.82753 16.4661C1.80518 16.6 1.78017 16.7497 1.77035 16.8798C1.75965 17.0216 1.75592 17.2472 1.85819 17.4857C1.98461 17.7804 2.21949 18.0153 2.51425 18.1417C2.75268 18.244 2.9783 18.2403 3.12012 18.2296C3.25019 18.2197 3.39996 18.1947 3.53382 18.1724L6.52262 17.6742C6.60266 17.6609 6.64457 17.654 6.67533 17.6498L6.67929 17.6493L6.6908 17.6536C6.7281 17.6676 6.7786 17.688 6.86609 17.7235C7.83466 18.1169 8.89315 18.3332 10.0001 18.3332C14.6025 18.3332 18.3334 14.6022 18.3334 9.99984C18.3334 5.39746 14.6025 1.6665 10.0001 1.6665ZM5.00008 9.99984C5.00008 9.30948 5.55973 8.74984 6.25008 8.74984C6.94044 8.74984 7.50008 9.30948 7.50008 9.99984C7.50008 10.6902 6.94044 11.2498 6.25008 11.2498C5.55973 11.2498 5.00008 10.6902 5.00008 9.99984ZM8.75008 9.99984C8.75008 9.30948 9.30973 8.74984 10.0001 8.74984C10.6904 8.74984 11.2501 9.30948 11.2501 9.99984C11.2501 10.6902 10.6904 11.2498 10.0001 11.2498C9.30973 11.2498 8.75008 10.6902 8.75008 9.99984ZM13.7501 8.74984C13.0597 8.74984 12.5001 9.30948 12.5001 9.99984C12.5001 10.6902 13.0597 11.2498 13.7501 11.2498C14.4404 11.2498 15.0001 10.6902 15.0001 9.99984C15.0001 9.30948 14.4404 8.74984 13.7501 8.74984Z" fill="url(#paint0_linear_421_6550)"/>
</g>
<defs>
<linearGradient id="paint0_linear_421_6550" x1="10.0001" y1="1.6665" x2="10.0001" y2="18.3332" gradientUnits="userSpaceOnUse">
<stop stop-color="#ADA2FC"/>
<stop offset="1" stop-color="#6E5CF0"/>
</linearGradient>
</defs>
</svg>
