<svg width="20" height="20" viewBox="0 0 20 20" fill="none" xmlns="http://www.w3.org/2000/svg">
<g id="repeat-01">
<path id="Icon" d="M14.1667 1.6665L17.5 4.99984M17.5 4.99984L14.1667 8.33317M17.5 4.99984H6.5C5.09987 4.99984 4.3998 4.99984 3.86502 5.27232C3.39462 5.512 3.01217 5.89446 2.77248 6.36486C2.5 6.89964 2.5 7.59971 2.5 8.99984V9.1665M2.5 14.9998H13.5C14.9001 14.9998 15.6002 14.9998 16.135 14.7274C16.6054 14.4877 16.9878 14.1052 17.2275 13.6348C17.5 13.1 17.5 12.4 17.5 10.9998V10.8332M2.5 14.9998L5.83333 18.3332M2.5 14.9998L5.83333 11.6665" stroke="url(#paint0_linear_421_12123)" stroke-width="2" stroke-linecap="round" stroke-linejoin="round"/>
</g>
<defs>
<linearGradient id="paint0_linear_421_12123" x1="10" y1="1.6665" x2="10" y2="18.3332" gradientUnits="userSpaceOnUse">
<stop stop-color="#ADA2FC"/>
<stop offset="1" stop-color="#6E5CF0"/>
</linearGradient>
</defs>
</svg>
