<svg width="20" height="20" viewBox="0 0 20 20" fill="none" xmlns="http://www.w3.org/2000/svg">
<g id="search-md">
<path id="Icon (Stroke)" fill-rule="evenodd" clip-rule="evenodd" d="M9.16667 3.25C5.89898 3.25 3.25 5.89898 3.25 9.16667C3.25 12.4344 5.89898 15.0833 9.16667 15.0833C10.7631 15.0833 12.2118 14.4511 13.2761 13.4233C13.2968 13.3959 13.3197 13.3696 13.3447 13.3447C13.3696 13.3197 13.3959 13.2968 13.4233 13.2761C14.4511 12.2118 15.0833 10.7631 15.0833 9.16667C15.0833 5.89898 12.4344 3.25 9.16667 3.25ZM14.9147 13.854C15.9577 12.5764 16.5833 10.9446 16.5833 9.16667C16.5833 5.07055 13.2628 1.75 9.16667 1.75C5.07055 1.75 1.75 5.07055 1.75 9.16667C1.75 13.2628 5.07055 16.5833 9.16667 16.5833C10.9446 16.5833 12.5764 15.9577 13.854 14.9147L16.9697 18.0303C17.2626 18.3232 17.7374 18.3232 18.0303 18.0303C18.3232 17.7374 18.3232 17.2626 18.0303 16.9697L14.9147 13.854Z" fill="#101828"/>
</g>
</svg>
