<svg width="36" height="36" viewBox="0 0 36 36" fill="none" xmlns="http://www.w3.org/2000/svg">
<g id="star-01">
<path id="Solid" d="M18.9684 2.66386C18.3558 2.37181 17.6442 2.37181 17.0317 2.66386C16.5022 2.91633 16.2102 3.35469 16.063 3.59517C15.9108 3.84378 15.7545 4.16047 15.6022 4.46916L12.3686 11.0201L5.13556 12.0773C4.79508 12.127 4.44572 12.178 4.16234 12.2461C3.8882 12.3121 3.38134 12.4546 2.97797 12.8804C2.51133 13.3729 2.29188 14.0498 2.38071 14.7224C2.4575 15.3039 2.78426 15.7167 2.96757 15.931C3.15704 16.1524 3.41002 16.3987 3.65656 16.6388L8.88825 21.7344L7.65381 28.9318C7.59553 29.2712 7.53575 29.6194 7.51273 29.91C7.49047 30.1911 7.46896 30.7175 7.74901 31.2331C8.07294 31.8294 8.64876 32.2477 9.31606 32.3714C9.89297 32.4784 10.3869 32.2952 10.6474 32.1871C10.9167 32.0754 11.2293 31.9109 11.534 31.7506L18 28.3502L24.4661 31.7506C24.7708 31.9109 25.0834 32.0754 25.3527 32.1871C25.6132 32.2952 26.1071 32.4784 26.684 32.3714C27.3513 32.2477 27.9271 31.8294 28.2511 31.2331C28.5311 30.7175 28.5096 30.1911 28.4873 29.91C28.4643 29.6194 28.4046 29.2712 28.3463 28.9319L27.1118 21.7344L32.3436 16.6387C32.5901 16.3987 32.843 16.1524 33.0325 15.931C33.2158 15.7167 33.5426 15.3039 33.6194 14.7224C33.7082 14.0498 33.4887 13.3729 33.0221 12.8804C32.6187 12.4546 32.1119 12.3121 31.8377 12.2461C31.5544 12.178 31.205 12.127 30.8645 12.0773L23.6314 11.0201L20.3979 4.46927C20.2456 4.16057 20.0893 3.8438 19.9371 3.59517C19.7899 3.35469 19.4979 2.91633 18.9684 2.66386Z" fill="url(#paint0_linear_3490_48243)"/>
</g>
<defs>
<linearGradient id="paint0_linear_3490_48243" x1="18" y1="2.44482" x2="18" y2="32.4038" gradientUnits="userSpaceOnUse">
<stop stop-color="#FF9E88"/>
<stop offset="1" stop-color="#EE4E29"/>
</linearGradient>
</defs>
</svg>
