<svg width="12" height="12" viewBox="0 0 12 12" fill="none" xmlns="http://www.w3.org/2000/svg">
<g id="star" clip-path="url(#clip0_347_9974)">
<g id="elements">
<path id="Vector (Stroke)" d="M5.99805 0.625C6.52269 0.625 6.93594 1.02127 7.19977 1.55596L8.08079 3.33258C8.1075 3.38756 8.17083 3.46499 8.26603 3.53582C8.36114 3.60657 8.45428 3.64561 8.51555 3.6559L10.1104 3.92306C10.6864 4.01987 11.1693 4.30225 11.326 4.79395C11.4827 5.28525 11.2532 5.7958 10.8389 6.21082L10.8385 6.21123L9.59956 7.46043C9.55045 7.50994 9.49545 7.60321 9.46095 7.72472C9.42668 7.84541 9.42364 7.95534 9.43918 8.02637L9.4394 8.02736L9.79387 9.57269C9.94088 10.2159 9.89216 10.8537 9.43854 11.1871C8.98336 11.5217 8.36134 11.3734 7.79626 11.0368L6.30128 10.1445C6.2385 10.107 6.13068 10.0766 6.00055 10.0766C5.87137 10.0766 5.76128 10.1066 5.69442 10.1455L5.69347 10.146L4.20144 11.0366C3.63703 11.3743 3.01577 11.52 2.56055 11.1851C2.10725 10.8516 2.05607 10.215 2.20356 9.57236L2.55795 8.02736L2.55817 8.02637C2.57371 7.95534 2.57066 7.84541 2.5364 7.72472C2.5019 7.60321 2.44689 7.50994 2.39779 7.46043L1.15793 6.21032C0.746323 5.79532 0.517603 5.2852 0.672974 4.79463C0.828797 4.30262 1.31071 4.0199 1.88717 3.92303L3.48066 3.6561L3.48117 3.65601C3.53959 3.64587 3.63135 3.60728 3.72624 3.53634C3.8213 3.46527 3.8848 3.38768 3.91156 3.33258L3.91291 3.32983L4.79281 1.55549L4.79316 1.55479C5.05948 1.02054 5.47402 0.625 5.99805 0.625Z" fill="white"/>
</g>
</g>
<defs>
<clipPath id="clip0_347_9974">
<rect width="12" height="12" fill="white"/>
</clipPath>
</defs>
</svg>
