<svg width="23" height="22" viewBox="0 0 23 22" fill="none" xmlns="http://www.w3.org/2000/svg">
<g id="reward 1" clip-path="url(#clip0_1553_18007)">
<path id="Vector" d="M22.1822 9.55274C22.1822 4.27692 17.3997 0 11.5003 0C5.60082 0 0.818359 4.27692 0.818359 9.55274V11.8111C0.818359 17.0869 5.60082 21.3638 11.5003 21.3638C17.3997 21.3638 22.1822 17.0869 22.1822 11.8111C22.1822 11.8037 22.1822 9.56015 22.1822 9.55274Z" fill="url(#paint0_linear_1553_18007)"/>
<path id="Vector_2" d="M22.1822 9.55274C22.1822 4.27692 17.3997 0 11.5003 0C5.60082 0 0.818359 4.27692 0.818359 9.55274V11.8111C0.818359 17.0869 5.60082 21.3638 11.5003 21.3638C17.3997 21.3638 22.1822 17.0869 22.1822 11.8111C22.1822 11.8037 22.1822 9.56015 22.1822 9.55274Z" fill="url(#paint1_linear_1553_18007)"/>
<path id="Vector_3" d="M20.2972 4.13423C18.3704 1.63698 15.149 0 11.4997 0C7.85033 0 4.62899 1.63698 2.70215 4.13423V17.2296C4.62899 19.7269 7.85033 21.3639 11.4997 21.3639C15.149 21.3639 18.3704 19.7269 20.2972 17.2296V4.13423Z" fill="url(#paint2_linear_1553_18007)"/>
<path id="Vector_4" d="M5.23438 19.5481C6.99445 20.69 9.15896 21.3638 11.4997 21.3638C13.8405 21.3638 16.0049 20.69 17.7651 19.5481V1.81569C16.0049 0.673857 13.8405 0 11.4997 0C9.15896 0 6.99451 0.673857 5.23438 1.81569V19.5481Z" fill="url(#paint3_linear_1553_18007)"/>
<path id="Vector_5" d="M9.07324 21.1161C9.85294 21.278 10.6653 21.3638 11.5001 21.3638C12.335 21.3638 13.1473 21.278 13.927 21.1161V0.247754C13.1473 0.0857701 12.335 0 11.5001 0C10.6653 0 9.85294 0.0857701 9.07324 0.247754V21.1161Z" fill="url(#paint4_linear_1553_18007)"/>
<path id="Vector_6" d="M11.5003 19.1055C17.3997 19.1055 22.1822 14.8286 22.1822 9.55274C22.1822 4.27691 17.3997 0 11.5003 0C5.60081 0 0.818359 4.27691 0.818359 9.55274C0.818359 14.8286 5.60081 19.1055 11.5003 19.1055Z" fill="url(#paint5_linear_1553_18007)"/>
<path id="Vector_7" d="M11.5004 18.0402C16.7419 18.0402 20.991 14.2402 20.991 9.55279C20.991 4.86535 16.7419 1.06543 11.5004 1.06543C6.25886 1.06543 2.00977 4.86535 2.00977 9.55279C2.00977 14.2402 6.25886 18.0402 11.5004 18.0402Z" fill="url(#paint6_linear_1553_18007)"/>
<path id="Vector_8" d="M11.5 17.2362C16.2451 17.2362 20.0917 13.7962 20.0917 9.55268C20.0917 5.30918 16.2451 1.86914 11.5 1.86914C6.75487 1.86914 2.9082 5.30918 2.9082 9.55268C2.9082 13.7962 6.75487 17.2362 11.5 17.2362Z" fill="url(#paint7_linear_1553_18007)"/>
<path id="Vector_9" d="M22.003 11.302L18.1267 7.42565C18.0614 7.29036 17.9342 7.18381 17.7613 7.15914L15.9571 6.89675L11.9358 2.88538C11.8477 2.70399 11.674 2.6123 11.5004 2.6123C11.3268 2.6123 11.1531 2.70387 11.065 2.88532L9.27319 6.57254L5.23955 7.15914C5.04 7.18763 4.90089 7.325 4.84821 7.49003C4.79463 7.6559 4.82832 7.84942 4.97435 7.98853L7.8329 10.8392C7.83905 10.8474 7.84586 10.8553 7.85267 10.8633L7.19207 14.7168C7.15839 14.9112 7.24219 15.084 7.37867 15.1859L11.296 19.1032C11.3641 19.1044 11.4321 19.1056 11.5005 19.1056C16.7317 19.1054 21.0841 15.7423 22.003 11.302Z" fill="url(#paint8_linear_1553_18007)"/>
<path id="Vector_10" d="M18.1526 7.49003C18.0999 7.325 17.9608 7.18763 17.7613 7.15914L13.7276 6.57254L11.9358 2.88532C11.8477 2.70393 11.674 2.6123 11.5004 2.6123C11.3268 2.6123 11.1531 2.70387 11.065 2.88532L9.27319 6.57254L5.23955 7.15914C5.04 7.18763 4.90089 7.325 4.84821 7.49003C4.79463 7.6559 4.82832 7.84942 4.97435 7.98853L7.87196 10.7505L7.19207 14.7168C7.15839 14.9112 7.24219 15.0839 7.37867 15.1859C7.51604 15.2887 7.70699 15.3206 7.88492 15.2316L11.5004 13.4295L15.116 15.2316C15.2939 15.3206 15.4848 15.2887 15.6222 15.1859C15.7587 15.0839 15.8425 14.9111 15.8088 14.7168L15.1289 10.7505L18.0265 7.98853C18.1725 7.84942 18.2062 7.6559 18.1526 7.49003ZM11.5004 9.59976L11.4944 9.6015L11.4969 9.59893L11.5004 9.59373L11.5039 9.59893L11.5064 9.6015L11.5004 9.59976Z" fill="url(#paint9_linear_1553_18007)"/>
<path id="Vector_11" d="M11.4969 9.59864L11.4944 9.60121L7.87195 10.7502L4.97434 7.98824C4.82837 7.84913 4.79462 7.65561 4.8482 7.48975L11.4969 9.59864Z" fill="url(#paint10_linear_1553_18007)"/>
<path id="Vector_12" d="M11.4944 9.60156L7.37861 15.186C7.24213 15.084 7.15833 14.9112 7.19202 14.7169L7.87191 10.7506L11.4944 9.60156Z" fill="url(#paint11_linear_1553_18007)"/>
<path id="Vector_13" d="M15.6218 15.186C15.4844 15.2888 15.2935 15.3208 15.1155 15.2318L11.5 13.4296V9.59985L11.506 9.60159L15.6218 15.186Z" fill="url(#paint12_linear_1553_18007)"/>
<path id="Vector_14" d="M11.4997 9.59985V13.4296L7.88419 15.2318C7.7062 15.3208 7.51531 15.2888 7.37793 15.186L11.4937 9.60159L11.4997 9.59985Z" fill="url(#paint13_linear_1553_18007)"/>
<path id="Vector_15" d="M15.6216 15.186L11.5059 9.60156L15.1283 10.7506L15.8082 14.7168C15.8419 14.9113 15.7581 15.0841 15.6216 15.186Z" fill="url(#paint14_linear_1553_18007)"/>
<path id="Vector_16" d="M11.4999 9.59364L11.4964 9.59883L4.84766 7.49C4.90034 7.32497 5.03944 7.18759 5.239 7.1591L9.27264 6.57251L11.4999 9.59364Z" fill="url(#paint15_linear_1553_18007)"/>
<path id="Vector_17" d="M13.7272 6.57254L11.5 9.59373V2.6123C11.6736 2.6123 11.8473 2.70387 11.9354 2.88532L13.7272 6.57254Z" fill="url(#paint16_linear_1553_18007)"/>
<path id="Vector_18" d="M11.4997 2.6123V9.59367L9.27246 6.57254L11.0643 2.88532C11.1524 2.70387 11.326 2.6123 11.4997 2.6123Z" fill="url(#paint17_linear_1553_18007)"/>
<path id="Vector_19" d="M18.1522 7.48994L11.5035 9.59877L11.5 9.59364L13.7272 6.57251L17.7609 7.1591C17.9604 7.18759 18.0995 7.32491 18.1522 7.48994Z" fill="url(#paint18_linear_1553_18007)"/>
<path id="Vector_20" d="M18.0265 7.98867L15.1289 10.7506L11.5065 9.60164L11.5039 9.59907L18.1526 7.49023C18.2062 7.65604 18.1725 7.84956 18.0265 7.98867Z" fill="url(#paint19_linear_1553_18007)"/>
<path id="Vector_21" d="M17.0252 7.73699C16.9814 7.59991 16.8659 7.48583 16.7001 7.46212L13.3496 6.97485L11.8613 3.91209C11.7881 3.7614 11.6439 3.6853 11.4996 3.6853C11.3554 3.6853 11.2111 3.7614 11.138 3.91209L9.64965 6.97485L6.29912 7.46212C6.13331 7.48583 6.0178 7.59991 5.97402 7.73699C5.92952 7.87478 5.95753 8.03551 6.07878 8.15102L8.48566 10.4452L7.92093 13.7398C7.89292 13.9012 7.96256 14.0447 8.07593 14.1294C8.19001 14.2148 8.34865 14.2414 8.49647 14.1675L11.4996 12.6706L14.5028 14.1675C14.6507 14.2414 14.8092 14.2148 14.9234 14.1294C15.0367 14.0447 15.1064 13.9012 15.0784 13.7398L14.5136 10.4452L16.9205 8.15102C17.0417 8.03551 17.0697 7.87478 17.0252 7.73699ZM11.4996 9.48936L11.4946 9.49079L11.4968 9.48864L11.4996 9.48434L11.5025 9.48864L11.5046 9.49079L11.4996 9.48936Z" fill="url(#paint20_linear_1553_18007)"/>
<path id="Vector_22" d="M11.5003 16.4219C15.7424 16.4219 19.1813 13.3465 19.1813 9.55286C19.1813 5.7592 15.7424 2.68384 11.5003 2.68384C7.25822 2.68384 3.81934 5.7592 3.81934 9.55286C3.81934 13.3465 7.25822 16.4219 11.5003 16.4219Z" fill="url(#paint21_linear_1553_18007)"/>
</g>
<defs>
<linearGradient id="paint0_linear_1553_18007" x1="0.818359" y1="10.6819" x2="22.1822" y2="10.6819" gradientUnits="userSpaceOnUse">
<stop stop-color="#FFDA45"/>
<stop offset="1" stop-color="#FFA425"/>
</linearGradient>
<linearGradient id="paint1_linear_1553_18007" x1="16.291" y1="12.235" x2="23.915" y2="14.7065" gradientUnits="userSpaceOnUse">
<stop stop-color="#FFDA45" stop-opacity="0"/>
<stop offset="0.5194" stop-color="#D9874F" stop-opacity="0.519"/>
<stop offset="1" stop-color="#B53759"/>
</linearGradient>
<linearGradient id="paint2_linear_1553_18007" x1="10.4829" y1="8.72652" x2="19.2628" y2="25.6109" gradientUnits="userSpaceOnUse">
<stop stop-color="#FFDA45" stop-opacity="0"/>
<stop offset="0.5194" stop-color="#D9874F" stop-opacity="0.519"/>
<stop offset="1" stop-color="#B53759"/>
</linearGradient>
<linearGradient id="paint3_linear_1553_18007" x1="11.1711" y1="14.0154" x2="10.1341" y2="24.5336" gradientUnits="userSpaceOnUse">
<stop stop-color="#FFDA45" stop-opacity="0"/>
<stop offset="0.5194" stop-color="#D9874F" stop-opacity="0.519"/>
<stop offset="1" stop-color="#B53759"/>
</linearGradient>
<linearGradient id="paint4_linear_1553_18007" x1="9.38443" y1="14.5514" x2="6.17874" y2="20.4145" gradientUnits="userSpaceOnUse">
<stop stop-color="#FFDA45" stop-opacity="0"/>
<stop offset="0.5194" stop-color="#D9874F" stop-opacity="0.519"/>
<stop offset="1" stop-color="#B53759"/>
</linearGradient>
<linearGradient id="paint5_linear_1553_18007" x1="0.818359" y1="9.55274" x2="22.1822" y2="9.55274" gradientUnits="userSpaceOnUse">
<stop stop-color="#FFDA45"/>
<stop offset="1" stop-color="#FFA425"/>
</linearGradient>
<linearGradient id="paint6_linear_1553_18007" x1="20.991" y1="9.55279" x2="2.00982" y2="9.55279" gradientUnits="userSpaceOnUse">
<stop stop-color="#FFDA45"/>
<stop offset="1" stop-color="#FFA425"/>
</linearGradient>
<linearGradient id="paint7_linear_1553_18007" x1="2.9082" y1="9.55268" x2="20.0917" y2="9.55268" gradientUnits="userSpaceOnUse">
<stop stop-color="#FFDA45"/>
<stop offset="1" stop-color="#FFA425"/>
</linearGradient>
<linearGradient id="paint8_linear_1553_18007" x1="22.9124" y1="20.2802" x2="1.42714" y2="1.82968" gradientUnits="userSpaceOnUse">
<stop stop-color="#FFDA45" stop-opacity="0"/>
<stop offset="0.5194" stop-color="#D9874F" stop-opacity="0.519"/>
<stop offset="1" stop-color="#B53759"/>
</linearGradient>
<linearGradient id="paint9_linear_1553_18007" x1="8.90551" y1="7.30679" x2="19.0206" y2="17.7864" gradientUnits="userSpaceOnUse">
<stop stop-color="#FFDA45"/>
<stop offset="1" stop-color="#FCB37E"/>
</linearGradient>
<linearGradient id="paint10_linear_1553_18007" x1="7.3565" y1="7.85636" x2="13.6478" y2="14.567" gradientUnits="userSpaceOnUse">
<stop stop-color="#FCB37E" stop-opacity="0"/>
<stop offset="1" stop-color="#FF7044"/>
</linearGradient>
<linearGradient id="paint11_linear_1553_18007" x1="7.18455" y1="12.3938" x2="11.4944" y2="12.3938" gradientUnits="userSpaceOnUse">
<stop stop-color="#FFDA45"/>
<stop offset="1" stop-color="#FCB37E"/>
</linearGradient>
<linearGradient id="paint12_linear_1553_18007" x1="10.4718" y1="10.3539" x2="17.8349" y2="18.649" gradientUnits="userSpaceOnUse">
<stop stop-color="#FCB37E" stop-opacity="0"/>
<stop offset="1" stop-color="#FF7044"/>
</linearGradient>
<linearGradient id="paint13_linear_1553_18007" x1="6.25456" y1="12.5567" x2="15.7147" y2="12.2305" gradientUnits="userSpaceOnUse">
<stop stop-color="#FCB37E" stop-opacity="0"/>
<stop offset="1" stop-color="#FF7044"/>
</linearGradient>
<linearGradient id="paint14_linear_1553_18007" x1="14.7108" y1="16.3675" x2="12.2875" y2="5.6025" gradientUnits="userSpaceOnUse">
<stop stop-color="#FFDA45"/>
<stop offset="1" stop-color="#FCB37E"/>
</linearGradient>
<linearGradient id="paint15_linear_1553_18007" x1="7.85421" y1="7.16048" x2="9.29886" y2="13.4052" gradientUnits="userSpaceOnUse">
<stop stop-color="#FFDA45"/>
<stop offset="1" stop-color="#FCB37E"/>
</linearGradient>
<linearGradient id="paint16_linear_1553_18007" x1="14.0057" y1="7.07623" x2="5.0581" y2="3.53451" gradientUnits="userSpaceOnUse">
<stop stop-color="#FCB37E" stop-opacity="0"/>
<stop offset="1" stop-color="#FF7044"/>
</linearGradient>
<linearGradient id="paint17_linear_1553_18007" x1="10.1207" y1="4.13932" x2="14.7342" y2="12.015" gradientUnits="userSpaceOnUse">
<stop stop-color="#FCB37E" stop-opacity="0"/>
<stop offset="1" stop-color="#FF7044"/>
</linearGradient>
<linearGradient id="paint18_linear_1553_18007" x1="15.8444" y1="7.11562" x2="7.26967" y2="14.7117" gradientUnits="userSpaceOnUse">
<stop stop-color="#FCB37E" stop-opacity="0"/>
<stop offset="1" stop-color="#FF7044"/>
</linearGradient>
<linearGradient id="paint19_linear_1553_18007" x1="14.3038" y1="10.203" x2="17.2863" y2="1.62824" gradientUnits="userSpaceOnUse">
<stop stop-color="#FCB37E" stop-opacity="0"/>
<stop offset="1" stop-color="#FF7044"/>
</linearGradient>
<linearGradient id="paint20_linear_1553_18007" x1="11.6747" y1="9.67112" x2="8.7769" y2="5.48528" gradientUnits="userSpaceOnUse">
<stop stop-color="#FFDA45" stop-opacity="0"/>
<stop offset="1" stop-color="#FFEE83"/>
</linearGradient>
<linearGradient id="paint21_linear_1553_18007" x1="10.9736" y1="8.82226" x2="5.32915" y2="0.992924" gradientUnits="userSpaceOnUse">
<stop stop-color="#FFDA45" stop-opacity="0"/>
<stop offset="1" stop-color="#FCEE21"/>
</linearGradient>
<clipPath id="clip0_1553_18007">
<rect width="22" height="22" fill="white" transform="translate(0.5)"/>
</clipPath>
</defs>
</svg>
