<svg width="18" height="18" viewBox="0 0 18 18" fill="none" xmlns="http://www.w3.org/2000/svg">
<g id="Base/success">
<path id="Vector (Stroke)" fill-rule="evenodd" clip-rule="evenodd" d="M8.68679 1.48731C8.87333 1.35124 9.12641 1.35124 9.31295 1.48731L11.0331 2.7421L13.1623 2.73805C13.3932 2.73761 13.598 2.88637 13.6689 3.1061L14.323 5.13236L16.048 6.3806C16.235 6.51596 16.3132 6.75665 16.2414 6.97611L15.5796 8.99984L16.2414 11.0236C16.3132 11.243 16.235 11.4837 16.048 11.6191L14.323 12.8673L13.6689 14.8936C13.598 15.1133 13.3932 15.262 13.1623 15.2616L11.0331 15.2576L9.31295 16.5124C9.12641 16.6484 8.87333 16.6484 8.68679 16.5124L6.9666 15.2576L4.8374 15.2616C4.6065 15.262 4.40177 15.1133 4.33083 14.8936L3.67672 12.8673L1.95178 11.6191C1.76472 11.4837 1.68652 11.243 1.75829 11.0236L2.4201 8.99984L1.75829 6.97611C1.68652 6.75665 1.76472 6.51596 1.95178 6.3806L3.67672 5.13236L4.33083 3.1061C4.40177 2.88637 4.60651 2.73761 4.8374 2.73805L6.96661 2.7421L8.68679 1.48731ZM8.99987 2.57408L7.4524 3.70288C7.36121 3.7694 7.25119 3.80515 7.13832 3.80493L5.2229 3.80129L4.63447 5.6241C4.59979 5.73152 4.5318 5.82511 4.44035 5.89128L2.88861 7.01418L3.48397 8.83471C3.51906 8.942 3.51906 9.05768 3.48397 9.16497L2.88861 10.9855L4.44035 12.1084C4.5318 12.1746 4.59979 12.2682 4.63447 12.3756L5.22291 14.1984L7.13832 14.1948C7.2512 14.1945 7.36121 14.2303 7.4524 14.2968L8.99987 15.4256L10.5473 14.2968C10.6385 14.2303 10.7485 14.1945 10.8614 14.1948L12.7768 14.1984L13.3653 12.3756C13.3999 12.2682 13.4679 12.1746 13.5594 12.1084L15.1111 10.9855L14.5158 9.16496C14.4807 9.05767 14.4807 8.942 14.5158 8.83471L15.1111 7.01418L13.5594 5.89128C13.4679 5.82511 13.3999 5.73152 13.3653 5.6241L12.7768 3.80129L10.8614 3.80493C10.7485 3.80515 10.6385 3.7694 10.5473 3.70288L8.99987 2.57408Z" fill="#12B76A"/>
<path id="Vector (Stroke)_2" fill-rule="evenodd" clip-rule="evenodd" d="M12.2091 6.85335C12.4166 7.06082 12.4166 7.39719 12.2091 7.60465L8.66748 11.1463C8.46001 11.3538 8.12364 11.3538 7.91618 11.1463L6.14535 9.37549C5.93788 9.16802 5.93788 8.83165 6.14535 8.62419C6.35281 8.41672 6.68918 8.41672 6.89665 8.62419L8.29183 10.0194L11.4578 6.85335C11.6653 6.64589 12.0017 6.64589 12.2091 6.85335Z" fill="#12B76A"/>
</g>
</svg>
