<svg width="120" height="120" viewBox="0 0 120 120" fill="none" xmlns="http://www.w3.org/2000/svg">
<g id="fi_7645410" clip-path="url(#clip0_2681_28802)">
<g id="Group">
<g id="Group_2">
<path id="Vector" d="M79.9757 16.5265H96.1472C97.1329 16.5265 97.9319 17.3255 97.9319 18.3112V35.3783C97.9319 36.3639 97.1329 37.163 96.1472 37.163H80.6727C78.8014 37.163 77.2842 35.646 77.2842 33.7745V13.835C77.2842 15.3215 78.4891 16.5265 79.9757 16.5265Z" fill="url(#paint0_linear_2681_28802)"/>
<path id="Vector_2" d="M93.3411 16.5265H79.9757C78.4891 16.5265 77.2842 15.3215 77.2842 13.835V33.7747C77.2842 35.646 78.8011 37.1632 80.6727 37.1632H93.3411V16.5265Z" fill="url(#paint1_linear_2681_28802)"/>
<path id="Vector_3" d="M80.5719 21.4078H77.2832V34.1369C77.2832 32.8054 78.3625 31.7261 79.694 31.7261H79.7731C81.6444 31.7261 83.1616 30.2092 83.1616 28.3377V18.8184C83.1616 20.2485 82.0023 21.4078 80.5719 21.4078Z" fill="url(#paint2_linear_2681_28802)"/>
<path id="Vector_4" d="M80.4704 25.6465H59.1758V5.00977H79.7734C81.6447 5.00977 83.1619 6.52671 83.1619 8.39824V28.338C83.1619 26.8514 81.957 25.6465 80.4704 25.6465Z" fill="url(#paint3_linear_2681_28802)"/>
<path id="Vector_5" d="M80.4708 25.6467C81.9574 25.6467 83.1623 26.8517 83.1623 28.3382V8.39824C83.1623 6.52694 81.6454 5.00977 79.7738 5.00977H77.2842V25.6467H80.4708Z" fill="url(#paint4_linear_2681_28802)"/>
</g>
<path id="Vector_6" d="M54.9414 5.05882V47.1129C54.9414 49.9068 57.2063 52.1718 60.0002 52.1718C62.7941 52.1718 65.0591 49.9068 65.0591 47.1129V5.05882C65.0591 2.26494 62.7941 0 60.0002 0C57.2063 0 54.9414 2.26494 54.9414 5.05882Z" fill="url(#paint5_linear_2681_28802)"/>
<g id="Group_3">
<g id="Group_4">
<g id="Group_5">
<g id="Group_6">
<g id="Group_7">
<path id="Vector_7" d="M42.2168 22.377C42.2168 20.2292 40.4759 18.4883 38.3281 18.4883H30.242C28.0945 18.4883 26.3533 20.2292 26.3535 22.3768C26.3535 24.5243 28.0945 26.2652 30.2422 26.2655H38.3283C40.4759 26.2657 42.2168 24.5248 42.2168 22.377Z" fill="url(#paint6_linear_2681_28802)"/>
</g>
</g>
</g>
<g id="Group_8">
<g id="Group_9">
<g id="Group_10">
<g id="Group_11">
<path id="Vector_8" d="M44.8666 12.3561C46.3852 10.8375 46.3852 8.37541 44.8666 6.85682L39.149 1.13894C37.6304 -0.379647 35.1683 -0.379647 33.6497 1.13894C32.1311 2.65753 32.1311 5.11965 33.6497 6.63824L39.3673 12.3561C40.8859 13.8747 43.348 13.8747 44.8666 12.3561Z" fill="url(#paint7_linear_2681_28802)"/>
</g>
</g>
</g>
<g id="Group_12">
<g id="Group_13">
<g id="Group_14">
<path id="Vector_9" d="M44.8666 32.3977C43.348 30.8791 40.8859 30.8791 39.3673 32.3977L33.6497 38.1156C32.1311 39.6342 32.1311 42.0963 33.6497 43.6149C35.1683 45.1335 37.6304 45.1335 39.149 43.6149L44.8666 37.8973C46.3852 36.3784 46.3852 33.9163 44.8666 32.3977Z" fill="url(#paint8_linear_2681_28802)"/>
</g>
</g>
</g>
</g>
</g>
</g>
<g id="Group_15">
<g id="Group_16">
<g id="Group_17">
<g id="Group_18">
<path id="Vector_10" d="M104.137 22.377C104.137 20.2292 105.878 18.4883 108.025 18.4883H116.112C118.259 18.4883 120 20.2292 120 22.3768C120 24.5243 118.259 26.2652 116.112 26.2655H108.025C105.878 26.2657 104.137 24.5248 104.137 22.377Z" fill="url(#paint9_linear_2681_28802)"/>
</g>
</g>
</g>
<g id="Group_19">
<g id="Group_20">
<g id="Group_21">
<g id="Group_22">
<path id="Vector_11" d="M101.487 12.3561C99.968 10.8375 99.968 8.37541 101.487 6.85682L107.204 1.13894C108.723 -0.379647 111.185 -0.379647 112.704 1.13894C114.222 2.65753 114.222 5.11965 112.704 6.63824L106.986 12.3561C105.467 13.8747 103.005 13.8747 101.487 12.3561Z" fill="url(#paint10_linear_2681_28802)"/>
</g>
</g>
</g>
<g id="Group_23">
<g id="Group_24">
<g id="Group_25">
<path id="Vector_12" d="M101.487 32.3977C103.005 30.8791 105.467 30.8791 106.986 32.3977L112.704 38.1156C114.222 39.6342 114.222 42.0963 112.704 43.6149C111.185 45.1335 108.723 45.1335 107.204 43.6149L101.486 37.8973C99.968 36.3784 99.968 33.9163 101.487 32.3977Z" fill="url(#paint11_linear_2681_28802)"/>
</g>
</g>
</g>
</g>
</g>
<path id="Vector_13" d="M80.4723 78.1215H39.5283C35.253 78.1215 31.7871 74.6556 31.7871 70.3804V55.7119C31.7871 51.4366 35.253 47.9707 39.5283 47.9707H80.4723C84.7476 47.9707 88.2135 51.4366 88.2135 55.7119V70.3804C88.2135 74.6556 84.7476 78.1215 80.4723 78.1215Z" fill="url(#paint12_linear_2681_28802)"/>
<path id="Vector_14" d="M103.059 99.061H16.9414C12.6661 99.061 9.2002 95.5951 9.2002 91.3198V76.6513C9.2002 72.376 12.6661 68.9102 16.9414 68.9102H103.059C107.335 68.9102 110.801 72.376 110.801 76.6513V91.3198C110.801 95.5951 107.335 99.061 103.059 99.061Z" fill="url(#paint13_linear_2681_28802)"/>
<path id="Vector_15" d="M112.259 120H7.74118C3.46588 120 0 116.535 0 112.259V97.5908C0 93.3155 3.46588 89.8496 7.74118 89.8496H112.259C116.534 89.8496 120 93.3155 120 97.5908V112.259C120 116.535 116.534 120 112.259 120Z" fill="url(#paint14_linear_2681_28802)"/>
</g>
</g>
<defs>
<linearGradient id="paint0_linear_2681_28802" x1="80.6129" y1="19.3801" x2="92.9971" y2="31.7641" gradientUnits="userSpaceOnUse">
<stop stop-color="#FD4755"/>
<stop offset="1" stop-color="#A72B2B"/>
</linearGradient>
<linearGradient id="paint1_linear_2681_28802" x1="88.2651" y1="27.2776" x2="76.0298" y2="23.7481" gradientUnits="userSpaceOnUse">
<stop stop-color="#A72B2B" stop-opacity="0"/>
<stop offset="1" stop-color="#42210B"/>
</linearGradient>
<linearGradient id="paint2_linear_2681_28802" x1="87.1023" y1="37.0195" x2="79.8081" y2="25.8431" gradientUnits="userSpaceOnUse">
<stop stop-color="#A72B2B" stop-opacity="0"/>
<stop offset="1" stop-color="#42210B"/>
</linearGradient>
<linearGradient id="paint3_linear_2681_28802" x1="68.7645" y1="11.5246" x2="74.5501" y2="23.842" gradientUnits="userSpaceOnUse">
<stop stop-color="#FD4755"/>
<stop offset="1" stop-color="#A72B2B"/>
</linearGradient>
<linearGradient id="paint4_linear_2681_28802" x1="80.3138" y1="16.674" x2="83.3108" y2="16.674" gradientUnits="userSpaceOnUse">
<stop stop-color="#A72B2B" stop-opacity="0"/>
<stop offset="1" stop-color="#42210B"/>
</linearGradient>
<linearGradient id="paint5_linear_2681_28802" x1="56.7061" y1="26.0859" x2="65.0249" y2="26.0859" gradientUnits="userSpaceOnUse">
<stop stop-color="#E6E6E6"/>
<stop offset="1" stop-color="#999999"/>
</linearGradient>
<linearGradient id="paint6_linear_2681_28802" x1="34.2853" y1="18.8928" x2="34.2853" y2="29.693" gradientUnits="userSpaceOnUse">
<stop stop-color="#B3DAFE"/>
<stop offset="1" stop-color="#0182FC"/>
</linearGradient>
<linearGradient id="paint7_linear_2681_28802" x1="41.6032" y1="3.81418" x2="33.9673" y2="11.4501" gradientUnits="userSpaceOnUse">
<stop stop-color="#B3DAFE"/>
<stop offset="1" stop-color="#0182FC"/>
</linearGradient>
<linearGradient id="paint8_linear_2681_28802" x1="36.3693" y1="35.2151" x2="44.0052" y2="42.851" gradientUnits="userSpaceOnUse">
<stop stop-color="#B3DAFE"/>
<stop offset="1" stop-color="#0182FC"/>
</linearGradient>
<linearGradient id="paint9_linear_2681_28802" x1="112.068" y1="18.8928" x2="112.068" y2="29.693" gradientUnits="userSpaceOnUse">
<stop stop-color="#B3DAFE"/>
<stop offset="1" stop-color="#0182FC"/>
</linearGradient>
<linearGradient id="paint10_linear_2681_28802" x1="104.757" y1="3.81418" x2="112.393" y2="11.4499" gradientUnits="userSpaceOnUse">
<stop stop-color="#B3DAFE"/>
<stop offset="1" stop-color="#0182FC"/>
</linearGradient>
<linearGradient id="paint11_linear_2681_28802" x1="109.991" y1="35.2151" x2="102.355" y2="42.851" gradientUnits="userSpaceOnUse">
<stop stop-color="#B3DAFE"/>
<stop offset="1" stop-color="#0182FC"/>
</linearGradient>
<linearGradient id="paint12_linear_2681_28802" x1="60.0003" y1="52.9124" x2="60.0003" y2="74.1027" gradientUnits="userSpaceOnUse">
<stop stop-color="#BBEC6C"/>
<stop offset="1" stop-color="#81B823"/>
</linearGradient>
<linearGradient id="paint13_linear_2681_28802" x1="60.0004" y1="73.8518" x2="60.0004" y2="95.0422" gradientUnits="userSpaceOnUse">
<stop stop-color="#BBEC6C"/>
<stop offset="1" stop-color="#81B823"/>
</linearGradient>
<linearGradient id="paint14_linear_2681_28802" x1="60" y1="94.7913" x2="60" y2="115.982" gradientUnits="userSpaceOnUse">
<stop stop-color="#BBEC6C"/>
<stop offset="1" stop-color="#81B823"/>
</linearGradient>
<clipPath id="clip0_2681_28802">
<rect width="120" height="120" fill="white"/>
</clipPath>
</defs>
</svg>
