<svg width="39" height="39" viewBox="0 0 39 39" fill="none" xmlns="http://www.w3.org/2000/svg">
<g id="send-01">
<path id="Icon" d="M17.0934 21.9065L33.9372 5.06278M17.2981 22.4328L21.514 33.2738C21.8854 34.2288 22.0711 34.7063 22.3387 34.8457C22.5707 34.9666 22.847 34.9667 23.0791 34.8462C23.3468 34.7071 23.5331 34.2298 23.9056 33.2752L34.4776 6.18441C34.8139 5.32268 34.982 4.89182 34.8901 4.6165C34.8102 4.3774 34.6226 4.18976 34.3835 4.10989C34.1081 4.01791 33.6773 4.18605 32.8156 4.52233L5.72479 15.0943C4.77019 15.4669 4.29289 15.6531 4.1538 15.9209C4.03322 16.153 4.03338 16.4293 4.15423 16.6613C4.29364 16.9288 4.77116 17.1145 5.72619 17.4859L16.5672 21.7019C16.761 21.7773 16.858 21.815 16.9396 21.8732C17.0119 21.9248 17.0752 21.988 17.1268 22.0604C17.185 22.142 17.2227 22.2389 17.2981 22.4328Z" stroke="#7F56D9" stroke-width="2.75" stroke-linecap="round" stroke-linejoin="round"/>
</g>
</svg>
