<svg width="18" height="18" viewBox="0 0 18 18" fill="none" xmlns="http://www.w3.org/2000/svg">
<g id="thumbs-up">
<path id="Solid" d="M8.65062 0.749512C8.11061 0.749512 7.62125 1.06753 7.40194 1.561L4.88137 7.23227C4.82022 7.36986 4.78829 7.44082 4.76211 7.49078L4.75979 7.49518L4.75481 7.49552C4.69853 7.49915 4.62072 7.49951 4.47015 7.49951L3.87109 7.49951C3.47573 7.4995 3.13466 7.49949 2.85373 7.52244C2.55722 7.54666 2.26231 7.60015 1.97852 7.74475C1.55516 7.96046 1.21095 8.30467 0.995237 8.72803C0.850642 9.01182 0.797155 9.30673 0.772929 9.60324C0.749977 9.88416 0.749988 10.2252 0.750001 10.6206V14.1284C0.749988 14.5238 0.749977 14.8649 0.772929 15.1458C0.797155 15.4423 0.850642 15.7372 0.995237 16.021C1.21095 16.4444 1.55516 16.7886 1.97852 17.0043C2.26231 17.1489 2.55722 17.2024 2.85373 17.2266C3.13466 17.2495 3.47572 17.2495 3.87108 17.2495C4.21842 17.2495 4.5 16.9679 4.5 16.6206L4.5 10.4995C4.5 10.0853 4.83579 9.74951 5.25 9.74951C5.66421 9.74951 6 10.0853 6 10.4995L6 16.0495C6 16.4696 6 16.6796 6.08175 16.84C6.15365 16.9811 6.26839 17.0959 6.40951 17.1678C6.56994 17.2495 6.77996 17.2495 7.2 17.2495H11.9397C12.4638 17.2495 12.8989 17.2495 13.2569 17.2223C13.6307 17.1938 13.9752 17.1328 14.3079 16.9821C14.828 16.7464 15.2701 16.3671 15.5822 15.8888C15.7818 15.5829 15.8945 15.2517 15.9794 14.8866C16.0608 14.5369 16.1269 14.1068 16.2066 13.5889L16.6083 10.9777C16.7139 10.2916 16.8005 9.72896 16.8311 9.26983C16.8627 8.7961 16.842 8.35408 16.6804 7.93039C16.4323 7.27982 15.9656 6.73582 15.3603 6.39164C14.9661 6.1675 14.5324 6.07986 14.0593 6.03905C13.6009 5.99949 13.0317 5.9995 12.3374 5.99951H11.7C11.4776 5.99951 11.3559 5.99893 11.2685 5.99178L11.2586 5.99093L11.2577 5.98104C11.2506 5.8936 11.25 5.77191 11.25 5.54951V3.34889C11.25 1.91329 10.0862 0.749512 8.65062 0.749512Z" fill="url(#paint0_linear_3529_22193)"/>
</g>
<defs>
<linearGradient id="paint0_linear_3529_22193" x1="8.79679" y1="0.749512" x2="8.79679" y2="17.2495" gradientUnits="userSpaceOnUse">
<stop stop-color="#FF9E88"/>
<stop offset="1" stop-color="#EE4E29"/>
</linearGradient>
</defs>
</svg>
