<svg width="20" height="20" viewBox="0 0 20 20" fill="none" xmlns="http://www.w3.org/2000/svg">
<g id="thumbs-up">
<path id="Solid" d="M9.61148 0.833984C9.01147 0.833984 8.46773 1.18734 8.22405 1.73564L5.42342 8.03705C5.35547 8.18993 5.31999 8.26877 5.29091 8.32428L5.28832 8.32917L5.2828 8.32955C5.22027 8.33358 5.13381 8.33398 4.96651 8.33398L4.30089 8.33398C3.8616 8.33397 3.48263 8.33396 3.17049 8.35946C2.84103 8.38638 2.51335 8.44581 2.19803 8.60647C1.72763 8.84615 1.34518 9.2286 1.10549 9.69901C0.944832 10.0143 0.885402 10.342 0.858485 10.6715C0.832982 10.9836 0.832994 11.3626 0.833008 11.8018V15.6994C0.832994 16.1387 0.832982 16.5177 0.858485 16.8298C0.885402 17.1593 0.944832 17.487 1.10549 17.8023C1.34518 18.2727 1.72763 18.6551 2.19803 18.8948C2.51335 19.0555 2.84103 19.1149 3.17049 19.1418C3.48263 19.1673 3.86159 19.1673 4.30087 19.1673C4.68681 19.1673 4.99968 18.8545 4.99968 18.4685L4.99968 11.6673C4.99968 11.2071 5.37277 10.834 5.83301 10.834C6.29325 10.834 6.66634 11.2071 6.66634 11.6673L6.66634 17.834C6.66634 18.3007 6.66634 18.534 6.75717 18.7123C6.83706 18.8691 6.96455 18.9966 7.12135 19.0765C7.29961 19.1673 7.53296 19.1673 7.99967 19.1673H13.266C13.8483 19.1673 14.3318 19.1673 14.7295 19.1371C15.1449 19.1054 15.5277 19.0376 15.8973 18.8702C16.4753 18.6083 16.9665 18.1868 17.3132 17.6554C17.535 17.3156 17.6602 16.9475 17.7546 16.5418C17.845 16.1533 17.9185 15.6755 18.007 15.1L18.4534 12.1987C18.5707 11.4362 18.6669 10.8111 18.7009 10.301C18.736 9.77464 18.713 9.2835 18.5335 8.81274C18.2577 8.08988 17.7392 7.48544 17.0667 7.10302C16.6287 6.85397 16.1467 6.7566 15.6212 6.71125C15.1117 6.6673 14.4793 6.66731 13.7079 6.66732H12.9997C12.7526 6.66732 12.6174 6.66667 12.5202 6.65873L12.5092 6.65778L12.5083 6.64679C12.5003 6.54963 12.4997 6.41442 12.4997 6.16732V3.72218C12.4997 2.12708 11.2066 0.833984 9.61148 0.833984Z" fill="#6B5AE7"/>
</g>
</svg>
