<svg width="160" height="160" viewBox="0 0 160 160" fill="none" xmlns="http://www.w3.org/2000/svg">
<g id="login 1">
<g id="19. Login">
<path id="Vector" d="M152.727 80C152.727 91.5948 149.954 103.022 144.641 113.327C139.327 123.633 131.627 132.519 122.182 139.244C83.8107 121.338 36.3634 138.182 36.3634 138.182C26.4459 130.744 18.5944 120.894 13.5543 109.568C8.51428 98.2419 6.45304 85.8155 7.56635 73.4687C8.67966 61.1219 12.9305 49.2647 19.9154 39.0229C26.9002 28.7811 36.3871 20.4948 47.4751 14.9508C58.5632 9.40673 70.8844 6.78903 83.2687 7.34625C95.653 7.90347 107.689 11.6171 118.235 18.1345C128.78 24.6519 137.485 33.7567 143.521 44.5844C149.558 55.4121 152.727 67.6032 152.727 80Z" fill="#E7EFFF"/>
<path id="Vector_2" d="M5.81774 27.6364C8.22771 27.6364 10.1814 25.6827 10.1814 23.2728C10.1814 20.8628 8.22771 18.9091 5.81774 18.9091C3.40777 18.9091 1.4541 20.8628 1.4541 23.2728C1.4541 25.6827 3.40777 27.6364 5.81774 27.6364Z" fill="#00C99F"/>
<path id="Vector_3" d="M140.959 10.1818C143.369 10.1818 145.323 8.22817 145.323 5.8182C145.323 3.40823 143.369 1.45456 140.959 1.45456C138.549 1.45456 136.596 3.40823 136.596 5.8182C136.596 8.22817 138.549 10.1818 140.959 10.1818Z" fill="#FFA100"/>
<path id="Vector_4" d="M154.181 139.636C156.591 139.636 158.545 137.683 158.545 135.273C158.545 132.863 156.591 130.909 154.181 130.909C151.771 130.909 149.817 132.863 149.817 135.273C149.817 137.683 151.771 139.636 154.181 139.636Z" fill="#00C99F"/>
<path id="Vector_5" d="M11.6361 158.545C14.0461 158.545 15.9997 156.592 15.9997 154.182C15.9997 151.772 14.0461 149.818 11.6361 149.818C9.22613 149.818 7.27246 151.772 7.27246 154.182C7.27246 156.592 9.22613 158.545 11.6361 158.545Z" fill="#FF4D69"/>
<path id="Vector_6" d="M132.363 48V130.444C129.242 133.657 125.834 136.578 122.181 139.171C76.3776 117.818 36.363 138.182 36.363 138.182C33.2471 135.851 30.3282 133.268 27.6357 130.458V48C27.6357 42.2135 29.9344 36.6639 34.0261 32.5722C38.1178 28.4805 43.6674 26.1818 49.4539 26.1818H110.545C116.331 26.1818 121.881 28.4805 125.973 32.5722C130.064 36.6639 132.363 42.2135 132.363 48Z" fill="#4E6AFF"/>
<path id="Vector_7" d="M122.181 46.5455V139.244C109.614 148.192 94.5259 152.912 79.099 152.721C63.6722 152.53 48.7058 147.438 36.3633 138.182V46.5455C36.3633 43.4593 37.5893 40.4996 39.7715 38.3173C41.9537 36.1351 44.9135 34.9091 47.9996 34.9091H110.545C113.631 34.9091 116.591 36.1351 118.773 38.3173C120.955 40.4996 122.181 43.4593 122.181 46.5455Z" fill="white"/>
<path id="Vector_8" d="M95.8252 48H64.1743C62.8827 48.0023 61.627 47.5747 60.6052 46.7846C59.5834 45.9946 58.8535 44.887 58.5306 43.6364L55.2725 30.5455H104.727L101.469 43.6364C101.146 44.887 100.416 45.9946 99.3943 46.7846C98.3725 47.5747 97.1168 48.0023 95.8252 48Z" fill="#4E6AFF"/>
<path id="Vector_9" d="M81.4545 40.7273H66.9091C66.1376 40.7273 65.3976 40.4208 64.8521 39.8752C64.3065 39.3297 64 38.5897 64 37.8182C64 37.0467 64.3065 36.3067 64.8521 35.7612C65.3976 35.2156 66.1376 34.9091 66.9091 34.9091H81.4545C82.2261 34.9091 82.966 35.2156 83.5116 35.7612C84.0571 36.3067 84.3636 37.0467 84.3636 37.8182C84.3636 38.5897 84.0571 39.3297 83.5116 39.8752C82.966 40.4208 82.2261 40.7273 81.4545 40.7273Z" fill="#323FD4"/>
<path id="Vector_10" d="M93.0907 40.7273C94.6974 40.7273 95.9998 39.4249 95.9998 37.8182C95.9998 36.2116 94.6974 34.9091 93.0907 34.9091C91.4841 34.9091 90.1816 36.2116 90.1816 37.8182C90.1816 39.4249 91.4841 40.7273 93.0907 40.7273Z" fill="#323FD4"/>
<path id="Vector_11" d="M24.7265 59.6364H27.6356V71.2727H24.7265C23.9549 71.2727 23.215 70.9663 22.6694 70.4207C22.1239 69.8751 21.8174 69.1352 21.8174 68.3637V62.5455C21.8174 61.7739 22.1239 61.034 22.6694 60.4884C23.215 59.9429 23.9549 59.6364 24.7265 59.6364Z" fill="#323FD4"/>
<path id="Vector_12" d="M24.7265 77.0909H27.6356V91.6364H24.7265C23.9549 91.6364 23.215 91.3299 22.6694 90.7843C22.1239 90.2388 21.8174 89.4988 21.8174 88.7273V80C21.8174 79.2285 22.1239 78.4885 22.6694 77.943C23.215 77.3974 23.9549 77.0909 24.7265 77.0909Z" fill="#323FD4"/>
<path id="Vector_13" d="M132.363 62.5455C144.413 62.5455 154.181 52.7771 154.181 40.7273C154.181 28.6775 144.413 18.9091 132.363 18.9091C120.313 18.9091 110.545 28.6775 110.545 40.7273C110.545 52.7771 120.313 62.5455 132.363 62.5455Z" fill="#00C99F"/>
<path id="Vector_14" d="M127.403 49.3236L120.13 42.0509C119.654 41.4944 119.405 40.7785 119.433 40.0464C119.461 39.3142 119.765 38.6197 120.283 38.1016C120.801 37.5835 121.495 37.28 122.227 37.2517C122.96 37.2235 123.675 37.4725 124.232 37.9491L129.454 43.1564L140.494 32.1309C141.05 31.6543 141.766 31.4053 142.498 31.4336C143.23 31.4618 143.925 31.7654 144.443 32.2835C144.961 32.8015 145.265 33.4961 145.293 34.2282C145.321 34.9604 145.072 35.6762 144.596 36.2327L131.505 49.3236C130.96 49.8655 130.222 50.1696 129.454 50.1696C128.685 50.1696 127.948 49.8655 127.403 49.3236Z" fill="white"/>
<path id="Vector_15" d="M93.0904 87.2727C91.9331 87.2727 90.8232 86.813 90.0048 85.9947C89.1865 85.1763 88.7267 84.0664 88.7267 82.9091V74.1818C88.7267 71.8672 87.8073 69.6474 86.1706 68.0107C84.5339 66.374 82.3141 65.4546 79.9995 65.4546C77.6849 65.4546 75.465 66.374 73.8284 68.0107C72.1917 69.6474 71.2722 71.8672 71.2722 74.1818V82.9091C71.2722 84.0664 70.8125 85.1763 69.9941 85.9947C69.1758 86.813 68.0659 87.2727 66.9086 87.2727C65.7513 87.2727 64.6413 86.813 63.823 85.9947C63.0047 85.1763 62.5449 84.0664 62.5449 82.9091V74.1818C62.5449 69.5526 64.3839 65.113 67.6572 61.8396C70.9306 58.5662 75.3702 56.7273 79.9995 56.7273C84.6287 56.7273 89.0683 58.5662 92.3417 61.8396C95.6151 65.113 97.454 69.5526 97.454 74.1818V82.9091C97.454 84.0664 96.9943 85.1763 96.1759 85.9947C95.3576 86.813 94.2477 87.2727 93.0904 87.2727Z" fill="#4E6AFF"/>
<path id="Vector_16" d="M97.4543 80H62.5452C58.5286 80 55.2725 83.2561 55.2725 87.2727V113.455C55.2725 117.471 58.5286 120.727 62.5452 120.727H97.4543C101.471 120.727 104.727 117.471 104.727 113.455V87.2727C104.727 83.2561 101.471 80 97.4543 80Z" fill="#FFA100"/>
<path id="Vector_17" d="M79.9999 107.636C79.2284 107.636 78.4884 107.33 77.9429 106.784C77.3973 106.239 77.0908 105.499 77.0908 104.727V94.5455C77.0908 93.7739 77.3973 93.034 77.9429 92.4884C78.4884 91.9429 79.2284 91.6364 79.9999 91.6364C80.7714 91.6364 81.5114 91.9429 82.057 92.4884C82.6025 93.034 82.909 93.7739 82.909 94.5455V104.727C82.909 105.499 82.6025 106.239 82.057 106.784C81.5114 107.33 80.7714 107.636 79.9999 107.636Z" fill="white"/>
<path id="Vector_18" d="M98.9083 142.545H61.0901C59.1613 142.545 57.3114 141.779 55.9475 140.415C54.5836 139.051 53.8174 137.202 53.8174 135.273C53.8174 133.344 54.5836 131.494 55.9475 130.13C57.3114 128.766 59.1613 128 61.0901 128H98.9083C100.837 128 102.687 128.766 104.051 130.13C105.415 131.494 106.181 133.344 106.181 135.273C106.181 137.202 105.415 139.051 104.051 140.415C102.687 141.779 100.837 142.545 98.9083 142.545Z" fill="#4E6AFF"/>
<g id="Group">
<path id="Vector_19" d="M62.5448 138.182C64.1515 138.182 65.4539 136.879 65.4539 135.273C65.4539 133.666 64.1515 132.364 62.5448 132.364C60.9382 132.364 59.6357 133.666 59.6357 135.273C59.6357 136.879 60.9382 138.182 62.5448 138.182Z" fill="white"/>
<path id="Vector_20" d="M74.1816 138.182C75.7882 138.182 77.0906 136.879 77.0906 135.273C77.0906 133.666 75.7882 132.364 74.1816 132.364C72.5749 132.364 71.2725 133.666 71.2725 135.273C71.2725 136.879 72.5749 138.182 74.1816 138.182Z" fill="white"/>
<path id="Vector_21" d="M85.8173 138.182C87.4239 138.182 88.7264 136.879 88.7264 135.273C88.7264 133.666 87.4239 132.364 85.8173 132.364C84.2106 132.364 82.9082 133.666 82.9082 135.273C82.9082 136.879 84.2106 138.182 85.8173 138.182Z" fill="white"/>
<path id="Vector_22" d="M97.454 138.182C99.0607 138.182 100.363 136.879 100.363 135.273C100.363 133.666 99.0607 132.364 97.454 132.364C95.8474 132.364 94.5449 133.666 94.5449 135.273C94.5449 136.879 95.8474 138.182 97.454 138.182Z" fill="white"/>
</g>
</g>
</g>
</svg>
