<svg width="24" height="24" viewBox="0 0 24 24" fill="none" xmlns="http://www.w3.org/2000/svg">
<g id="wallet_146557 1" clip-path="url(#clip0_2810_115917)">
<g id="Group">
<g id="Group_2">
<g id="Group_3">
<path id="Vector" d="M17.5483 -0.00145968L2.85742 9.00781L7.33345 16.3066L22.0244 7.29735L17.5483 -0.00145968Z" fill="url(#paint0_linear_2810_115917)"/>
<path id="Vector_2" d="M19.8402 5.30899L18.33 2.84637C17.4997 3.35551 16.3777 3.03606 15.8238 2.13281L5.54161 8.43829C6.09545 9.34154 5.87146 10.4865 5.04102 10.9958L6.55118 13.4582C7.38147 12.9491 8.50343 13.2685 9.05742 14.1718L19.3394 7.86629C18.7857 6.96305 19.0099 5.81812 19.8402 5.30899Z" fill="url(#paint1_linear_2810_115917)"/>
<path id="Vector_3" d="M14.6779 11.8055L22.0234 7.30078L17.5474 0.00197502L10.2019 4.50665L14.6779 11.8055Z" fill="url(#paint2_linear_2810_115917)"/>
<path id="Vector_4" d="M15.8228 2.13672L10.6816 5.28946L14.1976 11.0229L19.3388 7.87005C18.7848 6.9668 19.0087 5.82187 19.8392 5.31259L18.329 2.85012C17.4987 3.35926 16.3768 3.03981 15.8228 2.13672Z" fill="url(#paint3_linear_2810_115917)"/>
</g>
<path id="Vector_5" d="M12.4397 10.7701C13.8842 10.7701 15.0552 9.59908 15.0552 8.15457C15.0552 6.71007 13.8842 5.53906 12.4397 5.53906C10.9952 5.53906 9.82422 6.71007 9.82422 8.15457C9.82422 9.59908 10.9952 10.7701 12.4397 10.7701Z" fill="white"/>
</g>
<g id="Group_4">
<g id="Group_5">
<path id="Vector_6" d="M18.5627 3.48646L2.33984 9.30078L5.22854 17.3607L21.4514 11.5464L18.5627 3.48646Z" fill="url(#paint4_linear_2810_115917)"/>
<path id="Vector_7" d="M19.7195 9.15697L18.7451 6.43761C17.8282 6.76622 16.7951 6.22403 16.4377 5.22656L5.08314 9.29559C5.44062 10.2929 4.98706 11.368 4.07031 11.6964L5.04465 14.4158C5.96155 14.0872 6.99472 14.6294 7.35204 15.6268L18.7065 11.558C18.349 10.5605 18.8026 9.48558 19.7195 9.15697Z" fill="url(#paint5_linear_2810_115917)"/>
<path id="Vector_8" d="M13.3377 14.458L21.4492 11.5508L18.5605 3.49084L10.449 6.39803L13.3377 14.458Z" fill="url(#paint6_linear_2810_115917)"/>
<path id="Vector_9" d="M16.4371 5.22656L10.7598 7.26107L13.0287 13.5925L18.706 11.558C18.3485 10.5605 18.8019 9.48558 19.7188 9.15697L18.7444 6.43761C17.8275 6.76622 16.7945 6.22403 16.4371 5.22656Z" fill="url(#paint7_linear_2810_115917)"/>
</g>
<path id="Vector_10" d="M11.8948 13.0396C13.3393 13.0396 14.5103 11.8686 14.5103 10.4241C14.5103 8.9796 13.3393 7.80859 11.8948 7.80859C10.4503 7.80859 9.2793 8.9796 9.2793 10.4241C9.2793 11.8686 10.4503 13.0396 11.8948 13.0396Z" fill="white"/>
</g>
<path id="Vector_11" d="M20.414 11.7109H3.53594C2.67476 11.7109 1.97656 12.4091 1.97656 13.2703V22.4421C1.97656 23.3033 2.67476 24.0015 3.53594 24.0015H20.414C21.2752 24.0015 21.9734 23.3033 21.9734 22.4421V13.2703C21.9734 12.4091 21.2752 11.7109 20.414 11.7109Z" fill="url(#paint8_linear_2810_115917)"/>
<path id="Vector_12" d="M2.69369 11.9609C2.26326 12.2385 1.97656 12.7198 1.97656 13.2701V22.4419C1.97656 23.3031 2.67476 24.0013 3.53594 24.0013H20.414C20.9571 24.0013 21.4344 23.7228 21.7137 23.3017C11.8947 20.9668 3.7517 13.4716 2.69369 11.9609Z" fill="url(#paint9_linear_2810_115917)"/>
<path id="Vector_13" d="M20.4897 13.6445H15.8029C15.5084 13.6445 15.2695 13.8831 15.2695 14.1776C15.2695 14.4719 15.5083 14.7106 15.8029 14.7106H20.4897C20.784 14.7106 21.0229 14.4719 21.0229 14.1776C21.0227 13.8831 20.784 13.6445 20.4897 13.6445Z" fill="white"/>
</g>
</g>
<defs>
<linearGradient id="paint0_linear_2810_115917" x1="0.978367" y1="8.94055" x2="23.9833" y2="13.5447" gradientUnits="userSpaceOnUse">
<stop stop-color="#FFC992"/>
<stop offset="1" stop-color="#FD8B73"/>
</linearGradient>
<linearGradient id="paint1_linear_2810_115917" x1="5.04102" y1="2.13281" x2="21.7613" y2="6.12428" gradientUnits="userSpaceOnUse">
<stop stop-color="#F67377"/>
<stop offset="1" stop-color="#E85A81"/>
</linearGradient>
<linearGradient id="paint2_linear_2810_115917" x1="23.2347" y1="7.77755" x2="8.81891" y2="9.45738" gradientUnits="userSpaceOnUse">
<stop stop-color="#FFC992"/>
<stop offset="1" stop-color="#FD8B73"/>
</linearGradient>
<linearGradient id="paint3_linear_2810_115917" x1="10.6816" y1="2.13672" x2="21.1964" y2="4.24101" gradientUnits="userSpaceOnUse">
<stop stop-color="#F67377"/>
<stop offset="1" stop-color="#E85A81"/>
</linearGradient>
<linearGradient id="paint4_linear_2810_115917" x1="0.514264" y1="8.85065" x2="22.0913" y2="18.0623" gradientUnits="userSpaceOnUse">
<stop stop-color="#FFC992"/>
<stop offset="1" stop-color="#FD8B73"/>
</linearGradient>
<linearGradient id="paint5_linear_2810_115917" x1="4.07031" y1="5.22656" x2="21.2883" y2="10.2578" gradientUnits="userSpaceOnUse">
<stop stop-color="#F67377"/>
<stop offset="1" stop-color="#E85A81"/>
</linearGradient>
<linearGradient id="paint6_linear_2810_115917" x1="22.5374" y1="12.2652" x2="8.08276" y2="10.9613" gradientUnits="userSpaceOnUse">
<stop stop-color="#FFC992"/>
<stop offset="1" stop-color="#FD8B73"/>
</linearGradient>
<linearGradient id="paint7_linear_2810_115917" x1="10.7598" y1="5.22656" x2="21.0151" y2="7.3593" gradientUnits="userSpaceOnUse">
<stop stop-color="#F67377"/>
<stop offset="1" stop-color="#E85A81"/>
</linearGradient>
<linearGradient id="paint8_linear_2810_115917" x1="1.97656" y1="11.7109" x2="23.2357" y2="21.1621" gradientUnits="userSpaceOnUse">
<stop stop-color="#8B89F5"/>
<stop offset="1" stop-color="#625FF9"/>
</linearGradient>
<linearGradient id="paint9_linear_2810_115917" x1="1.97656" y1="11.9609" x2="22.9074" y2="21.3362" gradientUnits="userSpaceOnUse">
<stop stop-color="#8B89F5"/>
<stop offset="0.0001" stop-color="#7B78F9"/>
<stop offset="1" stop-color="#4643FC"/>
</linearGradient>
<clipPath id="clip0_2810_115917">
<rect width="24" height="24" fill="white"/>
</clipPath>
</defs>
</svg>
