<svg width="37" height="36" viewBox="0 0 37 36" fill="none" xmlns="http://www.w3.org/2000/svg">
<g id="attach 1" clip-path="url(#clip0_1210_52425)">
<g id="Group">
<g id="Group_2">
<g id="Group_3">
<g id="Group_4">
<path id="Vector" d="M25.672 36.0002H10.9494C7.27963 36.0002 4.30469 33.0252 4.30469 29.3555V5.9101C4.30469 5.192 4.88683 4.60986 5.60492 4.60986H25.672C26.3901 4.60986 26.9722 5.192 26.9722 5.9101V34.6999C26.9722 35.418 26.3901 36.0002 25.672 36.0002Z" fill="url(#paint0_linear_1210_52425)"/>
<path id="Vector_2" d="M25.672 4.60986H14.1362V36.0002H25.672C26.3901 36.0002 26.9723 35.418 26.9723 34.6999V5.9101C26.9723 5.192 26.3901 4.60986 25.672 4.60986Z" fill="url(#paint1_linear_1210_52425)"/>
<path id="Vector_3" d="M25.6721 4.60986H17.4404V21.459H26.9724V5.9101C26.9724 5.192 26.3902 4.60986 25.6721 4.60986Z" fill="url(#paint2_linear_1210_52425)"/>
<path id="Vector_4" d="M25.6722 4.60986H21.3555V15.8119H26.9724V5.9101C26.9724 5.192 26.3902 4.60986 25.6722 4.60986Z" fill="url(#paint3_linear_1210_52425)"/>
<path id="Vector_5" d="M4.30469 24.0571V29.3555C4.30469 33.0252 7.27963 36.0002 10.9494 36.0002H25.672C26.3901 36.0002 26.9722 35.418 26.9722 34.6999V24.0571H4.30469Z" fill="url(#paint4_linear_1210_52425)"/>
<path id="Vector_6" d="M10.6304 29.8477V35.9926C10.7361 35.9977 10.8423 36.0004 10.9493 36.0004H16.7831L10.6304 29.8477Z" fill="url(#paint5_linear_1210_52425)"/>
<path id="Vector_7" d="M10.9494 33.2042C10.9494 34.7483 12.2011 36.0002 13.7453 36.0002H10.9494C7.27963 36.0002 4.30469 33.0252 4.30469 29.3555H9.57869C10.3357 29.3555 10.9494 29.9692 10.9494 30.7262V33.2042Z" fill="url(#paint6_linear_1210_52425)"/>
</g>
</g>
</g>
<path id="Vector_8" d="M26.9724 30.9909V21.459H17.4404L26.9724 30.9909Z" fill="url(#paint7_linear_1210_52425)"/>
<g id="Group_5">
<path id="Vector_9" d="M23.7352 24.1633C18.7948 24.1633 14.7754 20.1439 14.7754 15.2035V5.21188C14.7754 2.33802 17.1134 0 19.9873 0H23.0039C25.8777 0 28.2157 2.33802 28.2157 5.21188V13.5766C28.2157 15.9339 26.2979 17.8517 23.9406 17.8517C21.5833 17.8517 19.6655 15.9339 19.6655 13.5766V6.21113C19.6655 5.25459 20.4409 4.47911 21.3975 4.47911C22.354 4.47911 23.1294 5.25452 23.1294 6.21113V13.5765C23.1294 14.0238 23.4933 14.3876 23.9406 14.3876C24.3878 14.3876 24.7517 14.0238 24.7517 13.5765V5.21181C24.7517 4.248 23.9675 3.46391 23.0038 3.46391H19.9872C19.0234 3.46391 18.2393 4.248 18.2393 5.21181V15.2034C18.2393 18.2338 20.7047 20.6992 23.7351 20.6992C26.7655 20.6992 29.2309 18.2338 29.2309 15.2034V5.80398C29.2309 4.84744 30.0063 4.07202 30.9628 4.07202C31.9194 4.07202 32.6948 4.84744 32.6948 5.80398V15.2035C32.6949 20.1439 28.6756 24.1633 23.7352 24.1633Z" fill="url(#paint8_linear_1210_52425)"/>
<g id="Group_6">
<path id="Vector_10" d="M29.2309 9.45898V15.2037C29.2309 18.234 26.7656 20.6995 23.7352 20.6995C20.7047 20.6995 18.2394 18.234 18.2394 15.2037V9.45898H14.7754V15.2037C14.7754 20.1441 18.7948 24.1634 23.7352 24.1634C28.6756 24.1634 32.6949 20.1441 32.6949 15.2037V9.45898H29.2309Z" fill="url(#paint9_linear_1210_52425)"/>
<path id="Vector_11" d="M30.9631 4.07178C30.0066 4.07178 29.2312 4.84719 29.2312 5.80373V15.2033C29.2312 17.9088 27.2655 20.1624 24.6875 20.6148V24.1124C29.1819 23.6354 32.6952 19.8221 32.6952 15.2033V5.80373C32.6951 4.84719 31.9197 4.07178 30.9631 4.07178Z" fill="url(#paint10_linear_1210_52425)"/>
<path id="Vector_12" d="M23.9406 17.8519C26.298 17.8519 28.2157 15.934 28.2157 13.5767V9.45898H24.7518V13.5767C24.7518 14.0239 24.3879 14.3878 23.9406 14.3878C23.4934 14.3878 23.1295 14.0239 23.1295 13.5767V9.45898H19.6655V13.5767C19.6655 15.934 21.5833 17.8519 23.9406 17.8519Z" fill="url(#paint11_linear_1210_52425)"/>
<g id="Group_7">
<path id="Vector_13" d="M23.1577 3.47113C24.0496 3.54941 24.7517 4.29998 24.7517 5.21184V13.5765C24.7517 14.0238 24.3878 14.3877 23.9405 14.3877C23.5657 14.3877 23.2504 14.1318 23.1578 13.7858V17.7785C23.4118 17.8257 23.6731 17.8516 23.9405 17.8516C26.2979 17.8516 28.2156 15.9338 28.2156 13.5765V5.21184C28.2156 2.38965 25.9605 0.0858592 23.1577 0.00390625V3.47113Z" fill="url(#paint12_linear_1210_52425)"/>
</g>
</g>
</g>
</g>
</g>
<defs>
<linearGradient id="paint0_linear_1210_52425" x1="7.97993" y1="13.3049" x2="26.182" y2="26.7905" gradientUnits="userSpaceOnUse">
<stop stop-color="#FEF0AE"/>
<stop offset="1" stop-color="#FAC600"/>
</linearGradient>
<linearGradient id="paint1_linear_1210_52425" x1="23.512" y1="20.305" x2="28.349" y2="20.305" gradientUnits="userSpaceOnUse">
<stop stop-color="#FEA613" stop-opacity="0"/>
<stop offset="0.2032" stop-color="#FDA215" stop-opacity="0.203"/>
<stop offset="0.4052" stop-color="#FB961B" stop-opacity="0.405"/>
<stop offset="0.6066" stop-color="#F68225" stop-opacity="0.607"/>
<stop offset="0.8066" stop-color="#F06633" stop-opacity="0.807"/>
<stop offset="1" stop-color="#E94444"/>
</linearGradient>
<linearGradient id="paint2_linear_1210_52425" x1="20.9698" y1="13.0344" x2="17.5342" y2="13.0344" gradientUnits="userSpaceOnUse">
<stop stop-color="#FEA613" stop-opacity="0"/>
<stop offset="0.2032" stop-color="#FDA215" stop-opacity="0.203"/>
<stop offset="0.4052" stop-color="#FB961B" stop-opacity="0.405"/>
<stop offset="0.6066" stop-color="#F68225" stop-opacity="0.607"/>
<stop offset="0.8066" stop-color="#F06633" stop-opacity="0.807"/>
<stop offset="1" stop-color="#E94444"/>
</linearGradient>
<linearGradient id="paint3_linear_1210_52425" x1="25.7228" y1="10.2109" x2="22.1906" y2="10.2109" gradientUnits="userSpaceOnUse">
<stop stop-color="#FEA613" stop-opacity="0"/>
<stop offset="0.2032" stop-color="#FDA215" stop-opacity="0.203"/>
<stop offset="0.4052" stop-color="#FB961B" stop-opacity="0.405"/>
<stop offset="0.6066" stop-color="#F68225" stop-opacity="0.607"/>
<stop offset="0.8066" stop-color="#F06633" stop-opacity="0.807"/>
<stop offset="1" stop-color="#E94444"/>
</linearGradient>
<linearGradient id="paint4_linear_1210_52425" x1="15.6384" y1="32.7429" x2="15.6384" y2="36.3916" gradientUnits="userSpaceOnUse">
<stop stop-color="#FEA613" stop-opacity="0"/>
<stop offset="0.2032" stop-color="#FDA215" stop-opacity="0.203"/>
<stop offset="0.4052" stop-color="#FB961B" stop-opacity="0.405"/>
<stop offset="0.6066" stop-color="#F68225" stop-opacity="0.607"/>
<stop offset="0.8066" stop-color="#F06633" stop-opacity="0.807"/>
<stop offset="1" stop-color="#E94444"/>
</linearGradient>
<linearGradient id="paint5_linear_1210_52425" x1="14.9613" y1="33.1983" x2="10.2275" y2="32.8942" gradientUnits="userSpaceOnUse">
<stop stop-color="#FEA613" stop-opacity="0"/>
<stop offset="0.2032" stop-color="#FDA215" stop-opacity="0.203"/>
<stop offset="0.4052" stop-color="#FB961B" stop-opacity="0.405"/>
<stop offset="0.6066" stop-color="#F68225" stop-opacity="0.607"/>
<stop offset="0.8066" stop-color="#F06633" stop-opacity="0.807"/>
<stop offset="1" stop-color="#E94444"/>
</linearGradient>
<linearGradient id="paint6_linear_1210_52425" x1="9.84848" y1="31.3687" x2="8.15471" y2="34.0613" gradientUnits="userSpaceOnUse">
<stop stop-color="#FEF0AE"/>
<stop offset="1" stop-color="#FAC600"/>
</linearGradient>
<linearGradient id="paint7_linear_1210_52425" x1="24.1833" y1="32.7084" x2="22.2068" y2="21.4614" gradientUnits="userSpaceOnUse">
<stop stop-color="#FEA613" stop-opacity="0"/>
<stop offset="0.2032" stop-color="#FDA215" stop-opacity="0.203"/>
<stop offset="0.4052" stop-color="#FB961B" stop-opacity="0.405"/>
<stop offset="0.6066" stop-color="#F68225" stop-opacity="0.607"/>
<stop offset="0.8066" stop-color="#F06633" stop-opacity="0.807"/>
<stop offset="1" stop-color="#E94444"/>
</linearGradient>
<linearGradient id="paint8_linear_1210_52425" x1="16.7411" y1="4.21101" x2="33.8235" y2="22.9875" gradientUnits="userSpaceOnUse">
<stop stop-color="#6E61B6"/>
<stop offset="1" stop-color="#433F43"/>
</linearGradient>
<linearGradient id="paint9_linear_1210_52425" x1="23.7352" y1="20.4002" x2="23.7352" y2="23.795" gradientUnits="userSpaceOnUse">
<stop stop-color="#433F43" stop-opacity="0"/>
<stop offset="1" stop-color="#1A1A1A"/>
</linearGradient>
<linearGradient id="paint10_linear_1210_52425" x1="30.5228" y1="14.0921" x2="32.8832" y2="14.0921" gradientUnits="userSpaceOnUse">
<stop stop-color="#433F43" stop-opacity="0"/>
<stop offset="1" stop-color="#1A1A1A"/>
</linearGradient>
<linearGradient id="paint11_linear_1210_52425" x1="23.9406" y1="12.4943" x2="23.9406" y2="17.941" gradientUnits="userSpaceOnUse">
<stop stop-color="#433F43" stop-opacity="0"/>
<stop offset="1" stop-color="#1A1A1A"/>
</linearGradient>
<linearGradient id="paint12_linear_1210_52425" x1="26.146" y1="8.92774" x2="27.6989" y2="8.92774" gradientUnits="userSpaceOnUse">
<stop stop-color="#433F43" stop-opacity="0"/>
<stop offset="1" stop-color="#1A1A1A"/>
</linearGradient>
<clipPath id="clip0_1210_52425">
<rect width="36" height="36" fill="white" transform="translate(0.5)"/>
</clipPath>
</defs>
</svg>
