<svg width="37" height="36" viewBox="0 0 37 36" fill="none" xmlns="http://www.w3.org/2000/svg">
<g id="3d-message 1" clip-path="url(#clip0_1210_52375)">
<g id="Group">
<g id="Group_2">
<path id="Vector" d="M36.0685 14.378C35.4905 10.495 32.3559 7.50437 28.455 7.06281C21.825 6.31243 15.1749 6.31236 8.54497 7.06281C4.62772 7.5062 1.5012 10.522 0.924993 14.4219C0.356164 18.272 0.358344 22.1285 0.931532 25.9785C1.22466 27.9473 2.17529 29.6863 3.54969 30.9802C4.37438 31.7565 4.82607 32.8499 4.82607 33.9825V34.7221C4.82607 35.8293 6.16475 36.3838 6.94768 35.6009L7.79009 34.7585C8.65888 33.8897 9.86558 33.4415 11.0899 33.5446C16.8867 34.0326 22.695 33.9477 28.4879 33.2899C32.3764 32.8483 35.4923 29.8493 36.0685 25.9784C36.6438 22.1139 36.6439 18.2427 36.0685 14.378Z" fill="url(#paint0_linear_1210_52375)"/>
<path id="Vector_2" d="M36.0687 14.3779C35.4906 10.4949 32.3562 7.50419 28.4552 7.06269C24.3256 6.59526 20.1882 6.41912 16.0527 6.53402C18.5568 6.60355 21.0602 6.77969 23.5607 7.06269C27.4616 7.50419 30.5961 10.4949 31.1742 14.3779C31.7496 18.2425 31.7495 22.1138 31.1742 25.9783C30.5962 29.8613 27.4616 32.8519 23.5607 33.2934C21.0603 33.5764 18.557 33.7525 16.0529 33.8221C20.1884 33.9369 24.3257 33.7608 28.4552 33.2934C32.3561 32.8519 35.4906 29.8613 36.0687 25.9783C36.644 22.1137 36.6441 18.2425 36.0687 14.3779Z" fill="url(#paint1_linear_1210_52375)"/>
<path id="Vector_3" d="M36.0687 14.3779C35.4906 10.4949 32.3562 7.50419 28.4552 7.06269C24.3256 6.59526 20.1882 6.41912 16.0527 6.53402C18.5568 6.60355 21.0602 6.77969 23.5607 7.06269C27.4616 7.50419 30.5961 10.4949 31.1742 14.3779C31.7496 18.2425 31.7495 22.1138 31.1742 25.9783C30.5962 29.8613 27.4616 32.8519 23.5607 33.2934C21.0603 33.5764 18.557 33.7525 16.0529 33.8221C20.1884 33.9369 24.3257 33.7608 28.4552 33.2934C32.3561 32.8519 35.4906 29.8613 36.0687 25.9783C36.644 22.1137 36.6441 18.2425 36.0687 14.3779Z" fill="url(#paint2_linear_1210_52375)"/>
<path id="Vector_4" d="M0.93142 25.9785C1.22455 27.9473 2.17518 29.6864 3.54951 30.9802C4.3742 31.7565 4.82589 32.8499 4.82589 33.9825V34.7222C4.82589 35.8294 6.16457 36.3839 6.9475 35.6009L7.78991 34.7585C8.65869 33.8897 9.86533 33.4416 11.0897 33.5446C16.8865 34.0326 22.6948 33.9477 28.4877 33.2899C32.3762 32.8483 35.4921 29.8493 36.0683 25.9784C36.4088 23.6918 36.5461 21.4029 36.4837 19.1143H0.516085C0.453647 21.4029 0.591038 23.6919 0.93142 25.9785Z" fill="url(#paint3_linear_1210_52375)"/>
</g>
<path id="Vector_5" d="M25.5632 33.5717L9.29283 17.3013L4.78369 21.8105L16.812 33.8388C19.7295 33.8947 22.6477 33.8055 25.5632 33.5717Z" fill="url(#paint4_linear_1210_52375)"/>
<g id="Group_3">
<g id="Group_4">
<g id="Group_5">
<g id="Group_6">
<path id="Vector_6" d="M7.03807 22.7446C8.79901 22.7446 10.2265 21.3171 10.2265 19.5561C10.2265 17.7952 8.79901 16.3677 7.03807 16.3677C5.27713 16.3677 3.84961 17.7952 3.84961 19.5561C3.84961 21.3171 5.27713 22.7446 7.03807 22.7446Z" fill="url(#paint5_linear_1210_52375)"/>
<path id="Vector_7" d="M3.84961 19.5562C3.84961 21.3171 5.27716 22.7447 7.03807 22.7447C8.79898 22.7447 10.2265 21.3171 10.2265 19.5562C10.2265 19.1748 10.1593 18.8092 10.0365 18.4702H4.03959C3.91676 18.8092 3.84961 19.1748 3.84961 19.5562Z" fill="url(#paint6_linear_1210_52375)"/>
<path id="Vector_8" d="M4.78349 21.8107C6.02865 23.0559 8.04747 23.0559 9.29263 21.8107C10.5378 20.5655 10.5378 18.5467 9.29263 17.3016C9.02298 17.0319 8.71691 16.8208 8.39038 16.668L4.1499 20.9084C4.30276 21.235 4.51377 21.541 4.78349 21.8107Z" fill="url(#paint7_linear_1210_52375)"/>
</g>
</g>
</g>
<g id="Group_7">
<path id="Vector_9" d="M28.4879 33.2897C29.994 33.1187 31.3831 32.5627 32.5547 31.7223L18.1337 17.3013L13.6245 21.8105L25.3993 33.5852C26.4292 33.5045 27.4588 33.4066 28.4879 33.2897Z" fill="url(#paint8_linear_1210_52375)"/>
<g id="Group_8">
<g id="Group_9">
<path id="Vector_10" d="M15.8789 22.7446C17.6398 22.7446 19.0674 21.3171 19.0674 19.5561C19.0674 17.7952 17.6398 16.3677 15.8789 16.3677C14.118 16.3677 12.6904 17.7952 12.6904 19.5561C12.6904 21.3171 14.118 22.7446 15.8789 22.7446Z" fill="url(#paint9_linear_1210_52375)"/>
<path id="Vector_11" d="M12.6904 19.5562C12.6904 21.3171 14.118 22.7447 15.8789 22.7447C17.6398 22.7447 19.0674 21.3171 19.0674 19.5562C19.0674 19.1748 19.0001 18.8092 18.8774 18.4702H12.8804C12.7576 18.8092 12.6904 19.1748 12.6904 19.5562Z" fill="url(#paint10_linear_1210_52375)"/>
<path id="Vector_12" d="M13.6243 21.8107C14.8695 23.0559 16.8883 23.0559 18.1334 21.8107C19.3786 20.5655 19.3786 18.5467 18.1334 17.3016C17.8638 17.0319 17.5577 16.8208 17.2312 16.668L12.9907 20.9084C13.1436 21.235 13.3547 21.541 13.6243 21.8107Z" fill="url(#paint11_linear_1210_52375)"/>
</g>
</g>
</g>
<g id="Group_10">
<path id="Vector_13" d="M36.0078 26.3346L26.9745 17.3013L22.4653 21.8105L32.4517 31.7968C34.2656 30.5356 35.5739 28.5977 36.0078 26.3346Z" fill="url(#paint12_linear_1210_52375)"/>
<g id="Group_11">
<g id="Group_12">
<path id="Vector_14" d="M24.7197 22.7446C26.4806 22.7446 27.9082 21.3171 27.9082 19.5561C27.9082 17.7952 26.4806 16.3677 24.7197 16.3677C22.9588 16.3677 21.5312 17.7952 21.5312 19.5561C21.5312 21.3171 22.9588 22.7446 24.7197 22.7446Z" fill="url(#paint13_linear_1210_52375)"/>
<path id="Vector_15" d="M21.5312 19.5562C21.5312 21.3171 22.9588 22.7447 24.7197 22.7447C26.4806 22.7447 27.9082 21.3171 27.9082 19.5562C27.9082 19.1748 27.841 18.8092 27.7182 18.4702H21.7212C21.5985 18.8092 21.5312 19.1748 21.5312 19.5562Z" fill="url(#paint14_linear_1210_52375)"/>
<path id="Vector_16" d="M22.4651 21.8107C23.7103 23.0559 25.7291 23.0559 26.9743 21.8107C28.2194 20.5655 28.2194 18.5467 26.9743 17.3016C26.7046 17.0319 26.3986 16.8208 26.072 16.668L21.8315 20.9084C21.9845 21.235 22.1955 21.541 22.4651 21.8107Z" fill="url(#paint15_linear_1210_52375)"/>
</g>
</g>
</g>
</g>
</g>
</g>
<defs>
<linearGradient id="paint0_linear_1210_52375" x1="12.348" y1="9.22464" x2="25.2813" y2="33.0862" gradientUnits="userSpaceOnUse">
<stop stop-color="#BBEC6C"/>
<stop offset="1" stop-color="#81B823"/>
</linearGradient>
<linearGradient id="paint1_linear_1210_52375" x1="13.0671" y1="13.7066" x2="51.2614" y2="39.2698" gradientUnits="userSpaceOnUse">
<stop stop-color="#026841" stop-opacity="0"/>
<stop offset="0.2391" stop-color="#0A6644" stop-opacity="0.239"/>
<stop offset="0.6113" stop-color="#20604D" stop-opacity="0.611"/>
<stop offset="1" stop-color="#3E5959"/>
</linearGradient>
<linearGradient id="paint2_linear_1210_52375" x1="32.5133" y1="20.178" x2="36.7818" y2="20.178" gradientUnits="userSpaceOnUse">
<stop stop-color="#026841" stop-opacity="0"/>
<stop offset="0.2391" stop-color="#0A6644" stop-opacity="0.239"/>
<stop offset="0.6113" stop-color="#20604D" stop-opacity="0.611"/>
<stop offset="1" stop-color="#3E5959"/>
</linearGradient>
<linearGradient id="paint3_linear_1210_52375" x1="18.4999" y1="28.0212" x2="18.4999" y2="35.3728" gradientUnits="userSpaceOnUse">
<stop stop-color="#026841" stop-opacity="0"/>
<stop offset="0.2391" stop-color="#0A6644" stop-opacity="0.239"/>
<stop offset="0.6113" stop-color="#20604D" stop-opacity="0.611"/>
<stop offset="1" stop-color="#3E5959"/>
</linearGradient>
<linearGradient id="paint4_linear_1210_52375" x1="11.8783" y1="24.3959" x2="5.2969" y2="17.8145" gradientUnits="userSpaceOnUse">
<stop stop-color="#026841" stop-opacity="0"/>
<stop offset="0.2391" stop-color="#0A6644" stop-opacity="0.239"/>
<stop offset="0.6113" stop-color="#20604D" stop-opacity="0.611"/>
<stop offset="1" stop-color="#3E5959"/>
</linearGradient>
<linearGradient id="paint5_linear_1210_52375" x1="5.2991" y1="17.8172" x2="8.42815" y2="20.9462" gradientUnits="userSpaceOnUse">
<stop stop-color="#EAF9FA"/>
<stop offset="1" stop-color="#B3DAFE"/>
</linearGradient>
<linearGradient id="paint6_linear_1210_52375" x1="7.03807" y1="19.3917" x2="7.03807" y2="22.8683" gradientUnits="userSpaceOnUse">
<stop stop-color="#7BACDF" stop-opacity="0"/>
<stop offset="1" stop-color="#7BACDF"/>
</linearGradient>
<linearGradient id="paint7_linear_1210_52375" x1="6.83113" y1="19.3776" x2="9.60826" y2="21.7732" gradientUnits="userSpaceOnUse">
<stop stop-color="#7BACDF" stop-opacity="0"/>
<stop offset="1" stop-color="#7BACDF"/>
</linearGradient>
<linearGradient id="paint8_linear_1210_52375" x1="20.058" y1="23.7348" x2="13.8909" y2="17.5678" gradientUnits="userSpaceOnUse">
<stop stop-color="#026841" stop-opacity="0"/>
<stop offset="0.2391" stop-color="#0A6644" stop-opacity="0.239"/>
<stop offset="0.6113" stop-color="#20604D" stop-opacity="0.611"/>
<stop offset="1" stop-color="#3E5959"/>
</linearGradient>
<linearGradient id="paint9_linear_1210_52375" x1="14.14" y1="17.8172" x2="17.269" y2="20.9462" gradientUnits="userSpaceOnUse">
<stop stop-color="#EAF9FA"/>
<stop offset="1" stop-color="#B3DAFE"/>
</linearGradient>
<linearGradient id="paint10_linear_1210_52375" x1="15.8789" y1="19.3917" x2="15.8789" y2="22.8683" gradientUnits="userSpaceOnUse">
<stop stop-color="#7BACDF" stop-opacity="0"/>
<stop offset="1" stop-color="#7BACDF"/>
</linearGradient>
<linearGradient id="paint11_linear_1210_52375" x1="15.6719" y1="19.3776" x2="18.4492" y2="21.7732" gradientUnits="userSpaceOnUse">
<stop stop-color="#7BACDF" stop-opacity="0"/>
<stop offset="1" stop-color="#7BACDF"/>
</linearGradient>
<linearGradient id="paint12_linear_1210_52375" x1="28.211" y1="23.0469" x2="23.4849" y2="18.3209" gradientUnits="userSpaceOnUse">
<stop stop-color="#026841" stop-opacity="0"/>
<stop offset="0.2391" stop-color="#0A6644" stop-opacity="0.239"/>
<stop offset="0.6113" stop-color="#20604D" stop-opacity="0.611"/>
<stop offset="1" stop-color="#3E5959"/>
</linearGradient>
<linearGradient id="paint13_linear_1210_52375" x1="22.9807" y1="17.8172" x2="26.1098" y2="20.9462" gradientUnits="userSpaceOnUse">
<stop stop-color="#EAF9FA"/>
<stop offset="1" stop-color="#B3DAFE"/>
</linearGradient>
<linearGradient id="paint14_linear_1210_52375" x1="24.7198" y1="19.3917" x2="24.7198" y2="22.8683" gradientUnits="userSpaceOnUse">
<stop stop-color="#7BACDF" stop-opacity="0"/>
<stop offset="1" stop-color="#7BACDF"/>
</linearGradient>
<linearGradient id="paint15_linear_1210_52375" x1="24.5128" y1="19.3776" x2="27.29" y2="21.7732" gradientUnits="userSpaceOnUse">
<stop stop-color="#7BACDF" stop-opacity="0"/>
<stop offset="1" stop-color="#7BACDF"/>
</linearGradient>
<clipPath id="clip0_1210_52375">
<rect width="36" height="36" fill="white" transform="translate(0.5)"/>
</clipPath>
</defs>
</svg>
