<svg width="37" height="36" viewBox="0 0 37 36" fill="none" xmlns="http://www.w3.org/2000/svg">
<g id="sos 1" clip-path="url(#clip0_1210_52291)">
<g id="Group">
<g id="Group_2">
<path id="Vector" d="M18.5 36C21.1557 36 23.3086 33.8471 23.3086 31.1914C23.3086 28.5357 21.1557 26.3828 18.5 26.3828C15.8443 26.3828 13.6914 28.5357 13.6914 31.1914C13.6914 33.8471 15.8443 36 18.5 36Z" fill="url(#paint0_linear_1210_52291)"/>
<path id="Vector_2" d="M18.5 36C21.1557 36 23.3086 33.8471 23.3086 31.1914C23.3086 28.5357 21.1557 26.3828 18.5 26.3828C15.8443 26.3828 13.6914 28.5357 13.6914 31.1914C13.6914 33.8471 15.8443 36 18.5 36Z" fill="url(#paint1_linear_1210_52291)"/>
<path id="Vector_3" d="M28.2805 19.8263C28.6909 18.7077 28.9148 17.4992 28.9145 16.2382C28.9134 10.4748 24.1589 5.76972 18.3958 5.82619C12.692 5.88209 8.08541 10.5232 8.08541 16.2403C8.08541 17.5268 8.31875 18.7588 8.7455 19.8963C9.49699 21.8998 8.83351 24.1666 7.06556 25.3721C6.21419 25.9525 5.73535 26.607 5.73535 27.2994C5.73535 29.6919 11.4503 31.6314 18.5 31.6314C25.5496 31.6314 31.2646 29.6919 31.2646 27.2994C31.2646 26.6324 30.8203 26.0006 30.0266 25.4362C28.2404 24.166 27.5255 21.8841 28.2805 19.8263Z" fill="url(#paint2_linear_1210_52291)"/>
<path id="Vector_4" d="M25.3579 12.4263C23.9114 12.4263 22.3954 13.0858 22.3954 14.8217C22.3954 15.6676 22.7534 16.2255 23.2456 16.6355C23.2456 16.6355 25.7741 19.1748 25.8045 19.2079C25.5832 19.3785 25.2527 19.4506 24.9412 19.4506C23.865 19.4506 23.5178 18.5943 22.9739 18.5943C22.5342 18.5943 22.187 19.1729 22.187 19.5664C22.187 19.8658 22.3833 20.1614 22.7126 20.4105L30.7835 28.4815C31.0968 28.1058 31.2646 27.7093 31.2646 27.2995C31.2646 26.6325 30.8203 26.0007 30.0266 25.4363C28.2403 24.1661 27.5255 21.8841 28.2804 19.8264C28.6908 18.7078 28.9148 17.4993 28.9145 16.2383C28.9143 15.5734 28.8502 14.9229 28.7293 14.2918L27.5934 13.1559C27.2745 12.5165 25.8985 12.4263 25.3579 12.4263Z" fill="url(#paint3_linear_1210_52291)"/>
<path id="Vector_5" d="M30.3956 28.8732L14.6783 13.1559C14.3594 12.5165 12.9834 12.4263 12.4428 12.4263C10.9963 12.4263 9.48033 13.0858 9.48033 14.8217C9.48033 15.6676 9.83833 16.2255 10.3306 16.6355C10.3306 16.6355 12.8591 19.1748 12.8895 19.2079C12.6682 19.3785 12.3377 19.4506 12.0261 19.4506C10.9499 19.4506 10.6027 18.5943 10.0589 18.5943C9.61917 18.5943 9.27197 19.1729 9.27197 19.5664C9.27197 19.8658 9.46826 20.1614 9.79753 20.4105L20.9392 31.5522C25.2736 31.2674 28.826 30.2388 30.3956 28.8732Z" fill="url(#paint4_linear_1210_52291)"/>
<path id="Vector_6" d="M28.7407 18.1426H8.25904C8.37063 18.7471 8.53431 19.3334 8.7455 19.8964C9.49699 21.8999 8.83351 24.1668 7.06556 25.3722C6.21419 25.9526 5.73535 26.6071 5.73535 27.2995C5.73535 29.692 11.4503 31.6315 18.5 31.6315C25.5496 31.6315 31.2646 29.692 31.2646 27.2995C31.2646 26.6324 30.8203 26.0007 30.0266 25.4363C28.2403 24.1661 27.5255 21.8841 28.2804 19.8263C28.4792 19.2848 28.6337 18.7221 28.7407 18.1426Z" fill="url(#paint5_linear_1210_52291)"/>
<path id="Vector_7" d="M20.9024 13.419C20.39 12.7665 19.5527 12.4956 18.5881 12.4956C16.9912 12.4956 15.7529 13.2362 15.7529 15.2267V18.2933C15.7529 19.3305 16.0897 20.0277 16.6377 20.4582L26.7766 30.5971C29.5228 29.8026 31.2648 28.6201 31.2648 27.2994C31.2648 26.6324 30.8205 26.0006 30.0268 25.4362C28.4582 24.3208 27.7162 22.4252 28.0698 20.5864L20.9024 13.419Z" fill="url(#paint6_linear_1210_52291)"/>
</g>
<g id="Group_3">
<path id="Vector_8" d="M13.0784 18.616C13.0784 17.2158 9.41002 17.4588 9.41002 14.7509C9.41002 13.015 10.926 12.3555 12.3725 12.3555C12.9858 12.3555 14.6754 12.4712 14.6754 13.3738C14.6754 13.6862 14.4671 14.3228 13.9579 14.3228C13.5413 14.3228 13.3214 13.883 12.3725 13.883C11.5508 13.883 11.2152 14.2186 11.2152 14.5774C11.2152 15.7346 14.8836 15.5148 14.8836 18.431C14.8836 20.0973 13.6686 21 11.9906 21C10.4746 21 9.20166 20.2594 9.20166 19.4956C9.20166 19.1021 9.54886 18.5236 9.98859 18.5236C10.5325 18.5236 10.8796 19.3799 11.9558 19.3799C12.4882 19.3798 13.0784 19.1715 13.0784 18.616Z" fill="url(#paint7_linear_1210_52291)"/>
<path id="Vector_9" d="M15.6821 18.2225V15.1559C15.6821 13.1654 16.9204 12.4248 18.5173 12.4248C20.1142 12.4248 21.364 13.1654 21.364 15.1559V18.2225C21.364 20.2129 20.1142 20.9535 18.5173 20.9535C16.9204 20.9535 15.6821 20.2129 15.6821 18.2225ZM19.5588 15.1559C19.5588 14.3574 19.1653 13.9987 18.5173 13.9987C17.8693 13.9987 17.4874 14.3574 17.4874 15.1559V18.2225C17.4874 19.021 17.8693 19.3797 18.5173 19.3797C19.1653 19.3797 19.5588 19.021 19.5588 18.2225V15.1559Z" fill="url(#paint8_linear_1210_52291)"/>
<path id="Vector_10" d="M25.9935 18.616C25.9935 17.2158 22.3251 17.4588 22.3251 14.7509C22.3251 13.015 23.841 12.3555 25.2876 12.3555C25.9009 12.3555 27.5904 12.4712 27.5904 13.3738C27.5904 13.6862 27.3821 14.3228 26.8729 14.3228C26.4563 14.3228 26.2364 13.883 25.2876 13.883C24.4658 13.883 24.1303 14.2186 24.1303 14.5774C24.1303 15.7346 27.7987 15.5148 27.7987 18.431C27.7987 20.0973 26.5836 21 24.9056 21C23.3896 21 22.1167 20.2594 22.1167 19.4956C22.1167 19.1021 22.4639 18.5236 22.9036 18.5236C23.4475 18.5236 23.7947 19.3799 24.8708 19.3799C25.4032 19.3798 25.9935 19.1715 25.9935 18.616Z" fill="url(#paint9_linear_1210_52291)"/>
</g>
<g id="Group_4">
<path id="Vector_11" d="M18.5001 0C18.2077 0 17.9707 0.237017 17.9707 0.529371V3.07035C17.9707 3.36271 18.2077 3.59972 18.5001 3.59972C18.7924 3.59972 19.0294 3.36271 19.0294 3.07035V0.529371C19.0294 0.237017 18.7924 0 18.5001 0Z" fill="url(#paint10_linear_1210_52291)"/>
<path id="Vector_12" d="M33.8511 15.3511H31.3101C31.0178 15.3511 30.7808 15.5881 30.7808 15.8804C30.7808 16.1728 31.0178 16.4098 31.3101 16.4098H33.8511C34.1435 16.4098 34.3805 16.1728 34.3805 15.8804C34.3805 15.5881 34.1435 15.3511 33.8511 15.3511Z" fill="url(#paint11_linear_1210_52291)"/>
<path id="Vector_13" d="M6.21935 15.8804C6.21935 15.5881 5.98234 15.3511 5.68998 15.3511H3.149C2.85665 15.3511 2.61963 15.5881 2.61963 15.8804C2.61963 16.1728 2.85665 16.4098 3.149 16.4098H5.68998C5.98234 16.4098 6.21935 16.1728 6.21935 15.8804Z" fill="url(#paint12_linear_1210_52291)"/>
<path id="Vector_14" d="M29.7292 4.65115C29.5225 4.44441 29.1873 4.44441 28.9806 4.65115L27.1839 6.4479C26.9771 6.65464 26.9771 6.98984 27.1839 7.1965C27.2872 7.29984 27.4227 7.35158 27.5582 7.35158C27.6936 7.35158 27.8291 7.29991 27.9325 7.1965L29.7292 5.39975C29.936 5.19308 29.936 4.85788 29.7292 4.65115Z" fill="url(#paint13_linear_1210_52291)"/>
<path id="Vector_15" d="M8.01938 4.65115C7.81264 4.44441 7.47744 4.44441 7.27078 4.65115C7.06404 4.85788 7.06404 5.19308 7.27078 5.39975L9.06753 7.1965C9.17087 7.29991 9.30638 7.35158 9.44183 7.35158C9.57728 7.35158 9.7128 7.29991 9.81613 7.1965C10.0229 6.98977 10.0229 6.65457 9.81613 6.4479L8.01938 4.65115Z" fill="url(#paint14_linear_1210_52291)"/>
<path id="Vector_16" d="M24.4813 1.16943C24.2106 1.05946 23.9017 1.18962 23.7916 1.46044L22.8345 3.81431C22.7244 4.08514 22.8547 4.39394 23.1255 4.50405C23.1908 4.53059 23.2583 4.54315 23.3247 4.54315C23.5337 4.54315 23.7317 4.41857 23.8153 4.21303L24.7723 1.85917C24.8824 1.58841 24.7522 1.27954 24.4813 1.16943Z" fill="url(#paint15_linear_1210_52291)"/>
<path id="Vector_17" d="M32.9201 21.1719L30.5663 20.2149C30.2955 20.1048 29.9866 20.2351 29.8765 20.5059C29.7664 20.7767 29.8967 21.0855 30.1675 21.1956L32.5214 22.1527C32.5867 22.1792 32.6542 22.1918 32.7206 22.1918C32.9295 22.1918 33.1276 22.0672 33.2111 21.8616C33.3212 21.5909 33.1909 21.282 32.9201 21.1719Z" fill="url(#paint16_linear_1210_52291)"/>
<path id="Vector_18" d="M4.08013 10.5888L6.434 11.5458C6.49929 11.5723 6.56676 11.5849 6.63318 11.5849C6.84211 11.5849 7.04016 11.4603 7.12373 11.2548C7.23384 10.9839 7.10355 10.6751 6.83272 10.565L4.47885 9.60794C4.20803 9.4979 3.89923 9.62812 3.78912 9.89895C3.67901 10.1698 3.8093 10.4786 4.08013 10.5888Z" fill="url(#paint17_linear_1210_52291)"/>
<path id="Vector_19" d="M30.3032 11.4306C30.3718 11.4306 30.4415 11.4171 30.5087 11.3888L32.8499 10.401C33.1192 10.2874 33.2455 9.9769 33.1319 9.70749C33.0182 9.43821 32.7079 9.31194 32.4383 9.42551L30.0972 10.4132C29.8278 10.5269 29.7016 10.8374 29.8152 11.1068C29.9005 11.309 30.0967 11.4306 30.3032 11.4306Z" fill="url(#paint18_linear_1210_52291)"/>
<path id="Vector_20" d="M6.49156 20.3718L4.1504 21.3595C3.88105 21.4732 3.75478 21.7837 3.86842 22.0531C3.95368 22.2552 4.1499 22.3768 4.35643 22.3768C4.42504 22.3768 4.49477 22.3634 4.56197 22.335L6.90313 21.3473C7.17247 21.2336 7.29874 20.9231 7.18511 20.6537C7.07147 20.3845 6.76112 20.2582 6.49156 20.3718Z" fill="url(#paint19_linear_1210_52291)"/>
<path id="Vector_21" d="M13.0207 1.53076C12.9071 1.26149 12.5967 1.13514 12.3272 1.24878C12.0578 1.36242 11.9315 1.67291 12.0452 1.94233L13.0329 4.28349C13.1182 4.48564 13.3144 4.60718 13.5209 4.60718C13.5895 4.60718 13.6593 4.59377 13.7265 4.5654C13.9958 4.45176 14.1221 4.14126 14.0084 3.87185L13.0207 1.53076Z" fill="url(#paint20_linear_1210_52291)"/>
</g>
</g>
</g>
<defs>
<linearGradient id="paint0_linear_1210_52291" x1="18.5804" y1="31.4147" x2="19.6623" y2="34.4199" gradientUnits="userSpaceOnUse">
<stop stop-color="#FEE45A"/>
<stop offset="1" stop-color="#FEA613"/>
</linearGradient>
<linearGradient id="paint1_linear_1210_52291" x1="18.5" y1="33.5956" x2="18.5" y2="30.2813" gradientUnits="userSpaceOnUse">
<stop stop-color="#FEA613" stop-opacity="0"/>
<stop offset="1" stop-color="#E94444"/>
</linearGradient>
<linearGradient id="paint2_linear_1210_52291" x1="13.2471" y1="15.9053" x2="23.1635" y2="25.8217" gradientUnits="userSpaceOnUse">
<stop stop-color="#FEE45A"/>
<stop offset="1" stop-color="#FEA613"/>
</linearGradient>
<linearGradient id="paint3_linear_1210_52291" x1="29.4912" y1="20.9559" x2="22.2447" y2="16.2034" gradientUnits="userSpaceOnUse">
<stop stop-color="#FEA613" stop-opacity="0"/>
<stop offset="1" stop-color="#E94444"/>
</linearGradient>
<linearGradient id="paint4_linear_1210_52291" x1="19.1795" y1="22.9006" x2="5.15706" y2="16.3128" gradientUnits="userSpaceOnUse">
<stop stop-color="#FEA613" stop-opacity="0"/>
<stop offset="1" stop-color="#E94444"/>
</linearGradient>
<linearGradient id="paint5_linear_1210_52291" x1="18.5" y1="24.7541" x2="18.5" y2="33.5368" gradientUnits="userSpaceOnUse">
<stop stop-color="#FEA613" stop-opacity="0"/>
<stop offset="1" stop-color="#E94444"/>
</linearGradient>
<linearGradient id="paint6_linear_1210_52291" x1="24.9395" y1="22.5093" x2="13.5404" y2="16.298" gradientUnits="userSpaceOnUse">
<stop stop-color="#FEA613" stop-opacity="0"/>
<stop offset="1" stop-color="#E94444"/>
</linearGradient>
<linearGradient id="paint7_linear_1210_52291" x1="11.3688" y1="12.9833" x2="13.1781" y2="23.9453" gradientUnits="userSpaceOnUse">
<stop stop-color="#FE0364"/>
<stop offset="0.2568" stop-color="#F3035F"/>
<stop offset="0.7013" stop-color="#D70252"/>
<stop offset="1" stop-color="#C00148"/>
</linearGradient>
<linearGradient id="paint8_linear_1210_52291" x1="17.7377" y1="11.932" x2="19.547" y2="22.894" gradientUnits="userSpaceOnUse">
<stop stop-color="#FE0364"/>
<stop offset="0.2568" stop-color="#F3035F"/>
<stop offset="0.7013" stop-color="#D70252"/>
<stop offset="1" stop-color="#C00148"/>
</linearGradient>
<linearGradient id="paint9_linear_1210_52291" x1="23.9414" y1="10.9082" x2="25.7507" y2="21.8702" gradientUnits="userSpaceOnUse">
<stop stop-color="#FE0364"/>
<stop offset="0.2568" stop-color="#F3035F"/>
<stop offset="0.7013" stop-color="#D70252"/>
<stop offset="1" stop-color="#C00148"/>
</linearGradient>
<linearGradient id="paint10_linear_1210_52291" x1="14.6199" y1="-4.80521" x2="33.4646" y2="27.2732" gradientUnits="userSpaceOnUse">
<stop stop-color="#FE860A"/>
<stop offset="0.2435" stop-color="#FB7C0E"/>
<stop offset="0.6648" stop-color="#F55F19"/>
<stop offset="1" stop-color="#EF4424"/>
</linearGradient>
<linearGradient id="paint11_linear_1210_52291" x1="18.9383" y1="-7.34209" x2="37.783" y2="24.7362" gradientUnits="userSpaceOnUse">
<stop stop-color="#FE860A"/>
<stop offset="0.2435" stop-color="#FB7C0E"/>
<stop offset="0.6648" stop-color="#F55F19"/>
<stop offset="1" stop-color="#EF4424"/>
</linearGradient>
<linearGradient id="paint12_linear_1210_52291" x1="-1.99762" y1="4.95697" x2="16.8471" y2="37.0353" gradientUnits="userSpaceOnUse">
<stop stop-color="#FE860A"/>
<stop offset="0.2435" stop-color="#FB7C0E"/>
<stop offset="0.6648" stop-color="#F55F19"/>
<stop offset="1" stop-color="#EF4424"/>
</linearGradient>
<linearGradient id="paint13_linear_1210_52291" x1="20.2207" y1="-8.09555" x2="39.0654" y2="23.9827" gradientUnits="userSpaceOnUse">
<stop stop-color="#FE860A"/>
<stop offset="0.2435" stop-color="#FB7C0E"/>
<stop offset="0.6648" stop-color="#F55F19"/>
<stop offset="1" stop-color="#EF4424"/>
</linearGradient>
<linearGradient id="paint14_linear_1210_52291" x1="5.41656" y1="0.601174" x2="24.2613" y2="32.6795" gradientUnits="userSpaceOnUse">
<stop stop-color="#FE860A"/>
<stop offset="0.2435" stop-color="#FB7C0E"/>
<stop offset="0.6648" stop-color="#F55F19"/>
<stop offset="1" stop-color="#EF4424"/>
</linearGradient>
<linearGradient id="paint15_linear_1210_52291" x1="18.1097" y1="-6.85527" x2="36.9544" y2="25.223" gradientUnits="userSpaceOnUse">
<stop stop-color="#FE860A"/>
<stop offset="0.2435" stop-color="#FB7C0E"/>
<stop offset="0.6648" stop-color="#F55F19"/>
<stop offset="1" stop-color="#EF4424"/>
</linearGradient>
<linearGradient id="paint16_linear_1210_52291" x1="15.8514" y1="-5.52862" x2="34.6961" y2="26.5497" gradientUnits="userSpaceOnUse">
<stop stop-color="#FE860A"/>
<stop offset="0.2435" stop-color="#FB7C0E"/>
<stop offset="0.6648" stop-color="#F55F19"/>
<stop offset="1" stop-color="#EF4424"/>
</linearGradient>
<linearGradient id="paint17_linear_1210_52291" x1="1.08947" y1="3.14319" x2="19.9341" y2="35.2215" gradientUnits="userSpaceOnUse">
<stop stop-color="#FE860A"/>
<stop offset="0.2435" stop-color="#FB7C0E"/>
<stop offset="0.6648" stop-color="#F55F19"/>
<stop offset="1" stop-color="#EF4424"/>
</linearGradient>
<linearGradient id="paint18_linear_1210_52291" x1="20.5057" y1="-8.26277" x2="39.3504" y2="23.8156" gradientUnits="userSpaceOnUse">
<stop stop-color="#FE860A"/>
<stop offset="0.2435" stop-color="#FB7C0E"/>
<stop offset="0.6648" stop-color="#F55F19"/>
<stop offset="1" stop-color="#EF4424"/>
</linearGradient>
<linearGradient id="paint19_linear_1210_52291" x1="-3.5648" y1="5.87733" x2="15.2799" y2="37.9556" gradientUnits="userSpaceOnUse">
<stop stop-color="#FE860A"/>
<stop offset="0.2435" stop-color="#FB7C0E"/>
<stop offset="0.6648" stop-color="#F55F19"/>
<stop offset="1" stop-color="#EF4424"/>
</linearGradient>
<linearGradient id="paint20_linear_1210_52291" x1="10.0673" y1="-2.13073" x2="28.9119" y2="29.9476" gradientUnits="userSpaceOnUse">
<stop stop-color="#FE860A"/>
<stop offset="0.2435" stop-color="#FB7C0E"/>
<stop offset="0.6648" stop-color="#F55F19"/>
<stop offset="1" stop-color="#EF4424"/>
</linearGradient>
<clipPath id="clip0_1210_52291">
<rect width="36" height="36" fill="white" transform="translate(0.5)"/>
</clipPath>
</defs>
</svg>
