<svg width="37" height="36" viewBox="0 0 37 36" fill="none" xmlns="http://www.w3.org/2000/svg">
<g id="3d-speaker 1" clip-path="url(#clip0_1210_52104)">
<g id="Group">
<g id="Group_2">
<path id="Vector" d="M8.47405 35.1225H11.5155C12.7221 35.1225 13.614 34.0122 13.37 32.8305C13.3683 32.8223 13.3666 32.8141 13.3649 32.8059L12.4068 28.0863C12.1733 26.9377 12.2213 25.7597 12.534 24.6496C12.7408 23.9138 12.1774 23.186 11.413 23.186H8.57642C7.81206 23.186 7.24864 23.9138 7.45543 24.6496C7.76811 25.7597 7.81614 26.9377 7.58263 28.0863L6.62455 32.8059C6.62286 32.8141 6.62118 32.8223 6.61949 32.8305C6.3755 34.0121 7.26742 35.1225 8.47405 35.1225Z" fill="url(#paint0_linear_1210_52104)"/>
<path id="Vector_2" d="M8.47405 35.1225H11.5155C12.7221 35.1225 13.614 34.0122 13.37 32.8305C13.3683 32.8223 13.3666 32.8141 13.3649 32.8059L12.4068 28.0863C12.1733 26.9377 12.2213 25.7597 12.534 24.6496C12.7408 23.9138 12.1774 23.186 11.413 23.186H8.57642C7.81206 23.186 7.24864 23.9138 7.45543 24.6496C7.76811 25.7597 7.81614 26.9377 7.58263 28.0863L6.62455 32.8059C6.62286 32.8141 6.62118 32.8223 6.61949 32.8305C6.3755 34.0121 7.26742 35.1225 8.47405 35.1225Z" fill="url(#paint1_linear_1210_52104)"/>
<path id="Vector_3" d="M6.61951 32.8304C6.6212 32.8222 6.62288 32.814 6.62457 32.8058L6.85731 31.6592H13.1321L13.3648 32.8058C13.3665 32.8141 13.3681 32.8222 13.3699 32.8304C13.6139 34.0121 12.722 35.1225 11.5154 35.1225H8.474C7.26737 35.1224 6.37545 34.012 6.61951 32.8304Z" fill="url(#paint2_linear_1210_52104)"/>
<path id="Vector_4" d="M11.5156 35.1225H8.67871V23.186H11.4132C12.1775 23.186 12.7409 23.9138 12.5342 24.6496C12.2215 25.7597 12.1735 26.9377 12.407 28.0863L13.365 32.8059C13.3667 32.8141 13.3683 32.8223 13.3701 32.8305C13.6141 34.0121 12.7222 35.1225 11.5156 35.1225Z" fill="url(#paint3_linear_1210_52104)"/>
</g>
<g id="Group_3">
<path id="Vector_5" d="M6.9504 12.2134H3.18488C1.70206 12.2134 0.5 14.6848 0.5 17.7335C0.5 20.7823 1.70206 23.2537 3.18488 23.2537H6.9504C8.43322 23.2537 9.63528 20.7822 9.63528 17.7335C9.63528 14.6849 8.43315 12.2134 6.9504 12.2134Z" fill="url(#paint4_linear_1210_52104)"/>
<g id="Group_4">
<path id="Vector_6" d="M3.94943 14.3627H2.29659C2.12201 14.3627 1.98047 14.2212 1.98047 14.0466C1.98047 13.872 2.12201 13.7305 2.29659 13.7305H3.94943C4.12402 13.7305 4.26555 13.872 4.26555 14.0466C4.26555 14.2212 4.12402 14.3627 3.94943 14.3627Z" fill="url(#paint5_linear_1210_52104)"/>
<path id="Vector_7" d="M3.62709 15.8378H1.97433C1.79974 15.8378 1.6582 15.6963 1.6582 15.5217C1.6582 15.3471 1.79974 15.2056 1.97433 15.2056H3.62716C3.80175 15.2056 3.94329 15.3471 3.94329 15.5217C3.94322 15.6963 3.80168 15.8378 3.62709 15.8378Z" fill="url(#paint6_linear_1210_52104)"/>
<path id="Vector_8" d="M3.4255 17.3124H1.77267C1.59808 17.3124 1.45654 17.1709 1.45654 16.9963C1.45654 16.8217 1.59808 16.6802 1.77267 16.6802H3.4255C3.60009 16.6802 3.74163 16.8217 3.74163 16.9963C3.74163 17.171 3.60009 17.3124 3.4255 17.3124Z" fill="url(#paint7_linear_1210_52104)"/>
<path id="Vector_9" d="M3.4255 18.7875H1.77267C1.59808 18.7875 1.45654 18.646 1.45654 18.4714C1.45654 18.2968 1.59808 18.1553 1.77267 18.1553H3.4255C3.60009 18.1553 3.74163 18.2968 3.74163 18.4714C3.74163 18.646 3.60009 18.7875 3.4255 18.7875Z" fill="url(#paint8_linear_1210_52104)"/>
<path id="Vector_10" d="M3.62709 20.2621H1.97433C1.79974 20.2621 1.6582 20.1206 1.6582 19.946C1.6582 19.7714 1.79974 19.6299 1.97433 19.6299H3.62716C3.80175 19.6299 3.94329 19.7714 3.94329 19.946C3.94322 20.1206 3.80168 20.2621 3.62709 20.2621Z" fill="url(#paint9_linear_1210_52104)"/>
<path id="Vector_11" d="M3.94943 21.7372H2.29659C2.12201 21.7372 1.98047 21.5957 1.98047 21.4211C1.98047 21.2465 2.12201 21.105 2.29659 21.105H3.94943C4.12402 21.105 4.26555 21.2465 4.26555 21.4211C4.26555 21.5957 4.12402 21.7372 3.94943 21.7372Z" fill="url(#paint10_linear_1210_52104)"/>
</g>
<path id="Vector_12" d="M6.95051 12.2134C5.46769 12.2134 4.26562 14.6849 4.26562 17.7335C4.26562 20.7822 5.46769 23.2537 6.95051 23.2537C8.43333 23.2537 9.63539 20.7822 9.63539 17.7335C9.63539 14.6849 8.43326 12.2134 6.95051 12.2134Z" fill="url(#paint11_linear_1210_52104)"/>
<path id="Vector_13" d="M6.95051 12.2134C5.46769 12.2134 4.26562 14.6849 4.26562 17.7335C4.26562 20.7822 5.46769 23.2537 6.95051 23.2537C8.43333 23.2537 9.63539 20.7822 9.63539 17.7335C9.63539 14.6849 8.43326 12.2134 6.95051 12.2134Z" fill="url(#paint12_linear_1210_52104)"/>
<path id="Vector_14" d="M4.26562 17.7337C4.26562 20.7824 5.46769 23.2539 6.95051 23.2539C8.43333 23.2539 9.63539 20.7824 9.63539 17.7337C9.63539 17.2778 9.60832 16.8349 9.55762 16.4111H4.34339C4.2927 16.8349 4.26562 17.2777 4.26562 17.7337Z" fill="url(#paint13_linear_1210_52104)"/>
<path id="Vector_15" d="M9.36303 17.4746H0.503023C0.501125 17.5604 0.5 17.6467 0.5 17.7336C0.5 20.7823 1.70206 23.2537 3.18488 23.2537H6.9504C8.01022 23.2537 8.92653 21.991 9.3631 20.1574L9.36303 17.4746Z" fill="url(#paint14_linear_1210_52104)"/>
</g>
<g id="Group_5">
<g id="Group_6">
<g id="Group_7">
<path id="Vector_16" d="M25.8311 2.67285V32.793C25.8311 32.793 23.2188 29.0425 15.5712 26.7491C14.0203 26.2843 12.2616 25.8787 10.2762 25.5771C9.2556 25.422 8.29415 25.1607 7.4106 24.8103C6.43495 24.4233 5.69132 23.8065 5.31156 23.0724C4.77599 22.0371 4.11133 20.246 4.11133 17.7329C4.11133 15.6404 4.61125 13.7144 5.44881 12.1849C5.49782 12.0956 5.54788 12.0078 5.599 11.9213C5.83328 11.5252 6.22942 11.1849 6.74045 10.945C7.80006 10.4477 8.99102 10.0845 10.2762 9.88888C12.2616 9.58731 14.0203 9.18168 15.5712 8.71684C23.2188 6.42339 25.8311 2.67285 25.8311 2.67285Z" fill="url(#paint15_linear_1210_52104)"/>
<path id="Vector_17" d="M10.4111 9.86765V25.5987C22.0799 27.4094 25.8307 32.7934 25.8307 32.7934V2.67285C25.8307 2.67285 22.0799 8.05682 10.4111 9.86765Z" fill="url(#paint16_linear_1210_52104)"/>
<path id="Vector_18" d="M4.3532 15.2612C4.19655 16.0468 4.11133 16.8755 4.11133 17.7329C4.11133 20.2459 4.77606 22.037 5.31156 23.0723C5.69132 23.8064 6.43495 24.4232 7.4106 24.8102C8.29415 25.1606 9.2556 25.4219 10.2762 25.577C12.2616 25.8786 14.0203 26.2842 15.5712 26.749C23.2187 29.0424 25.8311 32.7929 25.8311 32.7929V15.2612H4.3532Z" fill="url(#paint17_linear_1210_52104)"/>
</g>
<g id="Group_8">
<path id="Vector_19" d="M28.302 34.5895C32.8298 34.5895 36.5004 27.0427 36.5004 17.7332C36.5004 8.42377 32.8298 0.876953 28.302 0.876953C23.7741 0.876953 20.1035 8.42377 20.1035 17.7332C20.1035 27.0427 23.7741 34.5895 28.302 34.5895Z" fill="url(#paint18_linear_1210_52104)"/>
<path id="Vector_20" d="M28.3022 0.876953C26.6712 0.876953 25.1515 1.85634 23.8745 3.54433V31.9222C25.1515 33.6102 26.6712 34.5895 28.3022 34.5895C32.8301 34.5895 36.5006 27.0427 36.5006 17.7332C36.5006 8.4238 32.83 0.876953 28.3022 0.876953Z" fill="url(#paint19_linear_1210_52104)"/>
<path id="Vector_21" d="M28.9117 31.5357C32.2824 31.5357 35.0148 25.3562 35.0148 17.7334C35.0148 10.1106 32.2824 3.93115 28.9117 3.93115C25.5411 3.93115 22.8086 10.1106 22.8086 17.7334C22.8086 25.3562 25.5411 31.5357 28.9117 31.5357Z" fill="url(#paint20_linear_1210_52104)"/>
<path id="Vector_22" d="M28.9117 31.5357C32.2824 31.5357 35.0148 25.3562 35.0148 17.7334C35.0148 10.1106 32.2824 3.93115 28.9117 3.93115C25.5411 3.93115 22.8086 10.1106 22.8086 17.7334C22.8086 25.3562 25.5411 31.5357 28.9117 31.5357Z" fill="url(#paint21_linear_1210_52104)"/>
<path id="Vector_23" d="M20.1172 18.7021C20.3614 27.5608 23.9322 34.5898 28.3018 34.5898C32.6715 34.5898 36.2423 27.5608 36.4865 18.7021H20.1172Z" fill="url(#paint22_linear_1210_52104)"/>
</g>
</g>
<path id="Vector_24" d="M35.0119 18.1435L32.8401 15.9717L23.0913 21.8935V21.8964C23.8721 27.4844 26.1825 31.5356 28.9116 31.5356C32.2217 31.5356 34.916 25.5765 35.0119 18.1435Z" fill="url(#paint23_linear_1210_52104)"/>
<g id="Group_9">
<path id="Vector_25" d="M33.5488 17.7334C33.5488 18.5313 33.1963 19.1002 32.9127 19.4286C32.7108 19.6617 32.3166 19.858 31.7991 19.9805C31.3305 20.0919 30.8209 20.1752 30.2794 20.2241C29.2259 20.3202 28.2934 20.4484 27.4707 20.5966C25.3301 20.9812 23.933 21.4939 23.091 21.8936C23.091 21.8936 22.6113 20.7261 22.6113 17.7334C22.6113 14.7407 23.091 13.5732 23.091 13.5732C23.933 13.973 25.3301 14.4857 27.4707 14.8702C28.2934 15.0184 29.2259 15.1466 30.2794 15.2427C30.9611 15.3044 31.5924 15.4198 32.1548 15.5784C32.4255 15.6545 32.6354 15.7619 32.7604 15.8876C32.7869 15.9157 32.8141 15.9438 32.8398 15.9717C33.2844 16.4572 33.5488 17.0693 33.5488 17.7334Z" fill="url(#paint24_linear_1210_52104)"/>
<path id="Vector_26" d="M33.5488 17.7334C33.5488 18.5313 33.1963 19.1002 32.9127 19.4286C32.7108 19.6617 32.3166 19.858 31.7991 19.9805C31.3305 20.0919 30.8209 20.1752 30.2794 20.2241C29.2259 20.3202 28.2934 20.4484 27.4707 20.5966C25.3301 20.9812 23.933 21.4939 23.091 21.8936C23.091 21.8936 22.6113 20.7261 22.6113 17.7334C22.6113 14.7407 23.091 13.5732 23.091 13.5732C23.933 13.973 25.3301 14.4857 27.4707 14.8702C28.2934 15.0184 29.2259 15.1466 30.2794 15.2427C30.9611 15.3044 31.5924 15.4198 32.1548 15.5784C32.4255 15.6545 32.6354 15.7619 32.7604 15.8876C32.7869 15.9157 32.8141 15.9438 32.8398 15.9717C33.2844 16.4572 33.5488 17.0693 33.5488 17.7334Z" fill="url(#paint25_linear_1210_52104)"/>
<path id="Vector_27" d="M33.5488 17.7334C33.5488 18.5313 33.1963 19.1002 32.9127 19.4286C32.7108 19.6617 32.3166 19.858 31.7991 19.9805C31.3305 20.0919 30.8209 20.1752 30.2794 20.2241C29.2259 20.3202 28.2934 20.4484 27.4707 20.5966C25.3301 20.9812 23.933 21.4939 23.091 21.8936C23.091 21.8936 22.6113 20.7261 22.6113 17.7334C22.6113 14.7407 23.091 13.5732 23.091 13.5732C23.933 13.973 25.3301 14.4857 27.4707 14.8702C28.2934 15.0184 29.2259 15.1466 30.2794 15.2427C30.9611 15.3044 31.5924 15.4198 32.1548 15.5784C32.4255 15.6545 32.6354 15.7619 32.7604 15.8876C32.7869 15.9157 32.8141 15.9438 32.8398 15.9717C33.2844 16.4572 33.5488 17.0693 33.5488 17.7334Z" fill="url(#paint26_linear_1210_52104)"/>
<path id="Vector_28" d="M31.0972 15.8882C31.07 15.9156 31.0435 15.9435 31.0175 15.9719C30.5733 16.4576 30.3081 17.0691 30.3081 17.7335C30.3081 18.5315 30.6607 19.1003 30.9447 19.429C31.1288 19.642 31.4754 19.8233 31.9286 19.9468C32.3818 19.8233 32.7284 19.6421 32.9125 19.429C33.1965 19.1003 33.5491 18.5315 33.5491 17.7335C33.5491 17.0691 33.2839 16.4575 32.8397 15.9719C32.8137 15.9435 32.7872 15.9156 32.76 15.8882C32.6358 15.7624 32.4257 15.6543 32.1547 15.5782C32.0805 15.5574 32.0051 15.5374 31.9286 15.5181C31.8521 15.5374 31.7767 15.5574 31.7025 15.5782C31.4315 15.6543 31.2214 15.7624 31.0972 15.8882Z" fill="url(#paint27_linear_1210_52104)"/>
</g>
</g>
</g>
</g>
<defs>
<linearGradient id="paint0_linear_1210_52104" x1="8.52046" y1="29.1492" x2="10.7378" y2="29.1492" gradientUnits="userSpaceOnUse">
<stop stop-color="#5A5A5A"/>
<stop offset="1" stop-color="#444444"/>
</linearGradient>
<linearGradient id="paint1_linear_1210_52104" x1="10.2997" y1="29.1572" x2="11.2515" y2="26.5302" gradientUnits="userSpaceOnUse">
<stop stop-color="#433F43" stop-opacity="0"/>
<stop offset="1" stop-color="#1A1A1A"/>
</linearGradient>
<linearGradient id="paint2_linear_1210_52104" x1="5.36924" y1="29.954" x2="12.4952" y2="34.7047" gradientUnits="userSpaceOnUse">
<stop stop-color="#433F43" stop-opacity="0"/>
<stop offset="1" stop-color="#1A1A1A"/>
</linearGradient>
<linearGradient id="paint3_linear_1210_52104" x1="10.5841" y1="29.1555" x2="12.8274" y2="29.182" gradientUnits="userSpaceOnUse">
<stop stop-color="#433F43" stop-opacity="0"/>
<stop offset="1" stop-color="#1A1A1A"/>
</linearGradient>
<linearGradient id="paint4_linear_1210_52104" x1="5.06764" y1="13.9685" x2="5.06764" y2="21.7297" gradientUnits="userSpaceOnUse">
<stop stop-color="#5A5A5A"/>
<stop offset="1" stop-color="#444444"/>
</linearGradient>
<linearGradient id="paint5_linear_1210_52104" x1="3.12305" y1="14.3436" x2="3.12305" y2="13.8058" gradientUnits="userSpaceOnUse">
<stop stop-color="#5A5A5A"/>
<stop offset="1" stop-color="#444444"/>
</linearGradient>
<linearGradient id="paint6_linear_1210_52104" x1="2.80071" y1="15.8187" x2="2.80071" y2="15.2809" gradientUnits="userSpaceOnUse">
<stop stop-color="#5A5A5A"/>
<stop offset="1" stop-color="#444444"/>
</linearGradient>
<linearGradient id="paint7_linear_1210_52104" x1="2.59905" y1="17.2933" x2="2.59905" y2="16.7555" gradientUnits="userSpaceOnUse">
<stop stop-color="#5A5A5A"/>
<stop offset="1" stop-color="#444444"/>
</linearGradient>
<linearGradient id="paint8_linear_1210_52104" x1="2.59905" y1="18.7683" x2="2.59905" y2="18.2305" gradientUnits="userSpaceOnUse">
<stop stop-color="#5A5A5A"/>
<stop offset="1" stop-color="#444444"/>
</linearGradient>
<linearGradient id="paint9_linear_1210_52104" x1="2.80071" y1="20.2429" x2="2.80071" y2="19.7052" gradientUnits="userSpaceOnUse">
<stop stop-color="#5A5A5A"/>
<stop offset="1" stop-color="#444444"/>
</linearGradient>
<linearGradient id="paint10_linear_1210_52104" x1="3.12305" y1="21.7181" x2="3.12305" y2="21.1803" gradientUnits="userSpaceOnUse">
<stop stop-color="#5A5A5A"/>
<stop offset="1" stop-color="#444444"/>
</linearGradient>
<linearGradient id="paint11_linear_1210_52104" x1="-1.80248" y1="9.34526" x2="5.7843" y2="16.6159" gradientUnits="userSpaceOnUse">
<stop stop-color="#5A5A5A"/>
<stop offset="1" stop-color="#444444"/>
</linearGradient>
<linearGradient id="paint12_linear_1210_52104" x1="2.53924" y1="16.5157" x2="7.22353" y2="17.8089" gradientUnits="userSpaceOnUse">
<stop stop-color="#433F43" stop-opacity="0"/>
<stop offset="1" stop-color="#1A1A1A"/>
</linearGradient>
<linearGradient id="paint13_linear_1210_52104" x1="6.95051" y1="18.5955" x2="6.95051" y2="22.9349" gradientUnits="userSpaceOnUse">
<stop stop-color="#433F43" stop-opacity="0"/>
<stop offset="1" stop-color="#1A1A1A"/>
</linearGradient>
<linearGradient id="paint14_linear_1210_52104" x1="4.93152" y1="19.3138" x2="4.93152" y2="22.9093" gradientUnits="userSpaceOnUse">
<stop stop-color="#433F43" stop-opacity="0"/>
<stop offset="1" stop-color="#1A1A1A"/>
</linearGradient>
<linearGradient id="paint15_linear_1210_52104" x1="16.0233" y1="13.2482" x2="15.4237" y2="19.9299" gradientUnits="userSpaceOnUse">
<stop stop-color="#FEF0AE"/>
<stop offset="1" stop-color="#FBC56D"/>
</linearGradient>
<linearGradient id="paint16_linear_1210_52104" x1="14.573" y1="16.3723" x2="22.3684" y2="17.3147" gradientUnits="userSpaceOnUse">
<stop stop-color="#DC8758" stop-opacity="0"/>
<stop offset="0.2153" stop-color="#DD8654" stop-opacity="0.215"/>
<stop offset="0.4291" stop-color="#E28448" stop-opacity="0.429"/>
<stop offset="0.6424" stop-color="#EA8034" stop-opacity="0.642"/>
<stop offset="0.8543" stop-color="#F47B18" stop-opacity="0.854"/>
<stop offset="1" stop-color="#FE7701"/>
</linearGradient>
<linearGradient id="paint17_linear_1210_52104" x1="16.2187" y1="19.9308" x2="14.3341" y2="26.7838" gradientUnits="userSpaceOnUse">
<stop stop-color="#DC8758" stop-opacity="0"/>
<stop offset="0.2153" stop-color="#DD8654" stop-opacity="0.215"/>
<stop offset="0.4291" stop-color="#E28448" stop-opacity="0.429"/>
<stop offset="0.6424" stop-color="#EA8034" stop-opacity="0.642"/>
<stop offset="0.8543" stop-color="#F47B18" stop-opacity="0.854"/>
<stop offset="1" stop-color="#FE7701"/>
</linearGradient>
<linearGradient id="paint18_linear_1210_52104" x1="19.0066" y1="17.7332" x2="29.4614" y2="17.7332" gradientUnits="userSpaceOnUse">
<stop stop-color="#FEF0AE"/>
<stop offset="1" stop-color="#FBC56D"/>
</linearGradient>
<linearGradient id="paint19_linear_1210_52104" x1="26.118" y1="17.7333" x2="36.732" y2="17.7333" gradientUnits="userSpaceOnUse">
<stop stop-color="#DC8758" stop-opacity="0"/>
<stop offset="0.2153" stop-color="#DD8654" stop-opacity="0.215"/>
<stop offset="0.4291" stop-color="#E28448" stop-opacity="0.429"/>
<stop offset="0.6424" stop-color="#EA8034" stop-opacity="0.642"/>
<stop offset="0.8543" stop-color="#F47B18" stop-opacity="0.854"/>
<stop offset="1" stop-color="#FE7701"/>
</linearGradient>
<linearGradient id="paint20_linear_1210_52104" x1="14.4674" y1="14.5281" x2="37.4591" y2="19.6302" gradientUnits="userSpaceOnUse">
<stop stop-color="#DC8758" stop-opacity="0"/>
<stop offset="0.2153" stop-color="#DD8654" stop-opacity="0.215"/>
<stop offset="0.4291" stop-color="#E28448" stop-opacity="0.429"/>
<stop offset="0.6424" stop-color="#EA8034" stop-opacity="0.642"/>
<stop offset="0.8543" stop-color="#F47B18" stop-opacity="0.854"/>
<stop offset="1" stop-color="#FE7701"/>
</linearGradient>
<linearGradient id="paint21_linear_1210_52104" x1="33.9589" y1="17.7334" x2="22.137" y2="17.7334" gradientUnits="userSpaceOnUse">
<stop stop-color="#DC8758" stop-opacity="0"/>
<stop offset="0.2153" stop-color="#DD8654" stop-opacity="0.215"/>
<stop offset="0.4291" stop-color="#E28448" stop-opacity="0.429"/>
<stop offset="0.6424" stop-color="#EA8034" stop-opacity="0.642"/>
<stop offset="0.8543" stop-color="#F47B18" stop-opacity="0.854"/>
<stop offset="1" stop-color="#FE7701"/>
</linearGradient>
<linearGradient id="paint22_linear_1210_52104" x1="29.7992" y1="24.7951" x2="34.9336" y2="31.7702" gradientUnits="userSpaceOnUse">
<stop stop-color="#DC8758" stop-opacity="0"/>
<stop offset="0.2153" stop-color="#DD8654" stop-opacity="0.215"/>
<stop offset="0.4291" stop-color="#E28448" stop-opacity="0.429"/>
<stop offset="0.6424" stop-color="#EA8034" stop-opacity="0.642"/>
<stop offset="0.8543" stop-color="#F47B18" stop-opacity="0.854"/>
<stop offset="1" stop-color="#FE7701"/>
</linearGradient>
<linearGradient id="paint23_linear_1210_52104" x1="30.6783" y1="24.7662" x2="28.5082" y2="19.931" gradientUnits="userSpaceOnUse">
<stop stop-color="#DC8758" stop-opacity="0"/>
<stop offset="0.2153" stop-color="#DD8654" stop-opacity="0.215"/>
<stop offset="0.4291" stop-color="#E28448" stop-opacity="0.429"/>
<stop offset="0.6424" stop-color="#EA8034" stop-opacity="0.642"/>
<stop offset="0.8543" stop-color="#F47B18" stop-opacity="0.854"/>
<stop offset="1" stop-color="#FE7701"/>
</linearGradient>
<linearGradient id="paint24_linear_1210_52104" x1="28.08" y1="16.1113" x2="28.08" y2="19.4954" gradientUnits="userSpaceOnUse">
<stop stop-color="#EAF9FA"/>
<stop offset="1" stop-color="#B3DAFE"/>
</linearGradient>
<linearGradient id="paint25_linear_1210_52104" x1="26.8993" y1="17.2487" x2="22.1878" y2="17.8484" gradientUnits="userSpaceOnUse">
<stop stop-color="#7BACDF" stop-opacity="0"/>
<stop offset="1" stop-color="#7BACDF"/>
</linearGradient>
<linearGradient id="paint26_linear_1210_52104" x1="27.9855" y1="18.0341" x2="28.4043" y2="20.3566" gradientUnits="userSpaceOnUse">
<stop stop-color="#7BACDF" stop-opacity="0"/>
<stop offset="1" stop-color="#7BACDF"/>
</linearGradient>
<linearGradient id="paint27_linear_1210_52104" x1="27.4769" y1="13.5239" x2="34.3014" y2="19.9773" gradientUnits="userSpaceOnUse">
<stop stop-color="#7BACDF" stop-opacity="0"/>
<stop offset="1" stop-color="#7BACDF"/>
</linearGradient>
<clipPath id="clip0_1210_52104">
<rect width="36" height="36" fill="white" transform="translate(0.5)"/>
</clipPath>
</defs>
</svg>
