<svg width="25" height="24" viewBox="0 0 25 24" fill="none" xmlns="http://www.w3.org/2000/svg">
<g id="Component 4">
<g id="elements">
<path id="Rectangle 2172" d="M4.25 10C4.25 6.22876 4.25 4.34315 5.4948 3.17157C6.73959 2 8.74306 2 12.75 2H13.5227C16.7839 2 18.4145 2 19.5469 2.79784C19.8714 3.02643 20.1594 3.29752 20.4023 3.60289C21.25 4.66867 21.25 6.20336 21.25 9.27273V11.8182C21.25 14.7814 21.25 16.2629 20.7811 17.4462C20.0272 19.3486 18.4329 20.8491 16.4116 21.5586C15.1544 22 13.5802 22 10.4318 22C8.63275 22 7.73322 22 7.01478 21.7478C5.85979 21.3424 4.94875 20.4849 4.51796 19.3979C4.25 18.7217 4.25 17.8751 4.25 16.1818V10Z" stroke="#667085" stroke-width="1.5" stroke-linejoin="round"/>
<path id="Vector" d="M21.25 12C21.25 13.8409 19.7576 15.3333 17.9167 15.3333C17.2509 15.3333 16.466 15.2167 15.8186 15.3901C15.2435 15.5442 14.7942 15.9935 14.6401 16.5686C14.4667 17.216 14.5833 18.0009 14.5833 18.6667C14.5833 20.5076 13.0909 22 11.25 22" stroke="#667085" stroke-width="1.5" stroke-linecap="round" stroke-linejoin="round"/>
<path id="Vector 4381" d="M8.75 7H15.75" stroke="#667085" stroke-width="1.5" stroke-linecap="round" stroke-linejoin="round"/>
<path id="Vector 4382" d="M8.75 11H11.75" stroke="#667085" stroke-width="1.5" stroke-linecap="round" stroke-linejoin="round"/>
</g>
</g>
</svg>
