<svg width="25" height="24" viewBox="0 0 25 24" fill="none" xmlns="http://www.w3.org/2000/svg">
<g id="Component 4">
<g id="elements">
<path id="Vector" d="M22.75 10V9.21749C22.75 7.27787 22.75 6.30807 22.1642 5.7055C21.5784 5.10294 20.6356 5.10294 18.75 5.10294H16.6714C15.754 5.10294 15.7464 5.10116 14.9215 4.68834L11.5899 3.02114C10.1988 2.32504 9.50332 1.97699 8.76238 2.00118C8.02143 2.02537 7.34877 2.41808 6.00345 3.20351L4.77558 3.92037C3.78739 4.49729 3.29329 4.78576 3.02164 5.26564C2.75 5.74553 2.75 6.32993 2.75 7.49873V15.7157C2.75 17.2514 2.75 18.0193 3.09226 18.4467C3.32001 18.731 3.63916 18.9222 3.992 18.9856C4.52226 19.0808 5.17148 18.7018 6.46987 17.9437C7.35156 17.429 8.20011 16.8944 9.25487 17.0394C10.1387 17.1608 10.96 17.7185 11.75 18.1138" stroke="#667085" stroke-width="1.5" stroke-linecap="round" stroke-linejoin="round"/>
<path id="Vector 4644" d="M8.75 2L8.75 17" stroke="#667085" stroke-width="1.5" stroke-linejoin="round"/>
<path id="Vector 4645" d="M15.75 5V9.5" stroke="#667085" stroke-width="1.5" stroke-linecap="round" stroke-linejoin="round"/>
<path id="Vector_2" d="M19.0583 21.6835C18.8415 21.8865 18.5517 22 18.2501 22C17.9485 22 17.6587 21.8865 17.4419 21.6835C15.4563 19.813 12.7955 17.7235 14.0931 14.6898C14.7947 13.0496 16.4789 12 18.2501 12C20.0213 12 21.7055 13.0496 22.4071 14.6898C23.7031 17.7196 21.0488 19.8194 19.0583 21.6835Z" stroke="#667085" stroke-width="1.5"/>
<path id="Vector_3" d="M18.25 16.5H18.259" stroke="#667085" stroke-width="2" stroke-linecap="round" stroke-linejoin="round"/>
</g>
</g>
</svg>
