<svg width="22" height="22" viewBox="0 0 22 22" fill="none" xmlns="http://www.w3.org/2000/svg">
<g id="elements">
<path id="Vector (Stroke)" fill-rule="evenodd" clip-rule="evenodd" d="M11 1.75C5.86033 1.75 1.75 5.72875 1.75 10.5667C1.75 12.8958 2.69695 15.0165 4.25326 16.5969L4.25329 16.5969C4.72751 17.0785 5.13604 17.8292 4.97477 18.6838L4.97453 18.6851C4.87064 19.2306 4.69385 19.7566 4.45049 20.2484C5.34434 20.2273 6.2293 19.9962 7.02284 19.5742L7.03815 19.5661C7.2522 19.4522 7.43513 19.3549 7.58422 19.2841C7.72841 19.2156 7.9084 19.138 8.10329 19.1082C8.29305 19.0792 8.47741 19.0964 8.63085 19.1175C8.78416 19.1385 8.97171 19.1737 9.18626 19.214L9.20385 19.2173C9.79583 19.3285 10.3966 19.3842 10.999 19.3834H11C16.1397 19.3834 20.25 15.4047 20.25 10.5667C20.25 5.72875 16.1397 1.75 11 1.75ZM0.25 10.5667C0.25 4.83838 5.09523 0.25 11 0.25C16.9048 0.25 21.75 4.83838 21.75 10.5667C21.75 16.295 16.9048 20.8834 11 20.8834V20.1334L11.001 20.8834C11.0006 20.8834 11.0003 20.8834 11 20.8834C10.3041 20.8843 9.61035 20.8199 8.92698 20.6916C8.68979 20.647 8.53909 20.6189 8.42696 20.6036C8.3784 20.5969 8.34829 20.5944 8.33186 20.5934C8.34185 20.5896 8.34629 20.5882 8.34625 20.588C8.3462 20.5879 8.34016 20.5894 8.32976 20.591C8.32101 20.5923 8.31578 20.5926 8.31579 20.5927C8.31579 20.5928 8.32064 20.5927 8.33186 20.5934C8.31489 20.5999 8.28193 20.6133 8.22775 20.6391C8.11322 20.6935 7.96068 20.7744 7.72714 20.8986C6.29542 21.66 4.62504 21.93 3.01396 21.6303C2.75381 21.5819 2.5384 21.4 2.44713 21.1517C2.35586 20.9033 2.40224 20.6252 2.56917 20.4199C3.03697 19.8445 3.35863 19.1513 3.50088 18.4052C3.50085 18.4054 3.50082 18.4055 3.50078 18.4057L4.23778 18.5448L3.50102 18.4044C3.50098 18.4047 3.50093 18.4049 3.50088 18.4052C3.53937 18.2 3.45227 17.9213 3.18451 17.6494L3.71889 17.1231L3.18449 17.6493C3.1845 17.6493 3.18451 17.6494 3.18451 17.6494C1.36972 15.8065 0.25 13.3144 0.25 10.5667Z" fill="white"/>
<path id="Vector (Stroke)_2" fill-rule="evenodd" clip-rule="evenodd" d="M6 11C6 10.4477 6.44772 10 7 10H7.00897C7.56126 10 8.00897 10.4477 8.00897 11C8.00897 11.5523 7.56126 12 7.00897 12H7C6.44772 12 6 11.5523 6 11ZM9.99551 11C9.99551 10.4477 10.4432 10 10.9955 10H11.0045C11.5568 10 12.0045 10.4477 12.0045 11C12.0045 11.5523 11.5568 12 11.0045 12H10.9955C10.4432 12 9.99551 11.5523 9.99551 11ZM13.991 11C13.991 10.4477 14.4387 10 14.991 10H15C15.5523 10 16 10.4477 16 11C16 11.5523 15.5523 12 15 12H14.991C14.4387 12 13.991 11.5523 13.991 11Z" fill="white"/>
</g>
</svg>
