<svg width="22" height="22" viewBox="0 0 22 22" fill="none" xmlns="http://www.w3.org/2000/svg">
<g id="elements">
<path id="Union" fill-rule="evenodd" clip-rule="evenodd" d="M10.0002 1.75C7.92911 1.75 6.25018 3.42893 6.25018 5.5C6.25018 7.57107 7.92911 9.25 10.0002 9.25C12.0712 9.25 13.7502 7.57107 13.7502 5.5C13.7502 3.42893 12.0712 1.75 10.0002 1.75ZM4.75018 5.5C4.75018 2.6005 7.10068 0.25 10.0002 0.25C12.8997 0.25 15.2502 2.6005 15.2502 5.5C15.2502 8.39949 12.8997 10.75 10.0002 10.75C7.10068 10.75 4.75018 8.39949 4.75018 5.5ZM11.8604 13.9247C9.52119 13.4809 7.04867 13.8832 4.96146 15.126C4.79364 15.2259 4.60976 15.3302 4.41715 15.4395C3.70454 15.8438 2.87223 16.316 2.29214 16.8838C1.93202 17.2363 1.77851 17.5271 1.75395 17.7517C1.73445 17.9301 1.77954 18.2242 2.23017 18.6535C3.26602 19.6404 4.3186 20.25 5.59104 20.25H11.5002C11.9144 20.25 12.2502 20.5858 12.2502 21C12.2502 21.4142 11.9144 21.75 11.5002 21.75H5.59104C3.77274 21.75 2.36695 20.8556 1.1955 19.7396C0.516485 19.0927 0.178022 18.3646 0.262828 17.5888C0.342574 16.8592 0.781228 16.2637 1.2429 15.8118C1.98106 15.0893 3.05857 14.4814 3.77139 14.0793C3.93405 13.9875 4.07773 13.9064 4.19404 13.8372C6.60569 12.4012 9.45218 11.941 12.14 12.451C12.5469 12.5282 12.8142 12.9207 12.737 13.3276C12.6598 13.7346 12.2673 14.0019 11.8604 13.9247ZM16.9749 13.9117C16.9826 13.8963 16.9901 13.882 16.9975 13.8687C17.0044 13.8814 17.0114 13.8949 17.0186 13.9095L17.7222 15.3282C17.8368 15.5624 18.0172 15.7452 18.1865 15.8711C18.3567 15.9978 18.5834 16.1173 18.8388 16.1602L20.1147 16.3739C20.134 16.3772 20.1521 16.3808 20.1684 16.3844C20.1565 16.3978 20.1432 16.4121 20.1282 16.427L19.1345 17.4289C18.9387 17.6263 18.8213 17.8738 18.759 18.093C18.6967 18.3127 18.6675 18.5824 18.7269 18.8497L18.728 18.8547L19.0119 20.0921C19.017 20.1144 19.0215 20.1362 19.0253 20.1563C19.0093 20.1475 18.9926 20.138 18.9753 20.1277L17.7799 19.4142C17.5276 19.2636 17.2426 19.2113 17.0008 19.2113C16.7582 19.2113 16.4753 19.2637 16.2239 19.4112L16.219 19.4141L15.0231 20.1278C15.0061 20.138 14.989 20.1479 14.9733 20.1565C14.977 20.1364 14.9815 20.1151 14.9866 20.0928L15.2706 18.8547L15.2717 18.8497C15.3311 18.5824 15.302 18.3127 15.2396 18.093C15.1773 17.8738 15.0599 17.6263 14.8641 17.4289L13.8722 16.4289C13.8567 16.4132 13.8429 16.3983 13.8306 16.3844C13.8468 16.3807 13.8644 16.3772 13.8836 16.374L15.1594 16.1603L15.1621 16.1598C15.4163 16.1163 15.6417 15.9959 15.8101 15.87C15.9778 15.7446 16.1579 15.5622 16.2724 15.3282L16.9749 13.9117ZM16.9988 12.25C17.6706 12.25 18.1206 12.7533 18.3634 13.245L19.0594 14.6484L19.0652 14.654C19.07 14.6583 19.0756 14.663 19.0818 14.6676C19.088 14.6722 19.0942 14.6763 19.0999 14.6798L19.1081 14.6844L20.3629 14.8946C20.9031 14.9854 21.4912 15.275 21.6899 15.8985C21.8884 16.521 21.5782 17.0974 21.1905 17.486L21.1896 17.487L20.2138 18.4708C20.2104 18.4778 20.206 18.4888 20.202 18.5027C20.1976 18.5181 20.1956 18.5314 20.1948 18.5401L20.474 19.7573C20.6001 20.3087 20.6122 21.0753 20.0177 21.5123C19.4201 21.9516 18.6926 21.7052 18.2074 21.4162L17.0301 20.7135L17.0226 20.7125C17.0161 20.7117 17.0087 20.7113 17.0008 20.7113C16.9929 20.7113 16.9853 20.7117 16.9785 20.7125C16.9741 20.713 16.9704 20.7136 16.9675 20.7142L15.7926 21.4154C15.3057 21.7067 14.579 21.9496 13.9821 21.5106C13.389 21.0742 13.3976 20.3107 13.5246 19.7573L13.8038 18.5401C13.8031 18.5314 13.801 18.5181 13.7966 18.5027C13.7926 18.4888 13.7882 18.4778 13.7848 18.4708L12.8072 17.4851C12.422 17.0967 12.113 16.5211 12.3097 15.8998C12.5074 15.2757 13.0944 14.9856 13.6354 14.8947L14.8866 14.6851L14.8937 14.681C14.897 14.6789 14.9006 14.6767 14.9042 14.6742C14.9068 14.6724 14.9093 14.6706 14.9119 14.6687C14.9182 14.6639 14.9239 14.6592 14.9288 14.6547L14.9351 14.6487L15.6315 13.2445L15.6322 13.2431C15.8768 12.7522 16.328 12.25 16.9988 12.25Z" fill="white"/>
</g>
</svg>
