<svg width="20" height="20" viewBox="0 0 20 20" fill="none" xmlns="http://www.w3.org/2000/svg">
<g id="elements">
<path id="Vector (Stroke)" fill-rule="evenodd" clip-rule="evenodd" d="M1 10.75C0.585787 10.75 0.25 10.4142 0.25 10C0.25 5.76306 3.38032 2.75 7.5 2.75H17.4626C17.396 2.6899 17.3277 2.62949 17.2583 2.56927C16.9589 2.30932 16.6573 2.06724 16.4292 1.88924C16.3156 1.80055 16.2211 1.72848 16.1554 1.67887C16.1226 1.65409 16.097 1.63495 16.0799 1.6222L16.0608 1.60797L16.0562 1.60463L16.0553 1.60393C16.4027 1.13225 16.5974 0.867787 16.9448 0.396099C16.6112 0.150469 16.1417 0.22172 15.8961 0.555243C15.6505 0.888744 15.7218 1.35829 16.0553 1.60393M16.0553 1.60393L16.5 1.00002L16.9448 0.396099L16.9456 0.396734L16.9536 0.402627L16.9762 0.41947C16.9958 0.434012 17.0239 0.455078 17.0594 0.481922C17.1305 0.535583 17.2313 0.612499 17.352 0.706712C17.5927 0.894519 17.9161 1.15391 18.2417 1.43661C18.5636 1.71607 18.9048 2.03306 19.1714 2.33482C19.304 2.48484 19.434 2.64878 19.5349 2.8162C19.6234 2.96302 19.75 3.20876 19.75 3.49998C19.75 3.7912 19.6234 4.03694 19.5349 4.18376C19.434 4.35117 19.304 4.51511 19.1714 4.66514C18.9048 4.9669 18.5636 5.28389 18.2417 5.56336C17.9161 5.84606 17.5927 6.10546 17.3521 6.29327C17.2313 6.38749 17.1305 6.4644 17.0595 6.51806C17.0239 6.54491 16.9958 6.56598 16.9763 6.58052L16.9536 6.59736L16.9474 6.60195L16.9456 6.60325C16.9456 6.60325 16.9448 6.60389 16.5 6L16.7224 6.30194L16.9448 6.60389C16.6113 6.84953 16.1418 6.77828 15.8961 6.44476C15.6505 6.11127 15.7217 5.64181 16.0552 5.39616L16.0608 5.39203L16.0799 5.3778C16.097 5.36505 16.1226 5.34592 16.1554 5.32113C16.2211 5.27152 16.3156 5.19945 16.4292 5.11076C16.6573 4.93275 16.9589 4.69067 17.2583 4.43072C17.3276 4.3705 17.396 4.3101 17.4626 4.25H7.5C4.19313 4.25 1.75 6.60701 1.75 10C1.75 10.4142 1.41421 10.75 1 10.75" fill="white"/>
<path id="Vector (Stroke)_2" fill-rule="evenodd" clip-rule="evenodd" d="M19 9.25C19.4142 9.25 19.75 9.58579 19.75 10C19.75 14.2369 16.6197 17.25 12.5 17.25H2.53741C2.604 17.3101 2.67234 17.3705 2.7417 17.4307C3.0411 17.6907 3.3427 17.9328 3.57079 18.1108C3.68444 18.1995 3.77893 18.2715 3.8446 18.3211C3.87742 18.3459 3.90299 18.365 3.9201 18.3778L3.93924 18.392L3.94376 18.3954L3.9447 18.3961C3.59735 18.8678 3.4026 19.1322 3.05525 19.6039C3.38877 19.8495 3.85827 19.7783 4.1039 19.4448C4.34951 19.1113 4.27817 18.6417 3.9447 18.3961M3.9447 18.3961L3.49998 19L3.05525 19.6039L3.05438 19.6033L3.04642 19.5974L3.02375 19.5805C3.00424 19.566 2.97609 19.5449 2.94055 19.5181C2.86951 19.4644 2.76868 19.3875 2.64796 19.2933C2.4073 19.1055 2.0839 18.8461 1.75829 18.5634C1.43642 18.2839 1.09522 17.9669 0.828588 17.6652C0.696031 17.5152 0.566032 17.3512 0.465108 17.1838C0.376595 17.037 0.249998 16.7912 0.25 16.5C0.250002 16.2088 0.376597 15.9631 0.46511 15.8162C0.566032 15.6488 0.696029 15.4849 0.828585 15.3349C1.09521 15.0331 1.43641 14.7161 1.75828 14.4366C2.08388 14.1539 2.40728 13.8945 2.64793 13.7067C2.76866 13.6125 2.86948 13.5356 2.94052 13.4819C2.97607 13.4551 3.00421 13.434 3.02372 13.4195L3.04639 13.4026L3.05259 13.3981L3.05435 13.3967C3.05435 13.3967 3.05522 13.3961 3.49998 14L3.2776 13.6981L3.05522 13.3961C3.38874 13.1505 3.85824 13.2217 4.10387 13.5552C4.34949 13.8887 4.27827 14.3582 3.94482 14.6038L3.93923 14.608L3.92009 14.6222C3.90298 14.6349 3.87741 14.6541 3.84459 14.6789C3.77892 14.7285 3.68444 14.8006 3.57079 14.8892C3.34269 15.0673 3.0411 15.3093 2.7417 15.5693C2.67235 15.6295 2.60401 15.6899 2.53743 15.75H12.5C15.8069 15.75 18.25 13.393 18.25 10C18.25 9.58579 18.5858 9.25 19 9.25" fill="white"/>
</g>
</svg>
