<svg width="24" height="24" viewBox="0 0 24 24" fill="none" xmlns="http://www.w3.org/2000/svg">
<g id="Frame 427321117">
<path id="Vector" d="M4.8395 14.8153C4.8395 13.0673 0.260104 13.3707 0.260104 9.99032C0.260104 7.82331 2.15256 7 3.9583 7C4.7239 7 6.83302 7.14441 6.83302 8.27127C6.83302 8.66125 6.573 9.45583 5.93737 9.45583C5.41734 9.45583 5.14278 8.9069 3.9583 8.9069C2.93251 8.9069 2.51363 9.32587 2.51363 9.77374C2.51363 11.2183 7.09303 10.9439 7.09303 14.5843C7.09303 16.6645 5.5762 17.7913 3.48154 17.7913C1.589 17.7913 0 16.8668 0 15.9133C0 15.4221 0.433418 14.6999 0.98235 14.6999C1.66133 14.6999 2.09467 15.7688 3.4381 15.7688C4.10272 15.7687 4.8395 15.5087 4.8395 14.8153Z" fill="white"/>
<path id="Vector_2" d="M8.08984 14.3234V10.4952C8.08984 8.01049 9.63558 7.08594 11.6291 7.08594C13.6226 7.08594 15.1828 8.01049 15.1828 10.4952V14.3234C15.1828 16.8081 13.6226 17.7327 11.6291 17.7327C9.63558 17.7327 8.08984 16.8081 8.08984 14.3234ZM12.9293 10.4952C12.9293 9.49842 12.438 9.05064 11.6291 9.05064C10.8201 9.05064 10.3434 9.49842 10.3434 10.4952V14.3234C10.3434 15.3202 10.8201 15.768 11.6291 15.768C12.438 15.768 12.9293 15.3202 12.9293 14.3234V10.4952Z" fill="white"/>
<path id="Vector_3" d="M20.9606 14.8153C20.9606 13.0673 16.3812 13.3707 16.3812 9.99032C16.3812 7.82331 18.2736 7 20.0794 7C20.845 7 22.9541 7.14441 22.9541 8.27127C22.9541 8.66125 22.6941 9.45583 22.0585 9.45583C21.5384 9.45583 21.2639 8.9069 20.0794 8.9069C19.0536 8.9069 18.6347 9.32587 18.6347 9.77374C18.6347 11.2183 23.2141 10.9439 23.2141 14.5843C23.2141 16.6645 21.6973 17.7913 19.6026 17.7913C17.7101 17.7913 16.1211 16.8668 16.1211 15.9133C16.1211 15.4221 16.5545 14.6999 17.1034 14.6999C17.7824 14.6999 18.2158 15.7688 19.5592 15.7688C20.2238 15.7687 20.9606 15.5087 20.9606 14.8153Z" fill="white"/>
</g>
</svg>
