<svg width="20" height="20" viewBox="0 0 20 20" fill="none" xmlns="http://www.w3.org/2000/svg">
<g id="star-01">
<path id="Solid" d="M10.5379 1.4796C10.1976 1.31735 9.80226 1.31735 9.46197 1.4796C9.16779 1.61986 9.00559 1.86339 8.9238 1.99699C8.83924 2.13511 8.75244 2.31105 8.66783 2.48254L6.87139 6.12194L2.85301 6.70929C2.66385 6.73689 2.46976 6.76522 2.31233 6.80308C2.16003 6.8397 1.87844 6.91891 1.65435 7.15545C1.3951 7.42908 1.27319 7.8051 1.32254 8.17879C1.3652 8.50182 1.54673 8.73119 1.64857 8.85022C1.75383 8.97325 1.89437 9.11008 2.03134 9.24344L4.93784 12.0744L4.25203 16.0729C4.21966 16.2615 4.18645 16.4549 4.17366 16.6164C4.16129 16.7725 4.14934 17.0649 4.30492 17.3514C4.48489 17.6827 4.80478 17.9151 5.17551 17.9838C5.49601 18.0432 5.77041 17.9415 5.91511 17.8814C6.06474 17.8193 6.23842 17.728 6.40772 17.6389L9.99994 15.7498L13.5922 17.6389C13.7615 17.728 13.9352 17.8193 14.0848 17.8814C14.2295 17.9415 14.5039 18.0432 14.8244 17.9838C15.1951 17.9151 15.515 17.6827 15.695 17.3514C15.8505 17.0649 15.8386 16.7725 15.8262 16.6164C15.8134 16.4549 15.7802 16.2615 15.7478 16.073L15.062 12.0744L17.9686 9.24341C18.1055 9.11006 18.2461 8.97324 18.3513 8.85022C18.4531 8.73119 18.6347 8.50182 18.6773 8.17879C18.7267 7.8051 18.6048 7.42908 18.3455 7.15545C18.1214 6.91891 17.8398 6.8397 17.6875 6.80308C17.5301 6.76522 17.336 6.73689 17.1469 6.70928L13.1285 6.12194L11.3321 2.4826C11.2475 2.3111 11.1606 2.13512 11.0761 1.99699C10.9943 1.86339 10.8321 1.61986 10.5379 1.4796Z" fill="#F79009"/>
</g>
</svg>
