<svg width="60" height="60" viewBox="0 0 60 60" fill="none" xmlns="http://www.w3.org/2000/svg">
<g id="fi_9733034">
<path id="Vector" d="M41 53V9C41 7.343 39.657 6 38 6H4C2.343 6 1 7.343 1 9V53C1 54.657 2.343 56 4 56H38C39.657 56 41 54.657 41 53Z" fill="#703D36"/>
<path id="Vector_2" d="M37 52V11C37 10.45 36.55 10 36 10H6C5.45 10 5 10.45 5 11V51C5 51.55 5.45 52 6 52H37Z" fill="white"/>
<path id="Vector_3" d="M28 6V10C28 10.552 27.552 11 27 11H15C14.448 11 14 10.552 14 10V6C14 5.448 14.448 5 15 5H17C17 2.79 18.79 1 21 1C23.21 1 25 2.79 25 5H27C27.552 5 28 5.448 28 6Z" fill="#DCE4EA"/>
<path id="Vector_4" d="M41 59C50.9411 59 59 50.9411 59 41C59 31.0589 50.9411 23 41 23C31.0589 23 23 31.0589 23 41C23 50.9411 31.0589 59 41 59Z" fill="#2AA869"/>
<path id="Vector_5" d="M31.384 45.3394L37.32 49.7724C37.798 50.1294 38.471 50.0594 38.865 49.6114L50.763 36.0704C51.123 35.6614 51.067 35.0354 50.64 34.6964L47.519 32.2094C47.075 31.8554 46.421 31.9624 46.113 32.4384L38.167 44.7474L35.128 40.9654C34.744 40.4874 34.014 40.4874 33.631 40.9654L31.21 43.9784C30.872 44.3994 30.95 45.0154 31.383 45.3384L31.384 45.3394Z" fill="white"/>
<path id="Vector_6" d="M21 6.01598C20.447 6.01598 20 5.58398 20 5.03198V5.00098C20 4.44798 20.447 4.00098 21 4.00098C21.553 4.00098 22 4.44798 22 5.00098C22 5.55398 21.553 6.01698 21 6.01698V6.01598Z" fill="#BCC7CE"/>
<path id="Vector_7" d="M24 21H10C9.447 21 9 20.553 9 20C9 19.447 9.447 19 10 19H24C24.553 19 25 19.447 25 20C25 20.553 24.553 21 24 21Z" fill="#BCC7CE"/>
<path id="Vector_8" d="M30 22.0005C29.735 22.0005 29.481 21.8965 29.293 21.7075L28.293 20.7075C27.902 20.3165 27.902 19.6845 28.293 19.2935C28.684 18.9025 29.316 18.9025 29.707 19.2935L29.892 19.4785L32.201 16.4015C32.532 15.9595 33.159 15.8715 33.6 16.2015C34.042 16.5325 34.132 17.1595 33.8 17.6005L30.8 21.6005C30.626 21.8325 30.361 21.9775 30.071 21.9975C30.047 21.9995 30.023 22.0005 30 22.0005Z" fill="#2AA869"/>
<g id="Group">
<path id="Vector_9" d="M21 32H10C9.447 32 9 31.553 9 31C9 30.447 9.447 30 10 30H21C21.553 30 22 30.447 22 31C22 31.553 21.553 32 21 32Z" fill="#BCC7CE"/>
<path id="Vector_10" d="M18 43H10C9.447 43 9 42.553 9 42C9 41.447 9.447 41 10 41H18C18.553 41 19 41.447 19 42C19 42.553 18.553 43 18 43Z" fill="#BCC7CE"/>
</g>
</g>
</svg>
