<svg width="60" height="60" viewBox="0 0 60 60" fill="none" xmlns="http://www.w3.org/2000/svg">
<g id="fi_4293688" clip-path="url(#clip0_1774_35885)">
<g id="Recovery_2_">
<g id="Group">
<path id="Vector" d="M29.9744 3.51562C38.2914 3.51562 46.0973 7.4973 51.0451 14.0625H45.8634V17.5781H56.0909V7.03125H52.5753V10.433C46.9506 3.92203 38.7265 0 29.9744 0C27.4475 0 24.9344 0.31582 22.5037 0.940664L23.3826 4.34648C25.5215 3.79547 27.7428 3.51562 29.9744 3.51562Z" fill="#66CCFF"/>
<path id="Vector_2" d="M51.0451 14.0625H45.8633V17.5781H56.0909V7.03125H52.5753V10.433C46.9506 3.92203 38.7265 0 29.9744 0V3.51562C38.2914 3.51562 46.0973 7.4973 51.0451 14.0625Z" fill="#59ABFF"/>
<path id="Vector_3" d="M60 30.0002C60 27.4768 59.6842 24.9636 59.0593 22.5312L55.6535 23.4068C56.2063 25.5525 56.4844 27.772 56.4844 30.0002C56.4844 38.3168 52.5025 46.1237 45.9375 51.0699V45.8755H42.4219V56.1082H52.9688V52.5925H49.577C56.0803 46.9687 60 38.7482 60 30.0002Z" fill="#59ABFF"/>
<path id="Vector_4" d="M29.9742 56.4844C21.6587 56.4844 13.8511 52.5029 8.90276 45.9375H14.0921V42.4219H3.84741V52.9688H7.36304V49.5551C12.9877 56.0726 21.2157 60 29.9742 60C32.5012 60 35.0142 59.6842 37.445 59.0593L36.566 55.6535C34.4271 56.2045 32.2058 56.4844 29.9742 56.4844Z" fill="#66CCFF"/>
<g id="Recovery_3_">
<path id="Vector_5" d="M37.4451 59.0591L36.5662 55.6533C34.4273 56.2043 32.206 56.4842 29.9744 56.4842V59.9998C32.5013 59.9998 35.0144 59.684 37.4451 59.0591Z" fill="#59ABFF"/>
</g>
<path id="Vector_6" d="M3.51562 30.0005C3.51562 21.6831 7.49754 13.8748 14.0625 8.9277V14.1183H17.5781V3.87012H7.03125V7.38574H10.449C3.92871 13.01 0 21.2406 0 30.0005C0 32.5239 0.31582 35.0371 0.940664 37.4694L4.34648 36.5939C3.79371 34.4482 3.51562 32.2287 3.51562 30.0005Z" fill="#66CCFF"/>
</g>
<g id="Group_2">
<path id="Vector_7" d="M42.3028 29.0129L46.3815 26.6577L41.1081 17.5219L36.995 19.8994C36.4595 19.5304 35.8998 19.2059 35.3196 18.9278V14.1797H24.7727V18.9279C24.1925 19.206 23.6329 19.5305 23.0973 19.8995L18.9844 17.522L13.7109 26.6578L17.7896 29.013C17.7274 29.667 17.7239 30.2964 17.7896 30.9872L13.7109 33.3423L18.9844 42.4781L23.0974 40.1006C23.633 40.4696 24.1927 40.7941 24.7729 41.0722V45.8203H35.3197V41.0721C35.8999 40.794 36.4596 40.4695 36.9952 40.1005L41.1082 42.478L46.3816 33.3422L42.3029 30.987C42.3652 30.3332 42.3687 29.7037 42.3028 29.0129ZM30.0463 35.2734C27.1384 35.2734 24.7729 32.9079 24.7729 30C24.7729 27.0921 27.1384 24.7266 30.0463 24.7266C32.9542 24.7266 35.3197 27.0921 35.3197 30C35.3197 32.9079 32.9542 35.2734 30.0463 35.2734Z" fill="#465D8C"/>
</g>
<path id="Vector_8" d="M35.3198 41.0721C35.9 40.794 36.4597 40.4695 36.9953 40.1005L41.1083 42.478L46.3817 33.3422L42.303 30.987C42.3653 30.3329 42.3689 29.7035 42.303 29.0128L46.3817 26.6576L41.1083 17.5218L36.9953 19.8993C36.4597 19.5302 35.9 19.2057 35.3198 18.9277V14.1797H30.0464V24.7266C32.9543 24.7266 35.3198 27.0921 35.3198 30C35.3198 32.9079 32.9543 35.2734 30.0464 35.2734V45.8203H35.3198V41.0721Z" fill="#333B66"/>
</g>
</g>
<defs>
<clipPath id="clip0_1774_35885">
<rect width="60" height="60" fill="white"/>
</clipPath>
</defs>
</svg>
