<svg width="16" height="16" viewBox="0 0 16 16" fill="none" xmlns="http://www.w3.org/2000/svg">
<g id="elements">
<g id="Subtract">
<path d="M5.83203 11.456C5.83203 11.5911 5.83203 11.6586 5.86383 11.708C5.89563 11.7575 5.96171 11.7876 6.09386 11.8478C6.24138 11.915 6.42856 12.007 6.68115 12.1326L6.88047 12.2317C7.15597 12.3687 7.29371 12.4372 7.36038 12.3826C7.42705 12.3281 7.38491 12.171 7.30065 11.8569C7.08876 11.0671 7.10107 10.1732 7.51588 9.20347C7.89947 8.3067 8.56051 7.5957 9.3599 7.12839C9.42885 7.08808 9.46333 7.06792 9.48102 7.0371C9.4987 7.00628 9.4987 6.96794 9.4987 6.89124V2.72002C9.4987 2.59946 9.4987 2.53917 9.46871 2.49077C9.43873 2.44238 9.38475 2.41554 9.27679 2.36186L7.42708 1.44213C6.98109 1.22036 6.61572 1.03868 6.30024 0.916962C6.10555 0.841842 6.0082 0.804282 5.92232 0.860624L5.91551 0.865297C5.83203 0.925137 5.83203 1.0378 5.83203 1.26312L5.83203 11.456Z" fill="white"/>
<path d="M15.1654 7.39848C15.1654 7.70038 15.1654 7.85132 15.0876 7.88696C15.0097 7.9226 14.8892 7.81863 14.6482 7.61069C13.8257 6.90107 12.7579 6.50016 11.6663 6.50016C11.3871 6.50016 11.1095 6.52639 10.8371 6.5773C10.6757 6.60747 10.595 6.62256 10.5469 6.58257C10.4987 6.54259 10.4987 6.46401 10.4987 6.30687L10.4987 2.89326C10.4987 2.83024 10.5499 2.77921 10.6129 2.77921L12.034 2.77921C12.6324 2.77919 13.1326 2.77917 13.5298 2.83376C13.9503 2.89155 14.3291 3.01881 14.6322 3.32868C14.9339 3.63703 15.0564 4.01963 15.1123 4.44421C15.1654 4.84804 15.1654 5.35728 15.1654 5.97058V7.39848Z" fill="white"/>
<path d="M4.83203 1.30508C4.83203 1.08672 4.83203 0.977544 4.7548 0.917491C4.7459 0.91057 4.73391 0.902899 4.72389 0.897721C4.63699 0.852786 4.54536 0.895107 4.36209 0.979748C4.05487 1.12164 3.70157 1.32659 3.27019 1.57685L2.41116 2.07517C2.09911 2.25617 1.83368 2.41014 1.62592 2.56016C1.40435 2.72016 1.21673 2.89716 1.07868 3.13948C0.940965 3.38123 0.883549 3.63365 0.857008 3.90718C0.832014 4.16476 0.832022 4.47565 0.832032 4.84308V10.3358C0.832023 10.8219 0.832016 11.2238 0.862961 11.5381C0.894209 11.8555 0.963202 12.1744 1.17092 12.4321C1.39738 12.713 1.71662 12.9041 2.07219 12.9675C2.40093 13.0262 2.7125 12.9276 2.9997 12.7979C3.28364 12.6697 3.66482 12.4486 4.07751 12.2092C4.26626 12.0997 4.4351 12.0017 4.59264 11.9203C4.71333 11.858 4.77368 11.8268 4.80286 11.7789C4.83203 11.7309 4.83203 11.6679 4.83203 11.5418L4.83203 1.30508Z" fill="white"/>
</g>
<path id="Subtract_2" fill-rule="evenodd" clip-rule="evenodd" d="M11.6644 7.5C10.2947 7.5 8.98413 8.309 8.43337 9.59658C7.91805 10.8013 8.20397 11.8332 8.77156 12.6911C9.22787 13.3808 9.89373 13.9962 10.4694 14.5282L10.4694 14.5282L10.4695 14.5283L10.4696 14.5284C10.5778 14.6284 10.6829 14.7255 10.7827 14.8196L10.7838 14.8206C11.0226 15.0442 11.3386 15.1667 11.6644 15.1667C11.9902 15.1667 12.3062 15.0442 12.545 14.8206C12.6398 14.7318 12.7391 14.6404 12.8413 14.5463L12.8413 14.5463C13.4228 14.0109 14.0973 13.3897 14.5584 12.6913C15.1252 11.8327 15.4102 10.7999 14.8955 9.59658C14.3447 8.309 13.0342 7.5 11.6644 7.5ZM11.6581 9.66667C10.925 9.66667 10.3307 10.2636 10.3307 11C10.3307 11.7364 10.925 12.3333 11.6581 12.3333H11.67C12.4031 12.3333 12.9974 11.7364 12.9974 11C12.9974 10.2636 12.4031 9.66667 11.67 9.66667H11.6581Z" fill="white"/>
</g>
</svg>
