<svg width="28" height="28" viewBox="0 0 28 28" fill="none" xmlns="http://www.w3.org/2000/svg">
<g id="Social icon">
<path id="Vector" d="M20.0394 10.1075C21.84 11.3992 24.0458 12.1593 26.4281 12.1593V7.55854C25.9773 7.55864 25.5276 7.51146 25.0865 7.41767V11.0391C22.7043 11.0391 20.4988 10.2791 18.6977 8.98747V18.3762C18.6977 23.0729 14.9038 26.8801 10.2241 26.8801C8.47797 26.8801 6.85502 26.3503 5.50684 25.4417C7.04557 27.0206 9.19144 28.0001 11.5655 28.0001C16.2455 28.0001 20.0396 24.193 20.0396 19.4961V10.1075H20.0394ZM21.6945 5.46599C20.7743 4.45709 20.1701 3.15328 20.0394 1.71187V1.12012H18.768C19.088 2.95216 20.1796 4.51734 21.6945 5.46599ZM8.46677 21.8376C7.95265 21.1611 7.67482 20.3335 7.67607 19.4826C7.67607 17.3345 9.41137 15.5928 11.5523 15.5928C11.9513 15.5927 12.3479 15.654 12.7281 15.7751V11.0716C12.2837 11.0104 11.8353 10.9845 11.387 10.994V14.655C11.0065 14.5339 10.6097 14.4724 10.2106 14.4728C8.0697 14.4728 6.33449 16.2143 6.33449 18.3627C6.33449 19.8818 7.20185 21.1969 8.46677 21.8376Z" fill="#FF004F"/>
<path id="Vector_2" d="M18.6978 8.98737C20.4988 10.279 22.7043 11.039 25.0865 11.039V7.41757C23.7568 7.13332 22.5796 6.43597 21.6946 5.46599C20.1796 4.51725 19.0881 2.95206 18.768 1.12012H15.4283V19.4959C15.4208 21.6381 13.6884 23.3727 11.5521 23.3727C10.2932 23.3727 9.17484 22.7705 8.46654 21.8376C7.20171 21.1969 6.33435 19.8817 6.33435 18.3628C6.33435 16.2146 8.06956 14.4729 10.2105 14.4729C10.6206 14.4729 11.016 14.537 11.3869 14.6551V10.9941C6.78932 11.0894 3.0918 14.8594 3.0918 19.496C3.0918 21.8105 4.01257 23.9087 5.50699 25.4418C6.85517 26.3503 8.47812 26.8802 10.2242 26.8802C14.9041 26.8802 18.6979 23.0728 18.6979 18.3762V8.98737H18.6978Z" fill="black"/>
<path id="Vector_3" d="M25.0863 7.41744V6.43823C23.8872 6.44006 22.7117 6.10306 21.6944 5.46576C22.5949 6.45524 23.7808 7.13751 25.0863 7.41744ZM18.7678 1.11998C18.7373 0.944897 18.7138 0.76866 18.6976 0.59175V0H14.0864V18.3759C14.079 20.5179 12.3467 22.2525 10.2102 22.2525C9.583 22.2525 8.99078 22.1031 8.46632 21.8376C9.17463 22.7703 10.293 23.3725 11.5519 23.3725C13.688 23.3725 15.4207 21.6381 15.4281 19.4958V1.11998H18.7678ZM11.3868 10.994V9.95154C11.0015 9.89869 10.6131 9.87217 10.2241 9.87236C5.5439 9.87226 1.75 13.6796 1.75 18.3759C1.75 21.3203 3.24107 23.9151 5.50686 25.4415C4.01244 23.9085 3.09168 21.8102 3.09168 19.4957C3.09168 14.8593 6.78911 11.0893 11.3868 10.994Z" fill="#00F2EA"/>
</g>
</svg>
