<svg width="28" height="28" viewBox="0 0 28 28" fill="none" xmlns="http://www.w3.org/2000/svg">
<g id="Social icon" clip-path="url(#clip0_1110_5569)">
<path id="Vector" d="M27.4424 7.21623C27.2841 6.62055 26.9721 6.07689 26.5377 5.63966C26.1032 5.20244 25.5616 4.88698 24.9669 4.72487C22.7778 4.13623 14.0278 4.13623 14.0278 4.13623C14.0278 4.13623 5.27783 4.13623 3.08874 4.72487C2.49408 4.88698 1.95243 5.20244 1.518 5.63966C1.08357 6.07689 0.771589 6.62055 0.613287 7.21623C0.0278321 9.41487 0.027832 13.9999 0.027832 13.9999C0.027832 13.9999 0.0278321 18.5849 0.613287 20.7835C0.771589 21.3792 1.08357 21.9228 1.518 22.3601C1.95243 22.7973 2.49408 23.1128 3.08874 23.2749C5.27783 23.8635 14.0278 23.8635 14.0278 23.8635C14.0278 23.8635 22.7778 23.8635 24.9669 23.2749C25.5616 23.1128 26.1032 22.7973 26.5377 22.3601C26.9721 21.9228 27.2841 21.3792 27.4424 20.7835C28.0278 18.5849 28.0278 13.9999 28.0278 13.9999C28.0278 13.9999 28.0278 9.41487 27.4424 7.21623Z" fill="#FF0302"/>
<path id="Vector_2" d="M11.1641 18.1637V9.83691L18.4822 14.0003L11.1641 18.1637Z" fill="#FEFEFE"/>
</g>
<defs>
<clipPath id="clip0_1110_5569">
<rect width="28" height="28" fill="white"/>
</clipPath>
</defs>
</svg>
