<svg width="24" height="24" viewBox="0 0 24 24" fill="none" xmlns="http://www.w3.org/2000/svg">
<g id="Type=Filled, State=Active, Icon Name=&#208;&#154;&#208;&#176;&#209;&#128;&#209;&#130;&#208;&#176;">
<g id="elements">
<g id="Subtract">
<path d="M8.75 17.184C8.75 17.3866 8.75 17.4879 8.7977 17.5621C8.84539 17.6362 8.94451 17.6814 9.14275 17.7717C9.36402 17.8725 9.6448 18.0105 10.0237 18.1989L10.3227 18.3475C10.7359 18.553 10.9425 18.6558 11.0425 18.5739C11.1425 18.4921 11.0793 18.2565 10.9529 17.7854C10.6351 16.6007 10.6536 15.2598 11.2758 13.8052C11.8512 12.46 12.8427 11.3936 14.0418 10.6926C14.1452 10.6321 14.197 10.6019 14.2235 10.5557C14.25 10.5094 14.25 10.4519 14.25 10.3369V4.08004C14.25 3.89919 14.25 3.80876 14.205 3.73616C14.16 3.66356 14.0791 3.6233 13.9171 3.54278L11.1426 2.16319C10.4736 1.83054 9.92553 1.55802 9.45232 1.37544C9.16028 1.26276 9.01425 1.20642 8.88544 1.29094L8.87522 1.29795C8.75 1.38771 8.75 1.5567 8.75 1.89468L8.75 17.184Z" fill="#6656DB"/>
<path d="M22.75 11.0977C22.75 11.5506 22.75 11.777 22.6333 11.8304C22.5166 11.8839 22.3358 11.7279 21.9743 11.416C20.7405 10.3516 19.1388 9.75024 17.5015 9.75024C17.0827 9.75024 16.6662 9.78959 16.2576 9.86595C16.0155 9.91121 15.8945 9.93384 15.8222 9.87386C15.75 9.81388 15.75 9.69602 15.75 9.4603L15.75 4.33989C15.75 4.24536 15.8268 4.16881 15.9214 4.16881L18.0529 4.16881C18.9506 4.16878 19.7008 4.16875 20.2966 4.25064C20.9275 4.33732 21.4955 4.52822 21.9503 4.99302C22.4028 5.45555 22.5866 6.02944 22.6704 6.66632C22.7501 7.27205 22.75 8.03592 22.75 8.95587V11.0977Z" fill="#6656DB"/>
<path d="M7.25 1.95761C7.25 1.63008 7.25 1.46632 7.13415 1.37624C7.1208 1.36586 7.10282 1.35435 7.08779 1.34658C6.95744 1.27918 6.81999 1.34266 6.54509 1.46962C6.08426 1.68246 5.55431 1.98989 4.90724 2.36527L3.6187 3.11275C3.15062 3.38426 2.75247 3.61521 2.44084 3.84024C2.10848 4.08024 1.82705 4.34574 1.61998 4.70922C1.4134 5.07184 1.32728 5.45047 1.28746 5.86077C1.24997 6.24714 1.24999 6.71348 1.25 7.26462V15.5037C1.24999 16.2328 1.24998 16.8357 1.29639 17.3072C1.34327 17.7833 1.44676 18.2616 1.75833 18.6481C2.09802 19.0696 2.57688 19.3561 3.11024 19.4513C3.60335 19.5393 4.0707 19.3913 4.5015 19.1968C4.92742 19.0046 5.49919 18.6729 6.11822 18.3137C6.40134 18.1495 6.6546 18.0026 6.89091 17.8805C7.07195 17.7869 7.16247 17.7402 7.20624 17.6683C7.25 17.5964 7.25 17.5018 7.25 17.3127L7.25 1.95761Z" fill="#6656DB"/>
</g>
<path id="Subtract_2" fill-rule="evenodd" clip-rule="evenodd" d="M17.5005 11.25C15.4459 11.25 13.4801 12.4635 12.654 14.3949C11.881 16.202 12.3099 17.7499 13.1612 19.0367C13.8457 20.0712 14.8445 20.9943 15.708 21.7923L15.708 21.7924C15.8705 21.9425 16.0281 22.0882 16.178 22.2294L16.1797 22.2309C16.5378 22.5663 17.0118 22.75 17.5005 22.75C17.9893 22.75 18.4633 22.5663 18.8214 22.2309C18.9636 22.0978 19.1125 21.9606 19.2658 21.8195L19.2659 21.8194L19.2659 21.8194L19.2659 21.8194C20.1381 21.0163 21.1499 20.0846 21.8415 19.037C22.6917 17.749 23.1191 16.1998 22.3471 14.3949C21.521 12.4635 19.5552 11.25 17.5005 11.25ZM17.4911 14.5C16.3914 14.5 15.5 15.3954 15.5 16.5C15.5 17.6046 16.3914 18.5 17.4911 18.5H17.5089C18.6086 18.5 19.5 17.6046 19.5 16.5C19.5 15.3954 18.6086 14.5 17.5089 14.5H17.4911Z" fill="#6656DB"/>
</g>
</g>
</svg>
