<svg width="36" height="36" viewBox="0 0 36 36" fill="none" xmlns="http://www.w3.org/2000/svg">
<g id="icon" clip-path="url(#clip0_392_14932)">
<g id="17-flag">
<path id="Vector" d="M29.25 22.5L27.375 24.375L28.5 27L25.5 25.5L22.5 27L23.625 24.375L21.75 22.5H24L25.5 20.25L27 22.5H29.25Z" fill="#D6E0FB"/>
<path id="Vector_2" d="M14.25 22.5L12.375 24.375L13.5 27L10.5 25.5L7.5 27L8.625 24.375L6.75 22.5H9L10.5 20.25L12 22.5H14.25Z" fill="#D6E0FB"/>
<path id="Vector_3" d="M24 11.25L21 14.25L22.5 19.5L18 16.5L13.5 19.5L15 14.25L12 11.25H15.75L18 7.5L20.25 11.25H24Z" fill="#FFDC56"/>
<path id="Vector_4" d="M33 3.00017V4.50017C33.0007 4.66481 32.9466 4.825 32.8461 4.9554C32.7455 5.0858 32.6044 5.17897 32.445 5.22017C32.3823 5.24164 32.3163 5.2518 32.25 5.25017H3.75001C3.68374 5.2518 3.61772 5.24164 3.55501 5.22017C3.3956 5.17897 3.25448 5.0858 3.15396 4.9554C3.05345 4.825 2.99927 4.66481 3.00001 4.50017V3.00017C2.99927 2.83553 3.05345 2.67534 3.15396 2.54494C3.25448 2.41454 3.3956 2.32137 3.55501 2.28017C3.61772 2.2587 3.68374 2.24854 3.75001 2.25017H32.25C32.3163 2.24854 32.3823 2.2587 32.445 2.28017C32.6044 2.32137 32.7455 2.41454 32.8461 2.54494C32.9466 2.67534 33.0007 2.83553 33 3.00017Z" fill="#D6E0FB"/>
<path id="Vector_5" d="M3.555 2.28C3.39559 2.3212 3.25447 2.41437 3.15396 2.54477C3.05344 2.67517 2.99927 2.83536 3 3V4.5C2.99927 4.66464 3.05344 4.82483 3.15396 4.95523C3.25447 5.08563 3.39559 5.1788 3.555 5.22L3.5475 5.25C3.2925 6.15 2.805 6.75 2.25 6.75C1.425 6.75 0.75 5.4075 0.75 3.75C0.75 2.0925 1.425 0.75 2.25 0.75C2.805 0.75 3.2925 1.35 3.5475 2.25L3.555 2.28Z" fill="#FFDC56"/>
<path id="Vector_6" d="M33.7501 0.75C34.5751 0.75 35.2501 2.0925 35.2501 3.75C35.2501 5.4075 34.5751 6.75 33.7501 6.75C33.1951 6.75 32.7076 6.15 32.4526 5.25L32.4451 5.22C32.6045 5.1788 32.7456 5.08563 32.8461 4.95523C32.9466 4.82483 33.0008 4.66464 33.0001 4.5V3C33.0008 2.83536 32.9466 2.67517 32.8461 2.54477C32.7456 2.41437 32.6045 2.3212 32.4451 2.28L32.4526 2.25C32.7076 1.35 33.1951 0.75 33.7501 0.75Z" fill="#FFDC56"/>
<path id="Vector_7" d="M6.75 22.5L8.625 24.375L7.5 27L10.5 25.5L13.5 27L12.375 24.375L14.25 22.5H12L10.5 20.25L9 22.5H6.75ZM18 7.5L15.75 11.25H12L15 14.25L13.5 19.5L18 16.5L22.5 19.5L21 14.25L24 11.25H20.25L18 7.5ZM29.25 22.5H27L25.5 20.25L24 22.5H21.75L23.625 24.375L22.5 27L25.5 25.5L28.5 27L27.375 24.375L29.25 22.5ZM31.5 5.25V35.25L18 27.75L4.5 35.25V5.25H31.5Z" fill="#A166F5"/>
<path id="Vector_8" d="M32.445 3.72C32.3823 3.74147 32.3163 3.75163 32.25 3.75H3.75001C3.68374 3.75163 3.61772 3.74147 3.55501 3.72C3.3956 3.6788 3.25448 3.58563 3.15396 3.45523C3.05345 3.32483 2.99927 3.16464 3.00001 3V4.5C2.99927 4.66464 3.05345 4.82483 3.15396 4.95523C3.25448 5.08563 3.3956 5.1788 3.55501 5.22C3.61772 5.24147 3.68374 5.25163 3.75001 5.25H32.25C32.3163 5.25163 32.3823 5.24147 32.445 5.22C32.6044 5.1788 32.7455 5.08563 32.8461 4.95523C32.9466 4.82483 33.0007 4.66464 33 4.5V3C33.0007 3.16464 32.9466 3.32483 32.8461 3.45523C32.7455 3.58563 32.6044 3.6788 32.445 3.72Z" fill="#BDC3F4"/>
<path id="Vector_9" d="M34.5001 3.75C34.5001 2.5065 33.8251 1.5 33.0001 1.5C32.9083 1.50595 32.8178 1.52411 32.7308 1.554C32.6135 1.77539 32.5202 2.00872 32.4526 2.25L32.4451 2.28C32.6045 2.3212 32.7456 2.41437 32.8461 2.54477C32.9466 2.67517 33.0008 2.83536 33.0001 3V4.5C33.0008 4.66464 32.9466 4.82483 32.8461 4.95523C32.7456 5.08563 32.6045 5.1788 32.4451 5.22L32.4526 5.25C32.5202 5.49128 32.6135 5.72461 32.7308 5.946C32.8178 5.97589 32.9083 5.99405 33.0001 6C33.8251 6 34.5001 4.99275 34.5001 3.75Z" fill="#FFB337"/>
<path id="Vector_10" d="M1.5 3.75C1.5 2.5065 2.175 1.5 3 1.5C3.09175 1.50595 3.1823 1.52411 3.26925 1.554C3.3866 1.77539 3.47989 2.00872 3.5475 2.25L3.555 2.28C3.39559 2.3212 3.25447 2.41437 3.15396 2.54477C3.05344 2.67517 2.99927 2.83536 3 3V4.5C2.99927 4.66464 3.05344 4.82483 3.15396 4.95523C3.25447 5.08563 3.39559 5.1788 3.555 5.22L3.5475 5.25C3.47989 5.49128 3.3866 5.72461 3.26925 5.946C3.1823 5.97589 3.09175 5.99405 3 6C2.175 6 1.5 4.99275 1.5 3.75Z" fill="#FFB337"/>
<path id="Vector_11" d="M4.5 35.25L18 27.75L31.5 35.25V5.25H4.5V35.25ZM5.625 6.375H30.375V33.3383L18.5468 26.7668C18.3795 26.6738 18.1913 26.625 18 26.625C17.8087 26.625 17.6205 26.6738 17.4532 26.7668L5.625 33.3383V6.375Z" fill="#FFCA46"/>
<path id="Vector_12" d="M22.5001 20.2498C22.6162 20.2499 22.7308 20.223 22.8348 20.1712C22.9387 20.1195 23.0293 20.0443 23.0992 19.9516C23.1692 19.8588 23.2166 19.7512 23.2379 19.637C23.2591 19.5228 23.2535 19.4052 23.2216 19.2936L21.8423 14.4681L24.5303 11.7801C24.6352 11.6752 24.7066 11.5416 24.7355 11.3961C24.7644 11.2506 24.7496 11.0999 24.6928 10.9628C24.6361 10.8258 24.54 10.7087 24.4167 10.6263C24.2934 10.5439 24.1484 10.4999 24.0001 10.4998H20.6746L18.6428 7.11358C18.5713 7.00917 18.4753 6.92376 18.3633 6.86475C18.2514 6.80574 18.1267 6.7749 18.0001 6.7749C17.8735 6.7749 17.7488 6.80574 17.6368 6.86475C17.5248 6.92376 17.4289 7.00917 17.3573 7.11358L15.3256 10.4998H12.0001C11.8518 10.4999 11.7068 10.5439 11.5835 10.6263C11.4602 10.7087 11.3641 10.8258 11.3073 10.9628C11.2506 11.0999 11.2357 11.2506 11.2646 11.3961C11.2936 11.5416 11.365 11.6752 11.4698 11.7801L14.1578 14.4681L12.7786 19.2936C12.7362 19.4413 12.7403 19.5984 12.7901 19.7437C12.84 19.8891 12.9333 20.0156 13.0574 20.1062C13.1815 20.1967 13.3305 20.247 13.4841 20.2502C13.6377 20.2533 13.7886 20.2092 13.9163 20.1238L18.0001 17.3998L22.0838 20.1223C22.2069 20.2051 22.3518 20.2494 22.5001 20.2498ZM13.5001 19.4998L15.0001 14.2498L12.0001 11.2498H15.7501L18.0001 7.49983L20.2501 11.2498H24.0001L21.0001 14.2498L22.5001 19.4998L18.0001 16.4998L13.5001 19.4998Z" fill="#E9E9FF"/>
<path id="Vector_13" d="M20.25 11.25L18 7.5V13.5L20.25 11.25Z" fill="#FFDC56"/>
<path id="Vector_14" d="M18 7.5L15.75 11.25L18 13.5V7.5Z" fill="#FFCA46"/>
<path id="Vector_15" d="M15.75 11.25H12L18 13.5L15.75 11.25Z" fill="#FFDC56"/>
<path id="Vector_16" d="M24 11.25H20.25L18 13.5L24 11.25Z" fill="#FFCA46"/>
<path id="Vector_17" d="M21 14.25L24 11.25L18 13.5L21 14.25Z" fill="#FFB337"/>
<path id="Vector_18" d="M18 16.5L22.5 19.5L18 13.5V16.5Z" fill="#FFB337"/>
<path id="Vector_19" d="M18 13.5L22.5 19.5L21 14.25L18 13.5Z" fill="#FFCA46"/>
<path id="Vector_20" d="M13.5 19.5L18 16.5V13.5L13.5 19.5Z" fill="#FFCA46"/>
<path id="Vector_21" d="M15 14.25L13.5 19.5L18 13.5L15 14.25Z" fill="#FFB337"/>
<path id="Vector_22" d="M12 11.25L15 14.25L18 13.5L12 11.25Z" fill="#FFCA46"/>
<path id="Vector_23" d="M27 22.5L25.5 20.25V24L27 22.5Z" fill="white"/>
<path id="Vector_24" d="M25.5 20.25L24 22.5L25.5 24V20.25Z" fill="#E9E9FF"/>
<path id="Vector_25" d="M25.5 24L28.5 27L27.375 24.375L25.5 24Z" fill="#E9E9FF"/>
<path id="Vector_26" d="M24 22.5H21.75L25.5 24L24 22.5Z" fill="#D6E0FB"/>
<path id="Vector_27" d="M27.375 24.375L29.25 22.5L25.5 24L27.375 24.375Z" fill="#D6E0FB"/>
<path id="Vector_28" d="M29.25 22.5H27L25.5 24L29.25 22.5Z" fill="#E9E9FF"/>
<path id="Vector_29" d="M25.5 25.5L28.5 27L25.5 24V25.5Z" fill="#D6E0FB"/>
<path id="Vector_30" d="M21.75 22.5L23.625 24.375L25.5 24L21.75 22.5Z" fill="#C9D1F6"/>
<path id="Vector_31" d="M22.5 27L25.5 25.5V24L22.5 27Z" fill="#E9E9FF"/>
<path id="Vector_32" d="M23.625 24.375L22.5 27L25.5 24L23.625 24.375Z" fill="#D6E0FB"/>
<path id="Vector_33" d="M12 22.5L10.5 20.25V24L12 22.5Z" fill="white"/>
<path id="Vector_34" d="M10.5 20.25L9 22.5L10.5 24V20.25Z" fill="#E9E9FF"/>
<path id="Vector_35" d="M10.5 24L13.5 27L12.375 24.375L10.5 24Z" fill="#E9E9FF"/>
<path id="Vector_36" d="M9 22.5H6.75L10.5 24L9 22.5Z" fill="#D6E0FB"/>
<path id="Vector_37" d="M12.375 24.375L14.25 22.5L10.5 24L12.375 24.375Z" fill="#D6E0FB"/>
<path id="Vector_38" d="M14.25 22.5H12L10.5 24L14.25 22.5Z" fill="#E9E9FF"/>
<path id="Vector_39" d="M10.5 25.5L13.5 27L10.5 24V25.5Z" fill="#D6E0FB"/>
<path id="Vector_40" d="M6.75 22.5L8.625 24.375L10.5 24L6.75 22.5Z" fill="#C9D1F6"/>
<path id="Vector_41" d="M7.5 27L10.5 25.5V24L7.5 27Z" fill="#E9E9FF"/>
<path id="Vector_42" d="M8.625 24.375L7.5 27L10.5 24L8.625 24.375Z" fill="#D6E0FB"/>
<g id="Group">
<path id="Vector_43" d="M17.7615 3.375C17.7615 3.47446 17.801 3.56984 17.8713 3.64016C17.9416 3.71049 18.037 3.75 18.1365 3.75H29.3865C29.4859 3.75 29.5813 3.71049 29.6516 3.64016C29.722 3.56984 29.7615 3.47446 29.7615 3.375C29.7615 3.27554 29.722 3.18016 29.6516 3.10984C29.5813 3.03951 29.4859 3 29.3865 3H18.1365C18.037 3 17.9416 3.03951 17.8713 3.10984C17.801 3.18016 17.7615 3.27554 17.7615 3.375Z" fill="#EAF6FF"/>
<path id="Vector_44" d="M30.5115 3.375C30.5115 3.47446 30.551 3.56984 30.6213 3.64016C30.6916 3.71049 30.787 3.75 30.8865 3.75H31.6365C31.7359 3.75 31.8313 3.71049 31.9016 3.64016C31.972 3.56984 32.0115 3.47446 32.0115 3.375C32.0115 3.27554 31.972 3.18016 31.9016 3.10984C31.8313 3.03951 31.7359 3 31.6365 3H30.8865C30.787 3 30.6916 3.03951 30.6213 3.10984C30.551 3.18016 30.5115 3.27554 30.5115 3.375Z" fill="#EAF6FF"/>
<path id="Vector_45" d="M28.7264 10.7443C29.2073 10.2634 29.0544 9.33071 28.3848 8.66116C27.7153 7.99161 26.7826 7.8387 26.3017 8.31963C25.8208 8.80056 25.9737 9.73321 26.6432 10.4028C27.3128 11.0723 28.2454 11.2252 28.7264 10.7443Z" fill="#EAF6FF"/>
<path id="Vector_46" d="M28.8695 13.1512C29.1112 12.9096 29.0345 12.4411 28.6982 12.1049C28.362 11.7686 27.8935 11.6919 27.6519 11.9336C27.4102 12.1752 27.4869 12.6437 27.8232 12.9799C28.1594 13.3162 28.6279 13.3928 28.8695 13.1512Z" fill="#EAF6FF"/>
<path id="Vector_47" d="M5.87472 3.46255C5.99569 3.34158 5.95746 3.10723 5.78934 2.93911C5.62122 2.77099 5.38687 2.73276 5.2659 2.85373C5.14494 2.97469 5.18316 3.20904 5.35128 3.37716C5.51941 3.54528 5.75376 3.58351 5.87472 3.46255Z" fill="#EAF6FF"/>
</g>
</g>
</g>
<defs>
<clipPath id="clip0_392_14932">
<rect width="36" height="36" fill="white"/>
</clipPath>
</defs>
</svg>
