<svg width="36" height="36" viewBox="0 0 36 36" fill="none" xmlns="http://www.w3.org/2000/svg">
<g id="icon">
<g id="21-award">
<path id="Vector" d="M15.4125 27.9527L16.2 28.3502L12.75 35.2502L10.5 32.2502L6.75 33.0002L10.3125 25.8677L10.6425 25.9802L12.525 28.1552L15.4125 27.9527Z" fill="#FFAB6F"/>
<path id="Vector_2" d="M25.6875 25.875L29.25 33L25.5 32.25L23.25 35.25L19.8 28.35L20.565 27.9675L23.43 28.1775L25.3275 25.995L25.6875 25.875Z" fill="#FFAB6F"/>
<path id="Vector_3" d="M25.6875 25.875L25.3275 25.995L23.43 28.1775L20.565 27.9675L19.8 28.35L18 29.25L16.2 28.35L15.4125 27.9525L12.525 28.155L10.6425 25.98L10.3125 25.8675L7.92 25.0725L7.005 22.3275L4.8225 20.43L5.0325 17.565L3.75 15L5.0475 12.4125L4.845 9.525L7.02 7.6425L7.92 4.92L10.6725 4.005L12.57 1.8225L15.435 2.0325L18 0.75L20.5875 2.0475L23.475 1.845L25.3575 4.02L28.08 4.92L28.995 7.6725L31.1775 9.57L30.9675 12.435L32.25 15L30.9525 17.5875L31.155 20.475L28.98 22.3575L28.08 25.0725L25.6875 25.875ZM28.5 15C28.5 12.9233 27.8842 10.8932 26.7304 9.16651C25.5767 7.4398 23.9368 6.09399 22.0182 5.29926C20.0996 4.50454 17.9884 4.29661 15.9516 4.70175C13.9148 5.1069 12.0438 6.10693 10.5754 7.57538C9.10693 9.04383 8.1069 10.9148 7.70175 12.9516C7.29661 14.9884 7.50454 17.0996 8.29926 19.0182C9.09398 20.9368 10.4398 22.5767 12.1665 23.7304C13.8932 24.8842 15.9233 25.5 18 25.5C20.7848 25.5 23.4555 24.3938 25.4246 22.4246C27.3938 20.4555 28.5 17.7848 28.5 15Z" fill="#A86BFF"/>
<path id="Vector_4" d="M18 25.5C23.799 25.5 28.5 20.799 28.5 15C28.5 9.20101 23.799 4.5 18 4.5C12.201 4.5 7.5 9.20101 7.5 15C7.5 20.799 12.201 25.5 18 25.5Z" fill="#FFF86A"/>
<g id="Group">
<path id="Vector_5" d="M24.2256 11.4933C24.7066 11.0124 24.5537 10.0797 23.8841 9.41018C23.2146 8.74063 22.2819 8.58772 21.801 9.06865C21.32 9.54958 21.473 10.4822 22.1425 11.1518C22.8121 11.8213 23.7447 11.9743 24.2256 11.4933Z" fill="#EAF6FF"/>
<path id="Vector_6" d="M25.1188 13.8997C25.3604 13.6581 25.2837 13.1896 24.9475 12.8534C24.6112 12.5172 24.1428 12.4405 23.9011 12.6821C23.6595 12.9237 23.7362 13.3922 24.0724 13.7284C24.4087 14.0647 24.8771 14.1414 25.1188 13.8997Z" fill="#EAF6FF"/>
<path id="Vector_7" d="M24.6233 14.7208C24.7442 14.5999 24.706 14.3655 24.5379 14.1974C24.3698 14.0293 24.1354 13.9911 24.0144 14.112C23.8935 14.233 23.9317 14.4673 24.0998 14.6355C24.2679 14.8036 24.5023 14.8418 24.6233 14.7208Z" fill="#EAF6FF"/>
</g>
<path id="Vector_8" d="M11.826 29.5981L10.5 32.2501L12.75 35.2501L15.2685 30.2124L12.525 30.4051L11.826 29.5981Z" fill="#FF8F75"/>
<path id="Vector_9" d="M23.43 30.4275L20.7405 30.2303L23.25 35.25L25.5 32.25L24.1657 29.5815L23.43 30.4275Z" fill="#FF8F75"/>
<path id="Vector_10" d="M10.6424 28.2302L11.8259 29.5982L12.5481 28.1537L12.5249 28.1552L10.6424 25.9802L10.3124 25.8677L9.34863 27.7974L10.3124 28.1177L10.6424 28.2302Z" fill="#FF8F75"/>
<path id="Vector_11" d="M15.4124 27.9526L12.5482 28.1536L11.8259 29.5981L12.5249 30.4051L15.2684 30.2124L16.1999 28.3501L15.4124 27.9526Z" fill="#FF6D76"/>
<path id="Vector_12" d="M24.1658 29.5813L23.4518 28.1525L23.43 28.1773L20.565 27.9673L19.8 28.3498L20.7405 30.23L23.43 30.4273L24.1658 29.5813Z" fill="#FF6D76"/>
<path id="Vector_13" d="M25.3274 25.995L23.4517 28.1527L24.1657 29.5815L25.3274 28.245L25.6874 28.125L26.6512 27.8018L25.6874 25.875L25.3274 25.995Z" fill="#FF8F75"/>
<path id="Vector_14" d="M18 3C15.6266 3 13.3066 3.70379 11.3332 5.02236C9.35977 6.34094 7.8217 8.21509 6.91345 10.4078C6.0052 12.6005 5.76756 15.0133 6.23058 17.3411C6.6936 19.6689 7.83649 21.8071 9.51472 23.4853C11.193 25.1635 13.3312 26.3064 15.6589 26.7694C17.9867 27.2324 20.3995 26.9948 22.5922 26.0866C24.7849 25.1783 26.6591 23.6402 27.9776 21.6668C29.2962 19.6935 30 17.3734 30 15C30 11.8174 28.7357 8.76516 26.4853 6.51472C24.2349 4.26428 21.1826 3 18 3ZM18 25.5C15.9233 25.5 13.8932 24.8842 12.1665 23.7304C10.4398 22.5767 9.09399 20.9368 8.29927 19.0182C7.50455 17.0996 7.29661 14.9884 7.70176 12.9516C8.1069 10.9148 9.10693 9.04383 10.5754 7.57538C12.0438 6.10693 13.9148 5.1069 15.9516 4.70175C17.9884 4.29661 20.0996 4.50455 22.0182 5.29927C23.9368 6.09399 25.5767 7.4398 26.7304 9.16651C27.8842 10.8932 28.5 12.9233 28.5 15C28.5 17.7848 27.3938 20.4555 25.4246 22.4246C23.4555 24.3938 20.7848 25.5 18 25.5Z" fill="#8F62FE"/>
<path id="Vector_15" d="M10.5 10.5C10.5019 9.35515 10.6914 8.21833 11.061 7.13477C9.85313 8.19822 8.90602 9.52527 8.293 11.0133C7.67997 12.5013 7.41745 14.1104 7.52573 15.7161C7.63402 17.3218 8.11022 18.8811 8.9175 20.2733C9.72477 21.6655 10.8415 22.8534 12.1813 23.745C13.521 24.6366 15.0479 25.2081 16.6439 25.4153C18.2399 25.6224 19.8621 25.4597 21.3851 24.9396C22.9081 24.4196 24.291 23.5562 25.427 22.4162C26.5629 21.2761 27.4214 19.8901 27.936 18.3653C26.4227 19.704 24.5549 20.5771 22.5571 20.8796C20.5594 21.1821 18.5168 20.901 16.675 20.0701C14.8332 19.2393 13.2706 17.8941 12.1752 16.1964C11.0797 14.4986 10.498 12.5205 10.5 10.5Z" fill="#FFDC56"/>
<path id="Vector_16" d="M18 3.75C15.775 3.75 13.5999 4.4098 11.7498 5.64597C9.89979 6.88213 8.45785 8.63914 7.60636 10.6948C6.75487 12.7505 6.53209 15.0125 6.96617 17.1948C7.40025 19.3771 8.47171 21.3816 10.0451 22.955C11.6184 24.5283 13.623 25.5998 15.8052 26.0338C17.9875 26.4679 20.2495 26.2451 22.3052 25.3936C24.3609 24.5422 26.1179 23.1002 27.354 21.2502C28.5902 19.4001 29.25 17.225 29.25 15C29.25 12.0163 28.0647 9.15483 25.955 7.04505C23.8452 4.93526 20.9837 3.75 18 3.75ZM18 25.5C15.9233 25.5 13.8932 24.8842 12.1665 23.7304C10.4398 22.5767 9.09399 20.9368 8.29927 19.0182C7.50455 17.0996 7.29661 14.9884 7.70176 12.9516C8.1069 10.9148 9.10693 9.04383 10.5754 7.57538C12.0438 6.10693 13.9148 5.1069 15.9516 4.70175C17.9884 4.29661 20.0996 4.50454 22.0182 5.29926C23.9368 6.09398 25.5767 7.4398 26.7304 9.16651C27.8842 10.8932 28.5 12.9233 28.5 15C28.5 17.7848 27.3938 20.4555 25.4246 22.4246C23.4555 24.3938 20.7848 25.5 18 25.5Z" fill="#805BFF"/>
</g>
</g>
</svg>
