<svg width="36" height="36" viewBox="0 0 36 36" fill="none" xmlns="http://www.w3.org/2000/svg">
<g id="icon" clip-path="url(#clip0_392_14886)">
<g id="23-award">
<path id="Vector" d="M12.75 5.25V8.0625C10.6263 8.64921 8.43565 8.95928 6.2325 8.985C2.19 8.8275 1.5 6.75 1.5 6.75L4.5 6L2.4075 5.3325C1.91017 5.08172 1.49203 4.69809 1.19946 4.22414C0.906885 3.7502 0.751313 3.20447 0.75 2.6475V0.75C0.75 0.75 8.25 5.25 12.75 5.25Z" fill="#FF8F75"/>
<path id="Vector_2" d="M34.5 6.75C34.5 6.75 33.81 8.8275 29.7675 8.985C27.5644 8.95928 25.3737 8.64921 23.25 8.0625V5.25C27.75 5.25 35.25 0.75 35.25 0.75V2.6475C35.2487 3.20447 35.0931 3.7502 34.8005 4.22414C34.508 4.69809 34.0898 5.08172 33.5925 5.3325L31.5 6L34.5 6.75Z" fill="#FF8F75"/>
<path id="Vector_3" d="M23.25 5.25V8.0625C19.365 6.96 18 5.25 18 5.25C18 5.25 16.635 6.96 12.75 8.0625V1.6875L15.9 3.75L18 0.75L20.1 3.75L23.25 1.6875V5.25Z" fill="#FFDC56"/>
<path id="Vector_4" d="M18.885 31.7027L18 32.2502L17.1375 31.6652L13.4925 29.1977C11.8644 28.0726 10.5358 26.5669 9.62218 24.8115C8.70852 23.0561 8.23748 21.1041 8.25 19.1252V11.2502C10.6526 11.3185 13.0445 10.9054 15.285 10.0352L18 12.7502L20.715 10.0352C22.9555 10.9054 25.3474 11.3185 27.75 11.2502V19.3877C27.766 21.4504 27.2549 23.4831 26.2653 25.2931C25.2757 27.1031 23.8402 28.6303 22.095 29.7302L18.885 31.7027Z" fill="#E9E9FF"/>
<path id="Vector_5" d="M29.7675 8.985C30.09 8.9925 30.4125 9 30.75 9V19.17C30.7507 21.7827 30.0688 24.3503 28.7717 26.6182C27.4745 28.8862 25.6073 30.7759 23.355 32.1L20.325 33.8775L20.25 33.75L18.885 31.7025L22.095 29.73C23.8402 28.6302 25.2757 27.1029 26.2653 25.293C27.2549 23.483 27.766 21.4503 27.75 19.3875V11.25C25.3474 11.3183 22.9555 10.9052 20.715 10.035C19.6802 9.66589 18.7491 9.05374 18 8.25C17.2509 9.05374 16.3198 9.66589 15.285 10.035C13.0445 10.9052 10.6526 11.3183 8.25 11.25V19.125C8.23748 21.1039 8.70852 23.0559 9.62218 24.8114C10.5358 26.5668 11.8644 28.0725 13.4925 29.1975L17.1375 31.665L15.75 33.75L15.7275 33.78L12.0975 31.4325C9.99613 30.0715 8.26875 28.2063 7.07273 26.0068C5.87672 23.8074 5.25011 21.3436 5.25 18.84V9C5.5875 9 5.91 8.9925 6.2325 8.985C8.43565 8.95928 10.6263 8.64921 12.75 8.0625C16.635 6.96 18 5.25 18 5.25C18 5.25 19.365 6.96 23.25 8.0625C25.3737 8.64921 27.5644 8.95928 29.7675 8.985Z" fill="#A166F5"/>
<path id="Vector_6" d="M18 5.25C18 5.25 19.365 6.96 23.25 8.0625V6.5625C19.365 5.46 18 3.75 18 3.75C18 3.75 16.635 5.46 12.75 6.5625V8.0625C16.635 6.96 18 5.25 18 5.25Z" fill="#FFB337"/>
<path id="Vector_7" d="M27.7499 10.125C25.4973 10.1887 23.2543 9.80638 21.1499 8.99998C20.3033 8.69249 19.5338 8.20445 18.8947 7.56973C18.79 7.43603 18.6566 7.32763 18.5043 7.25259C18.352 7.17754 18.1847 7.13777 18.0149 7.13623C17.8444 7.13762 17.6762 7.17579 17.5218 7.24815C17.3674 7.3205 17.2304 7.42533 17.1202 7.55548C16.4793 8.19866 15.704 8.69197 14.8499 8.99998C12.7456 9.80621 10.5026 10.1885 8.24994 10.125C7.95157 10.125 7.66542 10.2435 7.45444 10.4545C7.24346 10.6655 7.12494 10.9516 7.12494 11.25V19.125C7.10755 21.2886 7.62153 23.4234 8.62177 25.342C9.622 27.2606 11.0779 28.9044 12.8617 30.129L17.3684 33.1807C17.5482 33.3027 17.7595 33.37 17.9767 33.3746C18.1939 33.3791 18.4077 33.3206 18.5924 33.2062L22.6837 30.6885C24.5894 29.4845 26.1576 27.8155 27.2407 25.8386C28.3237 23.8616 28.8861 21.6417 28.8749 19.3875V11.25C28.8749 10.9516 28.7564 10.6655 28.5454 10.4545C28.3345 10.2435 28.0483 10.125 27.7499 10.125ZM27.7499 19.3875C27.7659 21.4503 27.2549 23.483 26.2652 25.2929C25.2756 27.1029 23.8401 28.6302 22.0949 29.73L18.8849 31.7025L17.9999 32.25L17.1374 31.665L13.4924 29.1975C11.8644 28.0724 10.5358 26.5668 9.62211 24.8113C8.70846 23.0559 8.23742 21.1039 8.24994 19.125V11.25C10.6525 11.3183 13.0445 10.9052 15.2849 10.035C16.3198 9.66587 17.2509 9.05372 17.9999 8.24998C18.749 9.05372 19.6801 9.66587 20.7149 10.035C22.9554 10.9052 25.3474 11.3183 27.7499 11.25V19.3875Z" fill="#7655FF"/>
<path id="Vector_8" d="M18 8.25C17.2509 9.05374 16.3198 9.66589 15.285 10.035C13.0445 10.9052 10.6526 11.3183 8.25 11.25V19.125C8.23748 21.1039 8.70852 23.0559 9.62218 24.8114C10.5358 26.5668 11.8644 28.0725 13.4925 29.1975L17.1375 31.665L18 32.25L18.885 31.7025L22.095 29.73C23.8402 28.6302 25.2757 27.1029 26.2653 25.293C27.2549 23.483 27.766 21.4503 27.75 19.3875V11.25C25.3474 11.3183 22.9555 10.9052 20.715 10.035C19.6802 9.66589 18.7491 9.05374 18 8.25ZM26.625 19.3875C26.6375 21.2573 26.1742 23.0995 25.2788 24.7409C24.3833 26.3824 23.0851 27.7691 21.5062 28.7708L18.2963 30.7433L18.0315 30.9075L14.127 28.2638C12.6476 27.2456 11.4406 25.88 10.6121 24.2866C9.78356 22.6932 9.35877 20.9208 9.375 19.125V12.3525C11.5482 12.3079 13.6961 11.8761 15.7178 11.0775C16.5319 10.7464 17.2991 10.3102 18 9.78C18.6994 10.3084 19.4652 10.7426 20.2778 11.0715C22.3004 11.8728 24.4499 12.3066 26.625 12.3525V19.3875Z" fill="#C9D1F6"/>
<path id="Vector_9" d="M20.325 33.8775L18 35.25L15.7275 33.78L15.75 33.75L17.1375 31.665L18 32.25L18.885 31.7025L20.25 33.75L20.325 33.8775Z" fill="#FFDC56"/>
<path id="Vector_10" d="M20.7149 10.035L17.9999 12.75L15.2849 10.035C16.3197 9.66589 17.2508 9.05374 17.9999 8.25C18.749 9.05374 19.6801 9.66589 20.7149 10.035Z" fill="#FFDC56"/>
<path id="Vector_11" d="M19.7054 9.5445C19.0632 9.21991 18.4853 8.78128 17.9999 8.25C17.5146 8.78128 16.9367 9.21991 16.2944 9.5445L17.9999 11.25L19.7054 9.5445Z" fill="#FF8F75"/>
<path id="Vector_12" d="M16.134 10.8838C15.9967 10.9468 15.867 11.0113 15.7178 11.0735C14.0801 11.727 12.3521 12.1264 10.5938 12.2578C10.97 15.7773 12.4686 19.0825 14.8679 21.6848C17.2672 24.2871 20.44 26.0485 23.9175 26.7088C25.6672 24.671 26.6279 22.0732 26.625 19.3873V12.3523C24.4499 12.3064 22.3004 11.8726 20.2778 11.0713C20.1278 11.0098 20.0018 10.946 19.866 10.8838L18 12.7498L16.134 10.8838Z" fill="white"/>
<path id="Vector_13" d="M19.6147 32.7968L18.885 31.7025L18 32.25L17.1375 31.665L16.4272 32.7323L18 33.75L19.6147 32.7968Z" fill="#FF8F75"/>
<path id="Vector_14" d="M35.25 2.6475V0.75C35.25 0.75 27.75 5.25 23.25 5.25V8.0625C24.0037 8.27971 24.7689 8.45497 25.542 8.5875C25.6393 7.87165 25.9925 7.21522 26.5362 6.73957C27.08 6.26392 27.7776 6.00121 28.5 6H31.5L33.5925 5.3325C34.0898 5.08172 34.508 4.69809 34.8005 4.22414C35.0931 3.7502 35.2487 3.20447 35.25 2.6475Z" fill="#FFAB6F"/>
<path id="Vector_15" d="M0.75 2.6475V0.75C0.75 0.75 8.25 5.25 12.75 5.25V8.0625C11.9963 8.27971 11.2311 8.45497 10.458 8.5875C10.3607 7.87165 10.0075 7.21522 9.46377 6.73957C8.92001 6.26392 8.22244 6.00121 7.5 6H4.5L2.4075 5.3325C1.91017 5.08172 1.49203 4.69809 1.19946 4.22414C0.906885 3.7502 0.751313 3.20447 0.75 2.6475Z" fill="#FFAB6F"/>
<path id="Vector_16" d="M22.1205 5.63891C22.3621 5.39719 22.2852 4.92876 21.9489 4.59263C21.6125 4.25651 21.144 4.17998 20.9025 4.4217C20.6609 4.66342 20.7378 5.13186 21.0741 5.46798C21.4105 5.80411 21.879 5.88063 22.1205 5.63891Z" fill="#EAF6FF"/>
<path id="Vector_17" d="M13.1205 22.8889C13.3621 22.6472 13.2852 22.1788 12.9489 21.8426C12.6125 21.5065 12.144 21.43 11.9025 21.6717C11.6609 21.9134 11.7378 22.3819 12.0741 22.718C12.4105 23.0541 12.879 23.1306 13.1205 22.8889Z" fill="white"/>
<path id="Vector_18" d="M14.8744 4.96079C14.9953 4.83979 14.957 4.60545 14.7888 4.43739C14.6206 4.26932 14.3863 4.23118 14.2653 4.35219C14.1444 4.47319 14.1827 4.70753 14.3509 4.87559C14.5191 5.04365 14.7534 5.0818 14.8744 4.96079Z" fill="#EAF6FF"/>
<path id="Vector_19" d="M15.9764 25.7324C16.4572 25.2513 16.304 24.3187 15.6342 23.6494C14.9644 22.9801 14.0317 22.8275 13.5509 23.3086C13.0702 23.7897 13.2234 24.7223 13.8932 25.3916C14.563 26.0609 15.4957 26.2135 15.9764 25.7324Z" fill="white"/>
</g>
</g>
<defs>
<clipPath id="clip0_392_14886">
<rect width="36" height="36" fill="white"/>
</clipPath>
</defs>
</svg>
