<svg width="36" height="36" viewBox="0 0 36 36" fill="none" xmlns="http://www.w3.org/2000/svg">
<g id="icon" clip-path="url(#clip0_392_14931)">
<g id="19-award">
<path id="Vector" d="M7.5 27H28.5V28.5H7.5V27Z" fill="#F86B00"/>
<path id="Vector_2" d="M7.5 27V30H0.75L2.25 27.75L0.75 25.5H5.25V27H7.5Z" fill="#FFA233"/>
<path id="Vector_3" d="M35.25 25.5L33.75 27.75L35.25 30H28.5V27H30.75V25.5H35.25Z" fill="#FFA233"/>
<path id="Vector_4" d="M25.5 1.6875V8.25H10.5V1.6875L15 3.75L18 0.75L21 3.75L25.5 1.6875Z" fill="#FFDC56"/>
<path id="Vector_5" d="M6.75 12.75L8.1375 20.745L5.865 19.32C5.21757 18.9154 4.68374 18.3526 4.31374 17.6848C3.94374 17.017 3.74974 16.266 3.75 15.5025V13.935C3.27797 13.515 2.90025 12.9997 2.64171 12.4232C2.38317 11.8466 2.24967 11.2219 2.25 10.59V7.9875C1.77797 7.56746 1.40025 7.05221 1.14171 6.47567C0.883173 5.89912 0.749673 5.27436 0.750001 4.6425V0.75L4.74 2.2425C5.36825 2.4798 5.93581 2.85396 6.40151 3.33782C6.86722 3.82169 7.21939 4.40314 7.4325 5.04L8.9325 9.555L6.75 12.75Z" fill="#D6E0FB"/>
<path id="Vector_6" d="M33.7499 7.9875V10.59C33.7502 11.2219 33.6167 11.8466 33.3582 12.4232C33.0996 12.9997 32.7219 13.515 32.2499 13.935V15.5025C32.2501 16.266 32.0561 17.017 31.6861 17.6848C31.3161 18.3526 30.7823 18.9154 30.1349 19.32L27.8624 20.745L29.2499 12.75L27.0674 9.555L28.5674 5.04C28.7805 4.40314 29.1327 3.82169 29.5984 3.33782C30.0641 2.85396 30.6316 2.4798 31.2599 2.2425L35.2499 0.75V4.6425C35.2502 5.27436 35.1167 5.89912 34.8582 6.47567C34.5996 7.05221 34.2219 7.56746 33.7499 7.9875Z" fill="#D6E0FB"/>
<path id="Vector_7" d="M8.9325 9.55488L9.7875 8.31738L11.25 11.2499L9.75 13.4999L6.75 12.7499L8.9325 9.55488Z" fill="#4F4EFF"/>
<path id="Vector_8" d="M8.1375 20.745L6.75 12.75L9.75 13.5L12 28.5L9.75 30L8.1375 20.745Z" fill="#805BFF"/>
<path id="Vector_9" d="M27.0675 9.55488L29.25 12.7499L26.25 13.4999L24.75 11.2499L26.2125 8.31738L27.0675 9.55488Z" fill="#5C52FF"/>
<path id="Vector_10" d="M27.8625 20.745L26.25 30L24 28.5L26.25 13.5L29.25 12.75L27.8625 20.745Z" fill="#805BFF"/>
<path id="Vector_11" d="M26.2126 8.3175L24.7501 11.25H11.2501L9.7876 8.3175L9.8326 8.25H26.1676L26.2126 8.3175Z" fill="#805BFF"/>
<path id="Vector_12" d="M24.75 11.25L26.25 13.5L24 28.5L18 32.25L12 28.5L9.75 13.5L11.25 11.25H24.75Z" fill="#AF77FF"/>
<path id="Vector_13" d="M24.7501 11.25H11.2876C11.4679 14.7305 12.9202 18.0235 15.3688 20.5036C17.8173 22.9836 21.0915 24.478 24.5693 24.7028L26.2501 13.5L24.7501 11.25Z" fill="#B988FF"/>
<path id="Vector_14" d="M30.75 25.5V27H28.5H26.775H24.225H11.775H9.225H7.5H5.25V25.5V22.5H8.445H11.1H24.9H27.555H30.75V25.5Z" fill="#FFDC56"/>
<path id="Vector_15" d="M12 28.5L9.75 30L18 35.25V32.25L12 28.5Z" fill="#514EF0"/>
<path id="Vector_16" d="M18 32.25V35.25L26.25 30L24 28.5L18 32.25Z" fill="#5C52FF"/>
<path id="Vector_17" d="M30.75 25.5V27H28.5V27.75H33.75L35.25 25.5H30.75Z" fill="#FFB337"/>
<path id="Vector_18" d="M5.25 25.5V27H7.5V27.75H2.25L0.75 25.5H5.25Z" fill="#FFB337"/>
<path id="Vector_19" d="M6 23.25H30V26.25H6V23.25Z" fill="#FFF86A"/>
<path id="Vector_20" d="M21 3.75L18 0.75L15 3.75L10.5 1.6875V3.9375L14.052 5.56575C14.33 5.69359 14.6404 5.73336 14.9416 5.67974C15.2428 5.62612 15.5205 5.48166 15.7373 5.26575L18 3L20.2628 5.26275C20.4795 5.47866 20.7572 5.62312 21.0584 5.67674C21.3596 5.73036 21.67 5.69059 21.948 5.56275L25.5 3.9375V1.6875L21 3.75Z" fill="#FFF86A"/>
<path id="Vector_21" d="M10.5 7.5H25.5V8.25H10.5V7.5Z" fill="#FFCA46"/>
<path id="Vector_22" d="M6 15.5025V13.935C5.52797 13.515 5.15025 12.9997 4.89171 12.4232C4.63317 11.8466 4.49967 11.2219 4.5 10.59V7.9875C4.02797 7.56746 3.65025 7.05221 3.39171 6.47567C3.13317 5.89912 2.99967 5.27436 3 4.6425V1.5915L0.750001 0.75V4.6425C0.749673 5.27436 0.883173 5.89912 1.14171 6.47567C1.40025 7.05221 1.77797 7.56746 2.25 7.9875V10.59C2.24967 11.2219 2.38317 11.8466 2.64171 12.4232C2.90025 12.9997 3.27797 13.515 3.75 13.935V15.5025C3.74974 16.266 3.94374 17.017 4.31374 17.6848C4.68374 18.3526 5.21757 18.9154 5.865 19.32L8.1375 20.745L7.8585 19.1363C7.28426 18.7199 6.81658 18.1737 6.49359 17.5422C6.17061 16.9107 6.00148 16.2118 6 15.5025Z" fill="#E9E9FF"/>
<path id="Vector_23" d="M33 1.5915V5.3925C33.0004 6.02436 32.8669 6.64912 32.6083 7.22567C32.3498 7.80221 31.9721 8.31746 31.5 8.7375V11.34C31.5004 11.9719 31.3669 12.5966 31.1083 13.1732C30.8498 13.7497 30.4721 14.265 30 14.685V16.2525C29.999 16.9929 29.8154 17.7217 29.4653 18.3741C29.1152 19.0266 28.6095 19.5826 27.993 19.9928L27.8625 20.7428L30.135 19.3178C30.7822 18.9133 31.3158 18.351 31.6858 17.6835C32.0557 17.0161 32.2499 16.2656 32.25 15.5025V13.935C32.7221 13.515 33.0998 12.9997 33.3583 12.4232C33.6169 11.8466 33.7504 11.2219 33.75 10.59V7.9875C34.2221 7.56746 34.5998 7.05221 34.8583 6.47567C35.1169 5.89912 35.2504 5.27436 35.25 4.6425V0.75L33 1.5915Z" fill="#E9E9FF"/>
<path id="Vector_24" d="M12 28.5L11.775 27H9.22729L9.48904 28.5H11.775H12Z" fill="#514EF0"/>
<path id="Vector_25" d="M24.225 27L24 28.5H24.225H26.511L26.7727 27H24.225Z" fill="#514EF0"/>
<path id="Vector_26" d="M11.7749 27L11.9999 28.5H23.9999L24.2249 27H11.7749Z" fill="#805BFF"/>
<path id="Vector_27" d="M32.25 25.5V27.75H30V30H28.5V27H30.75V25.5H32.25Z" fill="#FF8D1F"/>
<path id="Vector_28" d="M3.75 25.5V27.75H6V30H7.5V27H5.25V25.5H3.75Z" fill="#FF8D1F"/>
<g id="Group">
<path id="Vector_29" d="M10.875 22.875C10.875 22.9745 10.9145 23.0698 10.9848 23.1402C11.0552 23.2105 11.1505 23.25 11.25 23.25H22.5C22.5995 23.25 22.6948 23.2105 22.7652 23.1402C22.8355 23.0698 22.875 22.9745 22.875 22.875C22.875 22.7755 22.8355 22.6802 22.7652 22.6098C22.6948 22.5395 22.5995 22.5 22.5 22.5H11.25C11.1505 22.5 11.0552 22.5395 10.9848 22.6098C10.9145 22.6802 10.875 22.7755 10.875 22.875Z" fill="#FFCA46"/>
<path id="Vector_30" d="M23.625 22.875C23.625 22.9745 23.6645 23.0698 23.7348 23.1402C23.8052 23.2105 23.9005 23.25 24 23.25H24.75C24.8495 23.25 24.9448 23.2105 25.0152 23.1402C25.0855 23.0698 25.125 22.9745 25.125 22.875C25.125 22.7755 25.0855 22.6802 25.0152 22.6098C24.9448 22.5395 24.8495 22.5 24.75 22.5H24C23.9005 22.5 23.8052 22.5395 23.7348 22.6098C23.6645 22.6802 23.625 22.7755 23.625 22.875Z" fill="#FFCA46"/>
<path id="Vector_31" d="M11.625 26.25H7.875C7.66789 26.25 7.5 26.4179 7.5 26.625C7.5 26.8321 7.66789 27 7.875 27H11.625C11.8321 27 12 26.8321 12 26.625C12 26.4179 11.8321 26.25 11.625 26.25Z" fill="#FFCA46"/>
<path id="Vector_32" d="M13.875 26.25H13.125C12.9179 26.25 12.75 26.4179 12.75 26.625C12.75 26.8321 12.9179 27 13.125 27H13.875C14.0821 27 14.25 26.8321 14.25 26.625C14.25 26.4179 14.0821 26.25 13.875 26.25Z" fill="#FFCA46"/>
</g>
<path id="Vector_33" d="M24.2242 15.2433C24.7051 14.7624 24.5522 13.8297 23.8826 13.1602C23.2131 12.4906 22.2804 12.3377 21.7995 12.8187C21.3186 13.2996 21.4715 14.2322 22.141 14.9018C22.8106 15.5713 23.7433 15.7243 24.2242 15.2433Z" fill="#EAF6FF"/>
<path id="Vector_34" d="M24.3681 17.6507C24.6097 17.4091 24.533 16.9406 24.1968 16.6044C23.8605 16.2681 23.392 16.1914 23.1504 16.4331C22.9088 16.6747 22.9855 17.1432 23.3217 17.4794C23.658 17.8157 24.1264 17.8924 24.3681 17.6507Z" fill="#EAF6FF"/>
<path id="Vector_35" d="M15.6201 19.2189C15.741 19.0979 15.7028 18.8636 15.5347 18.6955C15.3666 18.5273 15.1322 18.4891 15.0113 18.6101C14.8903 18.731 14.9285 18.9654 15.0966 19.1335C15.2648 19.3016 15.4991 19.3399 15.6201 19.2189Z" fill="#EAF6FF"/>
</g>
</g>
<defs>
<clipPath id="clip0_392_14931">
<rect width="36" height="36" fill="white"/>
</clipPath>
</defs>
</svg>
